G04 #@! TF.GenerationSoftware,KiCad,Pcbnew,(5.99.0-2415-gbbdd3fce7)*
G04 #@! TF.CreationDate,2020-08-31T16:01:40-07:00*
G04 #@! TF.ProjectId,VineHoop_Islands,56696e65-486f-46f7-905f-49736c616e64,rev?*
G04 #@! TF.SameCoordinates,Original*
G04 #@! TF.FileFunction,Soldermask,Top*
G04 #@! TF.FilePolarity,Negative*
%FSLAX46Y46*%
G04 Gerber Fmt 4.6, Leading zero omitted, Abs format (unit mm)*
G04 Created by KiCad (PCBNEW (5.99.0-2415-gbbdd3fce7)) date 2020-08-31 16:01:40*
%MOMM*%
%LPD*%
G01*
G04 APERTURE LIST*
%ADD10C,0.010000*%
%ADD11R,0.812800X0.304800*%
%ADD12R,0.304800X0.812800*%
%ADD13R,3.251200X3.251200*%
%ADD14R,0.300000X0.525000*%
%ADD15R,0.425000X0.300000*%
%ADD16R,1.060000X0.650000*%
%ADD17R,2.540000X1.270000*%
%ADD18R,0.760000X2.400000*%
%ADD19R,1.100000X1.900000*%
G04 APERTURE END LIST*
G36*
X218077617Y-58400069D02*
G01*
X218080226Y-58400274D01*
X218082822Y-58400616D01*
X218085396Y-58401093D01*
X218087941Y-58401704D01*
X218090451Y-58402447D01*
X218092918Y-58403321D01*
X218095337Y-58404323D01*
X218097700Y-58405450D01*
X218100000Y-58406699D01*
X218102232Y-58408066D01*
X218104389Y-58409549D01*
X218106466Y-58411143D01*
X218108457Y-58412843D01*
X218110355Y-58414645D01*
X218112157Y-58416543D01*
X218113857Y-58418534D01*
X218115451Y-58420611D01*
X218116934Y-58422768D01*
X218118301Y-58425000D01*
X218119550Y-58427300D01*
X218120677Y-58429663D01*
X218121679Y-58432082D01*
X218122553Y-58434549D01*
X218123296Y-58437059D01*
X218123907Y-58439604D01*
X218124384Y-58442178D01*
X218124726Y-58444774D01*
X218124931Y-58447383D01*
X218125000Y-58450000D01*
X218125000Y-58700000D01*
X218124931Y-58702617D01*
X218124726Y-58705226D01*
X218124384Y-58707822D01*
X218123907Y-58710396D01*
X218123296Y-58712941D01*
X218122553Y-58715451D01*
X218121679Y-58717918D01*
X218120677Y-58720337D01*
X218119550Y-58722700D01*
X218118301Y-58725000D01*
X218116934Y-58727232D01*
X218115451Y-58729389D01*
X218113857Y-58731466D01*
X218112157Y-58733457D01*
X218110355Y-58735355D01*
X218108457Y-58737157D01*
X218106466Y-58738857D01*
X218104389Y-58740451D01*
X218102232Y-58741934D01*
X218100000Y-58743301D01*
X218097700Y-58744550D01*
X218095337Y-58745677D01*
X218092918Y-58746679D01*
X218090451Y-58747553D01*
X218087941Y-58748296D01*
X218085396Y-58748907D01*
X218082822Y-58749384D01*
X218080226Y-58749726D01*
X218077617Y-58749931D01*
X218075000Y-58750000D01*
X217525000Y-58750000D01*
X217522383Y-58749931D01*
X217519774Y-58749726D01*
X217517178Y-58749384D01*
X217514604Y-58748907D01*
X217512059Y-58748296D01*
X217509549Y-58747553D01*
X217507082Y-58746679D01*
X217504663Y-58745677D01*
X217502300Y-58744550D01*
X217500000Y-58743301D01*
X217497768Y-58741934D01*
X217495611Y-58740451D01*
X217493534Y-58738857D01*
X217491543Y-58737157D01*
X217489645Y-58735355D01*
X217487843Y-58733457D01*
X217486143Y-58731466D01*
X217484549Y-58729389D01*
X217483066Y-58727232D01*
X217481699Y-58725000D01*
X217480450Y-58722700D01*
X217479323Y-58720337D01*
X217478321Y-58717918D01*
X217477447Y-58715451D01*
X217476704Y-58712941D01*
X217476093Y-58710396D01*
X217475616Y-58707822D01*
X217475274Y-58705226D01*
X217475069Y-58702617D01*
X217475000Y-58700000D01*
X217475000Y-58450000D01*
X217475069Y-58447383D01*
X217475274Y-58444774D01*
X217475616Y-58442178D01*
X217476093Y-58439604D01*
X217476704Y-58437059D01*
X217477447Y-58434549D01*
X217478321Y-58432082D01*
X217479323Y-58429663D01*
X217480450Y-58427300D01*
X217481699Y-58425000D01*
X217483066Y-58422768D01*
X217484549Y-58420611D01*
X217486143Y-58418534D01*
X217487843Y-58416543D01*
X217489645Y-58414645D01*
X217491543Y-58412843D01*
X217493534Y-58411143D01*
X217495611Y-58409549D01*
X217497768Y-58408066D01*
X217500000Y-58406699D01*
X217502300Y-58405450D01*
X217504663Y-58404323D01*
X217507082Y-58403321D01*
X217509549Y-58402447D01*
X217512059Y-58401704D01*
X217514604Y-58401093D01*
X217517178Y-58400616D01*
X217519774Y-58400274D01*
X217522383Y-58400069D01*
X217525000Y-58400000D01*
X218075000Y-58400000D01*
X218077617Y-58400069D01*
G37*
D10*
X218077617Y-58400069D02*
X218080226Y-58400274D01*
X218082822Y-58400616D01*
X218085396Y-58401093D01*
X218087941Y-58401704D01*
X218090451Y-58402447D01*
X218092918Y-58403321D01*
X218095337Y-58404323D01*
X218097700Y-58405450D01*
X218100000Y-58406699D01*
X218102232Y-58408066D01*
X218104389Y-58409549D01*
X218106466Y-58411143D01*
X218108457Y-58412843D01*
X218110355Y-58414645D01*
X218112157Y-58416543D01*
X218113857Y-58418534D01*
X218115451Y-58420611D01*
X218116934Y-58422768D01*
X218118301Y-58425000D01*
X218119550Y-58427300D01*
X218120677Y-58429663D01*
X218121679Y-58432082D01*
X218122553Y-58434549D01*
X218123296Y-58437059D01*
X218123907Y-58439604D01*
X218124384Y-58442178D01*
X218124726Y-58444774D01*
X218124931Y-58447383D01*
X218125000Y-58450000D01*
X218125000Y-58700000D01*
X218124931Y-58702617D01*
X218124726Y-58705226D01*
X218124384Y-58707822D01*
X218123907Y-58710396D01*
X218123296Y-58712941D01*
X218122553Y-58715451D01*
X218121679Y-58717918D01*
X218120677Y-58720337D01*
X218119550Y-58722700D01*
X218118301Y-58725000D01*
X218116934Y-58727232D01*
X218115451Y-58729389D01*
X218113857Y-58731466D01*
X218112157Y-58733457D01*
X218110355Y-58735355D01*
X218108457Y-58737157D01*
X218106466Y-58738857D01*
X218104389Y-58740451D01*
X218102232Y-58741934D01*
X218100000Y-58743301D01*
X218097700Y-58744550D01*
X218095337Y-58745677D01*
X218092918Y-58746679D01*
X218090451Y-58747553D01*
X218087941Y-58748296D01*
X218085396Y-58748907D01*
X218082822Y-58749384D01*
X218080226Y-58749726D01*
X218077617Y-58749931D01*
X218075000Y-58750000D01*
X217525000Y-58750000D01*
X217522383Y-58749931D01*
X217519774Y-58749726D01*
X217517178Y-58749384D01*
X217514604Y-58748907D01*
X217512059Y-58748296D01*
X217509549Y-58747553D01*
X217507082Y-58746679D01*
X217504663Y-58745677D01*
X217502300Y-58744550D01*
X217500000Y-58743301D01*
X217497768Y-58741934D01*
X217495611Y-58740451D01*
X217493534Y-58738857D01*
X217491543Y-58737157D01*
X217489645Y-58735355D01*
X217487843Y-58733457D01*
X217486143Y-58731466D01*
X217484549Y-58729389D01*
X217483066Y-58727232D01*
X217481699Y-58725000D01*
X217480450Y-58722700D01*
X217479323Y-58720337D01*
X217478321Y-58717918D01*
X217477447Y-58715451D01*
X217476704Y-58712941D01*
X217476093Y-58710396D01*
X217475616Y-58707822D01*
X217475274Y-58705226D01*
X217475069Y-58702617D01*
X217475000Y-58700000D01*
X217475000Y-58450000D01*
X217475069Y-58447383D01*
X217475274Y-58444774D01*
X217475616Y-58442178D01*
X217476093Y-58439604D01*
X217476704Y-58437059D01*
X217477447Y-58434549D01*
X217478321Y-58432082D01*
X217479323Y-58429663D01*
X217480450Y-58427300D01*
X217481699Y-58425000D01*
X217483066Y-58422768D01*
X217484549Y-58420611D01*
X217486143Y-58418534D01*
X217487843Y-58416543D01*
X217489645Y-58414645D01*
X217491543Y-58412843D01*
X217493534Y-58411143D01*
X217495611Y-58409549D01*
X217497768Y-58408066D01*
X217500000Y-58406699D01*
X217502300Y-58405450D01*
X217504663Y-58404323D01*
X217507082Y-58403321D01*
X217509549Y-58402447D01*
X217512059Y-58401704D01*
X217514604Y-58401093D01*
X217517178Y-58400616D01*
X217519774Y-58400274D01*
X217522383Y-58400069D01*
X217525000Y-58400000D01*
X218075000Y-58400000D01*
X218077617Y-58400069D01*
G36*
X220427617Y-57400069D02*
G01*
X220430226Y-57400274D01*
X220432822Y-57400616D01*
X220435396Y-57401093D01*
X220437941Y-57401704D01*
X220440451Y-57402447D01*
X220442918Y-57403321D01*
X220445337Y-57404323D01*
X220447700Y-57405450D01*
X220450000Y-57406699D01*
X220452232Y-57408066D01*
X220454389Y-57409549D01*
X220456466Y-57411143D01*
X220458457Y-57412843D01*
X220460355Y-57414645D01*
X220462157Y-57416543D01*
X220463857Y-57418534D01*
X220465451Y-57420611D01*
X220466934Y-57422768D01*
X220468301Y-57425000D01*
X220469550Y-57427300D01*
X220470677Y-57429663D01*
X220471679Y-57432082D01*
X220472553Y-57434549D01*
X220473296Y-57437059D01*
X220473907Y-57439604D01*
X220474384Y-57442178D01*
X220474726Y-57444774D01*
X220474931Y-57447383D01*
X220475000Y-57450000D01*
X220475000Y-57700000D01*
X220474931Y-57702617D01*
X220474726Y-57705226D01*
X220474384Y-57707822D01*
X220473907Y-57710396D01*
X220473296Y-57712941D01*
X220472553Y-57715451D01*
X220471679Y-57717918D01*
X220470677Y-57720337D01*
X220469550Y-57722700D01*
X220468301Y-57725000D01*
X220466934Y-57727232D01*
X220465451Y-57729389D01*
X220463857Y-57731466D01*
X220462157Y-57733457D01*
X220460355Y-57735355D01*
X220458457Y-57737157D01*
X220456466Y-57738857D01*
X220454389Y-57740451D01*
X220452232Y-57741934D01*
X220450000Y-57743301D01*
X220447700Y-57744550D01*
X220445337Y-57745677D01*
X220442918Y-57746679D01*
X220440451Y-57747553D01*
X220437941Y-57748296D01*
X220435396Y-57748907D01*
X220432822Y-57749384D01*
X220430226Y-57749726D01*
X220427617Y-57749931D01*
X220425000Y-57750000D01*
X219875000Y-57750000D01*
X219872383Y-57749931D01*
X219869774Y-57749726D01*
X219867178Y-57749384D01*
X219864604Y-57748907D01*
X219862059Y-57748296D01*
X219859549Y-57747553D01*
X219857082Y-57746679D01*
X219854663Y-57745677D01*
X219852300Y-57744550D01*
X219850000Y-57743301D01*
X219847768Y-57741934D01*
X219845611Y-57740451D01*
X219843534Y-57738857D01*
X219841543Y-57737157D01*
X219839645Y-57735355D01*
X219837843Y-57733457D01*
X219836143Y-57731466D01*
X219834549Y-57729389D01*
X219833066Y-57727232D01*
X219831699Y-57725000D01*
X219830450Y-57722700D01*
X219829323Y-57720337D01*
X219828321Y-57717918D01*
X219827447Y-57715451D01*
X219826704Y-57712941D01*
X219826093Y-57710396D01*
X219825616Y-57707822D01*
X219825274Y-57705226D01*
X219825069Y-57702617D01*
X219825000Y-57700000D01*
X219825000Y-57450000D01*
X219825069Y-57447383D01*
X219825274Y-57444774D01*
X219825616Y-57442178D01*
X219826093Y-57439604D01*
X219826704Y-57437059D01*
X219827447Y-57434549D01*
X219828321Y-57432082D01*
X219829323Y-57429663D01*
X219830450Y-57427300D01*
X219831699Y-57425000D01*
X219833066Y-57422768D01*
X219834549Y-57420611D01*
X219836143Y-57418534D01*
X219837843Y-57416543D01*
X219839645Y-57414645D01*
X219841543Y-57412843D01*
X219843534Y-57411143D01*
X219845611Y-57409549D01*
X219847768Y-57408066D01*
X219850000Y-57406699D01*
X219852300Y-57405450D01*
X219854663Y-57404323D01*
X219857082Y-57403321D01*
X219859549Y-57402447D01*
X219862059Y-57401704D01*
X219864604Y-57401093D01*
X219867178Y-57400616D01*
X219869774Y-57400274D01*
X219872383Y-57400069D01*
X219875000Y-57400000D01*
X220425000Y-57400000D01*
X220427617Y-57400069D01*
G37*
X220427617Y-57400069D02*
X220430226Y-57400274D01*
X220432822Y-57400616D01*
X220435396Y-57401093D01*
X220437941Y-57401704D01*
X220440451Y-57402447D01*
X220442918Y-57403321D01*
X220445337Y-57404323D01*
X220447700Y-57405450D01*
X220450000Y-57406699D01*
X220452232Y-57408066D01*
X220454389Y-57409549D01*
X220456466Y-57411143D01*
X220458457Y-57412843D01*
X220460355Y-57414645D01*
X220462157Y-57416543D01*
X220463857Y-57418534D01*
X220465451Y-57420611D01*
X220466934Y-57422768D01*
X220468301Y-57425000D01*
X220469550Y-57427300D01*
X220470677Y-57429663D01*
X220471679Y-57432082D01*
X220472553Y-57434549D01*
X220473296Y-57437059D01*
X220473907Y-57439604D01*
X220474384Y-57442178D01*
X220474726Y-57444774D01*
X220474931Y-57447383D01*
X220475000Y-57450000D01*
X220475000Y-57700000D01*
X220474931Y-57702617D01*
X220474726Y-57705226D01*
X220474384Y-57707822D01*
X220473907Y-57710396D01*
X220473296Y-57712941D01*
X220472553Y-57715451D01*
X220471679Y-57717918D01*
X220470677Y-57720337D01*
X220469550Y-57722700D01*
X220468301Y-57725000D01*
X220466934Y-57727232D01*
X220465451Y-57729389D01*
X220463857Y-57731466D01*
X220462157Y-57733457D01*
X220460355Y-57735355D01*
X220458457Y-57737157D01*
X220456466Y-57738857D01*
X220454389Y-57740451D01*
X220452232Y-57741934D01*
X220450000Y-57743301D01*
X220447700Y-57744550D01*
X220445337Y-57745677D01*
X220442918Y-57746679D01*
X220440451Y-57747553D01*
X220437941Y-57748296D01*
X220435396Y-57748907D01*
X220432822Y-57749384D01*
X220430226Y-57749726D01*
X220427617Y-57749931D01*
X220425000Y-57750000D01*
X219875000Y-57750000D01*
X219872383Y-57749931D01*
X219869774Y-57749726D01*
X219867178Y-57749384D01*
X219864604Y-57748907D01*
X219862059Y-57748296D01*
X219859549Y-57747553D01*
X219857082Y-57746679D01*
X219854663Y-57745677D01*
X219852300Y-57744550D01*
X219850000Y-57743301D01*
X219847768Y-57741934D01*
X219845611Y-57740451D01*
X219843534Y-57738857D01*
X219841543Y-57737157D01*
X219839645Y-57735355D01*
X219837843Y-57733457D01*
X219836143Y-57731466D01*
X219834549Y-57729389D01*
X219833066Y-57727232D01*
X219831699Y-57725000D01*
X219830450Y-57722700D01*
X219829323Y-57720337D01*
X219828321Y-57717918D01*
X219827447Y-57715451D01*
X219826704Y-57712941D01*
X219826093Y-57710396D01*
X219825616Y-57707822D01*
X219825274Y-57705226D01*
X219825069Y-57702617D01*
X219825000Y-57700000D01*
X219825000Y-57450000D01*
X219825069Y-57447383D01*
X219825274Y-57444774D01*
X219825616Y-57442178D01*
X219826093Y-57439604D01*
X219826704Y-57437059D01*
X219827447Y-57434549D01*
X219828321Y-57432082D01*
X219829323Y-57429663D01*
X219830450Y-57427300D01*
X219831699Y-57425000D01*
X219833066Y-57422768D01*
X219834549Y-57420611D01*
X219836143Y-57418534D01*
X219837843Y-57416543D01*
X219839645Y-57414645D01*
X219841543Y-57412843D01*
X219843534Y-57411143D01*
X219845611Y-57409549D01*
X219847768Y-57408066D01*
X219850000Y-57406699D01*
X219852300Y-57405450D01*
X219854663Y-57404323D01*
X219857082Y-57403321D01*
X219859549Y-57402447D01*
X219862059Y-57401704D01*
X219864604Y-57401093D01*
X219867178Y-57400616D01*
X219869774Y-57400274D01*
X219872383Y-57400069D01*
X219875000Y-57400000D01*
X220425000Y-57400000D01*
X220427617Y-57400069D01*
G36*
X218030234Y-56900137D02*
G01*
X218035453Y-56900548D01*
X218040643Y-56901231D01*
X218045791Y-56902185D01*
X218050882Y-56903407D01*
X218055902Y-56904894D01*
X218060837Y-56906642D01*
X218065674Y-56908645D01*
X218070399Y-56910899D01*
X218075000Y-56913397D01*
X218079464Y-56916133D01*
X218083779Y-56919098D01*
X218087932Y-56922285D01*
X218091913Y-56925686D01*
X218095711Y-56929289D01*
X218099314Y-56933087D01*
X218102715Y-56937068D01*
X218105902Y-56941221D01*
X218108867Y-56945536D01*
X218111603Y-56950000D01*
X218114101Y-56954601D01*
X218116355Y-56959326D01*
X218118358Y-56964163D01*
X218120106Y-56969098D01*
X218121593Y-56974118D01*
X218122815Y-56979209D01*
X218123769Y-56984357D01*
X218124452Y-56989547D01*
X218124863Y-56994766D01*
X218125000Y-57000000D01*
X218125000Y-57150000D01*
X218124863Y-57155234D01*
X218124452Y-57160453D01*
X218123769Y-57165643D01*
X218122815Y-57170791D01*
X218121593Y-57175882D01*
X218120106Y-57180902D01*
X218118358Y-57185837D01*
X218116355Y-57190674D01*
X218114101Y-57195399D01*
X218111603Y-57200000D01*
X218108867Y-57204464D01*
X218105902Y-57208779D01*
X218102715Y-57212932D01*
X218099314Y-57216913D01*
X218095711Y-57220711D01*
X218091913Y-57224314D01*
X218087932Y-57227715D01*
X218083779Y-57230902D01*
X218079464Y-57233867D01*
X218075000Y-57236603D01*
X218070399Y-57239101D01*
X218065674Y-57241355D01*
X218060837Y-57243358D01*
X218055902Y-57245106D01*
X218050882Y-57246593D01*
X218045791Y-57247815D01*
X218040643Y-57248769D01*
X218035453Y-57249452D01*
X218030234Y-57249863D01*
X218025000Y-57250000D01*
X217575000Y-57250000D01*
X217569766Y-57249863D01*
X217564547Y-57249452D01*
X217559357Y-57248769D01*
X217554209Y-57247815D01*
X217549118Y-57246593D01*
X217544098Y-57245106D01*
X217539163Y-57243358D01*
X217534326Y-57241355D01*
X217529601Y-57239101D01*
X217525000Y-57236603D01*
X217520536Y-57233867D01*
X217516221Y-57230902D01*
X217512068Y-57227715D01*
X217508087Y-57224314D01*
X217504289Y-57220711D01*
X217500686Y-57216913D01*
X217497285Y-57212932D01*
X217494098Y-57208779D01*
X217491133Y-57204464D01*
X217488397Y-57200000D01*
X217485899Y-57195399D01*
X217483645Y-57190674D01*
X217481642Y-57185837D01*
X217479894Y-57180902D01*
X217478407Y-57175882D01*
X217477185Y-57170791D01*
X217476231Y-57165643D01*
X217475548Y-57160453D01*
X217475137Y-57155234D01*
X217475000Y-57150000D01*
X217475000Y-57000000D01*
X217475137Y-56994766D01*
X217475548Y-56989547D01*
X217476231Y-56984357D01*
X217477185Y-56979209D01*
X217478407Y-56974118D01*
X217479894Y-56969098D01*
X217481642Y-56964163D01*
X217483645Y-56959326D01*
X217485899Y-56954601D01*
X217488397Y-56950000D01*
X217491133Y-56945536D01*
X217494098Y-56941221D01*
X217497285Y-56937068D01*
X217500686Y-56933087D01*
X217504289Y-56929289D01*
X217508087Y-56925686D01*
X217512068Y-56922285D01*
X217516221Y-56919098D01*
X217520536Y-56916133D01*
X217525000Y-56913397D01*
X217529601Y-56910899D01*
X217534326Y-56908645D01*
X217539163Y-56906642D01*
X217544098Y-56904894D01*
X217549118Y-56903407D01*
X217554209Y-56902185D01*
X217559357Y-56901231D01*
X217564547Y-56900548D01*
X217569766Y-56900137D01*
X217575000Y-56900000D01*
X218025000Y-56900000D01*
X218030234Y-56900137D01*
G37*
X218030234Y-56900137D02*
X218035453Y-56900548D01*
X218040643Y-56901231D01*
X218045791Y-56902185D01*
X218050882Y-56903407D01*
X218055902Y-56904894D01*
X218060837Y-56906642D01*
X218065674Y-56908645D01*
X218070399Y-56910899D01*
X218075000Y-56913397D01*
X218079464Y-56916133D01*
X218083779Y-56919098D01*
X218087932Y-56922285D01*
X218091913Y-56925686D01*
X218095711Y-56929289D01*
X218099314Y-56933087D01*
X218102715Y-56937068D01*
X218105902Y-56941221D01*
X218108867Y-56945536D01*
X218111603Y-56950000D01*
X218114101Y-56954601D01*
X218116355Y-56959326D01*
X218118358Y-56964163D01*
X218120106Y-56969098D01*
X218121593Y-56974118D01*
X218122815Y-56979209D01*
X218123769Y-56984357D01*
X218124452Y-56989547D01*
X218124863Y-56994766D01*
X218125000Y-57000000D01*
X218125000Y-57150000D01*
X218124863Y-57155234D01*
X218124452Y-57160453D01*
X218123769Y-57165643D01*
X218122815Y-57170791D01*
X218121593Y-57175882D01*
X218120106Y-57180902D01*
X218118358Y-57185837D01*
X218116355Y-57190674D01*
X218114101Y-57195399D01*
X218111603Y-57200000D01*
X218108867Y-57204464D01*
X218105902Y-57208779D01*
X218102715Y-57212932D01*
X218099314Y-57216913D01*
X218095711Y-57220711D01*
X218091913Y-57224314D01*
X218087932Y-57227715D01*
X218083779Y-57230902D01*
X218079464Y-57233867D01*
X218075000Y-57236603D01*
X218070399Y-57239101D01*
X218065674Y-57241355D01*
X218060837Y-57243358D01*
X218055902Y-57245106D01*
X218050882Y-57246593D01*
X218045791Y-57247815D01*
X218040643Y-57248769D01*
X218035453Y-57249452D01*
X218030234Y-57249863D01*
X218025000Y-57250000D01*
X217575000Y-57250000D01*
X217569766Y-57249863D01*
X217564547Y-57249452D01*
X217559357Y-57248769D01*
X217554209Y-57247815D01*
X217549118Y-57246593D01*
X217544098Y-57245106D01*
X217539163Y-57243358D01*
X217534326Y-57241355D01*
X217529601Y-57239101D01*
X217525000Y-57236603D01*
X217520536Y-57233867D01*
X217516221Y-57230902D01*
X217512068Y-57227715D01*
X217508087Y-57224314D01*
X217504289Y-57220711D01*
X217500686Y-57216913D01*
X217497285Y-57212932D01*
X217494098Y-57208779D01*
X217491133Y-57204464D01*
X217488397Y-57200000D01*
X217485899Y-57195399D01*
X217483645Y-57190674D01*
X217481642Y-57185837D01*
X217479894Y-57180902D01*
X217478407Y-57175882D01*
X217477185Y-57170791D01*
X217476231Y-57165643D01*
X217475548Y-57160453D01*
X217475137Y-57155234D01*
X217475000Y-57150000D01*
X217475000Y-57000000D01*
X217475137Y-56994766D01*
X217475548Y-56989547D01*
X217476231Y-56984357D01*
X217477185Y-56979209D01*
X217478407Y-56974118D01*
X217479894Y-56969098D01*
X217481642Y-56964163D01*
X217483645Y-56959326D01*
X217485899Y-56954601D01*
X217488397Y-56950000D01*
X217491133Y-56945536D01*
X217494098Y-56941221D01*
X217497285Y-56937068D01*
X217500686Y-56933087D01*
X217504289Y-56929289D01*
X217508087Y-56925686D01*
X217512068Y-56922285D01*
X217516221Y-56919098D01*
X217520536Y-56916133D01*
X217525000Y-56913397D01*
X217529601Y-56910899D01*
X217534326Y-56908645D01*
X217539163Y-56906642D01*
X217544098Y-56904894D01*
X217549118Y-56903407D01*
X217554209Y-56902185D01*
X217559357Y-56901231D01*
X217564547Y-56900548D01*
X217569766Y-56900137D01*
X217575000Y-56900000D01*
X218025000Y-56900000D01*
X218030234Y-56900137D01*
G36*
X220427617Y-58400069D02*
G01*
X220430226Y-58400274D01*
X220432822Y-58400616D01*
X220435396Y-58401093D01*
X220437941Y-58401704D01*
X220440451Y-58402447D01*
X220442918Y-58403321D01*
X220445337Y-58404323D01*
X220447700Y-58405450D01*
X220450000Y-58406699D01*
X220452232Y-58408066D01*
X220454389Y-58409549D01*
X220456466Y-58411143D01*
X220458457Y-58412843D01*
X220460355Y-58414645D01*
X220462157Y-58416543D01*
X220463857Y-58418534D01*
X220465451Y-58420611D01*
X220466934Y-58422768D01*
X220468301Y-58425000D01*
X220469550Y-58427300D01*
X220470677Y-58429663D01*
X220471679Y-58432082D01*
X220472553Y-58434549D01*
X220473296Y-58437059D01*
X220473907Y-58439604D01*
X220474384Y-58442178D01*
X220474726Y-58444774D01*
X220474931Y-58447383D01*
X220475000Y-58450000D01*
X220475000Y-58700000D01*
X220474931Y-58702617D01*
X220474726Y-58705226D01*
X220474384Y-58707822D01*
X220473907Y-58710396D01*
X220473296Y-58712941D01*
X220472553Y-58715451D01*
X220471679Y-58717918D01*
X220470677Y-58720337D01*
X220469550Y-58722700D01*
X220468301Y-58725000D01*
X220466934Y-58727232D01*
X220465451Y-58729389D01*
X220463857Y-58731466D01*
X220462157Y-58733457D01*
X220460355Y-58735355D01*
X220458457Y-58737157D01*
X220456466Y-58738857D01*
X220454389Y-58740451D01*
X220452232Y-58741934D01*
X220450000Y-58743301D01*
X220447700Y-58744550D01*
X220445337Y-58745677D01*
X220442918Y-58746679D01*
X220440451Y-58747553D01*
X220437941Y-58748296D01*
X220435396Y-58748907D01*
X220432822Y-58749384D01*
X220430226Y-58749726D01*
X220427617Y-58749931D01*
X220425000Y-58750000D01*
X219875000Y-58750000D01*
X219872383Y-58749931D01*
X219869774Y-58749726D01*
X219867178Y-58749384D01*
X219864604Y-58748907D01*
X219862059Y-58748296D01*
X219859549Y-58747553D01*
X219857082Y-58746679D01*
X219854663Y-58745677D01*
X219852300Y-58744550D01*
X219850000Y-58743301D01*
X219847768Y-58741934D01*
X219845611Y-58740451D01*
X219843534Y-58738857D01*
X219841543Y-58737157D01*
X219839645Y-58735355D01*
X219837843Y-58733457D01*
X219836143Y-58731466D01*
X219834549Y-58729389D01*
X219833066Y-58727232D01*
X219831699Y-58725000D01*
X219830450Y-58722700D01*
X219829323Y-58720337D01*
X219828321Y-58717918D01*
X219827447Y-58715451D01*
X219826704Y-58712941D01*
X219826093Y-58710396D01*
X219825616Y-58707822D01*
X219825274Y-58705226D01*
X219825069Y-58702617D01*
X219825000Y-58700000D01*
X219825000Y-58450000D01*
X219825069Y-58447383D01*
X219825274Y-58444774D01*
X219825616Y-58442178D01*
X219826093Y-58439604D01*
X219826704Y-58437059D01*
X219827447Y-58434549D01*
X219828321Y-58432082D01*
X219829323Y-58429663D01*
X219830450Y-58427300D01*
X219831699Y-58425000D01*
X219833066Y-58422768D01*
X219834549Y-58420611D01*
X219836143Y-58418534D01*
X219837843Y-58416543D01*
X219839645Y-58414645D01*
X219841543Y-58412843D01*
X219843534Y-58411143D01*
X219845611Y-58409549D01*
X219847768Y-58408066D01*
X219850000Y-58406699D01*
X219852300Y-58405450D01*
X219854663Y-58404323D01*
X219857082Y-58403321D01*
X219859549Y-58402447D01*
X219862059Y-58401704D01*
X219864604Y-58401093D01*
X219867178Y-58400616D01*
X219869774Y-58400274D01*
X219872383Y-58400069D01*
X219875000Y-58400000D01*
X220425000Y-58400000D01*
X220427617Y-58400069D01*
G37*
X220427617Y-58400069D02*
X220430226Y-58400274D01*
X220432822Y-58400616D01*
X220435396Y-58401093D01*
X220437941Y-58401704D01*
X220440451Y-58402447D01*
X220442918Y-58403321D01*
X220445337Y-58404323D01*
X220447700Y-58405450D01*
X220450000Y-58406699D01*
X220452232Y-58408066D01*
X220454389Y-58409549D01*
X220456466Y-58411143D01*
X220458457Y-58412843D01*
X220460355Y-58414645D01*
X220462157Y-58416543D01*
X220463857Y-58418534D01*
X220465451Y-58420611D01*
X220466934Y-58422768D01*
X220468301Y-58425000D01*
X220469550Y-58427300D01*
X220470677Y-58429663D01*
X220471679Y-58432082D01*
X220472553Y-58434549D01*
X220473296Y-58437059D01*
X220473907Y-58439604D01*
X220474384Y-58442178D01*
X220474726Y-58444774D01*
X220474931Y-58447383D01*
X220475000Y-58450000D01*
X220475000Y-58700000D01*
X220474931Y-58702617D01*
X220474726Y-58705226D01*
X220474384Y-58707822D01*
X220473907Y-58710396D01*
X220473296Y-58712941D01*
X220472553Y-58715451D01*
X220471679Y-58717918D01*
X220470677Y-58720337D01*
X220469550Y-58722700D01*
X220468301Y-58725000D01*
X220466934Y-58727232D01*
X220465451Y-58729389D01*
X220463857Y-58731466D01*
X220462157Y-58733457D01*
X220460355Y-58735355D01*
X220458457Y-58737157D01*
X220456466Y-58738857D01*
X220454389Y-58740451D01*
X220452232Y-58741934D01*
X220450000Y-58743301D01*
X220447700Y-58744550D01*
X220445337Y-58745677D01*
X220442918Y-58746679D01*
X220440451Y-58747553D01*
X220437941Y-58748296D01*
X220435396Y-58748907D01*
X220432822Y-58749384D01*
X220430226Y-58749726D01*
X220427617Y-58749931D01*
X220425000Y-58750000D01*
X219875000Y-58750000D01*
X219872383Y-58749931D01*
X219869774Y-58749726D01*
X219867178Y-58749384D01*
X219864604Y-58748907D01*
X219862059Y-58748296D01*
X219859549Y-58747553D01*
X219857082Y-58746679D01*
X219854663Y-58745677D01*
X219852300Y-58744550D01*
X219850000Y-58743301D01*
X219847768Y-58741934D01*
X219845611Y-58740451D01*
X219843534Y-58738857D01*
X219841543Y-58737157D01*
X219839645Y-58735355D01*
X219837843Y-58733457D01*
X219836143Y-58731466D01*
X219834549Y-58729389D01*
X219833066Y-58727232D01*
X219831699Y-58725000D01*
X219830450Y-58722700D01*
X219829323Y-58720337D01*
X219828321Y-58717918D01*
X219827447Y-58715451D01*
X219826704Y-58712941D01*
X219826093Y-58710396D01*
X219825616Y-58707822D01*
X219825274Y-58705226D01*
X219825069Y-58702617D01*
X219825000Y-58700000D01*
X219825000Y-58450000D01*
X219825069Y-58447383D01*
X219825274Y-58444774D01*
X219825616Y-58442178D01*
X219826093Y-58439604D01*
X219826704Y-58437059D01*
X219827447Y-58434549D01*
X219828321Y-58432082D01*
X219829323Y-58429663D01*
X219830450Y-58427300D01*
X219831699Y-58425000D01*
X219833066Y-58422768D01*
X219834549Y-58420611D01*
X219836143Y-58418534D01*
X219837843Y-58416543D01*
X219839645Y-58414645D01*
X219841543Y-58412843D01*
X219843534Y-58411143D01*
X219845611Y-58409549D01*
X219847768Y-58408066D01*
X219850000Y-58406699D01*
X219852300Y-58405450D01*
X219854663Y-58404323D01*
X219857082Y-58403321D01*
X219859549Y-58402447D01*
X219862059Y-58401704D01*
X219864604Y-58401093D01*
X219867178Y-58400616D01*
X219869774Y-58400274D01*
X219872383Y-58400069D01*
X219875000Y-58400000D01*
X220425000Y-58400000D01*
X220427617Y-58400069D01*
G36*
X218077617Y-57900069D02*
G01*
X218080226Y-57900274D01*
X218082822Y-57900616D01*
X218085396Y-57901093D01*
X218087941Y-57901704D01*
X218090451Y-57902447D01*
X218092918Y-57903321D01*
X218095337Y-57904323D01*
X218097700Y-57905450D01*
X218100000Y-57906699D01*
X218102232Y-57908066D01*
X218104389Y-57909549D01*
X218106466Y-57911143D01*
X218108457Y-57912843D01*
X218110355Y-57914645D01*
X218112157Y-57916543D01*
X218113857Y-57918534D01*
X218115451Y-57920611D01*
X218116934Y-57922768D01*
X218118301Y-57925000D01*
X218119550Y-57927300D01*
X218120677Y-57929663D01*
X218121679Y-57932082D01*
X218122553Y-57934549D01*
X218123296Y-57937059D01*
X218123907Y-57939604D01*
X218124384Y-57942178D01*
X218124726Y-57944774D01*
X218124931Y-57947383D01*
X218125000Y-57950000D01*
X218125000Y-58200000D01*
X218124931Y-58202617D01*
X218124726Y-58205226D01*
X218124384Y-58207822D01*
X218123907Y-58210396D01*
X218123296Y-58212941D01*
X218122553Y-58215451D01*
X218121679Y-58217918D01*
X218120677Y-58220337D01*
X218119550Y-58222700D01*
X218118301Y-58225000D01*
X218116934Y-58227232D01*
X218115451Y-58229389D01*
X218113857Y-58231466D01*
X218112157Y-58233457D01*
X218110355Y-58235355D01*
X218108457Y-58237157D01*
X218106466Y-58238857D01*
X218104389Y-58240451D01*
X218102232Y-58241934D01*
X218100000Y-58243301D01*
X218097700Y-58244550D01*
X218095337Y-58245677D01*
X218092918Y-58246679D01*
X218090451Y-58247553D01*
X218087941Y-58248296D01*
X218085396Y-58248907D01*
X218082822Y-58249384D01*
X218080226Y-58249726D01*
X218077617Y-58249931D01*
X218075000Y-58250000D01*
X217525000Y-58250000D01*
X217522383Y-58249931D01*
X217519774Y-58249726D01*
X217517178Y-58249384D01*
X217514604Y-58248907D01*
X217512059Y-58248296D01*
X217509549Y-58247553D01*
X217507082Y-58246679D01*
X217504663Y-58245677D01*
X217502300Y-58244550D01*
X217500000Y-58243301D01*
X217497768Y-58241934D01*
X217495611Y-58240451D01*
X217493534Y-58238857D01*
X217491543Y-58237157D01*
X217489645Y-58235355D01*
X217487843Y-58233457D01*
X217486143Y-58231466D01*
X217484549Y-58229389D01*
X217483066Y-58227232D01*
X217481699Y-58225000D01*
X217480450Y-58222700D01*
X217479323Y-58220337D01*
X217478321Y-58217918D01*
X217477447Y-58215451D01*
X217476704Y-58212941D01*
X217476093Y-58210396D01*
X217475616Y-58207822D01*
X217475274Y-58205226D01*
X217475069Y-58202617D01*
X217475000Y-58200000D01*
X217475000Y-57950000D01*
X217475069Y-57947383D01*
X217475274Y-57944774D01*
X217475616Y-57942178D01*
X217476093Y-57939604D01*
X217476704Y-57937059D01*
X217477447Y-57934549D01*
X217478321Y-57932082D01*
X217479323Y-57929663D01*
X217480450Y-57927300D01*
X217481699Y-57925000D01*
X217483066Y-57922768D01*
X217484549Y-57920611D01*
X217486143Y-57918534D01*
X217487843Y-57916543D01*
X217489645Y-57914645D01*
X217491543Y-57912843D01*
X217493534Y-57911143D01*
X217495611Y-57909549D01*
X217497768Y-57908066D01*
X217500000Y-57906699D01*
X217502300Y-57905450D01*
X217504663Y-57904323D01*
X217507082Y-57903321D01*
X217509549Y-57902447D01*
X217512059Y-57901704D01*
X217514604Y-57901093D01*
X217517178Y-57900616D01*
X217519774Y-57900274D01*
X217522383Y-57900069D01*
X217525000Y-57900000D01*
X218075000Y-57900000D01*
X218077617Y-57900069D01*
G37*
X218077617Y-57900069D02*
X218080226Y-57900274D01*
X218082822Y-57900616D01*
X218085396Y-57901093D01*
X218087941Y-57901704D01*
X218090451Y-57902447D01*
X218092918Y-57903321D01*
X218095337Y-57904323D01*
X218097700Y-57905450D01*
X218100000Y-57906699D01*
X218102232Y-57908066D01*
X218104389Y-57909549D01*
X218106466Y-57911143D01*
X218108457Y-57912843D01*
X218110355Y-57914645D01*
X218112157Y-57916543D01*
X218113857Y-57918534D01*
X218115451Y-57920611D01*
X218116934Y-57922768D01*
X218118301Y-57925000D01*
X218119550Y-57927300D01*
X218120677Y-57929663D01*
X218121679Y-57932082D01*
X218122553Y-57934549D01*
X218123296Y-57937059D01*
X218123907Y-57939604D01*
X218124384Y-57942178D01*
X218124726Y-57944774D01*
X218124931Y-57947383D01*
X218125000Y-57950000D01*
X218125000Y-58200000D01*
X218124931Y-58202617D01*
X218124726Y-58205226D01*
X218124384Y-58207822D01*
X218123907Y-58210396D01*
X218123296Y-58212941D01*
X218122553Y-58215451D01*
X218121679Y-58217918D01*
X218120677Y-58220337D01*
X218119550Y-58222700D01*
X218118301Y-58225000D01*
X218116934Y-58227232D01*
X218115451Y-58229389D01*
X218113857Y-58231466D01*
X218112157Y-58233457D01*
X218110355Y-58235355D01*
X218108457Y-58237157D01*
X218106466Y-58238857D01*
X218104389Y-58240451D01*
X218102232Y-58241934D01*
X218100000Y-58243301D01*
X218097700Y-58244550D01*
X218095337Y-58245677D01*
X218092918Y-58246679D01*
X218090451Y-58247553D01*
X218087941Y-58248296D01*
X218085396Y-58248907D01*
X218082822Y-58249384D01*
X218080226Y-58249726D01*
X218077617Y-58249931D01*
X218075000Y-58250000D01*
X217525000Y-58250000D01*
X217522383Y-58249931D01*
X217519774Y-58249726D01*
X217517178Y-58249384D01*
X217514604Y-58248907D01*
X217512059Y-58248296D01*
X217509549Y-58247553D01*
X217507082Y-58246679D01*
X217504663Y-58245677D01*
X217502300Y-58244550D01*
X217500000Y-58243301D01*
X217497768Y-58241934D01*
X217495611Y-58240451D01*
X217493534Y-58238857D01*
X217491543Y-58237157D01*
X217489645Y-58235355D01*
X217487843Y-58233457D01*
X217486143Y-58231466D01*
X217484549Y-58229389D01*
X217483066Y-58227232D01*
X217481699Y-58225000D01*
X217480450Y-58222700D01*
X217479323Y-58220337D01*
X217478321Y-58217918D01*
X217477447Y-58215451D01*
X217476704Y-58212941D01*
X217476093Y-58210396D01*
X217475616Y-58207822D01*
X217475274Y-58205226D01*
X217475069Y-58202617D01*
X217475000Y-58200000D01*
X217475000Y-57950000D01*
X217475069Y-57947383D01*
X217475274Y-57944774D01*
X217475616Y-57942178D01*
X217476093Y-57939604D01*
X217476704Y-57937059D01*
X217477447Y-57934549D01*
X217478321Y-57932082D01*
X217479323Y-57929663D01*
X217480450Y-57927300D01*
X217481699Y-57925000D01*
X217483066Y-57922768D01*
X217484549Y-57920611D01*
X217486143Y-57918534D01*
X217487843Y-57916543D01*
X217489645Y-57914645D01*
X217491543Y-57912843D01*
X217493534Y-57911143D01*
X217495611Y-57909549D01*
X217497768Y-57908066D01*
X217500000Y-57906699D01*
X217502300Y-57905450D01*
X217504663Y-57904323D01*
X217507082Y-57903321D01*
X217509549Y-57902447D01*
X217512059Y-57901704D01*
X217514604Y-57901093D01*
X217517178Y-57900616D01*
X217519774Y-57900274D01*
X217522383Y-57900069D01*
X217525000Y-57900000D01*
X218075000Y-57900000D01*
X218077617Y-57900069D01*
G36*
X220427617Y-56900069D02*
G01*
X220430226Y-56900274D01*
X220432822Y-56900616D01*
X220435396Y-56901093D01*
X220437941Y-56901704D01*
X220440451Y-56902447D01*
X220442918Y-56903321D01*
X220445337Y-56904323D01*
X220447700Y-56905450D01*
X220450000Y-56906699D01*
X220452232Y-56908066D01*
X220454389Y-56909549D01*
X220456466Y-56911143D01*
X220458457Y-56912843D01*
X220460355Y-56914645D01*
X220462157Y-56916543D01*
X220463857Y-56918534D01*
X220465451Y-56920611D01*
X220466934Y-56922768D01*
X220468301Y-56925000D01*
X220469550Y-56927300D01*
X220470677Y-56929663D01*
X220471679Y-56932082D01*
X220472553Y-56934549D01*
X220473296Y-56937059D01*
X220473907Y-56939604D01*
X220474384Y-56942178D01*
X220474726Y-56944774D01*
X220474931Y-56947383D01*
X220475000Y-56950000D01*
X220475000Y-57200000D01*
X220474931Y-57202617D01*
X220474726Y-57205226D01*
X220474384Y-57207822D01*
X220473907Y-57210396D01*
X220473296Y-57212941D01*
X220472553Y-57215451D01*
X220471679Y-57217918D01*
X220470677Y-57220337D01*
X220469550Y-57222700D01*
X220468301Y-57225000D01*
X220466934Y-57227232D01*
X220465451Y-57229389D01*
X220463857Y-57231466D01*
X220462157Y-57233457D01*
X220460355Y-57235355D01*
X220458457Y-57237157D01*
X220456466Y-57238857D01*
X220454389Y-57240451D01*
X220452232Y-57241934D01*
X220450000Y-57243301D01*
X220447700Y-57244550D01*
X220445337Y-57245677D01*
X220442918Y-57246679D01*
X220440451Y-57247553D01*
X220437941Y-57248296D01*
X220435396Y-57248907D01*
X220432822Y-57249384D01*
X220430226Y-57249726D01*
X220427617Y-57249931D01*
X220425000Y-57250000D01*
X219875000Y-57250000D01*
X219872383Y-57249931D01*
X219869774Y-57249726D01*
X219867178Y-57249384D01*
X219864604Y-57248907D01*
X219862059Y-57248296D01*
X219859549Y-57247553D01*
X219857082Y-57246679D01*
X219854663Y-57245677D01*
X219852300Y-57244550D01*
X219850000Y-57243301D01*
X219847768Y-57241934D01*
X219845611Y-57240451D01*
X219843534Y-57238857D01*
X219841543Y-57237157D01*
X219839645Y-57235355D01*
X219837843Y-57233457D01*
X219836143Y-57231466D01*
X219834549Y-57229389D01*
X219833066Y-57227232D01*
X219831699Y-57225000D01*
X219830450Y-57222700D01*
X219829323Y-57220337D01*
X219828321Y-57217918D01*
X219827447Y-57215451D01*
X219826704Y-57212941D01*
X219826093Y-57210396D01*
X219825616Y-57207822D01*
X219825274Y-57205226D01*
X219825069Y-57202617D01*
X219825000Y-57200000D01*
X219825000Y-56950000D01*
X219825069Y-56947383D01*
X219825274Y-56944774D01*
X219825616Y-56942178D01*
X219826093Y-56939604D01*
X219826704Y-56937059D01*
X219827447Y-56934549D01*
X219828321Y-56932082D01*
X219829323Y-56929663D01*
X219830450Y-56927300D01*
X219831699Y-56925000D01*
X219833066Y-56922768D01*
X219834549Y-56920611D01*
X219836143Y-56918534D01*
X219837843Y-56916543D01*
X219839645Y-56914645D01*
X219841543Y-56912843D01*
X219843534Y-56911143D01*
X219845611Y-56909549D01*
X219847768Y-56908066D01*
X219850000Y-56906699D01*
X219852300Y-56905450D01*
X219854663Y-56904323D01*
X219857082Y-56903321D01*
X219859549Y-56902447D01*
X219862059Y-56901704D01*
X219864604Y-56901093D01*
X219867178Y-56900616D01*
X219869774Y-56900274D01*
X219872383Y-56900069D01*
X219875000Y-56900000D01*
X220425000Y-56900000D01*
X220427617Y-56900069D01*
G37*
X220427617Y-56900069D02*
X220430226Y-56900274D01*
X220432822Y-56900616D01*
X220435396Y-56901093D01*
X220437941Y-56901704D01*
X220440451Y-56902447D01*
X220442918Y-56903321D01*
X220445337Y-56904323D01*
X220447700Y-56905450D01*
X220450000Y-56906699D01*
X220452232Y-56908066D01*
X220454389Y-56909549D01*
X220456466Y-56911143D01*
X220458457Y-56912843D01*
X220460355Y-56914645D01*
X220462157Y-56916543D01*
X220463857Y-56918534D01*
X220465451Y-56920611D01*
X220466934Y-56922768D01*
X220468301Y-56925000D01*
X220469550Y-56927300D01*
X220470677Y-56929663D01*
X220471679Y-56932082D01*
X220472553Y-56934549D01*
X220473296Y-56937059D01*
X220473907Y-56939604D01*
X220474384Y-56942178D01*
X220474726Y-56944774D01*
X220474931Y-56947383D01*
X220475000Y-56950000D01*
X220475000Y-57200000D01*
X220474931Y-57202617D01*
X220474726Y-57205226D01*
X220474384Y-57207822D01*
X220473907Y-57210396D01*
X220473296Y-57212941D01*
X220472553Y-57215451D01*
X220471679Y-57217918D01*
X220470677Y-57220337D01*
X220469550Y-57222700D01*
X220468301Y-57225000D01*
X220466934Y-57227232D01*
X220465451Y-57229389D01*
X220463857Y-57231466D01*
X220462157Y-57233457D01*
X220460355Y-57235355D01*
X220458457Y-57237157D01*
X220456466Y-57238857D01*
X220454389Y-57240451D01*
X220452232Y-57241934D01*
X220450000Y-57243301D01*
X220447700Y-57244550D01*
X220445337Y-57245677D01*
X220442918Y-57246679D01*
X220440451Y-57247553D01*
X220437941Y-57248296D01*
X220435396Y-57248907D01*
X220432822Y-57249384D01*
X220430226Y-57249726D01*
X220427617Y-57249931D01*
X220425000Y-57250000D01*
X219875000Y-57250000D01*
X219872383Y-57249931D01*
X219869774Y-57249726D01*
X219867178Y-57249384D01*
X219864604Y-57248907D01*
X219862059Y-57248296D01*
X219859549Y-57247553D01*
X219857082Y-57246679D01*
X219854663Y-57245677D01*
X219852300Y-57244550D01*
X219850000Y-57243301D01*
X219847768Y-57241934D01*
X219845611Y-57240451D01*
X219843534Y-57238857D01*
X219841543Y-57237157D01*
X219839645Y-57235355D01*
X219837843Y-57233457D01*
X219836143Y-57231466D01*
X219834549Y-57229389D01*
X219833066Y-57227232D01*
X219831699Y-57225000D01*
X219830450Y-57222700D01*
X219829323Y-57220337D01*
X219828321Y-57217918D01*
X219827447Y-57215451D01*
X219826704Y-57212941D01*
X219826093Y-57210396D01*
X219825616Y-57207822D01*
X219825274Y-57205226D01*
X219825069Y-57202617D01*
X219825000Y-57200000D01*
X219825000Y-56950000D01*
X219825069Y-56947383D01*
X219825274Y-56944774D01*
X219825616Y-56942178D01*
X219826093Y-56939604D01*
X219826704Y-56937059D01*
X219827447Y-56934549D01*
X219828321Y-56932082D01*
X219829323Y-56929663D01*
X219830450Y-56927300D01*
X219831699Y-56925000D01*
X219833066Y-56922768D01*
X219834549Y-56920611D01*
X219836143Y-56918534D01*
X219837843Y-56916543D01*
X219839645Y-56914645D01*
X219841543Y-56912843D01*
X219843534Y-56911143D01*
X219845611Y-56909549D01*
X219847768Y-56908066D01*
X219850000Y-56906699D01*
X219852300Y-56905450D01*
X219854663Y-56904323D01*
X219857082Y-56903321D01*
X219859549Y-56902447D01*
X219862059Y-56901704D01*
X219864604Y-56901093D01*
X219867178Y-56900616D01*
X219869774Y-56900274D01*
X219872383Y-56900069D01*
X219875000Y-56900000D01*
X220425000Y-56900000D01*
X220427617Y-56900069D01*
G36*
X220427617Y-57900069D02*
G01*
X220430226Y-57900274D01*
X220432822Y-57900616D01*
X220435396Y-57901093D01*
X220437941Y-57901704D01*
X220440451Y-57902447D01*
X220442918Y-57903321D01*
X220445337Y-57904323D01*
X220447700Y-57905450D01*
X220450000Y-57906699D01*
X220452232Y-57908066D01*
X220454389Y-57909549D01*
X220456466Y-57911143D01*
X220458457Y-57912843D01*
X220460355Y-57914645D01*
X220462157Y-57916543D01*
X220463857Y-57918534D01*
X220465451Y-57920611D01*
X220466934Y-57922768D01*
X220468301Y-57925000D01*
X220469550Y-57927300D01*
X220470677Y-57929663D01*
X220471679Y-57932082D01*
X220472553Y-57934549D01*
X220473296Y-57937059D01*
X220473907Y-57939604D01*
X220474384Y-57942178D01*
X220474726Y-57944774D01*
X220474931Y-57947383D01*
X220475000Y-57950000D01*
X220475000Y-58200000D01*
X220474931Y-58202617D01*
X220474726Y-58205226D01*
X220474384Y-58207822D01*
X220473907Y-58210396D01*
X220473296Y-58212941D01*
X220472553Y-58215451D01*
X220471679Y-58217918D01*
X220470677Y-58220337D01*
X220469550Y-58222700D01*
X220468301Y-58225000D01*
X220466934Y-58227232D01*
X220465451Y-58229389D01*
X220463857Y-58231466D01*
X220462157Y-58233457D01*
X220460355Y-58235355D01*
X220458457Y-58237157D01*
X220456466Y-58238857D01*
X220454389Y-58240451D01*
X220452232Y-58241934D01*
X220450000Y-58243301D01*
X220447700Y-58244550D01*
X220445337Y-58245677D01*
X220442918Y-58246679D01*
X220440451Y-58247553D01*
X220437941Y-58248296D01*
X220435396Y-58248907D01*
X220432822Y-58249384D01*
X220430226Y-58249726D01*
X220427617Y-58249931D01*
X220425000Y-58250000D01*
X219875000Y-58250000D01*
X219872383Y-58249931D01*
X219869774Y-58249726D01*
X219867178Y-58249384D01*
X219864604Y-58248907D01*
X219862059Y-58248296D01*
X219859549Y-58247553D01*
X219857082Y-58246679D01*
X219854663Y-58245677D01*
X219852300Y-58244550D01*
X219850000Y-58243301D01*
X219847768Y-58241934D01*
X219845611Y-58240451D01*
X219843534Y-58238857D01*
X219841543Y-58237157D01*
X219839645Y-58235355D01*
X219837843Y-58233457D01*
X219836143Y-58231466D01*
X219834549Y-58229389D01*
X219833066Y-58227232D01*
X219831699Y-58225000D01*
X219830450Y-58222700D01*
X219829323Y-58220337D01*
X219828321Y-58217918D01*
X219827447Y-58215451D01*
X219826704Y-58212941D01*
X219826093Y-58210396D01*
X219825616Y-58207822D01*
X219825274Y-58205226D01*
X219825069Y-58202617D01*
X219825000Y-58200000D01*
X219825000Y-57950000D01*
X219825069Y-57947383D01*
X219825274Y-57944774D01*
X219825616Y-57942178D01*
X219826093Y-57939604D01*
X219826704Y-57937059D01*
X219827447Y-57934549D01*
X219828321Y-57932082D01*
X219829323Y-57929663D01*
X219830450Y-57927300D01*
X219831699Y-57925000D01*
X219833066Y-57922768D01*
X219834549Y-57920611D01*
X219836143Y-57918534D01*
X219837843Y-57916543D01*
X219839645Y-57914645D01*
X219841543Y-57912843D01*
X219843534Y-57911143D01*
X219845611Y-57909549D01*
X219847768Y-57908066D01*
X219850000Y-57906699D01*
X219852300Y-57905450D01*
X219854663Y-57904323D01*
X219857082Y-57903321D01*
X219859549Y-57902447D01*
X219862059Y-57901704D01*
X219864604Y-57901093D01*
X219867178Y-57900616D01*
X219869774Y-57900274D01*
X219872383Y-57900069D01*
X219875000Y-57900000D01*
X220425000Y-57900000D01*
X220427617Y-57900069D01*
G37*
X220427617Y-57900069D02*
X220430226Y-57900274D01*
X220432822Y-57900616D01*
X220435396Y-57901093D01*
X220437941Y-57901704D01*
X220440451Y-57902447D01*
X220442918Y-57903321D01*
X220445337Y-57904323D01*
X220447700Y-57905450D01*
X220450000Y-57906699D01*
X220452232Y-57908066D01*
X220454389Y-57909549D01*
X220456466Y-57911143D01*
X220458457Y-57912843D01*
X220460355Y-57914645D01*
X220462157Y-57916543D01*
X220463857Y-57918534D01*
X220465451Y-57920611D01*
X220466934Y-57922768D01*
X220468301Y-57925000D01*
X220469550Y-57927300D01*
X220470677Y-57929663D01*
X220471679Y-57932082D01*
X220472553Y-57934549D01*
X220473296Y-57937059D01*
X220473907Y-57939604D01*
X220474384Y-57942178D01*
X220474726Y-57944774D01*
X220474931Y-57947383D01*
X220475000Y-57950000D01*
X220475000Y-58200000D01*
X220474931Y-58202617D01*
X220474726Y-58205226D01*
X220474384Y-58207822D01*
X220473907Y-58210396D01*
X220473296Y-58212941D01*
X220472553Y-58215451D01*
X220471679Y-58217918D01*
X220470677Y-58220337D01*
X220469550Y-58222700D01*
X220468301Y-58225000D01*
X220466934Y-58227232D01*
X220465451Y-58229389D01*
X220463857Y-58231466D01*
X220462157Y-58233457D01*
X220460355Y-58235355D01*
X220458457Y-58237157D01*
X220456466Y-58238857D01*
X220454389Y-58240451D01*
X220452232Y-58241934D01*
X220450000Y-58243301D01*
X220447700Y-58244550D01*
X220445337Y-58245677D01*
X220442918Y-58246679D01*
X220440451Y-58247553D01*
X220437941Y-58248296D01*
X220435396Y-58248907D01*
X220432822Y-58249384D01*
X220430226Y-58249726D01*
X220427617Y-58249931D01*
X220425000Y-58250000D01*
X219875000Y-58250000D01*
X219872383Y-58249931D01*
X219869774Y-58249726D01*
X219867178Y-58249384D01*
X219864604Y-58248907D01*
X219862059Y-58248296D01*
X219859549Y-58247553D01*
X219857082Y-58246679D01*
X219854663Y-58245677D01*
X219852300Y-58244550D01*
X219850000Y-58243301D01*
X219847768Y-58241934D01*
X219845611Y-58240451D01*
X219843534Y-58238857D01*
X219841543Y-58237157D01*
X219839645Y-58235355D01*
X219837843Y-58233457D01*
X219836143Y-58231466D01*
X219834549Y-58229389D01*
X219833066Y-58227232D01*
X219831699Y-58225000D01*
X219830450Y-58222700D01*
X219829323Y-58220337D01*
X219828321Y-58217918D01*
X219827447Y-58215451D01*
X219826704Y-58212941D01*
X219826093Y-58210396D01*
X219825616Y-58207822D01*
X219825274Y-58205226D01*
X219825069Y-58202617D01*
X219825000Y-58200000D01*
X219825000Y-57950000D01*
X219825069Y-57947383D01*
X219825274Y-57944774D01*
X219825616Y-57942178D01*
X219826093Y-57939604D01*
X219826704Y-57937059D01*
X219827447Y-57934549D01*
X219828321Y-57932082D01*
X219829323Y-57929663D01*
X219830450Y-57927300D01*
X219831699Y-57925000D01*
X219833066Y-57922768D01*
X219834549Y-57920611D01*
X219836143Y-57918534D01*
X219837843Y-57916543D01*
X219839645Y-57914645D01*
X219841543Y-57912843D01*
X219843534Y-57911143D01*
X219845611Y-57909549D01*
X219847768Y-57908066D01*
X219850000Y-57906699D01*
X219852300Y-57905450D01*
X219854663Y-57904323D01*
X219857082Y-57903321D01*
X219859549Y-57902447D01*
X219862059Y-57901704D01*
X219864604Y-57901093D01*
X219867178Y-57900616D01*
X219869774Y-57900274D01*
X219872383Y-57900069D01*
X219875000Y-57900000D01*
X220425000Y-57900000D01*
X220427617Y-57900069D01*
G36*
X219480234Y-56875137D02*
G01*
X219485453Y-56875548D01*
X219490643Y-56876231D01*
X219495791Y-56877185D01*
X219500882Y-56878407D01*
X219505902Y-56879894D01*
X219510837Y-56881642D01*
X219515674Y-56883645D01*
X219520399Y-56885899D01*
X219525000Y-56888397D01*
X219529464Y-56891133D01*
X219533779Y-56894098D01*
X219537932Y-56897285D01*
X219541913Y-56900686D01*
X219545711Y-56904289D01*
X219549314Y-56908087D01*
X219552715Y-56912068D01*
X219555902Y-56916221D01*
X219558867Y-56920536D01*
X219561603Y-56925000D01*
X219564101Y-56929601D01*
X219566355Y-56934326D01*
X219568358Y-56939163D01*
X219570106Y-56944098D01*
X219571593Y-56949118D01*
X219572815Y-56954209D01*
X219573769Y-56959357D01*
X219574452Y-56964547D01*
X219574863Y-56969766D01*
X219575000Y-56975000D01*
X219575000Y-58675000D01*
X219574863Y-58680234D01*
X219574452Y-58685453D01*
X219573769Y-58690643D01*
X219572815Y-58695791D01*
X219571593Y-58700882D01*
X219570106Y-58705902D01*
X219568358Y-58710837D01*
X219566355Y-58715674D01*
X219564101Y-58720399D01*
X219561603Y-58725000D01*
X219558867Y-58729464D01*
X219555902Y-58733779D01*
X219552715Y-58737932D01*
X219549314Y-58741913D01*
X219545711Y-58745711D01*
X219541913Y-58749314D01*
X219537932Y-58752715D01*
X219533779Y-58755902D01*
X219529464Y-58758867D01*
X219525000Y-58761603D01*
X219520399Y-58764101D01*
X219515674Y-58766355D01*
X219510837Y-58768358D01*
X219505902Y-58770106D01*
X219500882Y-58771593D01*
X219495791Y-58772815D01*
X219490643Y-58773769D01*
X219485453Y-58774452D01*
X219480234Y-58774863D01*
X219475000Y-58775000D01*
X218475000Y-58775000D01*
X218469766Y-58774863D01*
X218464547Y-58774452D01*
X218459357Y-58773769D01*
X218454209Y-58772815D01*
X218449118Y-58771593D01*
X218444098Y-58770106D01*
X218439163Y-58768358D01*
X218434326Y-58766355D01*
X218429601Y-58764101D01*
X218425000Y-58761603D01*
X218420536Y-58758867D01*
X218416221Y-58755902D01*
X218412068Y-58752715D01*
X218408087Y-58749314D01*
X218404289Y-58745711D01*
X218400686Y-58741913D01*
X218397285Y-58737932D01*
X218394098Y-58733779D01*
X218391133Y-58729464D01*
X218388397Y-58725000D01*
X218385899Y-58720399D01*
X218383645Y-58715674D01*
X218381642Y-58710837D01*
X218379894Y-58705902D01*
X218378407Y-58700882D01*
X218377185Y-58695791D01*
X218376231Y-58690643D01*
X218375548Y-58685453D01*
X218375137Y-58680234D01*
X218375000Y-58675000D01*
X218375000Y-57204291D01*
X218704291Y-56875000D01*
X219475000Y-56875000D01*
X219480234Y-56875137D01*
G37*
X219480234Y-56875137D02*
X219485453Y-56875548D01*
X219490643Y-56876231D01*
X219495791Y-56877185D01*
X219500882Y-56878407D01*
X219505902Y-56879894D01*
X219510837Y-56881642D01*
X219515674Y-56883645D01*
X219520399Y-56885899D01*
X219525000Y-56888397D01*
X219529464Y-56891133D01*
X219533779Y-56894098D01*
X219537932Y-56897285D01*
X219541913Y-56900686D01*
X219545711Y-56904289D01*
X219549314Y-56908087D01*
X219552715Y-56912068D01*
X219555902Y-56916221D01*
X219558867Y-56920536D01*
X219561603Y-56925000D01*
X219564101Y-56929601D01*
X219566355Y-56934326D01*
X219568358Y-56939163D01*
X219570106Y-56944098D01*
X219571593Y-56949118D01*
X219572815Y-56954209D01*
X219573769Y-56959357D01*
X219574452Y-56964547D01*
X219574863Y-56969766D01*
X219575000Y-56975000D01*
X219575000Y-58675000D01*
X219574863Y-58680234D01*
X219574452Y-58685453D01*
X219573769Y-58690643D01*
X219572815Y-58695791D01*
X219571593Y-58700882D01*
X219570106Y-58705902D01*
X219568358Y-58710837D01*
X219566355Y-58715674D01*
X219564101Y-58720399D01*
X219561603Y-58725000D01*
X219558867Y-58729464D01*
X219555902Y-58733779D01*
X219552715Y-58737932D01*
X219549314Y-58741913D01*
X219545711Y-58745711D01*
X219541913Y-58749314D01*
X219537932Y-58752715D01*
X219533779Y-58755902D01*
X219529464Y-58758867D01*
X219525000Y-58761603D01*
X219520399Y-58764101D01*
X219515674Y-58766355D01*
X219510837Y-58768358D01*
X219505902Y-58770106D01*
X219500882Y-58771593D01*
X219495791Y-58772815D01*
X219490643Y-58773769D01*
X219485453Y-58774452D01*
X219480234Y-58774863D01*
X219475000Y-58775000D01*
X218475000Y-58775000D01*
X218469766Y-58774863D01*
X218464547Y-58774452D01*
X218459357Y-58773769D01*
X218454209Y-58772815D01*
X218449118Y-58771593D01*
X218444098Y-58770106D01*
X218439163Y-58768358D01*
X218434326Y-58766355D01*
X218429601Y-58764101D01*
X218425000Y-58761603D01*
X218420536Y-58758867D01*
X218416221Y-58755902D01*
X218412068Y-58752715D01*
X218408087Y-58749314D01*
X218404289Y-58745711D01*
X218400686Y-58741913D01*
X218397285Y-58737932D01*
X218394098Y-58733779D01*
X218391133Y-58729464D01*
X218388397Y-58725000D01*
X218385899Y-58720399D01*
X218383645Y-58715674D01*
X218381642Y-58710837D01*
X218379894Y-58705902D01*
X218378407Y-58700882D01*
X218377185Y-58695791D01*
X218376231Y-58690643D01*
X218375548Y-58685453D01*
X218375137Y-58680234D01*
X218375000Y-58675000D01*
X218375000Y-57204291D01*
X218704291Y-56875000D01*
X219475000Y-56875000D01*
X219480234Y-56875137D01*
G36*
X218077617Y-57400069D02*
G01*
X218080226Y-57400274D01*
X218082822Y-57400616D01*
X218085396Y-57401093D01*
X218087941Y-57401704D01*
X218090451Y-57402447D01*
X218092918Y-57403321D01*
X218095337Y-57404323D01*
X218097700Y-57405450D01*
X218100000Y-57406699D01*
X218102232Y-57408066D01*
X218104389Y-57409549D01*
X218106466Y-57411143D01*
X218108457Y-57412843D01*
X218110355Y-57414645D01*
X218112157Y-57416543D01*
X218113857Y-57418534D01*
X218115451Y-57420611D01*
X218116934Y-57422768D01*
X218118301Y-57425000D01*
X218119550Y-57427300D01*
X218120677Y-57429663D01*
X218121679Y-57432082D01*
X218122553Y-57434549D01*
X218123296Y-57437059D01*
X218123907Y-57439604D01*
X218124384Y-57442178D01*
X218124726Y-57444774D01*
X218124931Y-57447383D01*
X218125000Y-57450000D01*
X218125000Y-57700000D01*
X218124931Y-57702617D01*
X218124726Y-57705226D01*
X218124384Y-57707822D01*
X218123907Y-57710396D01*
X218123296Y-57712941D01*
X218122553Y-57715451D01*
X218121679Y-57717918D01*
X218120677Y-57720337D01*
X218119550Y-57722700D01*
X218118301Y-57725000D01*
X218116934Y-57727232D01*
X218115451Y-57729389D01*
X218113857Y-57731466D01*
X218112157Y-57733457D01*
X218110355Y-57735355D01*
X218108457Y-57737157D01*
X218106466Y-57738857D01*
X218104389Y-57740451D01*
X218102232Y-57741934D01*
X218100000Y-57743301D01*
X218097700Y-57744550D01*
X218095337Y-57745677D01*
X218092918Y-57746679D01*
X218090451Y-57747553D01*
X218087941Y-57748296D01*
X218085396Y-57748907D01*
X218082822Y-57749384D01*
X218080226Y-57749726D01*
X218077617Y-57749931D01*
X218075000Y-57750000D01*
X217525000Y-57750000D01*
X217522383Y-57749931D01*
X217519774Y-57749726D01*
X217517178Y-57749384D01*
X217514604Y-57748907D01*
X217512059Y-57748296D01*
X217509549Y-57747553D01*
X217507082Y-57746679D01*
X217504663Y-57745677D01*
X217502300Y-57744550D01*
X217500000Y-57743301D01*
X217497768Y-57741934D01*
X217495611Y-57740451D01*
X217493534Y-57738857D01*
X217491543Y-57737157D01*
X217489645Y-57735355D01*
X217487843Y-57733457D01*
X217486143Y-57731466D01*
X217484549Y-57729389D01*
X217483066Y-57727232D01*
X217481699Y-57725000D01*
X217480450Y-57722700D01*
X217479323Y-57720337D01*
X217478321Y-57717918D01*
X217477447Y-57715451D01*
X217476704Y-57712941D01*
X217476093Y-57710396D01*
X217475616Y-57707822D01*
X217475274Y-57705226D01*
X217475069Y-57702617D01*
X217475000Y-57700000D01*
X217475000Y-57450000D01*
X217475069Y-57447383D01*
X217475274Y-57444774D01*
X217475616Y-57442178D01*
X217476093Y-57439604D01*
X217476704Y-57437059D01*
X217477447Y-57434549D01*
X217478321Y-57432082D01*
X217479323Y-57429663D01*
X217480450Y-57427300D01*
X217481699Y-57425000D01*
X217483066Y-57422768D01*
X217484549Y-57420611D01*
X217486143Y-57418534D01*
X217487843Y-57416543D01*
X217489645Y-57414645D01*
X217491543Y-57412843D01*
X217493534Y-57411143D01*
X217495611Y-57409549D01*
X217497768Y-57408066D01*
X217500000Y-57406699D01*
X217502300Y-57405450D01*
X217504663Y-57404323D01*
X217507082Y-57403321D01*
X217509549Y-57402447D01*
X217512059Y-57401704D01*
X217514604Y-57401093D01*
X217517178Y-57400616D01*
X217519774Y-57400274D01*
X217522383Y-57400069D01*
X217525000Y-57400000D01*
X218075000Y-57400000D01*
X218077617Y-57400069D01*
G37*
X218077617Y-57400069D02*
X218080226Y-57400274D01*
X218082822Y-57400616D01*
X218085396Y-57401093D01*
X218087941Y-57401704D01*
X218090451Y-57402447D01*
X218092918Y-57403321D01*
X218095337Y-57404323D01*
X218097700Y-57405450D01*
X218100000Y-57406699D01*
X218102232Y-57408066D01*
X218104389Y-57409549D01*
X218106466Y-57411143D01*
X218108457Y-57412843D01*
X218110355Y-57414645D01*
X218112157Y-57416543D01*
X218113857Y-57418534D01*
X218115451Y-57420611D01*
X218116934Y-57422768D01*
X218118301Y-57425000D01*
X218119550Y-57427300D01*
X218120677Y-57429663D01*
X218121679Y-57432082D01*
X218122553Y-57434549D01*
X218123296Y-57437059D01*
X218123907Y-57439604D01*
X218124384Y-57442178D01*
X218124726Y-57444774D01*
X218124931Y-57447383D01*
X218125000Y-57450000D01*
X218125000Y-57700000D01*
X218124931Y-57702617D01*
X218124726Y-57705226D01*
X218124384Y-57707822D01*
X218123907Y-57710396D01*
X218123296Y-57712941D01*
X218122553Y-57715451D01*
X218121679Y-57717918D01*
X218120677Y-57720337D01*
X218119550Y-57722700D01*
X218118301Y-57725000D01*
X218116934Y-57727232D01*
X218115451Y-57729389D01*
X218113857Y-57731466D01*
X218112157Y-57733457D01*
X218110355Y-57735355D01*
X218108457Y-57737157D01*
X218106466Y-57738857D01*
X218104389Y-57740451D01*
X218102232Y-57741934D01*
X218100000Y-57743301D01*
X218097700Y-57744550D01*
X218095337Y-57745677D01*
X218092918Y-57746679D01*
X218090451Y-57747553D01*
X218087941Y-57748296D01*
X218085396Y-57748907D01*
X218082822Y-57749384D01*
X218080226Y-57749726D01*
X218077617Y-57749931D01*
X218075000Y-57750000D01*
X217525000Y-57750000D01*
X217522383Y-57749931D01*
X217519774Y-57749726D01*
X217517178Y-57749384D01*
X217514604Y-57748907D01*
X217512059Y-57748296D01*
X217509549Y-57747553D01*
X217507082Y-57746679D01*
X217504663Y-57745677D01*
X217502300Y-57744550D01*
X217500000Y-57743301D01*
X217497768Y-57741934D01*
X217495611Y-57740451D01*
X217493534Y-57738857D01*
X217491543Y-57737157D01*
X217489645Y-57735355D01*
X217487843Y-57733457D01*
X217486143Y-57731466D01*
X217484549Y-57729389D01*
X217483066Y-57727232D01*
X217481699Y-57725000D01*
X217480450Y-57722700D01*
X217479323Y-57720337D01*
X217478321Y-57717918D01*
X217477447Y-57715451D01*
X217476704Y-57712941D01*
X217476093Y-57710396D01*
X217475616Y-57707822D01*
X217475274Y-57705226D01*
X217475069Y-57702617D01*
X217475000Y-57700000D01*
X217475000Y-57450000D01*
X217475069Y-57447383D01*
X217475274Y-57444774D01*
X217475616Y-57442178D01*
X217476093Y-57439604D01*
X217476704Y-57437059D01*
X217477447Y-57434549D01*
X217478321Y-57432082D01*
X217479323Y-57429663D01*
X217480450Y-57427300D01*
X217481699Y-57425000D01*
X217483066Y-57422768D01*
X217484549Y-57420611D01*
X217486143Y-57418534D01*
X217487843Y-57416543D01*
X217489645Y-57414645D01*
X217491543Y-57412843D01*
X217493534Y-57411143D01*
X217495611Y-57409549D01*
X217497768Y-57408066D01*
X217500000Y-57406699D01*
X217502300Y-57405450D01*
X217504663Y-57404323D01*
X217507082Y-57403321D01*
X217509549Y-57402447D01*
X217512059Y-57401704D01*
X217514604Y-57401093D01*
X217517178Y-57400616D01*
X217519774Y-57400274D01*
X217522383Y-57400069D01*
X217525000Y-57400000D01*
X218075000Y-57400000D01*
X218077617Y-57400069D01*
G36*
G01*
X192910000Y-60936250D02*
X192910000Y-60423750D01*
G75*
G02*
X193128750Y-60205000I218750J0D01*
G01*
X193566250Y-60205000D01*
G75*
G02*
X193785000Y-60423750I0J-218750D01*
G01*
X193785000Y-60936250D01*
G75*
G02*
X193566250Y-61155000I-218750J0D01*
G01*
X193128750Y-61155000D01*
G75*
G02*
X192910000Y-60936250I0J218750D01*
G01*
G37*
G36*
G01*
X194485000Y-60936250D02*
X194485000Y-60423750D01*
G75*
G02*
X194703750Y-60205000I218750J0D01*
G01*
X195141250Y-60205000D01*
G75*
G02*
X195360000Y-60423750I0J-218750D01*
G01*
X195360000Y-60936250D01*
G75*
G02*
X195141250Y-61155000I-218750J0D01*
G01*
X194703750Y-61155000D01*
G75*
G02*
X194485000Y-60936250I0J218750D01*
G01*
G37*
G36*
G01*
X191550000Y-60423750D02*
X191550000Y-60936250D01*
G75*
G02*
X191331250Y-61155000I-218750J0D01*
G01*
X190893750Y-61155000D01*
G75*
G02*
X190675000Y-60936250I0J218750D01*
G01*
X190675000Y-60423750D01*
G75*
G02*
X190893750Y-60205000I218750J0D01*
G01*
X191331250Y-60205000D01*
G75*
G02*
X191550000Y-60423750I0J-218750D01*
G01*
G37*
G36*
G01*
X189975000Y-60423750D02*
X189975000Y-60936250D01*
G75*
G02*
X189756250Y-61155000I-218750J0D01*
G01*
X189318750Y-61155000D01*
G75*
G02*
X189100000Y-60936250I0J218750D01*
G01*
X189100000Y-60423750D01*
G75*
G02*
X189318750Y-60205000I218750J0D01*
G01*
X189756250Y-60205000D01*
G75*
G02*
X189975000Y-60423750I0J-218750D01*
G01*
G37*
G36*
G01*
X162802000Y-52749250D02*
X162802000Y-52236750D01*
G75*
G02*
X163020750Y-52018000I218750J0D01*
G01*
X163458250Y-52018000D01*
G75*
G02*
X163677000Y-52236750I0J-218750D01*
G01*
X163677000Y-52749250D01*
G75*
G02*
X163458250Y-52968000I-218750J0D01*
G01*
X163020750Y-52968000D01*
G75*
G02*
X162802000Y-52749250I0J218750D01*
G01*
G37*
G36*
G01*
X164377000Y-52749250D02*
X164377000Y-52236750D01*
G75*
G02*
X164595750Y-52018000I218750J0D01*
G01*
X165033250Y-52018000D01*
G75*
G02*
X165252000Y-52236750I0J-218750D01*
G01*
X165252000Y-52749250D01*
G75*
G02*
X165033250Y-52968000I-218750J0D01*
G01*
X164595750Y-52968000D01*
G75*
G02*
X164377000Y-52749250I0J218750D01*
G01*
G37*
G36*
G01*
X193425800Y-56780150D02*
X193425800Y-56267650D01*
G75*
G02*
X193644550Y-56048900I218750J0D01*
G01*
X194082050Y-56048900D01*
G75*
G02*
X194300800Y-56267650I0J-218750D01*
G01*
X194300800Y-56780150D01*
G75*
G02*
X194082050Y-56998900I-218750J0D01*
G01*
X193644550Y-56998900D01*
G75*
G02*
X193425800Y-56780150I0J218750D01*
G01*
G37*
G36*
G01*
X195000800Y-56780150D02*
X195000800Y-56267650D01*
G75*
G02*
X195219550Y-56048900I218750J0D01*
G01*
X195657050Y-56048900D01*
G75*
G02*
X195875800Y-56267650I0J-218750D01*
G01*
X195875800Y-56780150D01*
G75*
G02*
X195657050Y-56998900I-218750J0D01*
G01*
X195219550Y-56998900D01*
G75*
G02*
X195000800Y-56780150I0J218750D01*
G01*
G37*
G36*
G01*
X185646450Y-56188600D02*
X185133950Y-56188600D01*
G75*
G02*
X184915200Y-55969850I0J218750D01*
G01*
X184915200Y-55532350D01*
G75*
G02*
X185133950Y-55313600I218750J0D01*
G01*
X185646450Y-55313600D01*
G75*
G02*
X185865200Y-55532350I0J-218750D01*
G01*
X185865200Y-55969850D01*
G75*
G02*
X185646450Y-56188600I-218750J0D01*
G01*
G37*
G36*
G01*
X185646450Y-54613600D02*
X185133950Y-54613600D01*
G75*
G02*
X184915200Y-54394850I0J218750D01*
G01*
X184915200Y-53957350D01*
G75*
G02*
X185133950Y-53738600I218750J0D01*
G01*
X185646450Y-53738600D01*
G75*
G02*
X185865200Y-53957350I0J-218750D01*
G01*
X185865200Y-54394850D01*
G75*
G02*
X185646450Y-54613600I-218750J0D01*
G01*
G37*
G36*
G01*
X222544850Y-59027700D02*
X222032350Y-59027700D01*
G75*
G02*
X221813600Y-58808950I0J218750D01*
G01*
X221813600Y-58371450D01*
G75*
G02*
X222032350Y-58152700I218750J0D01*
G01*
X222544850Y-58152700D01*
G75*
G02*
X222763600Y-58371450I0J-218750D01*
G01*
X222763600Y-58808950D01*
G75*
G02*
X222544850Y-59027700I-218750J0D01*
G01*
G37*
G36*
G01*
X222544850Y-57452700D02*
X222032350Y-57452700D01*
G75*
G02*
X221813600Y-57233950I0J218750D01*
G01*
X221813600Y-56796450D01*
G75*
G02*
X222032350Y-56577700I218750J0D01*
G01*
X222544850Y-56577700D01*
G75*
G02*
X222763600Y-56796450I0J-218750D01*
G01*
X222763600Y-57233950D01*
G75*
G02*
X222544850Y-57452700I-218750J0D01*
G01*
G37*
D11*
X164230300Y-59071600D03*
X164230300Y-58563600D03*
X164230300Y-58081000D03*
X164230300Y-57573000D03*
X164230300Y-57065000D03*
X164230300Y-56557000D03*
X164230300Y-56074400D03*
X164230300Y-55566400D03*
D12*
X163519100Y-54855200D03*
X163011100Y-54855200D03*
X162528500Y-54855200D03*
X162020500Y-54855200D03*
X161512500Y-54855200D03*
X161004500Y-54855200D03*
X160521900Y-54855200D03*
X160013900Y-54855200D03*
D11*
X159302700Y-55566400D03*
X159302700Y-56074400D03*
X159302700Y-56557000D03*
X159302700Y-57065000D03*
X159302700Y-57573000D03*
X159302700Y-58081000D03*
X159302700Y-58563600D03*
X159302700Y-59071600D03*
D12*
X160013900Y-59782800D03*
X160521900Y-59782800D03*
X161004500Y-59782800D03*
X161512500Y-59782800D03*
X162020500Y-59782800D03*
X162528500Y-59782800D03*
X163011100Y-59782800D03*
X163519100Y-59782800D03*
D13*
X161766500Y-57319000D03*
D14*
X191900000Y-58662500D03*
D15*
X191962500Y-57850000D03*
X191962500Y-57350000D03*
X191962500Y-56850000D03*
X191962500Y-56350000D03*
D14*
X191900000Y-55537500D03*
X191400000Y-55537500D03*
X190900000Y-55537500D03*
X190400000Y-55537500D03*
X189900000Y-55537500D03*
X189400000Y-55537500D03*
X188900000Y-55537500D03*
X188400000Y-55537500D03*
X187900000Y-55537500D03*
X187400000Y-55537500D03*
D15*
X187337500Y-56350000D03*
X187337500Y-56850000D03*
X187337500Y-57350000D03*
X187337500Y-57850000D03*
D14*
X187400000Y-58662500D03*
X187900000Y-58662500D03*
X188400000Y-58662500D03*
X188900000Y-58662500D03*
X189400000Y-58662500D03*
X189900000Y-58662500D03*
X190400000Y-58662500D03*
X190900000Y-58662500D03*
X191400000Y-58662500D03*
G36*
G01*
X187464750Y-59921500D02*
X187977250Y-59921500D01*
G75*
G02*
X188196000Y-60140250I0J-218750D01*
G01*
X188196000Y-60577750D01*
G75*
G02*
X187977250Y-60796500I-218750J0D01*
G01*
X187464750Y-60796500D01*
G75*
G02*
X187246000Y-60577750I0J218750D01*
G01*
X187246000Y-60140250D01*
G75*
G02*
X187464750Y-59921500I218750J0D01*
G01*
G37*
G36*
G01*
X187464750Y-61496500D02*
X187977250Y-61496500D01*
G75*
G02*
X188196000Y-61715250I0J-218750D01*
G01*
X188196000Y-62152750D01*
G75*
G02*
X187977250Y-62371500I-218750J0D01*
G01*
X187464750Y-62371500D01*
G75*
G02*
X187246000Y-62152750I0J218750D01*
G01*
X187246000Y-61715250D01*
G75*
G02*
X187464750Y-61496500I218750J0D01*
G01*
G37*
G36*
G01*
X161075000Y-63081250D02*
X161075000Y-62568750D01*
G75*
G02*
X161293750Y-62350000I218750J0D01*
G01*
X161731250Y-62350000D01*
G75*
G02*
X161950000Y-62568750I0J-218750D01*
G01*
X161950000Y-63081250D01*
G75*
G02*
X161731250Y-63300000I-218750J0D01*
G01*
X161293750Y-63300000D01*
G75*
G02*
X161075000Y-63081250I0J218750D01*
G01*
G37*
G36*
G01*
X162650000Y-63081250D02*
X162650000Y-62568750D01*
G75*
G02*
X162868750Y-62350000I218750J0D01*
G01*
X163306250Y-62350000D01*
G75*
G02*
X163525000Y-62568750I0J-218750D01*
G01*
X163525000Y-63081250D01*
G75*
G02*
X163306250Y-63300000I-218750J0D01*
G01*
X162868750Y-63300000D01*
G75*
G02*
X162650000Y-63081250I0J218750D01*
G01*
G37*
G36*
G01*
X216044850Y-59065200D02*
X215532350Y-59065200D01*
G75*
G02*
X215313600Y-58846450I0J218750D01*
G01*
X215313600Y-58408950D01*
G75*
G02*
X215532350Y-58190200I218750J0D01*
G01*
X216044850Y-58190200D01*
G75*
G02*
X216263600Y-58408950I0J-218750D01*
G01*
X216263600Y-58846450D01*
G75*
G02*
X216044850Y-59065200I-218750J0D01*
G01*
G37*
G36*
G01*
X216044850Y-57490200D02*
X215532350Y-57490200D01*
G75*
G02*
X215313600Y-57271450I0J218750D01*
G01*
X215313600Y-56833950D01*
G75*
G02*
X215532350Y-56615200I218750J0D01*
G01*
X216044850Y-56615200D01*
G75*
G02*
X216263600Y-56833950I0J-218750D01*
G01*
X216263600Y-57271450D01*
G75*
G02*
X216044850Y-57490200I-218750J0D01*
G01*
G37*
G36*
G01*
X189240000Y-53398750D02*
X189240000Y-53911250D01*
G75*
G02*
X189021250Y-54130000I-218750J0D01*
G01*
X188583750Y-54130000D01*
G75*
G02*
X188365000Y-53911250I0J218750D01*
G01*
X188365000Y-53398750D01*
G75*
G02*
X188583750Y-53180000I218750J0D01*
G01*
X189021250Y-53180000D01*
G75*
G02*
X189240000Y-53398750I0J-218750D01*
G01*
G37*
G36*
G01*
X187665000Y-53398750D02*
X187665000Y-53911250D01*
G75*
G02*
X187446250Y-54130000I-218750J0D01*
G01*
X187008750Y-54130000D01*
G75*
G02*
X186790000Y-53911250I0J218750D01*
G01*
X186790000Y-53398750D01*
G75*
G02*
X187008750Y-53180000I218750J0D01*
G01*
X187446250Y-53180000D01*
G75*
G02*
X187665000Y-53398750I0J-218750D01*
G01*
G37*
G36*
G01*
X194001250Y-55097500D02*
X193488750Y-55097500D01*
G75*
G02*
X193270000Y-54878750I0J218750D01*
G01*
X193270000Y-54441250D01*
G75*
G02*
X193488750Y-54222500I218750J0D01*
G01*
X194001250Y-54222500D01*
G75*
G02*
X194220000Y-54441250I0J-218750D01*
G01*
X194220000Y-54878750D01*
G75*
G02*
X194001250Y-55097500I-218750J0D01*
G01*
G37*
G36*
G01*
X194001250Y-53522500D02*
X193488750Y-53522500D01*
G75*
G02*
X193270000Y-53303750I0J218750D01*
G01*
X193270000Y-52866250D01*
G75*
G02*
X193488750Y-52647500I218750J0D01*
G01*
X194001250Y-52647500D01*
G75*
G02*
X194220000Y-52866250I0J-218750D01*
G01*
X194220000Y-53303750D01*
G75*
G02*
X194001250Y-53522500I-218750J0D01*
G01*
G37*
G36*
G01*
X189986500Y-54170250D02*
X189986500Y-53657750D01*
G75*
G02*
X190205250Y-53439000I218750J0D01*
G01*
X190642750Y-53439000D01*
G75*
G02*
X190861500Y-53657750I0J-218750D01*
G01*
X190861500Y-54170250D01*
G75*
G02*
X190642750Y-54389000I-218750J0D01*
G01*
X190205250Y-54389000D01*
G75*
G02*
X189986500Y-54170250I0J218750D01*
G01*
G37*
G36*
G01*
X191561500Y-54170250D02*
X191561500Y-53657750D01*
G75*
G02*
X191780250Y-53439000I218750J0D01*
G01*
X192217750Y-53439000D01*
G75*
G02*
X192436500Y-53657750I0J-218750D01*
G01*
X192436500Y-54170250D01*
G75*
G02*
X192217750Y-54389000I-218750J0D01*
G01*
X191780250Y-54389000D01*
G75*
G02*
X191561500Y-54170250I0J218750D01*
G01*
G37*
G36*
G01*
X185178750Y-56924500D02*
X185691250Y-56924500D01*
G75*
G02*
X185910000Y-57143250I0J-218750D01*
G01*
X185910000Y-57580750D01*
G75*
G02*
X185691250Y-57799500I-218750J0D01*
G01*
X185178750Y-57799500D01*
G75*
G02*
X184960000Y-57580750I0J218750D01*
G01*
X184960000Y-57143250D01*
G75*
G02*
X185178750Y-56924500I218750J0D01*
G01*
G37*
G36*
G01*
X185178750Y-58499500D02*
X185691250Y-58499500D01*
G75*
G02*
X185910000Y-58718250I0J-218750D01*
G01*
X185910000Y-59155750D01*
G75*
G02*
X185691250Y-59374500I-218750J0D01*
G01*
X185178750Y-59374500D01*
G75*
G02*
X184960000Y-59155750I0J218750D01*
G01*
X184960000Y-58718250D01*
G75*
G02*
X185178750Y-58499500I218750J0D01*
G01*
G37*
G36*
G01*
X133243750Y-62245803D02*
X133756250Y-62245803D01*
G75*
G02*
X133975000Y-62464553I0J-218750D01*
G01*
X133975000Y-62902053D01*
G75*
G02*
X133756250Y-63120803I-218750J0D01*
G01*
X133243750Y-63120803D01*
G75*
G02*
X133025000Y-62902053I0J218750D01*
G01*
X133025000Y-62464553D01*
G75*
G02*
X133243750Y-62245803I218750J0D01*
G01*
G37*
G36*
G01*
X133243750Y-63820803D02*
X133756250Y-63820803D01*
G75*
G02*
X133975000Y-64039553I0J-218750D01*
G01*
X133975000Y-64477053D01*
G75*
G02*
X133756250Y-64695803I-218750J0D01*
G01*
X133243750Y-64695803D01*
G75*
G02*
X133025000Y-64477053I0J218750D01*
G01*
X133025000Y-64039553D01*
G75*
G02*
X133243750Y-63820803I218750J0D01*
G01*
G37*
D16*
X129238899Y-61183303D03*
X129238899Y-62133303D03*
X129238899Y-63083303D03*
X131438899Y-63083303D03*
X131438899Y-61183303D03*
G36*
G01*
X154470600Y-52514850D02*
X154470600Y-52002350D01*
G75*
G02*
X154689350Y-51783600I218750J0D01*
G01*
X155126850Y-51783600D01*
G75*
G02*
X155345600Y-52002350I0J-218750D01*
G01*
X155345600Y-52514850D01*
G75*
G02*
X155126850Y-52733600I-218750J0D01*
G01*
X154689350Y-52733600D01*
G75*
G02*
X154470600Y-52514850I0J218750D01*
G01*
G37*
G36*
G01*
X156045600Y-52514850D02*
X156045600Y-52002350D01*
G75*
G02*
X156264350Y-51783600I218750J0D01*
G01*
X156701850Y-51783600D01*
G75*
G02*
X156920600Y-52002350I0J-218750D01*
G01*
X156920600Y-52514850D01*
G75*
G02*
X156701850Y-52733600I-218750J0D01*
G01*
X156264350Y-52733600D01*
G75*
G02*
X156045600Y-52514850I0J218750D01*
G01*
G37*
G36*
G01*
X158128500Y-52540250D02*
X158128500Y-52027750D01*
G75*
G02*
X158347250Y-51809000I218750J0D01*
G01*
X158784750Y-51809000D01*
G75*
G02*
X159003500Y-52027750I0J-218750D01*
G01*
X159003500Y-52540250D01*
G75*
G02*
X158784750Y-52759000I-218750J0D01*
G01*
X158347250Y-52759000D01*
G75*
G02*
X158128500Y-52540250I0J218750D01*
G01*
G37*
G36*
G01*
X159703500Y-52540250D02*
X159703500Y-52027750D01*
G75*
G02*
X159922250Y-51809000I218750J0D01*
G01*
X160359750Y-51809000D01*
G75*
G02*
X160578500Y-52027750I0J-218750D01*
G01*
X160578500Y-52540250D01*
G75*
G02*
X160359750Y-52759000I-218750J0D01*
G01*
X159922250Y-52759000D01*
G75*
G02*
X159703500Y-52540250I0J218750D01*
G01*
G37*
G36*
G01*
X125854900Y-59456250D02*
X125854900Y-58943750D01*
G75*
G02*
X126073650Y-58725000I218750J0D01*
G01*
X126511150Y-58725000D01*
G75*
G02*
X126729900Y-58943750I0J-218750D01*
G01*
X126729900Y-59456250D01*
G75*
G02*
X126511150Y-59675000I-218750J0D01*
G01*
X126073650Y-59675000D01*
G75*
G02*
X125854900Y-59456250I0J218750D01*
G01*
G37*
G36*
G01*
X127429900Y-59456250D02*
X127429900Y-58943750D01*
G75*
G02*
X127648650Y-58725000I218750J0D01*
G01*
X128086150Y-58725000D01*
G75*
G02*
X128304900Y-58943750I0J-218750D01*
G01*
X128304900Y-59456250D01*
G75*
G02*
X128086150Y-59675000I-218750J0D01*
G01*
X127648650Y-59675000D01*
G75*
G02*
X127429900Y-59456250I0J218750D01*
G01*
G37*
G36*
G01*
X131962500Y-58943750D02*
X131962500Y-59456250D01*
G75*
G02*
X131743750Y-59675000I-218750J0D01*
G01*
X131306250Y-59675000D01*
G75*
G02*
X131087500Y-59456250I0J218750D01*
G01*
X131087500Y-58943750D01*
G75*
G02*
X131306250Y-58725000I218750J0D01*
G01*
X131743750Y-58725000D01*
G75*
G02*
X131962500Y-58943750I0J-218750D01*
G01*
G37*
G36*
G01*
X130387500Y-58943750D02*
X130387500Y-59456250D01*
G75*
G02*
X130168750Y-59675000I-218750J0D01*
G01*
X129731250Y-59675000D01*
G75*
G02*
X129512500Y-59456250I0J218750D01*
G01*
X129512500Y-58943750D01*
G75*
G02*
X129731250Y-58725000I218750J0D01*
G01*
X130168750Y-58725000D01*
G75*
G02*
X130387500Y-58943750I0J-218750D01*
G01*
G37*
G36*
G01*
X195723300Y-57944850D02*
X195723300Y-58457350D01*
G75*
G02*
X195504550Y-58676100I-218750J0D01*
G01*
X195067050Y-58676100D01*
G75*
G02*
X194848300Y-58457350I0J218750D01*
G01*
X194848300Y-57944850D01*
G75*
G02*
X195067050Y-57726100I218750J0D01*
G01*
X195504550Y-57726100D01*
G75*
G02*
X195723300Y-57944850I0J-218750D01*
G01*
G37*
G36*
G01*
X194148300Y-57944850D02*
X194148300Y-58457350D01*
G75*
G02*
X193929550Y-58676100I-218750J0D01*
G01*
X193492050Y-58676100D01*
G75*
G02*
X193273300Y-58457350I0J218750D01*
G01*
X193273300Y-57944850D01*
G75*
G02*
X193492050Y-57726100I218750J0D01*
G01*
X193929550Y-57726100D01*
G75*
G02*
X194148300Y-57944850I0J-218750D01*
G01*
G37*
D17*
X127311101Y-53616800D03*
X132771101Y-53616800D03*
X127311101Y-56156800D03*
X132771101Y-56156800D03*
D18*
X154400500Y-59269000D03*
X154400500Y-55369000D03*
X155670500Y-59269000D03*
X155670500Y-55369000D03*
X156940500Y-59269000D03*
X156940500Y-55369000D03*
D19*
X193817000Y-62696000D03*
X191317000Y-62696000D03*
G36*
G01*
X162337500Y-71693750D02*
X162337500Y-72206250D01*
G75*
G02*
X162118750Y-72425000I-218750J0D01*
G01*
X161681250Y-72425000D01*
G75*
G02*
X161462500Y-72206250I0J218750D01*
G01*
X161462500Y-71693750D01*
G75*
G02*
X161681250Y-71475000I218750J0D01*
G01*
X162118750Y-71475000D01*
G75*
G02*
X162337500Y-71693750I0J-218750D01*
G01*
G37*
G36*
G01*
X160762500Y-71693750D02*
X160762500Y-72206250D01*
G75*
G02*
X160543750Y-72425000I-218750J0D01*
G01*
X160106250Y-72425000D01*
G75*
G02*
X159887500Y-72206250I0J218750D01*
G01*
X159887500Y-71693750D01*
G75*
G02*
X160106250Y-71475000I218750J0D01*
G01*
X160543750Y-71475000D01*
G75*
G02*
X160762500Y-71693750I0J-218750D01*
G01*
G37*
G36*
G01*
X221975000Y-71693750D02*
X221975000Y-72206250D01*
G75*
G02*
X221756250Y-72425000I-218750J0D01*
G01*
X221318750Y-72425000D01*
G75*
G02*
X221100000Y-72206250I0J218750D01*
G01*
X221100000Y-71693750D01*
G75*
G02*
X221318750Y-71475000I218750J0D01*
G01*
X221756250Y-71475000D01*
G75*
G02*
X221975000Y-71693750I0J-218750D01*
G01*
G37*
G36*
G01*
X220400000Y-71693750D02*
X220400000Y-72206250D01*
G75*
G02*
X220181250Y-72425000I-218750J0D01*
G01*
X219743750Y-72425000D01*
G75*
G02*
X219525000Y-72206250I0J218750D01*
G01*
X219525000Y-71693750D01*
G75*
G02*
X219743750Y-71475000I218750J0D01*
G01*
X220181250Y-71475000D01*
G75*
G02*
X220400000Y-71693750I0J-218750D01*
G01*
G37*
G36*
G01*
X193536000Y-71693750D02*
X193536000Y-72206250D01*
G75*
G02*
X193317250Y-72425000I-218750J0D01*
G01*
X192879750Y-72425000D01*
G75*
G02*
X192661000Y-72206250I0J218750D01*
G01*
X192661000Y-71693750D01*
G75*
G02*
X192879750Y-71475000I218750J0D01*
G01*
X193317250Y-71475000D01*
G75*
G02*
X193536000Y-71693750I0J-218750D01*
G01*
G37*
G36*
G01*
X191961000Y-71693750D02*
X191961000Y-72206250D01*
G75*
G02*
X191742250Y-72425000I-218750J0D01*
G01*
X191304750Y-72425000D01*
G75*
G02*
X191086000Y-72206250I0J218750D01*
G01*
X191086000Y-71693750D01*
G75*
G02*
X191304750Y-71475000I218750J0D01*
G01*
X191742250Y-71475000D01*
G75*
G02*
X191961000Y-71693750I0J-218750D01*
G01*
G37*
G36*
G01*
X127125000Y-72206250D02*
X127125000Y-71693750D01*
G75*
G02*
X127343750Y-71475000I218750J0D01*
G01*
X127781250Y-71475000D01*
G75*
G02*
X128000000Y-71693750I0J-218750D01*
G01*
X128000000Y-72206250D01*
G75*
G02*
X127781250Y-72425000I-218750J0D01*
G01*
X127343750Y-72425000D01*
G75*
G02*
X127125000Y-72206250I0J218750D01*
G01*
G37*
G36*
G01*
X128700000Y-72206250D02*
X128700000Y-71693750D01*
G75*
G02*
X128918750Y-71475000I218750J0D01*
G01*
X129356250Y-71475000D01*
G75*
G02*
X129575000Y-71693750I0J-218750D01*
G01*
X129575000Y-72206250D01*
G75*
G02*
X129356250Y-72425000I-218750J0D01*
G01*
X128918750Y-72425000D01*
G75*
G02*
X128700000Y-72206250I0J218750D01*
G01*
G37*
G36*
G01*
X215515000Y-72206250D02*
X215515000Y-71693750D01*
G75*
G02*
X215733750Y-71475000I218750J0D01*
G01*
X216171250Y-71475000D01*
G75*
G02*
X216390000Y-71693750I0J-218750D01*
G01*
X216390000Y-72206250D01*
G75*
G02*
X216171250Y-72425000I-218750J0D01*
G01*
X215733750Y-72425000D01*
G75*
G02*
X215515000Y-72206250I0J218750D01*
G01*
G37*
G36*
G01*
X217090000Y-72206250D02*
X217090000Y-71693750D01*
G75*
G02*
X217308750Y-71475000I218750J0D01*
G01*
X217746250Y-71475000D01*
G75*
G02*
X217965000Y-71693750I0J-218750D01*
G01*
X217965000Y-72206250D01*
G75*
G02*
X217746250Y-72425000I-218750J0D01*
G01*
X217308750Y-72425000D01*
G75*
G02*
X217090000Y-72206250I0J218750D01*
G01*
G37*
G36*
G01*
X132875000Y-71693750D02*
X132875000Y-72206250D01*
G75*
G02*
X132656250Y-72425000I-218750J0D01*
G01*
X132218750Y-72425000D01*
G75*
G02*
X132000000Y-72206250I0J218750D01*
G01*
X132000000Y-71693750D01*
G75*
G02*
X132218750Y-71475000I218750J0D01*
G01*
X132656250Y-71475000D01*
G75*
G02*
X132875000Y-71693750I0J-218750D01*
G01*
G37*
G36*
G01*
X131300000Y-71693750D02*
X131300000Y-72206250D01*
G75*
G02*
X131081250Y-72425000I-218750J0D01*
G01*
X130643750Y-72425000D01*
G75*
G02*
X130425000Y-72206250I0J218750D01*
G01*
X130425000Y-71693750D01*
G75*
G02*
X130643750Y-71475000I218750J0D01*
G01*
X131081250Y-71475000D01*
G75*
G02*
X131300000Y-71693750I0J-218750D01*
G01*
G37*
G36*
G01*
X156237500Y-72206250D02*
X156237500Y-71693750D01*
G75*
G02*
X156456250Y-71475000I218750J0D01*
G01*
X156893750Y-71475000D01*
G75*
G02*
X157112500Y-71693750I0J-218750D01*
G01*
X157112500Y-72206250D01*
G75*
G02*
X156893750Y-72425000I-218750J0D01*
G01*
X156456250Y-72425000D01*
G75*
G02*
X156237500Y-72206250I0J218750D01*
G01*
G37*
G36*
G01*
X157812500Y-72206250D02*
X157812500Y-71693750D01*
G75*
G02*
X158031250Y-71475000I218750J0D01*
G01*
X158468750Y-71475000D01*
G75*
G02*
X158687500Y-71693750I0J-218750D01*
G01*
X158687500Y-72206250D01*
G75*
G02*
X158468750Y-72425000I-218750J0D01*
G01*
X158031250Y-72425000D01*
G75*
G02*
X157812500Y-72206250I0J218750D01*
G01*
G37*
G36*
G01*
X187225000Y-72206250D02*
X187225000Y-71693750D01*
G75*
G02*
X187443750Y-71475000I218750J0D01*
G01*
X187881250Y-71475000D01*
G75*
G02*
X188100000Y-71693750I0J-218750D01*
G01*
X188100000Y-72206250D01*
G75*
G02*
X187881250Y-72425000I-218750J0D01*
G01*
X187443750Y-72425000D01*
G75*
G02*
X187225000Y-72206250I0J218750D01*
G01*
G37*
G36*
G01*
X188800000Y-72206250D02*
X188800000Y-71693750D01*
G75*
G02*
X189018750Y-71475000I218750J0D01*
G01*
X189456250Y-71475000D01*
G75*
G02*
X189675000Y-71693750I0J-218750D01*
G01*
X189675000Y-72206250D01*
G75*
G02*
X189456250Y-72425000I-218750J0D01*
G01*
X189018750Y-72425000D01*
G75*
G02*
X188800000Y-72206250I0J218750D01*
G01*
G37*
G36*
G01*
X126143750Y-61795803D02*
X126656250Y-61795803D01*
G75*
G02*
X126875000Y-62014553I0J-218750D01*
G01*
X126875000Y-62452053D01*
G75*
G02*
X126656250Y-62670803I-218750J0D01*
G01*
X126143750Y-62670803D01*
G75*
G02*
X125925000Y-62452053I0J218750D01*
G01*
X125925000Y-62014553D01*
G75*
G02*
X126143750Y-61795803I218750J0D01*
G01*
G37*
G36*
G01*
X126143750Y-63370803D02*
X126656250Y-63370803D01*
G75*
G02*
X126875000Y-63589553I0J-218750D01*
G01*
X126875000Y-64027053D01*
G75*
G02*
X126656250Y-64245803I-218750J0D01*
G01*
X126143750Y-64245803D01*
G75*
G02*
X125925000Y-64027053I0J218750D01*
G01*
X125925000Y-63589553D01*
G75*
G02*
X126143750Y-63370803I218750J0D01*
G01*
G37*
M02*
