M48
; DRILL file {KiCad (5.99.0-2415-gbbdd3fce7)} date Monday, August 31, 2020 at 04:01:44 PM
; FORMAT={3:3/ absolute / metric / suppress leading zeros}
; #@! TF.CreationDate,2020-08-31T16:01:44-07:00
; #@! TF.GenerationSoftware,Kicad,Pcbnew,(5.99.0-2415-gbbdd3fce7)
FMAT,2
METRIC,TZ
T1C0.330
T2C0.400
%
G90
G05
T1
X133650Y-71950
X153970Y-63330
X155400Y-71900
X155544Y-57491
X156550Y-64901
X156559Y-63333
X156900Y-61950
X156950Y-61050
X157449Y-57491
X157612Y-63243
X157894Y-58700
X158338Y-56856
X158592Y-63206
X158600Y-64700
X159328Y-61072
X159950Y-61700
X160300Y-63200
X160751Y-56221
X160751Y-58380
X161259Y-61555
X162021Y-52284
X162070Y-61558
X162909Y-56221
X162909Y-58380
X163036Y-60793
X163400Y-64450
X164202Y-54884
X165196Y-58380
X165200Y-59150
X165621Y-56101
X165802Y-56958
X184009Y-52523
X184300Y-57200
X186380Y-71950
X193493Y-65283
X195450Y-64900
X214880Y-71950
X215800Y-59850
T2
X125661Y-52400
X126300Y-60300
X127600Y-64383
X130400Y-62133
X132200Y-64433
X153534Y-52184
X185390Y-53001
X188540Y-57101
X189490Y-62151
X190740Y-57101
X191990Y-52751
X195090Y-53201
X195240Y-62051
X195440Y-55101
X220089Y-55678
T0
M30
