G04 #@! TF.GenerationSoftware,KiCad,Pcbnew,(5.99.0-2415-gbbdd3fce7)*
G04 #@! TF.CreationDate,2020-08-31T16:01:39-07:00*
G04 #@! TF.ProjectId,VineHoop_Islands,56696e65-486f-46f7-905f-49736c616e64,rev?*
G04 #@! TF.SameCoordinates,Original*
G04 #@! TF.FileFunction,Copper,L1,Top*
G04 #@! TF.FilePolarity,Positive*
%FSLAX46Y46*%
G04 Gerber Fmt 4.6, Leading zero omitted, Abs format (unit mm)*
G04 Created by KiCad (PCBNEW (5.99.0-2415-gbbdd3fce7)) date 2020-08-31 16:01:39*
%MOMM*%
%LPD*%
G01*
G04 APERTURE LIST*
G04 #@! TA.AperFunction,EtchedComponent*
%ADD10C,0.010000*%
G04 #@! TD*
G04 #@! TA.AperFunction,SMDPad,CuDef*
%ADD11R,0.812800X0.304800*%
G04 #@! TD*
G04 #@! TA.AperFunction,SMDPad,CuDef*
%ADD12R,0.304800X0.812800*%
G04 #@! TD*
G04 #@! TA.AperFunction,SMDPad,CuDef*
%ADD13R,3.251200X3.251200*%
G04 #@! TD*
G04 #@! TA.AperFunction,SMDPad,CuDef*
%ADD14R,0.550000X0.250000*%
G04 #@! TD*
G04 #@! TA.AperFunction,SMDPad,CuDef*
%ADD15R,1.000000X1.000000*%
G04 #@! TD*
G04 #@! TA.AperFunction,SMDPad,CuDef*
%ADD16R,0.300000X0.525000*%
G04 #@! TD*
G04 #@! TA.AperFunction,SMDPad,CuDef*
%ADD17R,0.425000X0.300000*%
G04 #@! TD*
G04 #@! TA.AperFunction,SMDPad,CuDef*
%ADD18R,1.060000X0.650000*%
G04 #@! TD*
G04 #@! TA.AperFunction,SMDPad,CuDef*
%ADD19R,2.540000X1.270000*%
G04 #@! TD*
G04 #@! TA.AperFunction,SMDPad,CuDef*
%ADD20R,0.760000X2.400000*%
G04 #@! TD*
G04 #@! TA.AperFunction,SMDPad,CuDef*
%ADD21R,1.100000X1.900000*%
G04 #@! TD*
G04 #@! TA.AperFunction,ViaPad*
%ADD22C,0.660400*%
G04 #@! TD*
G04 #@! TA.AperFunction,ViaPad*
%ADD23C,0.800000*%
G04 #@! TD*
G04 #@! TA.AperFunction,Conductor*
%ADD24C,0.152400*%
G04 #@! TD*
G04 #@! TA.AperFunction,Conductor*
%ADD25C,0.254000*%
G04 #@! TD*
G04 #@! TA.AperFunction,Conductor*
%ADD26C,0.508000*%
G04 #@! TD*
G04 #@! TA.AperFunction,Conductor*
%ADD27C,0.381000*%
G04 #@! TD*
G04 #@! TA.AperFunction,Conductor*
%ADD28C,1.524000*%
G04 #@! TD*
G04 APERTURE END LIST*
G36*
X219475000Y-58675000D02*
G01*
X218475000Y-58675000D01*
X218475000Y-57275000D01*
X218775000Y-56975000D01*
X219475000Y-56975000D01*
X219475000Y-58675000D01*
G37*
D10*
X219475000Y-58675000D02*
X218475000Y-58675000D01*
X218475000Y-57275000D01*
X218775000Y-56975000D01*
X219475000Y-56975000D01*
X219475000Y-58675000D01*
G04 #@! TA.AperFunction,SMDPad,CuDef*
G36*
G01*
X192910000Y-60936250D02*
X192910000Y-60423750D01*
G75*
G02*
X193128750Y-60205000I218750J0D01*
G01*
X193566250Y-60205000D01*
G75*
G02*
X193785000Y-60423750I0J-218750D01*
G01*
X193785000Y-60936250D01*
G75*
G02*
X193566250Y-61155000I-218750J0D01*
G01*
X193128750Y-61155000D01*
G75*
G02*
X192910000Y-60936250I0J218750D01*
G01*
G37*
G04 #@! TD.AperFunction*
G04 #@! TA.AperFunction,SMDPad,CuDef*
G36*
G01*
X194485000Y-60936250D02*
X194485000Y-60423750D01*
G75*
G02*
X194703750Y-60205000I218750J0D01*
G01*
X195141250Y-60205000D01*
G75*
G02*
X195360000Y-60423750I0J-218750D01*
G01*
X195360000Y-60936250D01*
G75*
G02*
X195141250Y-61155000I-218750J0D01*
G01*
X194703750Y-61155000D01*
G75*
G02*
X194485000Y-60936250I0J218750D01*
G01*
G37*
G04 #@! TD.AperFunction*
G04 #@! TA.AperFunction,SMDPad,CuDef*
G36*
G01*
X191550000Y-60423750D02*
X191550000Y-60936250D01*
G75*
G02*
X191331250Y-61155000I-218750J0D01*
G01*
X190893750Y-61155000D01*
G75*
G02*
X190675000Y-60936250I0J218750D01*
G01*
X190675000Y-60423750D01*
G75*
G02*
X190893750Y-60205000I218750J0D01*
G01*
X191331250Y-60205000D01*
G75*
G02*
X191550000Y-60423750I0J-218750D01*
G01*
G37*
G04 #@! TD.AperFunction*
G04 #@! TA.AperFunction,SMDPad,CuDef*
G36*
G01*
X189975000Y-60423750D02*
X189975000Y-60936250D01*
G75*
G02*
X189756250Y-61155000I-218750J0D01*
G01*
X189318750Y-61155000D01*
G75*
G02*
X189100000Y-60936250I0J218750D01*
G01*
X189100000Y-60423750D01*
G75*
G02*
X189318750Y-60205000I218750J0D01*
G01*
X189756250Y-60205000D01*
G75*
G02*
X189975000Y-60423750I0J-218750D01*
G01*
G37*
G04 #@! TD.AperFunction*
G04 #@! TA.AperFunction,SMDPad,CuDef*
G36*
G01*
X162802000Y-52749250D02*
X162802000Y-52236750D01*
G75*
G02*
X163020750Y-52018000I218750J0D01*
G01*
X163458250Y-52018000D01*
G75*
G02*
X163677000Y-52236750I0J-218750D01*
G01*
X163677000Y-52749250D01*
G75*
G02*
X163458250Y-52968000I-218750J0D01*
G01*
X163020750Y-52968000D01*
G75*
G02*
X162802000Y-52749250I0J218750D01*
G01*
G37*
G04 #@! TD.AperFunction*
G04 #@! TA.AperFunction,SMDPad,CuDef*
G36*
G01*
X164377000Y-52749250D02*
X164377000Y-52236750D01*
G75*
G02*
X164595750Y-52018000I218750J0D01*
G01*
X165033250Y-52018000D01*
G75*
G02*
X165252000Y-52236750I0J-218750D01*
G01*
X165252000Y-52749250D01*
G75*
G02*
X165033250Y-52968000I-218750J0D01*
G01*
X164595750Y-52968000D01*
G75*
G02*
X164377000Y-52749250I0J218750D01*
G01*
G37*
G04 #@! TD.AperFunction*
G04 #@! TA.AperFunction,SMDPad,CuDef*
G36*
G01*
X193425800Y-56780150D02*
X193425800Y-56267650D01*
G75*
G02*
X193644550Y-56048900I218750J0D01*
G01*
X194082050Y-56048900D01*
G75*
G02*
X194300800Y-56267650I0J-218750D01*
G01*
X194300800Y-56780150D01*
G75*
G02*
X194082050Y-56998900I-218750J0D01*
G01*
X193644550Y-56998900D01*
G75*
G02*
X193425800Y-56780150I0J218750D01*
G01*
G37*
G04 #@! TD.AperFunction*
G04 #@! TA.AperFunction,SMDPad,CuDef*
G36*
G01*
X195000800Y-56780150D02*
X195000800Y-56267650D01*
G75*
G02*
X195219550Y-56048900I218750J0D01*
G01*
X195657050Y-56048900D01*
G75*
G02*
X195875800Y-56267650I0J-218750D01*
G01*
X195875800Y-56780150D01*
G75*
G02*
X195657050Y-56998900I-218750J0D01*
G01*
X195219550Y-56998900D01*
G75*
G02*
X195000800Y-56780150I0J218750D01*
G01*
G37*
G04 #@! TD.AperFunction*
G04 #@! TA.AperFunction,SMDPad,CuDef*
G36*
G01*
X185646450Y-56188600D02*
X185133950Y-56188600D01*
G75*
G02*
X184915200Y-55969850I0J218750D01*
G01*
X184915200Y-55532350D01*
G75*
G02*
X185133950Y-55313600I218750J0D01*
G01*
X185646450Y-55313600D01*
G75*
G02*
X185865200Y-55532350I0J-218750D01*
G01*
X185865200Y-55969850D01*
G75*
G02*
X185646450Y-56188600I-218750J0D01*
G01*
G37*
G04 #@! TD.AperFunction*
G04 #@! TA.AperFunction,SMDPad,CuDef*
G36*
G01*
X185646450Y-54613600D02*
X185133950Y-54613600D01*
G75*
G02*
X184915200Y-54394850I0J218750D01*
G01*
X184915200Y-53957350D01*
G75*
G02*
X185133950Y-53738600I218750J0D01*
G01*
X185646450Y-53738600D01*
G75*
G02*
X185865200Y-53957350I0J-218750D01*
G01*
X185865200Y-54394850D01*
G75*
G02*
X185646450Y-54613600I-218750J0D01*
G01*
G37*
G04 #@! TD.AperFunction*
G04 #@! TA.AperFunction,SMDPad,CuDef*
G36*
G01*
X222544850Y-59027700D02*
X222032350Y-59027700D01*
G75*
G02*
X221813600Y-58808950I0J218750D01*
G01*
X221813600Y-58371450D01*
G75*
G02*
X222032350Y-58152700I218750J0D01*
G01*
X222544850Y-58152700D01*
G75*
G02*
X222763600Y-58371450I0J-218750D01*
G01*
X222763600Y-58808950D01*
G75*
G02*
X222544850Y-59027700I-218750J0D01*
G01*
G37*
G04 #@! TD.AperFunction*
G04 #@! TA.AperFunction,SMDPad,CuDef*
G36*
G01*
X222544850Y-57452700D02*
X222032350Y-57452700D01*
G75*
G02*
X221813600Y-57233950I0J218750D01*
G01*
X221813600Y-56796450D01*
G75*
G02*
X222032350Y-56577700I218750J0D01*
G01*
X222544850Y-56577700D01*
G75*
G02*
X222763600Y-56796450I0J-218750D01*
G01*
X222763600Y-57233950D01*
G75*
G02*
X222544850Y-57452700I-218750J0D01*
G01*
G37*
G04 #@! TD.AperFunction*
D11*
X164230300Y-59071600D03*
X164230300Y-58563600D03*
X164230300Y-58081000D03*
X164230300Y-57573000D03*
X164230300Y-57065000D03*
X164230300Y-56557000D03*
X164230300Y-56074400D03*
X164230300Y-55566400D03*
D12*
X163519100Y-54855200D03*
X163011100Y-54855200D03*
X162528500Y-54855200D03*
X162020500Y-54855200D03*
X161512500Y-54855200D03*
X161004500Y-54855200D03*
X160521900Y-54855200D03*
X160013900Y-54855200D03*
D11*
X159302700Y-55566400D03*
X159302700Y-56074400D03*
X159302700Y-56557000D03*
X159302700Y-57065000D03*
X159302700Y-57573000D03*
X159302700Y-58081000D03*
X159302700Y-58563600D03*
X159302700Y-59071600D03*
D12*
X160013900Y-59782800D03*
X160521900Y-59782800D03*
X161004500Y-59782800D03*
X161512500Y-59782800D03*
X162020500Y-59782800D03*
X162528500Y-59782800D03*
X163011100Y-59782800D03*
X163519100Y-59782800D03*
D13*
X161766500Y-57319000D03*
D14*
X217800000Y-57075000D03*
X217800000Y-57575000D03*
X217800000Y-58075000D03*
X217800000Y-58575000D03*
X220150000Y-58575000D03*
X220150000Y-58075000D03*
X220150000Y-57575000D03*
X220150000Y-57075000D03*
D15*
X218975000Y-57825000D03*
D16*
X191900000Y-58662500D03*
D17*
X191962500Y-57850000D03*
X191962500Y-57350000D03*
X191962500Y-56850000D03*
X191962500Y-56350000D03*
D16*
X191900000Y-55537500D03*
X191400000Y-55537500D03*
X190900000Y-55537500D03*
X190400000Y-55537500D03*
X189900000Y-55537500D03*
X189400000Y-55537500D03*
X188900000Y-55537500D03*
X188400000Y-55537500D03*
X187900000Y-55537500D03*
X187400000Y-55537500D03*
D17*
X187337500Y-56350000D03*
X187337500Y-56850000D03*
X187337500Y-57350000D03*
X187337500Y-57850000D03*
D16*
X187400000Y-58662500D03*
X187900000Y-58662500D03*
X188400000Y-58662500D03*
X188900000Y-58662500D03*
X189400000Y-58662500D03*
X189900000Y-58662500D03*
X190400000Y-58662500D03*
X190900000Y-58662500D03*
X191400000Y-58662500D03*
G04 #@! TA.AperFunction,SMDPad,CuDef*
G36*
G01*
X187464750Y-59921500D02*
X187977250Y-59921500D01*
G75*
G02*
X188196000Y-60140250I0J-218750D01*
G01*
X188196000Y-60577750D01*
G75*
G02*
X187977250Y-60796500I-218750J0D01*
G01*
X187464750Y-60796500D01*
G75*
G02*
X187246000Y-60577750I0J218750D01*
G01*
X187246000Y-60140250D01*
G75*
G02*
X187464750Y-59921500I218750J0D01*
G01*
G37*
G04 #@! TD.AperFunction*
G04 #@! TA.AperFunction,SMDPad,CuDef*
G36*
G01*
X187464750Y-61496500D02*
X187977250Y-61496500D01*
G75*
G02*
X188196000Y-61715250I0J-218750D01*
G01*
X188196000Y-62152750D01*
G75*
G02*
X187977250Y-62371500I-218750J0D01*
G01*
X187464750Y-62371500D01*
G75*
G02*
X187246000Y-62152750I0J218750D01*
G01*
X187246000Y-61715250D01*
G75*
G02*
X187464750Y-61496500I218750J0D01*
G01*
G37*
G04 #@! TD.AperFunction*
G04 #@! TA.AperFunction,SMDPad,CuDef*
G36*
G01*
X161075000Y-63081250D02*
X161075000Y-62568750D01*
G75*
G02*
X161293750Y-62350000I218750J0D01*
G01*
X161731250Y-62350000D01*
G75*
G02*
X161950000Y-62568750I0J-218750D01*
G01*
X161950000Y-63081250D01*
G75*
G02*
X161731250Y-63300000I-218750J0D01*
G01*
X161293750Y-63300000D01*
G75*
G02*
X161075000Y-63081250I0J218750D01*
G01*
G37*
G04 #@! TD.AperFunction*
G04 #@! TA.AperFunction,SMDPad,CuDef*
G36*
G01*
X162650000Y-63081250D02*
X162650000Y-62568750D01*
G75*
G02*
X162868750Y-62350000I218750J0D01*
G01*
X163306250Y-62350000D01*
G75*
G02*
X163525000Y-62568750I0J-218750D01*
G01*
X163525000Y-63081250D01*
G75*
G02*
X163306250Y-63300000I-218750J0D01*
G01*
X162868750Y-63300000D01*
G75*
G02*
X162650000Y-63081250I0J218750D01*
G01*
G37*
G04 #@! TD.AperFunction*
G04 #@! TA.AperFunction,SMDPad,CuDef*
G36*
G01*
X216044850Y-59065200D02*
X215532350Y-59065200D01*
G75*
G02*
X215313600Y-58846450I0J218750D01*
G01*
X215313600Y-58408950D01*
G75*
G02*
X215532350Y-58190200I218750J0D01*
G01*
X216044850Y-58190200D01*
G75*
G02*
X216263600Y-58408950I0J-218750D01*
G01*
X216263600Y-58846450D01*
G75*
G02*
X216044850Y-59065200I-218750J0D01*
G01*
G37*
G04 #@! TD.AperFunction*
G04 #@! TA.AperFunction,SMDPad,CuDef*
G36*
G01*
X216044850Y-57490200D02*
X215532350Y-57490200D01*
G75*
G02*
X215313600Y-57271450I0J218750D01*
G01*
X215313600Y-56833950D01*
G75*
G02*
X215532350Y-56615200I218750J0D01*
G01*
X216044850Y-56615200D01*
G75*
G02*
X216263600Y-56833950I0J-218750D01*
G01*
X216263600Y-57271450D01*
G75*
G02*
X216044850Y-57490200I-218750J0D01*
G01*
G37*
G04 #@! TD.AperFunction*
G04 #@! TA.AperFunction,SMDPad,CuDef*
G36*
G01*
X189240000Y-53398750D02*
X189240000Y-53911250D01*
G75*
G02*
X189021250Y-54130000I-218750J0D01*
G01*
X188583750Y-54130000D01*
G75*
G02*
X188365000Y-53911250I0J218750D01*
G01*
X188365000Y-53398750D01*
G75*
G02*
X188583750Y-53180000I218750J0D01*
G01*
X189021250Y-53180000D01*
G75*
G02*
X189240000Y-53398750I0J-218750D01*
G01*
G37*
G04 #@! TD.AperFunction*
G04 #@! TA.AperFunction,SMDPad,CuDef*
G36*
G01*
X187665000Y-53398750D02*
X187665000Y-53911250D01*
G75*
G02*
X187446250Y-54130000I-218750J0D01*
G01*
X187008750Y-54130000D01*
G75*
G02*
X186790000Y-53911250I0J218750D01*
G01*
X186790000Y-53398750D01*
G75*
G02*
X187008750Y-53180000I218750J0D01*
G01*
X187446250Y-53180000D01*
G75*
G02*
X187665000Y-53398750I0J-218750D01*
G01*
G37*
G04 #@! TD.AperFunction*
G04 #@! TA.AperFunction,SMDPad,CuDef*
G36*
G01*
X194001250Y-55097500D02*
X193488750Y-55097500D01*
G75*
G02*
X193270000Y-54878750I0J218750D01*
G01*
X193270000Y-54441250D01*
G75*
G02*
X193488750Y-54222500I218750J0D01*
G01*
X194001250Y-54222500D01*
G75*
G02*
X194220000Y-54441250I0J-218750D01*
G01*
X194220000Y-54878750D01*
G75*
G02*
X194001250Y-55097500I-218750J0D01*
G01*
G37*
G04 #@! TD.AperFunction*
G04 #@! TA.AperFunction,SMDPad,CuDef*
G36*
G01*
X194001250Y-53522500D02*
X193488750Y-53522500D01*
G75*
G02*
X193270000Y-53303750I0J218750D01*
G01*
X193270000Y-52866250D01*
G75*
G02*
X193488750Y-52647500I218750J0D01*
G01*
X194001250Y-52647500D01*
G75*
G02*
X194220000Y-52866250I0J-218750D01*
G01*
X194220000Y-53303750D01*
G75*
G02*
X194001250Y-53522500I-218750J0D01*
G01*
G37*
G04 #@! TD.AperFunction*
G04 #@! TA.AperFunction,SMDPad,CuDef*
G36*
G01*
X189986500Y-54170250D02*
X189986500Y-53657750D01*
G75*
G02*
X190205250Y-53439000I218750J0D01*
G01*
X190642750Y-53439000D01*
G75*
G02*
X190861500Y-53657750I0J-218750D01*
G01*
X190861500Y-54170250D01*
G75*
G02*
X190642750Y-54389000I-218750J0D01*
G01*
X190205250Y-54389000D01*
G75*
G02*
X189986500Y-54170250I0J218750D01*
G01*
G37*
G04 #@! TD.AperFunction*
G04 #@! TA.AperFunction,SMDPad,CuDef*
G36*
G01*
X191561500Y-54170250D02*
X191561500Y-53657750D01*
G75*
G02*
X191780250Y-53439000I218750J0D01*
G01*
X192217750Y-53439000D01*
G75*
G02*
X192436500Y-53657750I0J-218750D01*
G01*
X192436500Y-54170250D01*
G75*
G02*
X192217750Y-54389000I-218750J0D01*
G01*
X191780250Y-54389000D01*
G75*
G02*
X191561500Y-54170250I0J218750D01*
G01*
G37*
G04 #@! TD.AperFunction*
G04 #@! TA.AperFunction,SMDPad,CuDef*
G36*
G01*
X185178750Y-56924500D02*
X185691250Y-56924500D01*
G75*
G02*
X185910000Y-57143250I0J-218750D01*
G01*
X185910000Y-57580750D01*
G75*
G02*
X185691250Y-57799500I-218750J0D01*
G01*
X185178750Y-57799500D01*
G75*
G02*
X184960000Y-57580750I0J218750D01*
G01*
X184960000Y-57143250D01*
G75*
G02*
X185178750Y-56924500I218750J0D01*
G01*
G37*
G04 #@! TD.AperFunction*
G04 #@! TA.AperFunction,SMDPad,CuDef*
G36*
G01*
X185178750Y-58499500D02*
X185691250Y-58499500D01*
G75*
G02*
X185910000Y-58718250I0J-218750D01*
G01*
X185910000Y-59155750D01*
G75*
G02*
X185691250Y-59374500I-218750J0D01*
G01*
X185178750Y-59374500D01*
G75*
G02*
X184960000Y-59155750I0J218750D01*
G01*
X184960000Y-58718250D01*
G75*
G02*
X185178750Y-58499500I218750J0D01*
G01*
G37*
G04 #@! TD.AperFunction*
G04 #@! TA.AperFunction,SMDPad,CuDef*
G36*
G01*
X133243750Y-62245803D02*
X133756250Y-62245803D01*
G75*
G02*
X133975000Y-62464553I0J-218750D01*
G01*
X133975000Y-62902053D01*
G75*
G02*
X133756250Y-63120803I-218750J0D01*
G01*
X133243750Y-63120803D01*
G75*
G02*
X133025000Y-62902053I0J218750D01*
G01*
X133025000Y-62464553D01*
G75*
G02*
X133243750Y-62245803I218750J0D01*
G01*
G37*
G04 #@! TD.AperFunction*
G04 #@! TA.AperFunction,SMDPad,CuDef*
G36*
G01*
X133243750Y-63820803D02*
X133756250Y-63820803D01*
G75*
G02*
X133975000Y-64039553I0J-218750D01*
G01*
X133975000Y-64477053D01*
G75*
G02*
X133756250Y-64695803I-218750J0D01*
G01*
X133243750Y-64695803D01*
G75*
G02*
X133025000Y-64477053I0J218750D01*
G01*
X133025000Y-64039553D01*
G75*
G02*
X133243750Y-63820803I218750J0D01*
G01*
G37*
G04 #@! TD.AperFunction*
D18*
X129238899Y-61183303D03*
X129238899Y-62133303D03*
X129238899Y-63083303D03*
X131438899Y-63083303D03*
X131438899Y-61183303D03*
G04 #@! TA.AperFunction,SMDPad,CuDef*
G36*
G01*
X154470600Y-52514850D02*
X154470600Y-52002350D01*
G75*
G02*
X154689350Y-51783600I218750J0D01*
G01*
X155126850Y-51783600D01*
G75*
G02*
X155345600Y-52002350I0J-218750D01*
G01*
X155345600Y-52514850D01*
G75*
G02*
X155126850Y-52733600I-218750J0D01*
G01*
X154689350Y-52733600D01*
G75*
G02*
X154470600Y-52514850I0J218750D01*
G01*
G37*
G04 #@! TD.AperFunction*
G04 #@! TA.AperFunction,SMDPad,CuDef*
G36*
G01*
X156045600Y-52514850D02*
X156045600Y-52002350D01*
G75*
G02*
X156264350Y-51783600I218750J0D01*
G01*
X156701850Y-51783600D01*
G75*
G02*
X156920600Y-52002350I0J-218750D01*
G01*
X156920600Y-52514850D01*
G75*
G02*
X156701850Y-52733600I-218750J0D01*
G01*
X156264350Y-52733600D01*
G75*
G02*
X156045600Y-52514850I0J218750D01*
G01*
G37*
G04 #@! TD.AperFunction*
G04 #@! TA.AperFunction,SMDPad,CuDef*
G36*
G01*
X158128500Y-52540250D02*
X158128500Y-52027750D01*
G75*
G02*
X158347250Y-51809000I218750J0D01*
G01*
X158784750Y-51809000D01*
G75*
G02*
X159003500Y-52027750I0J-218750D01*
G01*
X159003500Y-52540250D01*
G75*
G02*
X158784750Y-52759000I-218750J0D01*
G01*
X158347250Y-52759000D01*
G75*
G02*
X158128500Y-52540250I0J218750D01*
G01*
G37*
G04 #@! TD.AperFunction*
G04 #@! TA.AperFunction,SMDPad,CuDef*
G36*
G01*
X159703500Y-52540250D02*
X159703500Y-52027750D01*
G75*
G02*
X159922250Y-51809000I218750J0D01*
G01*
X160359750Y-51809000D01*
G75*
G02*
X160578500Y-52027750I0J-218750D01*
G01*
X160578500Y-52540250D01*
G75*
G02*
X160359750Y-52759000I-218750J0D01*
G01*
X159922250Y-52759000D01*
G75*
G02*
X159703500Y-52540250I0J218750D01*
G01*
G37*
G04 #@! TD.AperFunction*
G04 #@! TA.AperFunction,SMDPad,CuDef*
G36*
G01*
X125854900Y-59456250D02*
X125854900Y-58943750D01*
G75*
G02*
X126073650Y-58725000I218750J0D01*
G01*
X126511150Y-58725000D01*
G75*
G02*
X126729900Y-58943750I0J-218750D01*
G01*
X126729900Y-59456250D01*
G75*
G02*
X126511150Y-59675000I-218750J0D01*
G01*
X126073650Y-59675000D01*
G75*
G02*
X125854900Y-59456250I0J218750D01*
G01*
G37*
G04 #@! TD.AperFunction*
G04 #@! TA.AperFunction,SMDPad,CuDef*
G36*
G01*
X127429900Y-59456250D02*
X127429900Y-58943750D01*
G75*
G02*
X127648650Y-58725000I218750J0D01*
G01*
X128086150Y-58725000D01*
G75*
G02*
X128304900Y-58943750I0J-218750D01*
G01*
X128304900Y-59456250D01*
G75*
G02*
X128086150Y-59675000I-218750J0D01*
G01*
X127648650Y-59675000D01*
G75*
G02*
X127429900Y-59456250I0J218750D01*
G01*
G37*
G04 #@! TD.AperFunction*
G04 #@! TA.AperFunction,SMDPad,CuDef*
G36*
G01*
X131962500Y-58943750D02*
X131962500Y-59456250D01*
G75*
G02*
X131743750Y-59675000I-218750J0D01*
G01*
X131306250Y-59675000D01*
G75*
G02*
X131087500Y-59456250I0J218750D01*
G01*
X131087500Y-58943750D01*
G75*
G02*
X131306250Y-58725000I218750J0D01*
G01*
X131743750Y-58725000D01*
G75*
G02*
X131962500Y-58943750I0J-218750D01*
G01*
G37*
G04 #@! TD.AperFunction*
G04 #@! TA.AperFunction,SMDPad,CuDef*
G36*
G01*
X130387500Y-58943750D02*
X130387500Y-59456250D01*
G75*
G02*
X130168750Y-59675000I-218750J0D01*
G01*
X129731250Y-59675000D01*
G75*
G02*
X129512500Y-59456250I0J218750D01*
G01*
X129512500Y-58943750D01*
G75*
G02*
X129731250Y-58725000I218750J0D01*
G01*
X130168750Y-58725000D01*
G75*
G02*
X130387500Y-58943750I0J-218750D01*
G01*
G37*
G04 #@! TD.AperFunction*
G04 #@! TA.AperFunction,SMDPad,CuDef*
G36*
G01*
X195723300Y-57944850D02*
X195723300Y-58457350D01*
G75*
G02*
X195504550Y-58676100I-218750J0D01*
G01*
X195067050Y-58676100D01*
G75*
G02*
X194848300Y-58457350I0J218750D01*
G01*
X194848300Y-57944850D01*
G75*
G02*
X195067050Y-57726100I218750J0D01*
G01*
X195504550Y-57726100D01*
G75*
G02*
X195723300Y-57944850I0J-218750D01*
G01*
G37*
G04 #@! TD.AperFunction*
G04 #@! TA.AperFunction,SMDPad,CuDef*
G36*
G01*
X194148300Y-57944850D02*
X194148300Y-58457350D01*
G75*
G02*
X193929550Y-58676100I-218750J0D01*
G01*
X193492050Y-58676100D01*
G75*
G02*
X193273300Y-58457350I0J218750D01*
G01*
X193273300Y-57944850D01*
G75*
G02*
X193492050Y-57726100I218750J0D01*
G01*
X193929550Y-57726100D01*
G75*
G02*
X194148300Y-57944850I0J-218750D01*
G01*
G37*
G04 #@! TD.AperFunction*
D19*
X127311101Y-53616800D03*
X132771101Y-53616800D03*
X127311101Y-56156800D03*
X132771101Y-56156800D03*
D20*
X154400500Y-59269000D03*
X154400500Y-55369000D03*
X155670500Y-59269000D03*
X155670500Y-55369000D03*
X156940500Y-59269000D03*
X156940500Y-55369000D03*
D21*
X193817000Y-62696000D03*
X191317000Y-62696000D03*
G04 #@! TA.AperFunction,SMDPad,CuDef*
G36*
G01*
X162337500Y-71693750D02*
X162337500Y-72206250D01*
G75*
G02*
X162118750Y-72425000I-218750J0D01*
G01*
X161681250Y-72425000D01*
G75*
G02*
X161462500Y-72206250I0J218750D01*
G01*
X161462500Y-71693750D01*
G75*
G02*
X161681250Y-71475000I218750J0D01*
G01*
X162118750Y-71475000D01*
G75*
G02*
X162337500Y-71693750I0J-218750D01*
G01*
G37*
G04 #@! TD.AperFunction*
G04 #@! TA.AperFunction,SMDPad,CuDef*
G36*
G01*
X160762500Y-71693750D02*
X160762500Y-72206250D01*
G75*
G02*
X160543750Y-72425000I-218750J0D01*
G01*
X160106250Y-72425000D01*
G75*
G02*
X159887500Y-72206250I0J218750D01*
G01*
X159887500Y-71693750D01*
G75*
G02*
X160106250Y-71475000I218750J0D01*
G01*
X160543750Y-71475000D01*
G75*
G02*
X160762500Y-71693750I0J-218750D01*
G01*
G37*
G04 #@! TD.AperFunction*
G04 #@! TA.AperFunction,SMDPad,CuDef*
G36*
G01*
X221975000Y-71693750D02*
X221975000Y-72206250D01*
G75*
G02*
X221756250Y-72425000I-218750J0D01*
G01*
X221318750Y-72425000D01*
G75*
G02*
X221100000Y-72206250I0J218750D01*
G01*
X221100000Y-71693750D01*
G75*
G02*
X221318750Y-71475000I218750J0D01*
G01*
X221756250Y-71475000D01*
G75*
G02*
X221975000Y-71693750I0J-218750D01*
G01*
G37*
G04 #@! TD.AperFunction*
G04 #@! TA.AperFunction,SMDPad,CuDef*
G36*
G01*
X220400000Y-71693750D02*
X220400000Y-72206250D01*
G75*
G02*
X220181250Y-72425000I-218750J0D01*
G01*
X219743750Y-72425000D01*
G75*
G02*
X219525000Y-72206250I0J218750D01*
G01*
X219525000Y-71693750D01*
G75*
G02*
X219743750Y-71475000I218750J0D01*
G01*
X220181250Y-71475000D01*
G75*
G02*
X220400000Y-71693750I0J-218750D01*
G01*
G37*
G04 #@! TD.AperFunction*
G04 #@! TA.AperFunction,SMDPad,CuDef*
G36*
G01*
X193536000Y-71693750D02*
X193536000Y-72206250D01*
G75*
G02*
X193317250Y-72425000I-218750J0D01*
G01*
X192879750Y-72425000D01*
G75*
G02*
X192661000Y-72206250I0J218750D01*
G01*
X192661000Y-71693750D01*
G75*
G02*
X192879750Y-71475000I218750J0D01*
G01*
X193317250Y-71475000D01*
G75*
G02*
X193536000Y-71693750I0J-218750D01*
G01*
G37*
G04 #@! TD.AperFunction*
G04 #@! TA.AperFunction,SMDPad,CuDef*
G36*
G01*
X191961000Y-71693750D02*
X191961000Y-72206250D01*
G75*
G02*
X191742250Y-72425000I-218750J0D01*
G01*
X191304750Y-72425000D01*
G75*
G02*
X191086000Y-72206250I0J218750D01*
G01*
X191086000Y-71693750D01*
G75*
G02*
X191304750Y-71475000I218750J0D01*
G01*
X191742250Y-71475000D01*
G75*
G02*
X191961000Y-71693750I0J-218750D01*
G01*
G37*
G04 #@! TD.AperFunction*
G04 #@! TA.AperFunction,SMDPad,CuDef*
G36*
G01*
X127125000Y-72206250D02*
X127125000Y-71693750D01*
G75*
G02*
X127343750Y-71475000I218750J0D01*
G01*
X127781250Y-71475000D01*
G75*
G02*
X128000000Y-71693750I0J-218750D01*
G01*
X128000000Y-72206250D01*
G75*
G02*
X127781250Y-72425000I-218750J0D01*
G01*
X127343750Y-72425000D01*
G75*
G02*
X127125000Y-72206250I0J218750D01*
G01*
G37*
G04 #@! TD.AperFunction*
G04 #@! TA.AperFunction,SMDPad,CuDef*
G36*
G01*
X128700000Y-72206250D02*
X128700000Y-71693750D01*
G75*
G02*
X128918750Y-71475000I218750J0D01*
G01*
X129356250Y-71475000D01*
G75*
G02*
X129575000Y-71693750I0J-218750D01*
G01*
X129575000Y-72206250D01*
G75*
G02*
X129356250Y-72425000I-218750J0D01*
G01*
X128918750Y-72425000D01*
G75*
G02*
X128700000Y-72206250I0J218750D01*
G01*
G37*
G04 #@! TD.AperFunction*
G04 #@! TA.AperFunction,SMDPad,CuDef*
G36*
G01*
X215515000Y-72206250D02*
X215515000Y-71693750D01*
G75*
G02*
X215733750Y-71475000I218750J0D01*
G01*
X216171250Y-71475000D01*
G75*
G02*
X216390000Y-71693750I0J-218750D01*
G01*
X216390000Y-72206250D01*
G75*
G02*
X216171250Y-72425000I-218750J0D01*
G01*
X215733750Y-72425000D01*
G75*
G02*
X215515000Y-72206250I0J218750D01*
G01*
G37*
G04 #@! TD.AperFunction*
G04 #@! TA.AperFunction,SMDPad,CuDef*
G36*
G01*
X217090000Y-72206250D02*
X217090000Y-71693750D01*
G75*
G02*
X217308750Y-71475000I218750J0D01*
G01*
X217746250Y-71475000D01*
G75*
G02*
X217965000Y-71693750I0J-218750D01*
G01*
X217965000Y-72206250D01*
G75*
G02*
X217746250Y-72425000I-218750J0D01*
G01*
X217308750Y-72425000D01*
G75*
G02*
X217090000Y-72206250I0J218750D01*
G01*
G37*
G04 #@! TD.AperFunction*
G04 #@! TA.AperFunction,SMDPad,CuDef*
G36*
G01*
X132875000Y-71693750D02*
X132875000Y-72206250D01*
G75*
G02*
X132656250Y-72425000I-218750J0D01*
G01*
X132218750Y-72425000D01*
G75*
G02*
X132000000Y-72206250I0J218750D01*
G01*
X132000000Y-71693750D01*
G75*
G02*
X132218750Y-71475000I218750J0D01*
G01*
X132656250Y-71475000D01*
G75*
G02*
X132875000Y-71693750I0J-218750D01*
G01*
G37*
G04 #@! TD.AperFunction*
G04 #@! TA.AperFunction,SMDPad,CuDef*
G36*
G01*
X131300000Y-71693750D02*
X131300000Y-72206250D01*
G75*
G02*
X131081250Y-72425000I-218750J0D01*
G01*
X130643750Y-72425000D01*
G75*
G02*
X130425000Y-72206250I0J218750D01*
G01*
X130425000Y-71693750D01*
G75*
G02*
X130643750Y-71475000I218750J0D01*
G01*
X131081250Y-71475000D01*
G75*
G02*
X131300000Y-71693750I0J-218750D01*
G01*
G37*
G04 #@! TD.AperFunction*
G04 #@! TA.AperFunction,SMDPad,CuDef*
G36*
G01*
X156237500Y-72206250D02*
X156237500Y-71693750D01*
G75*
G02*
X156456250Y-71475000I218750J0D01*
G01*
X156893750Y-71475000D01*
G75*
G02*
X157112500Y-71693750I0J-218750D01*
G01*
X157112500Y-72206250D01*
G75*
G02*
X156893750Y-72425000I-218750J0D01*
G01*
X156456250Y-72425000D01*
G75*
G02*
X156237500Y-72206250I0J218750D01*
G01*
G37*
G04 #@! TD.AperFunction*
G04 #@! TA.AperFunction,SMDPad,CuDef*
G36*
G01*
X157812500Y-72206250D02*
X157812500Y-71693750D01*
G75*
G02*
X158031250Y-71475000I218750J0D01*
G01*
X158468750Y-71475000D01*
G75*
G02*
X158687500Y-71693750I0J-218750D01*
G01*
X158687500Y-72206250D01*
G75*
G02*
X158468750Y-72425000I-218750J0D01*
G01*
X158031250Y-72425000D01*
G75*
G02*
X157812500Y-72206250I0J218750D01*
G01*
G37*
G04 #@! TD.AperFunction*
G04 #@! TA.AperFunction,SMDPad,CuDef*
G36*
G01*
X187225000Y-72206250D02*
X187225000Y-71693750D01*
G75*
G02*
X187443750Y-71475000I218750J0D01*
G01*
X187881250Y-71475000D01*
G75*
G02*
X188100000Y-71693750I0J-218750D01*
G01*
X188100000Y-72206250D01*
G75*
G02*
X187881250Y-72425000I-218750J0D01*
G01*
X187443750Y-72425000D01*
G75*
G02*
X187225000Y-72206250I0J218750D01*
G01*
G37*
G04 #@! TD.AperFunction*
G04 #@! TA.AperFunction,SMDPad,CuDef*
G36*
G01*
X188800000Y-72206250D02*
X188800000Y-71693750D01*
G75*
G02*
X189018750Y-71475000I218750J0D01*
G01*
X189456250Y-71475000D01*
G75*
G02*
X189675000Y-71693750I0J-218750D01*
G01*
X189675000Y-72206250D01*
G75*
G02*
X189456250Y-72425000I-218750J0D01*
G01*
X189018750Y-72425000D01*
G75*
G02*
X188800000Y-72206250I0J218750D01*
G01*
G37*
G04 #@! TD.AperFunction*
G04 #@! TA.AperFunction,SMDPad,CuDef*
G36*
G01*
X126143750Y-61795803D02*
X126656250Y-61795803D01*
G75*
G02*
X126875000Y-62014553I0J-218750D01*
G01*
X126875000Y-62452053D01*
G75*
G02*
X126656250Y-62670803I-218750J0D01*
G01*
X126143750Y-62670803D01*
G75*
G02*
X125925000Y-62452053I0J218750D01*
G01*
X125925000Y-62014553D01*
G75*
G02*
X126143750Y-61795803I218750J0D01*
G01*
G37*
G04 #@! TD.AperFunction*
G04 #@! TA.AperFunction,SMDPad,CuDef*
G36*
G01*
X126143750Y-63370803D02*
X126656250Y-63370803D01*
G75*
G02*
X126875000Y-63589553I0J-218750D01*
G01*
X126875000Y-64027053D01*
G75*
G02*
X126656250Y-64245803I-218750J0D01*
G01*
X126143750Y-64245803D01*
G75*
G02*
X125925000Y-64027053I0J218750D01*
G01*
X125925000Y-63589553D01*
G75*
G02*
X126143750Y-63370803I218750J0D01*
G01*
G37*
G04 #@! TD.AperFunction*
D22*
X184300000Y-57200000D03*
X214880200Y-71950000D03*
X195450000Y-64900000D03*
X193492800Y-65282576D03*
X186380200Y-71950000D03*
X156900000Y-61950000D03*
D23*
X191990200Y-52751100D03*
D22*
X156950000Y-61050000D03*
X159950000Y-61700000D03*
X160300000Y-63200000D03*
X163400000Y-64450000D03*
X155400000Y-71900000D03*
X158600000Y-64700000D03*
X156550000Y-64901401D03*
X153970486Y-63329514D03*
X165801900Y-56958058D03*
X165620901Y-56100783D03*
X215800000Y-59850000D03*
X133650000Y-71950000D03*
D23*
X153534200Y-52184400D03*
X130400000Y-62133303D03*
D22*
X160750500Y-58380000D03*
X162909500Y-56221000D03*
D23*
X188540200Y-57101100D03*
X127600000Y-64383303D03*
X220088600Y-55677700D03*
X185390200Y-53001100D03*
D22*
X162909500Y-58380000D03*
D23*
X195240200Y-62051100D03*
X132200000Y-64433303D03*
X195090200Y-53201100D03*
X190740200Y-57101100D03*
D22*
X160750500Y-56221000D03*
D23*
X125661101Y-52400000D03*
X126300000Y-60300000D03*
X195440200Y-55101100D03*
D22*
X162020500Y-52284000D03*
D23*
X189490200Y-62151100D03*
D22*
X158337500Y-56856000D03*
X164201702Y-54883798D03*
X155543500Y-57491000D03*
X161258500Y-61555000D03*
X162069578Y-61557898D03*
X157893500Y-58700000D03*
X163036500Y-60793000D03*
X157448500Y-57491000D03*
X165200000Y-59150000D03*
X184009446Y-52523496D03*
X165195500Y-58380000D03*
X156559500Y-63333000D03*
X157612190Y-63242690D03*
X158591500Y-63206000D03*
X159327691Y-61071801D03*
D24*
X166059958Y-56700000D02*
X165801900Y-56958058D01*
D25*
X187081375Y-58662500D02*
X187400000Y-58662500D01*
D24*
X184300000Y-57200000D02*
X183843578Y-56700000D01*
D25*
X184350000Y-57273209D02*
X184849095Y-58172490D01*
X186591365Y-58172490D02*
X187081375Y-58662500D01*
X184849095Y-58172490D02*
X186591365Y-58172490D01*
D24*
X183843578Y-56700000D02*
X166059958Y-56700000D01*
D25*
X184300000Y-57200000D02*
X184350000Y-57273209D01*
X217527500Y-71950000D02*
X219962500Y-71950000D01*
D24*
X214900000Y-70650000D02*
X215448790Y-71198790D01*
X215448790Y-71198790D02*
X216776290Y-71198790D01*
X216776290Y-71198790D02*
X217527500Y-71950000D01*
D25*
X195450000Y-64900000D02*
X196750000Y-63600000D01*
X196750000Y-63600000D02*
X196750000Y-61792954D01*
X196750000Y-61792954D02*
X197592954Y-60950000D01*
X197592954Y-60950000D02*
X213907046Y-60950000D01*
X213907046Y-60950000D02*
X214900000Y-61942954D01*
X214900000Y-61942954D02*
X214900000Y-70650000D01*
X218090799Y-60634201D02*
X222650000Y-65193402D01*
X222650000Y-65193402D02*
X222650000Y-70837500D01*
X222650000Y-70837500D02*
X221537500Y-71950000D01*
D24*
X215952500Y-71950000D02*
X214880200Y-71950000D01*
D25*
X183114129Y-61238066D02*
X183195112Y-61238066D01*
X184000000Y-62042954D02*
X184000000Y-63550000D01*
X184000000Y-63550000D02*
X186350000Y-65900000D01*
X183195112Y-61238066D02*
X184000000Y-62042954D01*
X186350000Y-65900000D02*
X186450000Y-71150000D01*
D24*
X188486290Y-71198790D02*
X189237500Y-71950000D01*
X186448790Y-71198790D02*
X188486290Y-71198790D01*
D25*
X186683143Y-65033143D02*
X193243367Y-65033143D01*
X193243367Y-65033143D02*
X193492800Y-65282576D01*
X184850000Y-63200000D02*
X186683143Y-65033143D01*
D26*
X185441610Y-61058390D02*
X187740200Y-63356980D01*
X187740200Y-63356980D02*
X187750000Y-64450000D01*
X187891300Y-64400000D02*
X194097800Y-64400000D01*
X194097800Y-64400000D02*
X194248900Y-64551100D01*
D25*
X184850000Y-62204414D02*
X184850000Y-63200000D01*
X183397793Y-60752207D02*
X184850000Y-62204414D01*
X193098500Y-71950000D02*
X194150000Y-70898500D01*
X194150000Y-70898500D02*
X194150000Y-64650000D01*
X194150000Y-64650000D02*
X194248900Y-64551100D01*
D26*
X194248900Y-64551100D02*
X194410815Y-64551100D01*
D25*
X189237500Y-71950000D02*
X191523500Y-71950000D01*
X187662500Y-71950000D02*
X186380200Y-71950000D01*
X163400000Y-64450000D02*
X164400000Y-63450000D01*
X164400000Y-63450000D02*
X164400000Y-62204414D01*
X164400000Y-62204414D02*
X165852207Y-60752207D01*
D24*
X165852207Y-60752207D02*
X183397793Y-60752207D01*
X166088066Y-61238066D02*
X183114129Y-61238066D01*
D25*
X158600000Y-64700000D02*
X162677342Y-64700000D01*
X162677342Y-64700000D02*
X163084543Y-65107201D01*
X163084543Y-65107201D02*
X163715457Y-65107201D01*
X163715457Y-65107201D02*
X165822990Y-62999668D01*
X165822990Y-62999668D02*
X165822990Y-61503142D01*
X165822990Y-61503142D02*
X166088066Y-61238066D01*
X194475500Y-58965800D02*
X195303901Y-59794201D01*
X195303901Y-59794201D02*
X196094201Y-59794201D01*
D26*
X214199487Y-58786491D02*
X214900000Y-59487004D01*
X214900000Y-59487004D02*
X214900000Y-60110618D01*
X196094201Y-62867714D02*
X196094201Y-59794201D01*
X196094201Y-59794201D02*
X197101911Y-58786491D01*
X214900000Y-60110618D02*
X215423583Y-60634201D01*
X197101911Y-58786491D02*
X214086491Y-58786491D01*
X214086491Y-58786491D02*
X214199487Y-58786491D01*
X194410815Y-64551100D02*
X196094201Y-62867714D01*
D25*
X220150000Y-58575000D02*
X218887500Y-59837500D01*
X218887500Y-59837500D02*
X218054300Y-60670700D01*
D26*
X215423583Y-60634201D02*
X218090799Y-60634201D01*
X218090799Y-60634201D02*
X218887500Y-59837500D01*
X183175720Y-58792500D02*
X185441610Y-61058390D01*
X185435000Y-58937000D02*
X185435000Y-61051780D01*
X185435000Y-61051780D02*
X185441610Y-61058390D01*
D25*
X165957500Y-58792500D02*
X165957500Y-58335598D01*
D26*
X165957500Y-58792500D02*
X183175720Y-58792500D01*
D25*
X165957500Y-59365158D02*
X165957500Y-58792500D01*
X165576417Y-59934201D02*
X165576417Y-59746241D01*
X165576417Y-59746241D02*
X165957500Y-59365158D01*
D24*
X195122489Y-51722489D02*
X196750000Y-53350000D01*
X217412500Y-56687500D02*
X217800000Y-57075000D01*
X196750000Y-53350000D02*
X196750000Y-55620972D01*
X196750000Y-55620972D02*
X197468018Y-56338990D01*
X197468018Y-56338990D02*
X217063990Y-56338990D01*
X217063990Y-56338990D02*
X217412500Y-56687500D01*
X194964777Y-52074899D02*
X196152010Y-53262132D01*
X196152010Y-53262132D02*
X196152010Y-56058960D01*
X215323660Y-57766410D02*
X215466410Y-57766410D01*
X215466410Y-57766410D02*
X216003927Y-57766410D01*
X196152010Y-56058960D02*
X196793050Y-56700000D01*
X196793050Y-56700000D02*
X214257250Y-56700000D01*
X214257250Y-56700000D02*
X215323660Y-57766410D01*
X183700000Y-53750000D02*
X183700000Y-53690522D01*
X185315623Y-52074899D02*
X194964777Y-52074899D01*
X183700000Y-53690522D02*
X185315623Y-52074899D01*
X183133619Y-56241327D02*
X183700000Y-55674946D01*
X183700000Y-55674946D02*
X183700000Y-55550000D01*
D25*
X183704875Y-55500000D02*
X183704875Y-55631875D01*
D24*
X184810453Y-51722489D02*
X195122489Y-51722489D01*
X184009446Y-52523496D02*
X184810453Y-51722489D01*
D25*
X188208250Y-52674250D02*
X190480722Y-52674250D01*
X191234490Y-53428018D02*
X191234490Y-54399982D01*
X190480722Y-52674250D02*
X191234490Y-53428018D01*
X194673790Y-57562618D02*
X194475500Y-57760908D01*
X191782507Y-54947999D02*
X192437099Y-54947999D01*
X191234490Y-54399982D02*
X191782507Y-54947999D01*
X192942990Y-54442108D02*
X192942990Y-54211518D01*
X192437099Y-54947999D02*
X192942990Y-54442108D01*
X192942990Y-54211518D02*
X193259018Y-53895490D01*
X193259018Y-53895490D02*
X194230982Y-53895490D01*
X194230982Y-53895490D02*
X194673790Y-54338298D01*
X187227500Y-53655000D02*
X188208250Y-52674250D01*
X194673790Y-54338298D02*
X194673790Y-57562618D01*
X194475500Y-57760908D02*
X194475500Y-58965800D01*
D24*
X216003927Y-57766410D02*
X216164927Y-57927410D01*
X216164927Y-57927410D02*
X216755248Y-57927410D01*
X216755248Y-57927410D02*
X217402838Y-58575000D01*
X214283595Y-56726345D02*
X215323660Y-57766410D01*
X217402838Y-58575000D02*
X217800000Y-58575000D01*
X151690486Y-56240486D02*
X151633382Y-56297590D01*
X132771101Y-53648869D02*
X132771101Y-53616800D01*
X151633382Y-56297590D02*
X135419822Y-56297590D01*
X135419822Y-56297590D02*
X132771101Y-53648869D01*
X154379855Y-61845864D02*
X153391889Y-60857898D01*
X153391889Y-60857898D02*
X153391889Y-57578907D01*
X153391889Y-57578907D02*
X152462982Y-56650000D01*
X154479855Y-61845864D02*
X154379855Y-61845864D01*
X152462982Y-56650000D02*
X133264301Y-56650000D01*
X133264301Y-56650000D02*
X132771101Y-56156800D01*
D26*
X133922202Y-58700000D02*
X152112996Y-58700000D01*
X152861679Y-59448683D02*
X152861679Y-61111679D01*
X152112996Y-58700000D02*
X152861679Y-59448683D01*
X152861679Y-61111679D02*
X155867201Y-64117201D01*
X131438899Y-61183303D02*
X133922202Y-58700000D01*
X155867201Y-64117201D02*
X157567201Y-64117201D01*
D24*
X156950000Y-61850000D02*
X154479855Y-61845864D01*
X156950000Y-61050000D02*
X154101338Y-61047000D01*
X154101338Y-61047000D02*
X153744299Y-60689961D01*
X153744299Y-60689961D02*
X153744299Y-57432935D01*
X153744299Y-57432935D02*
X152551850Y-56240486D01*
X152551850Y-56240486D02*
X152117859Y-56240486D01*
X152117859Y-56240486D02*
X151690486Y-56240486D01*
X159950000Y-61700000D02*
X160230656Y-61629610D01*
X160230656Y-61629610D02*
X161512500Y-60347766D01*
X161512500Y-60347766D02*
X161512500Y-59782800D01*
X158718500Y-61360084D02*
X158718500Y-60783518D01*
X160300000Y-63200000D02*
X159958416Y-62600000D01*
X159958416Y-62600000D02*
X158718500Y-61360084D01*
X158718500Y-60783518D02*
X159036618Y-60465400D01*
X159036618Y-60465400D02*
X160398099Y-60465401D01*
X160398099Y-60465401D02*
X160521900Y-60341600D01*
X160521900Y-60341600D02*
X160521900Y-59782800D01*
D26*
X163087500Y-62825000D02*
X163087500Y-62423118D01*
X163087500Y-62423118D02*
X165576417Y-59934201D01*
X165576417Y-59934201D02*
X165686590Y-59824028D01*
X162755799Y-63990201D02*
X162755799Y-62744201D01*
D25*
X162755799Y-63990201D02*
X162755799Y-63156701D01*
X162755799Y-63156701D02*
X163087500Y-62825000D01*
X158600000Y-64700000D02*
X158738411Y-64838411D01*
X133500000Y-62683303D02*
X134302010Y-63485313D01*
X134302010Y-63485313D02*
X134302010Y-64706785D01*
X126853934Y-65367532D02*
X126150000Y-66071466D01*
X133641263Y-65367532D02*
X126853934Y-65367532D01*
X134302010Y-64706785D02*
X133641263Y-65367532D01*
X126150000Y-66071466D02*
X126150000Y-70537500D01*
X126150000Y-70537500D02*
X127562500Y-71950000D01*
X163150000Y-70700000D02*
X163150000Y-66100000D01*
X163150000Y-66100000D02*
X162422560Y-65372560D01*
X158299902Y-65372560D02*
X158284543Y-65357201D01*
X162422560Y-65372560D02*
X158299902Y-65372560D01*
D26*
X157567201Y-64117201D02*
X158088083Y-64117201D01*
D25*
X158284543Y-65357201D02*
X157567201Y-64639859D01*
X157567201Y-64639859D02*
X157567201Y-64117201D01*
D26*
X158088083Y-64117201D02*
X158215083Y-63990201D01*
X158215083Y-63990201D02*
X162755799Y-63990201D01*
D25*
X161900000Y-71950000D02*
X163150000Y-70700000D01*
X133900000Y-70397821D02*
X133900000Y-66159231D01*
X155400000Y-70439909D02*
X155400000Y-66159231D01*
D24*
X156550000Y-65009231D02*
X155400000Y-66159231D01*
X156550000Y-64901401D02*
X156550000Y-65009231D01*
X155400000Y-70439909D02*
X156135871Y-71175780D01*
X156135871Y-71175780D02*
X157475780Y-71175780D01*
X157475780Y-71175780D02*
X158250000Y-71950000D01*
D25*
X158250000Y-71950000D02*
X160325000Y-71950000D01*
X155450000Y-71950000D02*
X155400000Y-71900000D01*
X156675000Y-71950000D02*
X155450000Y-71950000D01*
X135350000Y-61000000D02*
X151876063Y-61000000D01*
D24*
X153970486Y-63094423D02*
X151876063Y-61000000D01*
X153970486Y-63329514D02*
X153970486Y-63094423D01*
X134705220Y-62094780D02*
X134705220Y-65354011D01*
X134705220Y-61898386D02*
X134705220Y-62094780D01*
X135350000Y-61000000D02*
X134705220Y-61644780D01*
X134705220Y-61644780D02*
X134705220Y-62094780D01*
X133900000Y-70397821D02*
X133099031Y-71198790D01*
X131613710Y-71198790D02*
X130862500Y-71950000D01*
X133099031Y-71198790D02*
X131613710Y-71198790D01*
X153970486Y-63329514D02*
X153970486Y-63080904D01*
X130000000Y-71950000D02*
X129137500Y-71950000D01*
X134705220Y-65354011D02*
X133900000Y-66159231D01*
X130862500Y-71950000D02*
X130000000Y-71950000D01*
D25*
X183704875Y-55631875D02*
X185435000Y-57362000D01*
D24*
X165620901Y-56100783D02*
X166087874Y-56100783D01*
X166087874Y-56100783D02*
X166228418Y-56241327D01*
X166228418Y-56241327D02*
X183133619Y-56241327D01*
X183676629Y-55660121D02*
X183704875Y-55631875D01*
D27*
X131438899Y-61183303D02*
X132000000Y-61183303D01*
X132000000Y-61183303D02*
X133500000Y-62683303D01*
D24*
X157893500Y-58719427D02*
X157490073Y-58719427D01*
X157490073Y-58719427D02*
X156940500Y-59269000D01*
X165620901Y-56100783D02*
X165760604Y-56240486D01*
X154479855Y-61845864D02*
X154401819Y-61845864D01*
X151970084Y-56240486D02*
X151690486Y-56240486D01*
D26*
X125919381Y-61183303D02*
X125400890Y-60664812D01*
X125400890Y-60664812D02*
X125400890Y-58067011D01*
X125400890Y-58067011D02*
X127311101Y-56156800D01*
D25*
X215788600Y-59838600D02*
X215800000Y-59850000D01*
X215788600Y-58627700D02*
X215788600Y-59838600D01*
D26*
X127311101Y-53616800D02*
X126877901Y-53616800D01*
X126877901Y-53616800D02*
X125661101Y-52400000D01*
D27*
X131525000Y-59200000D02*
X131525000Y-61097202D01*
X131525000Y-61097202D02*
X131438899Y-61183303D01*
X127867400Y-59200000D02*
X129950000Y-59200000D01*
D26*
X126550000Y-61183303D02*
X125919381Y-61183303D01*
X129238899Y-61183303D02*
X126550000Y-61183303D01*
D25*
X132437500Y-71950000D02*
X133650000Y-71950000D01*
D24*
X161258500Y-61555000D02*
X161258500Y-62571000D01*
X161258500Y-62571000D02*
X161512500Y-62825000D01*
D27*
X133500000Y-64258303D02*
X132375000Y-64258303D01*
X132375000Y-64258303D02*
X132200000Y-64433303D01*
X126292400Y-59200000D02*
X126292400Y-60292400D01*
X126292400Y-60292400D02*
X126300000Y-60300000D01*
D24*
X193745000Y-53085000D02*
X195074100Y-53085000D01*
X190740200Y-57101100D02*
X191489100Y-57850000D01*
X189900000Y-58662500D02*
X189900000Y-58247600D01*
X187789100Y-56350000D02*
X188540200Y-57101100D01*
D25*
X162020500Y-57065000D02*
X161766500Y-57319000D01*
D24*
X189900000Y-56760900D02*
X190240200Y-57101100D01*
D25*
X162229500Y-52493000D02*
X162020500Y-52284000D01*
D24*
X191489100Y-57850000D02*
X191962500Y-57850000D01*
X189440200Y-57787800D02*
X189440200Y-57101100D01*
D25*
X127025000Y-63808303D02*
X127600000Y-64383303D01*
X159302700Y-56557000D02*
X161004500Y-56557000D01*
X161512500Y-57573000D02*
X161766500Y-57319000D01*
X159302700Y-57573000D02*
X161512500Y-57573000D01*
X161004500Y-56557000D02*
X161766500Y-57319000D01*
X154908100Y-52258600D02*
X153608400Y-52258600D01*
X161004500Y-58081000D02*
X161766500Y-57319000D01*
D24*
X185390200Y-54176100D02*
X185390200Y-52801100D01*
X189537500Y-62103800D02*
X189490200Y-62151100D01*
X195438300Y-55103000D02*
X195440200Y-55101100D01*
D28*
X188540200Y-57101100D02*
X190740200Y-57101100D01*
D24*
X189900000Y-55537500D02*
X189900000Y-56760900D01*
D25*
X220150000Y-55739100D02*
X220088600Y-55677700D01*
X126400000Y-63808303D02*
X127025000Y-63808303D01*
D24*
X195074100Y-53085000D02*
X195090200Y-53101100D01*
D25*
X220150000Y-57075000D02*
X220150000Y-55739100D01*
D24*
X187400000Y-55537500D02*
X187400000Y-56287500D01*
X187400000Y-56287500D02*
X187337500Y-56350000D01*
X195285800Y-58201100D02*
X195285800Y-56676400D01*
X189900000Y-58247600D02*
X189440200Y-57787800D01*
D25*
X219225000Y-57575000D02*
X220150000Y-57575000D01*
X163239500Y-52493000D02*
X162229500Y-52493000D01*
D24*
X187337500Y-57350000D02*
X188291300Y-57350000D01*
X188291300Y-57350000D02*
X188540200Y-57101100D01*
D25*
X220150000Y-57575000D02*
X220150000Y-57075000D01*
X164230300Y-57065000D02*
X162020500Y-57065000D01*
X153608400Y-52258600D02*
X153534200Y-52184400D01*
D24*
X194922500Y-60680000D02*
X194922500Y-61733400D01*
D25*
X164230300Y-58081000D02*
X162528500Y-58081000D01*
D24*
X195285800Y-56676400D02*
X195438300Y-56523900D01*
D25*
X159302700Y-58081000D02*
X161004500Y-58081000D01*
D24*
X195438300Y-56523900D02*
X195438300Y-55103000D01*
X191999000Y-53914000D02*
X191999000Y-52509900D01*
D25*
X162528500Y-58081000D02*
X161766500Y-57319000D01*
D26*
X129238899Y-62133303D02*
X130400000Y-62133303D01*
D24*
X189537500Y-60680000D02*
X189537500Y-62103800D01*
X187337500Y-56350000D02*
X187789100Y-56350000D01*
D25*
X218975000Y-57825000D02*
X219225000Y-57575000D01*
D24*
X191999000Y-52509900D02*
X191990200Y-52501100D01*
X194922500Y-61733400D02*
X195240200Y-62051100D01*
X190900000Y-58662500D02*
X190900000Y-59288850D01*
X193347500Y-60680000D02*
X193347500Y-62226500D01*
X193347500Y-62226500D02*
X193817000Y-62696000D01*
X192291150Y-60680000D02*
X193347500Y-60680000D01*
X190900000Y-59288850D02*
X192291150Y-60680000D01*
X191112500Y-60680000D02*
X191112500Y-62491500D01*
X190400000Y-59967500D02*
X191112500Y-60680000D01*
X191112500Y-62491500D02*
X191317000Y-62696000D01*
X190400000Y-58662500D02*
X190400000Y-59967500D01*
D25*
X192589100Y-57350000D02*
X192859700Y-57350000D01*
X191400000Y-59179000D02*
X191473001Y-59252001D01*
X131438899Y-59286101D02*
X131525000Y-59200000D01*
X165957500Y-58335598D02*
X164963701Y-57341799D01*
X164869702Y-57573000D02*
X164230300Y-57573000D01*
X191400000Y-58662500D02*
X191400000Y-59179000D01*
X192859700Y-57350000D02*
X193710800Y-58201100D01*
D24*
X158734282Y-56074400D02*
X158337500Y-56471182D01*
D25*
X187721000Y-64531900D02*
X187740200Y-64551100D01*
X164963701Y-56630001D02*
X164963701Y-57259201D01*
X164230300Y-56557000D02*
X164890700Y-56557000D01*
D26*
X131438899Y-61183303D02*
X131441709Y-61186113D01*
D24*
X159302700Y-56074400D02*
X158734282Y-56074400D01*
D25*
X187721000Y-61934000D02*
X187721000Y-64531900D01*
D24*
X158337500Y-56471182D02*
X158337500Y-56856000D01*
D25*
X220165200Y-58590200D02*
X220150000Y-58575000D01*
X164890700Y-56557000D02*
X164963701Y-56630001D01*
X164963701Y-57341799D02*
X164963701Y-57479001D01*
X191473001Y-59252001D02*
X192311601Y-59252001D01*
X193710800Y-58201100D02*
X194475500Y-58965800D01*
X191962500Y-57350000D02*
X192589100Y-57350000D01*
X191962500Y-56850000D02*
X191962500Y-57350000D01*
X164963701Y-57259201D02*
X164963701Y-57341799D01*
X164963701Y-57479001D02*
X164869702Y-57573000D01*
X192589100Y-58974502D02*
X192589100Y-57350000D01*
X185435000Y-58937000D02*
X185435000Y-60030501D01*
X164963701Y-52642201D02*
X164963701Y-54846201D01*
D24*
X164926104Y-54883798D02*
X164963701Y-54846201D01*
D25*
X192311601Y-59252001D02*
X192589100Y-58974502D01*
X164814500Y-52493000D02*
X164963701Y-52642201D01*
X164963701Y-54846201D02*
X164963701Y-57259201D01*
X222288600Y-58590200D02*
X220165200Y-58590200D01*
D24*
X164201702Y-54883798D02*
X164926104Y-54883798D01*
D26*
X128238899Y-61461101D02*
X128516697Y-61183303D01*
X129238899Y-63083303D02*
X128516697Y-63083303D01*
X128516697Y-61183303D02*
X129238899Y-61183303D01*
X126400000Y-62233303D02*
X126400000Y-61233303D01*
X126550000Y-61183303D02*
X126450000Y-61183303D01*
X128516697Y-63083303D02*
X128238899Y-62805505D01*
X128238899Y-62805505D02*
X128238899Y-61461101D01*
X126400000Y-61233303D02*
X126450000Y-61183303D01*
D24*
X157465099Y-56845201D02*
X155056701Y-56845201D01*
X159302700Y-55566400D02*
X158743900Y-55566400D01*
X155056701Y-56845201D02*
X154400500Y-56189000D01*
X154400500Y-56189000D02*
X154400500Y-55369000D01*
X158743900Y-55566400D02*
X157465099Y-56845201D01*
X160013900Y-54855200D02*
X157454300Y-54855200D01*
X157454300Y-54855200D02*
X156940500Y-55369000D01*
X154400500Y-58167027D02*
X154400500Y-59269000D01*
X154273500Y-59396000D02*
X154400500Y-59269000D01*
X155076527Y-57491000D02*
X154400500Y-58167027D01*
X155543500Y-57491000D02*
X155076527Y-57491000D01*
X161210673Y-62523173D02*
X161512500Y-62825000D01*
X162020500Y-60697346D02*
X161210673Y-61507173D01*
X162020500Y-59782800D02*
X162020500Y-60697346D01*
X160521900Y-54855200D02*
X160521900Y-54296400D01*
X156339539Y-53892799D02*
X155670500Y-54561838D01*
X160521900Y-54296400D02*
X160118299Y-53892799D01*
X160118299Y-53892799D02*
X156339539Y-53892799D01*
X155670500Y-54561838D02*
X155670500Y-55369000D01*
X162528500Y-59782800D02*
X162528500Y-61098976D01*
X162528500Y-61098976D02*
X162069578Y-61557898D01*
X156940500Y-59269000D02*
X157180920Y-59269000D01*
X156628500Y-57491000D02*
X155670500Y-58449000D01*
X163011100Y-59782800D02*
X163011100Y-60767600D01*
X163011100Y-60767600D02*
X163036500Y-60793000D01*
X155670500Y-58449000D02*
X155670500Y-59269000D01*
X157448500Y-57491000D02*
X156628500Y-57491000D01*
X187400000Y-60038000D02*
X187400000Y-58662500D01*
X165125100Y-59071600D02*
X165322500Y-59269000D01*
X164230300Y-59071600D02*
X165125100Y-59071600D01*
X187721000Y-60359000D02*
X187400000Y-60038000D01*
D25*
X186422942Y-57362000D02*
X186910942Y-57850000D01*
X186910942Y-57850000D02*
X187337500Y-57850000D01*
D24*
X164230300Y-58563600D02*
X165011900Y-58563600D01*
X165011900Y-58563600D02*
X165195500Y-58380000D01*
X183700000Y-55550000D02*
X183700000Y-53765322D01*
D25*
X185435000Y-57362000D02*
X186422942Y-57362000D01*
D24*
X190400000Y-55537500D02*
X190400000Y-53938000D01*
X190400000Y-53938000D02*
X190424000Y-53914000D01*
X217800000Y-57575000D02*
X216310900Y-57575000D01*
X216310900Y-57575000D02*
X215788600Y-57052700D01*
X221228800Y-58075000D02*
X220150000Y-58075000D01*
X222288600Y-57015200D02*
X221228800Y-58075000D01*
X193689400Y-56350000D02*
X193863300Y-56523900D01*
X191962500Y-56350000D02*
X193689400Y-56350000D01*
X189400000Y-54252500D02*
X189400000Y-55537500D01*
X188802500Y-53655000D02*
X189400000Y-54252500D01*
X192867500Y-55537500D02*
X193745000Y-54660000D01*
X191900000Y-55537500D02*
X192867500Y-55537500D01*
X186489100Y-56850000D02*
X187337500Y-56850000D01*
X185390200Y-55751100D02*
X186489100Y-56850000D01*
X159302700Y-58563600D02*
X158743900Y-58563600D01*
X157596701Y-59710799D02*
X157596701Y-62295799D01*
X157596701Y-62295799D02*
X156559500Y-63333000D01*
X158743900Y-58563600D02*
X157596701Y-59710799D01*
X157949111Y-62905769D02*
X157612190Y-63242690D01*
X158734282Y-59071600D02*
X157949111Y-59856771D01*
X157949111Y-59856771D02*
X157949111Y-62905769D01*
X159302700Y-59071600D02*
X158734282Y-59071600D01*
X158301521Y-60002743D02*
X158301521Y-62916021D01*
X160013900Y-59782800D02*
X158521464Y-59782800D01*
X158301521Y-62916021D02*
X158591500Y-63206000D01*
X158521464Y-59782800D02*
X158301521Y-60002743D01*
X161004500Y-60357383D02*
X160290082Y-61071801D01*
X161004500Y-59782800D02*
X161004500Y-60357383D01*
X160290082Y-61071801D02*
X159327691Y-61071801D01*
D25*
X156483100Y-52258600D02*
X158540600Y-52258600D01*
X158540600Y-52258600D02*
X158566000Y-52284000D01*
X160141000Y-52284000D02*
X161004500Y-52284000D01*
X163011100Y-54290600D02*
X163011100Y-54855200D01*
X161004500Y-52284000D02*
X163011100Y-54290600D01*
M02*
