M48
; DRILL file {KiCad (5.99.0-2415-gbbdd3fce7)} date Thursday, October 15, 2020 at 12:22:21 PM
; FORMAT={-:-/ absolute / inch / decimal}
; #@! TF.CreationDate,2020-10-15T12:22:21-07:00
; #@! TF.GenerationSoftware,Kicad,Pcbnew,(5.99.0-2415-gbbdd3fce7)
FMAT,2
INCH
T1C0.0130
T2C0.0157
%
G90
G05
T1
X5.261Y-3.1575
X6.0984Y-2.5404
X6.1238Y-2.2634
X6.1295Y-3.1531
X6.1402Y-2.4303
X6.1634Y-2.5552
X6.1638Y-2.4934
X6.1791Y-2.4035
X6.1988Y-2.2634
X6.2052Y-2.4899
X6.2146Y-2.3091
X6.2331Y-2.2134
X6.2438Y-2.4884
X6.2594Y-2.55
X6.2727Y-2.4044
X6.2972Y-2.4291
X6.311Y-2.4882
X6.3288Y-2.2134
X6.3288Y-2.2984
X6.3488Y-2.4234
X6.3788Y-2.0584
X6.3878Y-2.4272
X6.4138Y-2.2134
X6.4138Y-2.2984
X6.4232Y-2.3957
X6.4331Y-2.5374
X6.4646Y-2.1608
X6.4705Y-2.3602
X6.5038Y-2.3051
X6.5205Y-2.2087
X6.5276Y-2.2424
X7.2445Y-2.0679
X7.2559Y-2.252
X7.3456Y-3.1573
X7.4831Y-2.5693
X7.5665Y-2.5555
X8.4739Y-3.1575
X8.4961Y-2.3563
X8.752Y-2.5528
X8.7579Y-2.4339
T2
X4.9473Y-2.063
X4.9724Y-2.374
X5.0236Y-2.5348
X5.1339Y-2.4462
X5.2035Y-2.5244
X6.0447Y-2.0545
X7.2988Y-2.0867
X7.4228Y-2.2481
X7.4602Y-2.4469
X7.5095Y-2.2481
X7.5587Y-2.0768
X7.6807Y-2.0945
X7.6866Y-2.443
X7.6945Y-2.1693
X8.6649Y-2.192
T0
M30
