G04 #@! TF.GenerationSoftware,KiCad,Pcbnew,(5.99.0-2415-gbbdd3fce7)*
G04 #@! TF.CreationDate,2020-10-16T14:14:50-07:00*
G04 #@! TF.ProjectId,VineHoop_Islands,56696e65-486f-46f7-905f-49736c616e64,rev?*
G04 #@! TF.SameCoordinates,Original*
G04 #@! TF.FileFunction,Paste,Top*
G04 #@! TF.FilePolarity,Positive*
%FSLAX46Y46*%
G04 Gerber Fmt 4.6, Leading zero omitted, Abs format (unit mm)*
G04 Created by KiCad (PCBNEW (5.99.0-2415-gbbdd3fce7)) date 2020-10-16 14:14:50*
%MOMM*%
%LPD*%
G01*
G04 APERTURE LIST*
%ADD10C,0.010000*%
%ADD11R,0.812800X0.304800*%
%ADD12R,0.304800X0.812800*%
%ADD13R,3.251200X3.251200*%
%ADD14R,0.550000X0.250000*%
%ADD15R,0.300000X0.525000*%
%ADD16R,0.425000X0.300000*%
%ADD17R,1.060000X0.650000*%
%ADD18R,2.540000X1.270000*%
%ADD19R,0.760000X2.400000*%
%ADD20R,1.100000X1.900000*%
G04 APERTURE END LIST*
G36*
X219375000Y-58575000D02*
G01*
X218575000Y-58575000D01*
X218575000Y-57375000D01*
X218875000Y-57075000D01*
X219375000Y-57075000D01*
X219375000Y-58575000D01*
G37*
D10*
X219375000Y-58575000D02*
X218575000Y-58575000D01*
X218575000Y-57375000D01*
X218875000Y-57075000D01*
X219375000Y-57075000D01*
X219375000Y-58575000D01*
G36*
G01*
X192910000Y-60936250D02*
X192910000Y-60423750D01*
G75*
G02*
X193128750Y-60205000I218750J0D01*
G01*
X193566250Y-60205000D01*
G75*
G02*
X193785000Y-60423750I0J-218750D01*
G01*
X193785000Y-60936250D01*
G75*
G02*
X193566250Y-61155000I-218750J0D01*
G01*
X193128750Y-61155000D01*
G75*
G02*
X192910000Y-60936250I0J218750D01*
G01*
G37*
G36*
G01*
X194485000Y-60936250D02*
X194485000Y-60423750D01*
G75*
G02*
X194703750Y-60205000I218750J0D01*
G01*
X195141250Y-60205000D01*
G75*
G02*
X195360000Y-60423750I0J-218750D01*
G01*
X195360000Y-60936250D01*
G75*
G02*
X195141250Y-61155000I-218750J0D01*
G01*
X194703750Y-61155000D01*
G75*
G02*
X194485000Y-60936250I0J218750D01*
G01*
G37*
G36*
G01*
X191550000Y-60423750D02*
X191550000Y-60936250D01*
G75*
G02*
X191331250Y-61155000I-218750J0D01*
G01*
X190893750Y-61155000D01*
G75*
G02*
X190675000Y-60936250I0J218750D01*
G01*
X190675000Y-60423750D01*
G75*
G02*
X190893750Y-60205000I218750J0D01*
G01*
X191331250Y-60205000D01*
G75*
G02*
X191550000Y-60423750I0J-218750D01*
G01*
G37*
G36*
G01*
X189975000Y-60423750D02*
X189975000Y-60936250D01*
G75*
G02*
X189756250Y-61155000I-218750J0D01*
G01*
X189318750Y-61155000D01*
G75*
G02*
X189100000Y-60936250I0J218750D01*
G01*
X189100000Y-60423750D01*
G75*
G02*
X189318750Y-60205000I218750J0D01*
G01*
X189756250Y-60205000D01*
G75*
G02*
X189975000Y-60423750I0J-218750D01*
G01*
G37*
G36*
G01*
X162802000Y-52749250D02*
X162802000Y-52236750D01*
G75*
G02*
X163020750Y-52018000I218750J0D01*
G01*
X163458250Y-52018000D01*
G75*
G02*
X163677000Y-52236750I0J-218750D01*
G01*
X163677000Y-52749250D01*
G75*
G02*
X163458250Y-52968000I-218750J0D01*
G01*
X163020750Y-52968000D01*
G75*
G02*
X162802000Y-52749250I0J218750D01*
G01*
G37*
G36*
G01*
X164377000Y-52749250D02*
X164377000Y-52236750D01*
G75*
G02*
X164595750Y-52018000I218750J0D01*
G01*
X165033250Y-52018000D01*
G75*
G02*
X165252000Y-52236750I0J-218750D01*
G01*
X165252000Y-52749250D01*
G75*
G02*
X165033250Y-52968000I-218750J0D01*
G01*
X164595750Y-52968000D01*
G75*
G02*
X164377000Y-52749250I0J218750D01*
G01*
G37*
G36*
G01*
X193425800Y-56780150D02*
X193425800Y-56267650D01*
G75*
G02*
X193644550Y-56048900I218750J0D01*
G01*
X194082050Y-56048900D01*
G75*
G02*
X194300800Y-56267650I0J-218750D01*
G01*
X194300800Y-56780150D01*
G75*
G02*
X194082050Y-56998900I-218750J0D01*
G01*
X193644550Y-56998900D01*
G75*
G02*
X193425800Y-56780150I0J218750D01*
G01*
G37*
G36*
G01*
X195000800Y-56780150D02*
X195000800Y-56267650D01*
G75*
G02*
X195219550Y-56048900I218750J0D01*
G01*
X195657050Y-56048900D01*
G75*
G02*
X195875800Y-56267650I0J-218750D01*
G01*
X195875800Y-56780150D01*
G75*
G02*
X195657050Y-56998900I-218750J0D01*
G01*
X195219550Y-56998900D01*
G75*
G02*
X195000800Y-56780150I0J218750D01*
G01*
G37*
G36*
G01*
X185646450Y-56188600D02*
X185133950Y-56188600D01*
G75*
G02*
X184915200Y-55969850I0J218750D01*
G01*
X184915200Y-55532350D01*
G75*
G02*
X185133950Y-55313600I218750J0D01*
G01*
X185646450Y-55313600D01*
G75*
G02*
X185865200Y-55532350I0J-218750D01*
G01*
X185865200Y-55969850D01*
G75*
G02*
X185646450Y-56188600I-218750J0D01*
G01*
G37*
G36*
G01*
X185646450Y-54613600D02*
X185133950Y-54613600D01*
G75*
G02*
X184915200Y-54394850I0J218750D01*
G01*
X184915200Y-53957350D01*
G75*
G02*
X185133950Y-53738600I218750J0D01*
G01*
X185646450Y-53738600D01*
G75*
G02*
X185865200Y-53957350I0J-218750D01*
G01*
X185865200Y-54394850D01*
G75*
G02*
X185646450Y-54613600I-218750J0D01*
G01*
G37*
G36*
G01*
X222544850Y-59027700D02*
X222032350Y-59027700D01*
G75*
G02*
X221813600Y-58808950I0J218750D01*
G01*
X221813600Y-58371450D01*
G75*
G02*
X222032350Y-58152700I218750J0D01*
G01*
X222544850Y-58152700D01*
G75*
G02*
X222763600Y-58371450I0J-218750D01*
G01*
X222763600Y-58808950D01*
G75*
G02*
X222544850Y-59027700I-218750J0D01*
G01*
G37*
G36*
G01*
X222544850Y-57452700D02*
X222032350Y-57452700D01*
G75*
G02*
X221813600Y-57233950I0J218750D01*
G01*
X221813600Y-56796450D01*
G75*
G02*
X222032350Y-56577700I218750J0D01*
G01*
X222544850Y-56577700D01*
G75*
G02*
X222763600Y-56796450I0J-218750D01*
G01*
X222763600Y-57233950D01*
G75*
G02*
X222544850Y-57452700I-218750J0D01*
G01*
G37*
D11*
X164230300Y-59071600D03*
X164230300Y-58563600D03*
X164230300Y-58081000D03*
X164230300Y-57573000D03*
X164230300Y-57065000D03*
X164230300Y-56557000D03*
X164230300Y-56074400D03*
X164230300Y-55566400D03*
D12*
X163519100Y-54855200D03*
X163011100Y-54855200D03*
X162528500Y-54855200D03*
X162020500Y-54855200D03*
X161512500Y-54855200D03*
X161004500Y-54855200D03*
X160521900Y-54855200D03*
X160013900Y-54855200D03*
D11*
X159302700Y-55566400D03*
X159302700Y-56074400D03*
X159302700Y-56557000D03*
X159302700Y-57065000D03*
X159302700Y-57573000D03*
X159302700Y-58081000D03*
X159302700Y-58563600D03*
X159302700Y-59071600D03*
D12*
X160013900Y-59782800D03*
X160521900Y-59782800D03*
X161004500Y-59782800D03*
X161512500Y-59782800D03*
X162020500Y-59782800D03*
X162528500Y-59782800D03*
X163011100Y-59782800D03*
X163519100Y-59782800D03*
D13*
X161766500Y-57319000D03*
D14*
X217800000Y-57075000D03*
X217800000Y-57575000D03*
X217800000Y-58075000D03*
X217800000Y-58575000D03*
X220150000Y-58575000D03*
X220150000Y-58075000D03*
X220150000Y-57575000D03*
X220150000Y-57075000D03*
D15*
X191900000Y-58662500D03*
D16*
X191962500Y-57850000D03*
X191962500Y-57350000D03*
X191962500Y-56850000D03*
X191962500Y-56350000D03*
D15*
X191900000Y-55537500D03*
X191400000Y-55537500D03*
X190900000Y-55537500D03*
X190400000Y-55537500D03*
X189900000Y-55537500D03*
X189400000Y-55537500D03*
X188900000Y-55537500D03*
X188400000Y-55537500D03*
X187900000Y-55537500D03*
X187400000Y-55537500D03*
D16*
X187337500Y-56350000D03*
X187337500Y-56850000D03*
X187337500Y-57350000D03*
X187337500Y-57850000D03*
D15*
X187400000Y-58662500D03*
X187900000Y-58662500D03*
X188400000Y-58662500D03*
X188900000Y-58662500D03*
X189400000Y-58662500D03*
X189900000Y-58662500D03*
X190400000Y-58662500D03*
X190900000Y-58662500D03*
X191400000Y-58662500D03*
G36*
G01*
X187464750Y-59921500D02*
X187977250Y-59921500D01*
G75*
G02*
X188196000Y-60140250I0J-218750D01*
G01*
X188196000Y-60577750D01*
G75*
G02*
X187977250Y-60796500I-218750J0D01*
G01*
X187464750Y-60796500D01*
G75*
G02*
X187246000Y-60577750I0J218750D01*
G01*
X187246000Y-60140250D01*
G75*
G02*
X187464750Y-59921500I218750J0D01*
G01*
G37*
G36*
G01*
X187464750Y-61496500D02*
X187977250Y-61496500D01*
G75*
G02*
X188196000Y-61715250I0J-218750D01*
G01*
X188196000Y-62152750D01*
G75*
G02*
X187977250Y-62371500I-218750J0D01*
G01*
X187464750Y-62371500D01*
G75*
G02*
X187246000Y-62152750I0J218750D01*
G01*
X187246000Y-61715250D01*
G75*
G02*
X187464750Y-61496500I218750J0D01*
G01*
G37*
G36*
G01*
X161075000Y-63081250D02*
X161075000Y-62568750D01*
G75*
G02*
X161293750Y-62350000I218750J0D01*
G01*
X161731250Y-62350000D01*
G75*
G02*
X161950000Y-62568750I0J-218750D01*
G01*
X161950000Y-63081250D01*
G75*
G02*
X161731250Y-63300000I-218750J0D01*
G01*
X161293750Y-63300000D01*
G75*
G02*
X161075000Y-63081250I0J218750D01*
G01*
G37*
G36*
G01*
X162650000Y-63081250D02*
X162650000Y-62568750D01*
G75*
G02*
X162868750Y-62350000I218750J0D01*
G01*
X163306250Y-62350000D01*
G75*
G02*
X163525000Y-62568750I0J-218750D01*
G01*
X163525000Y-63081250D01*
G75*
G02*
X163306250Y-63300000I-218750J0D01*
G01*
X162868750Y-63300000D01*
G75*
G02*
X162650000Y-63081250I0J218750D01*
G01*
G37*
G36*
G01*
X216044850Y-59065200D02*
X215532350Y-59065200D01*
G75*
G02*
X215313600Y-58846450I0J218750D01*
G01*
X215313600Y-58408950D01*
G75*
G02*
X215532350Y-58190200I218750J0D01*
G01*
X216044850Y-58190200D01*
G75*
G02*
X216263600Y-58408950I0J-218750D01*
G01*
X216263600Y-58846450D01*
G75*
G02*
X216044850Y-59065200I-218750J0D01*
G01*
G37*
G36*
G01*
X216044850Y-57490200D02*
X215532350Y-57490200D01*
G75*
G02*
X215313600Y-57271450I0J218750D01*
G01*
X215313600Y-56833950D01*
G75*
G02*
X215532350Y-56615200I218750J0D01*
G01*
X216044850Y-56615200D01*
G75*
G02*
X216263600Y-56833950I0J-218750D01*
G01*
X216263600Y-57271450D01*
G75*
G02*
X216044850Y-57490200I-218750J0D01*
G01*
G37*
G36*
G01*
X189240000Y-53398750D02*
X189240000Y-53911250D01*
G75*
G02*
X189021250Y-54130000I-218750J0D01*
G01*
X188583750Y-54130000D01*
G75*
G02*
X188365000Y-53911250I0J218750D01*
G01*
X188365000Y-53398750D01*
G75*
G02*
X188583750Y-53180000I218750J0D01*
G01*
X189021250Y-53180000D01*
G75*
G02*
X189240000Y-53398750I0J-218750D01*
G01*
G37*
G36*
G01*
X187665000Y-53398750D02*
X187665000Y-53911250D01*
G75*
G02*
X187446250Y-54130000I-218750J0D01*
G01*
X187008750Y-54130000D01*
G75*
G02*
X186790000Y-53911250I0J218750D01*
G01*
X186790000Y-53398750D01*
G75*
G02*
X187008750Y-53180000I218750J0D01*
G01*
X187446250Y-53180000D01*
G75*
G02*
X187665000Y-53398750I0J-218750D01*
G01*
G37*
G36*
G01*
X194001250Y-55097500D02*
X193488750Y-55097500D01*
G75*
G02*
X193270000Y-54878750I0J218750D01*
G01*
X193270000Y-54441250D01*
G75*
G02*
X193488750Y-54222500I218750J0D01*
G01*
X194001250Y-54222500D01*
G75*
G02*
X194220000Y-54441250I0J-218750D01*
G01*
X194220000Y-54878750D01*
G75*
G02*
X194001250Y-55097500I-218750J0D01*
G01*
G37*
G36*
G01*
X194001250Y-53522500D02*
X193488750Y-53522500D01*
G75*
G02*
X193270000Y-53303750I0J218750D01*
G01*
X193270000Y-52866250D01*
G75*
G02*
X193488750Y-52647500I218750J0D01*
G01*
X194001250Y-52647500D01*
G75*
G02*
X194220000Y-52866250I0J-218750D01*
G01*
X194220000Y-53303750D01*
G75*
G02*
X194001250Y-53522500I-218750J0D01*
G01*
G37*
G36*
G01*
X189986500Y-54170250D02*
X189986500Y-53657750D01*
G75*
G02*
X190205250Y-53439000I218750J0D01*
G01*
X190642750Y-53439000D01*
G75*
G02*
X190861500Y-53657750I0J-218750D01*
G01*
X190861500Y-54170250D01*
G75*
G02*
X190642750Y-54389000I-218750J0D01*
G01*
X190205250Y-54389000D01*
G75*
G02*
X189986500Y-54170250I0J218750D01*
G01*
G37*
G36*
G01*
X191561500Y-54170250D02*
X191561500Y-53657750D01*
G75*
G02*
X191780250Y-53439000I218750J0D01*
G01*
X192217750Y-53439000D01*
G75*
G02*
X192436500Y-53657750I0J-218750D01*
G01*
X192436500Y-54170250D01*
G75*
G02*
X192217750Y-54389000I-218750J0D01*
G01*
X191780250Y-54389000D01*
G75*
G02*
X191561500Y-54170250I0J218750D01*
G01*
G37*
G36*
G01*
X185178750Y-56924500D02*
X185691250Y-56924500D01*
G75*
G02*
X185910000Y-57143250I0J-218750D01*
G01*
X185910000Y-57580750D01*
G75*
G02*
X185691250Y-57799500I-218750J0D01*
G01*
X185178750Y-57799500D01*
G75*
G02*
X184960000Y-57580750I0J218750D01*
G01*
X184960000Y-57143250D01*
G75*
G02*
X185178750Y-56924500I218750J0D01*
G01*
G37*
G36*
G01*
X185178750Y-58499500D02*
X185691250Y-58499500D01*
G75*
G02*
X185910000Y-58718250I0J-218750D01*
G01*
X185910000Y-59155750D01*
G75*
G02*
X185691250Y-59374500I-218750J0D01*
G01*
X185178750Y-59374500D01*
G75*
G02*
X184960000Y-59155750I0J218750D01*
G01*
X184960000Y-58718250D01*
G75*
G02*
X185178750Y-58499500I218750J0D01*
G01*
G37*
G36*
G01*
X133243750Y-62245803D02*
X133756250Y-62245803D01*
G75*
G02*
X133975000Y-62464553I0J-218750D01*
G01*
X133975000Y-62902053D01*
G75*
G02*
X133756250Y-63120803I-218750J0D01*
G01*
X133243750Y-63120803D01*
G75*
G02*
X133025000Y-62902053I0J218750D01*
G01*
X133025000Y-62464553D01*
G75*
G02*
X133243750Y-62245803I218750J0D01*
G01*
G37*
G36*
G01*
X133243750Y-63820803D02*
X133756250Y-63820803D01*
G75*
G02*
X133975000Y-64039553I0J-218750D01*
G01*
X133975000Y-64477053D01*
G75*
G02*
X133756250Y-64695803I-218750J0D01*
G01*
X133243750Y-64695803D01*
G75*
G02*
X133025000Y-64477053I0J218750D01*
G01*
X133025000Y-64039553D01*
G75*
G02*
X133243750Y-63820803I218750J0D01*
G01*
G37*
D17*
X129238899Y-61183303D03*
X129238899Y-62133303D03*
X129238899Y-63083303D03*
X131438899Y-63083303D03*
X131438899Y-61183303D03*
G36*
G01*
X154470600Y-52514850D02*
X154470600Y-52002350D01*
G75*
G02*
X154689350Y-51783600I218750J0D01*
G01*
X155126850Y-51783600D01*
G75*
G02*
X155345600Y-52002350I0J-218750D01*
G01*
X155345600Y-52514850D01*
G75*
G02*
X155126850Y-52733600I-218750J0D01*
G01*
X154689350Y-52733600D01*
G75*
G02*
X154470600Y-52514850I0J218750D01*
G01*
G37*
G36*
G01*
X156045600Y-52514850D02*
X156045600Y-52002350D01*
G75*
G02*
X156264350Y-51783600I218750J0D01*
G01*
X156701850Y-51783600D01*
G75*
G02*
X156920600Y-52002350I0J-218750D01*
G01*
X156920600Y-52514850D01*
G75*
G02*
X156701850Y-52733600I-218750J0D01*
G01*
X156264350Y-52733600D01*
G75*
G02*
X156045600Y-52514850I0J218750D01*
G01*
G37*
G36*
G01*
X158128500Y-52540250D02*
X158128500Y-52027750D01*
G75*
G02*
X158347250Y-51809000I218750J0D01*
G01*
X158784750Y-51809000D01*
G75*
G02*
X159003500Y-52027750I0J-218750D01*
G01*
X159003500Y-52540250D01*
G75*
G02*
X158784750Y-52759000I-218750J0D01*
G01*
X158347250Y-52759000D01*
G75*
G02*
X158128500Y-52540250I0J218750D01*
G01*
G37*
G36*
G01*
X159703500Y-52540250D02*
X159703500Y-52027750D01*
G75*
G02*
X159922250Y-51809000I218750J0D01*
G01*
X160359750Y-51809000D01*
G75*
G02*
X160578500Y-52027750I0J-218750D01*
G01*
X160578500Y-52540250D01*
G75*
G02*
X160359750Y-52759000I-218750J0D01*
G01*
X159922250Y-52759000D01*
G75*
G02*
X159703500Y-52540250I0J218750D01*
G01*
G37*
G36*
G01*
X125854900Y-59456250D02*
X125854900Y-58943750D01*
G75*
G02*
X126073650Y-58725000I218750J0D01*
G01*
X126511150Y-58725000D01*
G75*
G02*
X126729900Y-58943750I0J-218750D01*
G01*
X126729900Y-59456250D01*
G75*
G02*
X126511150Y-59675000I-218750J0D01*
G01*
X126073650Y-59675000D01*
G75*
G02*
X125854900Y-59456250I0J218750D01*
G01*
G37*
G36*
G01*
X127429900Y-59456250D02*
X127429900Y-58943750D01*
G75*
G02*
X127648650Y-58725000I218750J0D01*
G01*
X128086150Y-58725000D01*
G75*
G02*
X128304900Y-58943750I0J-218750D01*
G01*
X128304900Y-59456250D01*
G75*
G02*
X128086150Y-59675000I-218750J0D01*
G01*
X127648650Y-59675000D01*
G75*
G02*
X127429900Y-59456250I0J218750D01*
G01*
G37*
G36*
G01*
X131962500Y-58943750D02*
X131962500Y-59456250D01*
G75*
G02*
X131743750Y-59675000I-218750J0D01*
G01*
X131306250Y-59675000D01*
G75*
G02*
X131087500Y-59456250I0J218750D01*
G01*
X131087500Y-58943750D01*
G75*
G02*
X131306250Y-58725000I218750J0D01*
G01*
X131743750Y-58725000D01*
G75*
G02*
X131962500Y-58943750I0J-218750D01*
G01*
G37*
G36*
G01*
X130387500Y-58943750D02*
X130387500Y-59456250D01*
G75*
G02*
X130168750Y-59675000I-218750J0D01*
G01*
X129731250Y-59675000D01*
G75*
G02*
X129512500Y-59456250I0J218750D01*
G01*
X129512500Y-58943750D01*
G75*
G02*
X129731250Y-58725000I218750J0D01*
G01*
X130168750Y-58725000D01*
G75*
G02*
X130387500Y-58943750I0J-218750D01*
G01*
G37*
G36*
G01*
X195723300Y-57944850D02*
X195723300Y-58457350D01*
G75*
G02*
X195504550Y-58676100I-218750J0D01*
G01*
X195067050Y-58676100D01*
G75*
G02*
X194848300Y-58457350I0J218750D01*
G01*
X194848300Y-57944850D01*
G75*
G02*
X195067050Y-57726100I218750J0D01*
G01*
X195504550Y-57726100D01*
G75*
G02*
X195723300Y-57944850I0J-218750D01*
G01*
G37*
G36*
G01*
X194148300Y-57944850D02*
X194148300Y-58457350D01*
G75*
G02*
X193929550Y-58676100I-218750J0D01*
G01*
X193492050Y-58676100D01*
G75*
G02*
X193273300Y-58457350I0J218750D01*
G01*
X193273300Y-57944850D01*
G75*
G02*
X193492050Y-57726100I218750J0D01*
G01*
X193929550Y-57726100D01*
G75*
G02*
X194148300Y-57944850I0J-218750D01*
G01*
G37*
D18*
X127311101Y-53616800D03*
X132771101Y-53616800D03*
X127311101Y-56156800D03*
X132771101Y-56156800D03*
D19*
X154400500Y-59269000D03*
X154400500Y-55369000D03*
X155670500Y-59269000D03*
X155670500Y-55369000D03*
X156940500Y-59269000D03*
X156940500Y-55369000D03*
D20*
X193817000Y-62696000D03*
X191317000Y-62696000D03*
G36*
G01*
X162158428Y-79859985D02*
X162158428Y-80372485D01*
G75*
G02*
X161939678Y-80591235I-218750J0D01*
G01*
X161502178Y-80591235D01*
G75*
G02*
X161283428Y-80372485I0J218750D01*
G01*
X161283428Y-79859985D01*
G75*
G02*
X161502178Y-79641235I218750J0D01*
G01*
X161939678Y-79641235D01*
G75*
G02*
X162158428Y-79859985I0J-218750D01*
G01*
G37*
G36*
G01*
X160583428Y-79859985D02*
X160583428Y-80372485D01*
G75*
G02*
X160364678Y-80591235I-218750J0D01*
G01*
X159927178Y-80591235D01*
G75*
G02*
X159708428Y-80372485I0J218750D01*
G01*
X159708428Y-79859985D01*
G75*
G02*
X159927178Y-79641235I218750J0D01*
G01*
X160364678Y-79641235D01*
G75*
G02*
X160583428Y-79859985I0J-218750D01*
G01*
G37*
G36*
G01*
X221534028Y-79953158D02*
X221534028Y-80465658D01*
G75*
G02*
X221315278Y-80684408I-218750J0D01*
G01*
X220877778Y-80684408D01*
G75*
G02*
X220659028Y-80465658I0J218750D01*
G01*
X220659028Y-79953158D01*
G75*
G02*
X220877778Y-79734408I218750J0D01*
G01*
X221315278Y-79734408D01*
G75*
G02*
X221534028Y-79953158I0J-218750D01*
G01*
G37*
G36*
G01*
X219959028Y-79953158D02*
X219959028Y-80465658D01*
G75*
G02*
X219740278Y-80684408I-218750J0D01*
G01*
X219302778Y-80684408D01*
G75*
G02*
X219084028Y-80465658I0J218750D01*
G01*
X219084028Y-79953158D01*
G75*
G02*
X219302778Y-79734408I218750J0D01*
G01*
X219740278Y-79734408D01*
G75*
G02*
X219959028Y-79953158I0J-218750D01*
G01*
G37*
G36*
G01*
X193087015Y-79924278D02*
X193087015Y-80436778D01*
G75*
G02*
X192868265Y-80655528I-218750J0D01*
G01*
X192430765Y-80655528D01*
G75*
G02*
X192212015Y-80436778I0J218750D01*
G01*
X192212015Y-79924278D01*
G75*
G02*
X192430765Y-79705528I218750J0D01*
G01*
X192868265Y-79705528D01*
G75*
G02*
X193087015Y-79924278I0J-218750D01*
G01*
G37*
G36*
G01*
X191512015Y-79924278D02*
X191512015Y-80436778D01*
G75*
G02*
X191293265Y-80655528I-218750J0D01*
G01*
X190855765Y-80655528D01*
G75*
G02*
X190637015Y-80436778I0J218750D01*
G01*
X190637015Y-79924278D01*
G75*
G02*
X190855765Y-79705528I218750J0D01*
G01*
X191293265Y-79705528D01*
G75*
G02*
X191512015Y-79924278I0J-218750D01*
G01*
G37*
G36*
G01*
X127105000Y-80456250D02*
X127105000Y-79943750D01*
G75*
G02*
X127323750Y-79725000I218750J0D01*
G01*
X127761250Y-79725000D01*
G75*
G02*
X127980000Y-79943750I0J-218750D01*
G01*
X127980000Y-80456250D01*
G75*
G02*
X127761250Y-80675000I-218750J0D01*
G01*
X127323750Y-80675000D01*
G75*
G02*
X127105000Y-80456250I0J218750D01*
G01*
G37*
G36*
G01*
X128680000Y-80456250D02*
X128680000Y-79943750D01*
G75*
G02*
X128898750Y-79725000I218750J0D01*
G01*
X129336250Y-79725000D01*
G75*
G02*
X129555000Y-79943750I0J-218750D01*
G01*
X129555000Y-80456250D01*
G75*
G02*
X129336250Y-80675000I-218750J0D01*
G01*
X128898750Y-80675000D01*
G75*
G02*
X128680000Y-80456250I0J218750D01*
G01*
G37*
G36*
G01*
X219825000Y-63536250D02*
X219825000Y-63023750D01*
G75*
G02*
X220043750Y-62805000I218750J0D01*
G01*
X220481250Y-62805000D01*
G75*
G02*
X220700000Y-63023750I0J-218750D01*
G01*
X220700000Y-63536250D01*
G75*
G02*
X220481250Y-63755000I-218750J0D01*
G01*
X220043750Y-63755000D01*
G75*
G02*
X219825000Y-63536250I0J218750D01*
G01*
G37*
G36*
G01*
X221400000Y-63536250D02*
X221400000Y-63023750D01*
G75*
G02*
X221618750Y-62805000I218750J0D01*
G01*
X222056250Y-62805000D01*
G75*
G02*
X222275000Y-63023750I0J-218750D01*
G01*
X222275000Y-63536250D01*
G75*
G02*
X222056250Y-63755000I-218750J0D01*
G01*
X221618750Y-63755000D01*
G75*
G02*
X221400000Y-63536250I0J218750D01*
G01*
G37*
G36*
G01*
X215872500Y-80456250D02*
X215872500Y-79943750D01*
G75*
G02*
X216091250Y-79725000I218750J0D01*
G01*
X216528750Y-79725000D01*
G75*
G02*
X216747500Y-79943750I0J-218750D01*
G01*
X216747500Y-80456250D01*
G75*
G02*
X216528750Y-80675000I-218750J0D01*
G01*
X216091250Y-80675000D01*
G75*
G02*
X215872500Y-80456250I0J218750D01*
G01*
G37*
G36*
G01*
X217447500Y-80456250D02*
X217447500Y-79943750D01*
G75*
G02*
X217666250Y-79725000I218750J0D01*
G01*
X218103750Y-79725000D01*
G75*
G02*
X218322500Y-79943750I0J-218750D01*
G01*
X218322500Y-80456250D01*
G75*
G02*
X218103750Y-80675000I-218750J0D01*
G01*
X217666250Y-80675000D01*
G75*
G02*
X217447500Y-80456250I0J218750D01*
G01*
G37*
G36*
G01*
X132855000Y-79943750D02*
X132855000Y-80456250D01*
G75*
G02*
X132636250Y-80675000I-218750J0D01*
G01*
X132198750Y-80675000D01*
G75*
G02*
X131980000Y-80456250I0J218750D01*
G01*
X131980000Y-79943750D01*
G75*
G02*
X132198750Y-79725000I218750J0D01*
G01*
X132636250Y-79725000D01*
G75*
G02*
X132855000Y-79943750I0J-218750D01*
G01*
G37*
G36*
G01*
X131280000Y-79943750D02*
X131280000Y-80456250D01*
G75*
G02*
X131061250Y-80675000I-218750J0D01*
G01*
X130623750Y-80675000D01*
G75*
G02*
X130405000Y-80456250I0J218750D01*
G01*
X130405000Y-79943750D01*
G75*
G02*
X130623750Y-79725000I218750J0D01*
G01*
X131061250Y-79725000D01*
G75*
G02*
X131280000Y-79943750I0J-218750D01*
G01*
G37*
G36*
G01*
X156527500Y-80396250D02*
X156527500Y-79883750D01*
G75*
G02*
X156746250Y-79665000I218750J0D01*
G01*
X157183750Y-79665000D01*
G75*
G02*
X157402500Y-79883750I0J-218750D01*
G01*
X157402500Y-80396250D01*
G75*
G02*
X157183750Y-80615000I-218750J0D01*
G01*
X156746250Y-80615000D01*
G75*
G02*
X156527500Y-80396250I0J218750D01*
G01*
G37*
G36*
G01*
X158102500Y-80396250D02*
X158102500Y-79883750D01*
G75*
G02*
X158321250Y-79665000I218750J0D01*
G01*
X158758750Y-79665000D01*
G75*
G02*
X158977500Y-79883750I0J-218750D01*
G01*
X158977500Y-80396250D01*
G75*
G02*
X158758750Y-80615000I-218750J0D01*
G01*
X158321250Y-80615000D01*
G75*
G02*
X158102500Y-80396250I0J218750D01*
G01*
G37*
G36*
G01*
X222285000Y-60313750D02*
X222285000Y-60826250D01*
G75*
G02*
X222066250Y-61045000I-218750J0D01*
G01*
X221628750Y-61045000D01*
G75*
G02*
X221410000Y-60826250I0J218750D01*
G01*
X221410000Y-60313750D01*
G75*
G02*
X221628750Y-60095000I218750J0D01*
G01*
X222066250Y-60095000D01*
G75*
G02*
X222285000Y-60313750I0J-218750D01*
G01*
G37*
G36*
G01*
X220710000Y-60313750D02*
X220710000Y-60826250D01*
G75*
G02*
X220491250Y-61045000I-218750J0D01*
G01*
X220053750Y-61045000D01*
G75*
G02*
X219835000Y-60826250I0J218750D01*
G01*
X219835000Y-60313750D01*
G75*
G02*
X220053750Y-60095000I218750J0D01*
G01*
X220491250Y-60095000D01*
G75*
G02*
X220710000Y-60313750I0J-218750D01*
G01*
G37*
G36*
G01*
X187422250Y-80450500D02*
X187422250Y-79938000D01*
G75*
G02*
X187641000Y-79719250I218750J0D01*
G01*
X188078500Y-79719250D01*
G75*
G02*
X188297250Y-79938000I0J-218750D01*
G01*
X188297250Y-80450500D01*
G75*
G02*
X188078500Y-80669250I-218750J0D01*
G01*
X187641000Y-80669250D01*
G75*
G02*
X187422250Y-80450500I0J218750D01*
G01*
G37*
G36*
G01*
X188997250Y-80450500D02*
X188997250Y-79938000D01*
G75*
G02*
X189216000Y-79719250I218750J0D01*
G01*
X189653500Y-79719250D01*
G75*
G02*
X189872250Y-79938000I0J-218750D01*
G01*
X189872250Y-80450500D01*
G75*
G02*
X189653500Y-80669250I-218750J0D01*
G01*
X189216000Y-80669250D01*
G75*
G02*
X188997250Y-80450500I0J218750D01*
G01*
G37*
G36*
G01*
X126143750Y-61795803D02*
X126656250Y-61795803D01*
G75*
G02*
X126875000Y-62014553I0J-218750D01*
G01*
X126875000Y-62452053D01*
G75*
G02*
X126656250Y-62670803I-218750J0D01*
G01*
X126143750Y-62670803D01*
G75*
G02*
X125925000Y-62452053I0J218750D01*
G01*
X125925000Y-62014553D01*
G75*
G02*
X126143750Y-61795803I218750J0D01*
G01*
G37*
G36*
G01*
X126143750Y-63370803D02*
X126656250Y-63370803D01*
G75*
G02*
X126875000Y-63589553I0J-218750D01*
G01*
X126875000Y-64027053D01*
G75*
G02*
X126656250Y-64245803I-218750J0D01*
G01*
X126143750Y-64245803D01*
G75*
G02*
X125925000Y-64027053I0J218750D01*
G01*
X125925000Y-63589553D01*
G75*
G02*
X126143750Y-63370803I218750J0D01*
G01*
G37*
M02*
