G04 #@! TF.GenerationSoftware,KiCad,Pcbnew,(5.1.6-0-10_14)*
G04 #@! TF.CreationDate,2020-07-24T16:30:46-07:00*
G04 #@! TF.ProjectId,VineHoop_Flex_V1,56696e65-486f-46f7-905f-466c65785f56,rev?*
G04 #@! TF.SameCoordinates,Original*
G04 #@! TF.FileFunction,Paste,Top*
G04 #@! TF.FilePolarity,Positive*
%FSLAX46Y46*%
G04 Gerber Fmt 4.6, Leading zero omitted, Abs format (unit mm)*
G04 Created by KiCad (PCBNEW (5.1.6-0-10_14)) date 2020-07-24 16:30:46*
%MOMM*%
%LPD*%
G01*
G04 APERTURE LIST*
%ADD10C,0.010000*%
%ADD11R,1.000000X2.510000*%
%ADD12R,0.525000X0.300000*%
%ADD13R,0.300000X0.425000*%
%ADD14R,3.251200X3.251200*%
%ADD15R,0.812800X0.304800*%
%ADD16R,0.304800X0.812800*%
%ADD17R,1.060000X0.650000*%
%ADD18R,1.800000X1.000000*%
%ADD19R,1.700000X2.400000*%
%ADD20R,0.200000X1.000000*%
%ADD21R,0.800000X0.300000*%
G04 APERTURE END LIST*
D10*
G36*
X151140716Y-68430000D02*
G01*
X151811000Y-68430000D01*
X151811000Y-69800580D01*
X151140716Y-69800580D01*
X151140716Y-68430000D01*
G37*
X151140716Y-68430000D02*
X151811000Y-68430000D01*
X151811000Y-69800580D01*
X151140716Y-69800580D01*
X151140716Y-68430000D01*
G36*
G01*
X108244500Y-69553750D02*
X108244500Y-70066250D01*
G75*
G02*
X108025750Y-70285000I-218750J0D01*
G01*
X107588250Y-70285000D01*
G75*
G02*
X107369500Y-70066250I0J218750D01*
G01*
X107369500Y-69553750D01*
G75*
G02*
X107588250Y-69335000I218750J0D01*
G01*
X108025750Y-69335000D01*
G75*
G02*
X108244500Y-69553750I0J-218750D01*
G01*
G37*
G36*
G01*
X109819500Y-69553750D02*
X109819500Y-70066250D01*
G75*
G02*
X109600750Y-70285000I-218750J0D01*
G01*
X109163250Y-70285000D01*
G75*
G02*
X108944500Y-70066250I0J218750D01*
G01*
X108944500Y-69553750D01*
G75*
G02*
X109163250Y-69335000I218750J0D01*
G01*
X109600750Y-69335000D01*
G75*
G02*
X109819500Y-69553750I0J-218750D01*
G01*
G37*
G36*
G01*
X104934500Y-70106250D02*
X104934500Y-69593750D01*
G75*
G02*
X105153250Y-69375000I218750J0D01*
G01*
X105590750Y-69375000D01*
G75*
G02*
X105809500Y-69593750I0J-218750D01*
G01*
X105809500Y-70106250D01*
G75*
G02*
X105590750Y-70325000I-218750J0D01*
G01*
X105153250Y-70325000D01*
G75*
G02*
X104934500Y-70106250I0J218750D01*
G01*
G37*
G36*
G01*
X103359500Y-70106250D02*
X103359500Y-69593750D01*
G75*
G02*
X103578250Y-69375000I218750J0D01*
G01*
X104015750Y-69375000D01*
G75*
G02*
X104234500Y-69593750I0J-218750D01*
G01*
X104234500Y-70106250D01*
G75*
G02*
X104015750Y-70325000I-218750J0D01*
G01*
X103578250Y-70325000D01*
G75*
G02*
X103359500Y-70106250I0J218750D01*
G01*
G37*
G36*
G01*
X162591000Y-69466750D02*
X162591000Y-69979250D01*
G75*
G02*
X162372250Y-70198000I-218750J0D01*
G01*
X161934750Y-70198000D01*
G75*
G02*
X161716000Y-69979250I0J218750D01*
G01*
X161716000Y-69466750D01*
G75*
G02*
X161934750Y-69248000I218750J0D01*
G01*
X162372250Y-69248000D01*
G75*
G02*
X162591000Y-69466750I0J-218750D01*
G01*
G37*
G36*
G01*
X164166000Y-69466750D02*
X164166000Y-69979250D01*
G75*
G02*
X163947250Y-70198000I-218750J0D01*
G01*
X163509750Y-70198000D01*
G75*
G02*
X163291000Y-69979250I0J218750D01*
G01*
X163291000Y-69466750D01*
G75*
G02*
X163509750Y-69248000I218750J0D01*
G01*
X163947250Y-69248000D01*
G75*
G02*
X164166000Y-69466750I0J-218750D01*
G01*
G37*
G36*
G01*
X144647500Y-63248250D02*
X144647500Y-62735750D01*
G75*
G02*
X144866250Y-62517000I218750J0D01*
G01*
X145303750Y-62517000D01*
G75*
G02*
X145522500Y-62735750I0J-218750D01*
G01*
X145522500Y-63248250D01*
G75*
G02*
X145303750Y-63467000I-218750J0D01*
G01*
X144866250Y-63467000D01*
G75*
G02*
X144647500Y-63248250I0J218750D01*
G01*
G37*
G36*
G01*
X143072500Y-63248250D02*
X143072500Y-62735750D01*
G75*
G02*
X143291250Y-62517000I218750J0D01*
G01*
X143728750Y-62517000D01*
G75*
G02*
X143947500Y-62735750I0J-218750D01*
G01*
X143947500Y-63248250D01*
G75*
G02*
X143728750Y-63467000I-218750J0D01*
G01*
X143291250Y-63467000D01*
G75*
G02*
X143072500Y-63248250I0J218750D01*
G01*
G37*
D11*
X209550000Y-61976000D03*
X214630000Y-61976000D03*
X207010000Y-58666000D03*
X212090000Y-58666000D03*
G36*
G01*
X141294500Y-63248250D02*
X141294500Y-62735750D01*
G75*
G02*
X141513250Y-62517000I218750J0D01*
G01*
X141950750Y-62517000D01*
G75*
G02*
X142169500Y-62735750I0J-218750D01*
G01*
X142169500Y-63248250D01*
G75*
G02*
X141950750Y-63467000I-218750J0D01*
G01*
X141513250Y-63467000D01*
G75*
G02*
X141294500Y-63248250I0J218750D01*
G01*
G37*
G36*
G01*
X139719500Y-63248250D02*
X139719500Y-62735750D01*
G75*
G02*
X139938250Y-62517000I218750J0D01*
G01*
X140375750Y-62517000D01*
G75*
G02*
X140594500Y-62735750I0J-218750D01*
G01*
X140594500Y-63248250D01*
G75*
G02*
X140375750Y-63467000I-218750J0D01*
G01*
X139938250Y-63467000D01*
G75*
G02*
X139719500Y-63248250I0J218750D01*
G01*
G37*
G36*
G01*
X149484500Y-66545750D02*
X149484500Y-67058250D01*
G75*
G02*
X149265750Y-67277000I-218750J0D01*
G01*
X148828250Y-67277000D01*
G75*
G02*
X148609500Y-67058250I0J218750D01*
G01*
X148609500Y-66545750D01*
G75*
G02*
X148828250Y-66327000I218750J0D01*
G01*
X149265750Y-66327000D01*
G75*
G02*
X149484500Y-66545750I0J-218750D01*
G01*
G37*
G36*
G01*
X151059500Y-66545750D02*
X151059500Y-67058250D01*
G75*
G02*
X150840750Y-67277000I-218750J0D01*
G01*
X150403250Y-67277000D01*
G75*
G02*
X150184500Y-67058250I0J218750D01*
G01*
X150184500Y-66545750D01*
G75*
G02*
X150403250Y-66327000I218750J0D01*
G01*
X150840750Y-66327000D01*
G75*
G02*
X151059500Y-66545750I0J-218750D01*
G01*
G37*
D12*
X162021500Y-65655000D03*
X162021500Y-65155000D03*
X162021500Y-64655000D03*
X162021500Y-64155000D03*
X162021500Y-63655000D03*
X162021500Y-63155000D03*
X162021500Y-62655000D03*
X162021500Y-62155000D03*
X162021500Y-61655000D03*
D13*
X162834000Y-61592500D03*
X163334000Y-61592500D03*
X163834000Y-61592500D03*
X164334000Y-61592500D03*
D12*
X165146500Y-61655000D03*
X165146500Y-62155000D03*
X165146500Y-62655000D03*
X165146500Y-63155000D03*
X165146500Y-63655000D03*
X165146500Y-64155000D03*
X165146500Y-64655000D03*
X165146500Y-65155000D03*
X165146500Y-65655000D03*
X165146500Y-66155000D03*
D13*
X164334000Y-66217500D03*
X163834000Y-66217500D03*
X163334000Y-66217500D03*
X162834000Y-66217500D03*
D12*
X162021500Y-66155000D03*
D14*
X149225000Y-62865000D03*
D15*
X151688800Y-61112400D03*
X151688800Y-61620400D03*
X151688800Y-62103000D03*
X151688800Y-62611000D03*
X151688800Y-63119000D03*
X151688800Y-63627000D03*
X151688800Y-64109600D03*
X151688800Y-64617600D03*
D16*
X150977600Y-65328800D03*
X150469600Y-65328800D03*
X149987000Y-65328800D03*
X149479000Y-65328800D03*
X148971000Y-65328800D03*
X148463000Y-65328800D03*
X147980400Y-65328800D03*
X147472400Y-65328800D03*
D15*
X146761200Y-64617600D03*
X146761200Y-64109600D03*
X146761200Y-63627000D03*
X146761200Y-63119000D03*
X146761200Y-62611000D03*
X146761200Y-62103000D03*
X146761200Y-61620400D03*
X146761200Y-61112400D03*
D16*
X147472400Y-60401200D03*
X147980400Y-60401200D03*
X148463000Y-60401200D03*
X148971000Y-60401200D03*
X149479000Y-60401200D03*
X149987000Y-60401200D03*
X150469600Y-60401200D03*
X150977600Y-60401200D03*
D17*
X145522000Y-67725000D03*
X145522000Y-69625000D03*
X143322000Y-69625000D03*
X143322000Y-68675000D03*
X143322000Y-67725000D03*
G36*
G01*
X167285250Y-61920000D02*
X166772750Y-61920000D01*
G75*
G02*
X166554000Y-61701250I0J218750D01*
G01*
X166554000Y-61263750D01*
G75*
G02*
X166772750Y-61045000I218750J0D01*
G01*
X167285250Y-61045000D01*
G75*
G02*
X167504000Y-61263750I0J-218750D01*
G01*
X167504000Y-61701250D01*
G75*
G02*
X167285250Y-61920000I-218750J0D01*
G01*
G37*
G36*
G01*
X167285250Y-63495000D02*
X166772750Y-63495000D01*
G75*
G02*
X166554000Y-63276250I0J218750D01*
G01*
X166554000Y-62838750D01*
G75*
G02*
X166772750Y-62620000I218750J0D01*
G01*
X167285250Y-62620000D01*
G75*
G02*
X167504000Y-62838750I0J-218750D01*
G01*
X167504000Y-63276250D01*
G75*
G02*
X167285250Y-63495000I-218750J0D01*
G01*
G37*
G36*
G01*
X163443500Y-68074250D02*
X163443500Y-67561750D01*
G75*
G02*
X163662250Y-67343000I218750J0D01*
G01*
X164099750Y-67343000D01*
G75*
G02*
X164318500Y-67561750I0J-218750D01*
G01*
X164318500Y-68074250D01*
G75*
G02*
X164099750Y-68293000I-218750J0D01*
G01*
X163662250Y-68293000D01*
G75*
G02*
X163443500Y-68074250I0J218750D01*
G01*
G37*
G36*
G01*
X161868500Y-68074250D02*
X161868500Y-67561750D01*
G75*
G02*
X162087250Y-67343000I218750J0D01*
G01*
X162524750Y-67343000D01*
G75*
G02*
X162743500Y-67561750I0J-218750D01*
G01*
X162743500Y-68074250D01*
G75*
G02*
X162524750Y-68293000I-218750J0D01*
G01*
X162087250Y-68293000D01*
G75*
G02*
X161868500Y-68074250I0J218750D01*
G01*
G37*
G36*
G01*
X140645500Y-57147750D02*
X140645500Y-57660250D01*
G75*
G02*
X140426750Y-57879000I-218750J0D01*
G01*
X139989250Y-57879000D01*
G75*
G02*
X139770500Y-57660250I0J218750D01*
G01*
X139770500Y-57147750D01*
G75*
G02*
X139989250Y-56929000I218750J0D01*
G01*
X140426750Y-56929000D01*
G75*
G02*
X140645500Y-57147750I0J-218750D01*
G01*
G37*
G36*
G01*
X142220500Y-57147750D02*
X142220500Y-57660250D01*
G75*
G02*
X142001750Y-57879000I-218750J0D01*
G01*
X141564250Y-57879000D01*
G75*
G02*
X141345500Y-57660250I0J218750D01*
G01*
X141345500Y-57147750D01*
G75*
G02*
X141564250Y-56929000I218750J0D01*
G01*
X142001750Y-56929000D01*
G75*
G02*
X142220500Y-57147750I0J-218750D01*
G01*
G37*
G36*
G01*
X146487500Y-58671750D02*
X146487500Y-59184250D01*
G75*
G02*
X146268750Y-59403000I-218750J0D01*
G01*
X145831250Y-59403000D01*
G75*
G02*
X145612500Y-59184250I0J218750D01*
G01*
X145612500Y-58671750D01*
G75*
G02*
X145831250Y-58453000I218750J0D01*
G01*
X146268750Y-58453000D01*
G75*
G02*
X146487500Y-58671750I0J-218750D01*
G01*
G37*
G36*
G01*
X148062500Y-58671750D02*
X148062500Y-59184250D01*
G75*
G02*
X147843750Y-59403000I-218750J0D01*
G01*
X147406250Y-59403000D01*
G75*
G02*
X147187500Y-59184250I0J218750D01*
G01*
X147187500Y-58671750D01*
G75*
G02*
X147406250Y-58453000I218750J0D01*
G01*
X147843750Y-58453000D01*
G75*
G02*
X148062500Y-58671750I0J-218750D01*
G01*
G37*
G36*
G01*
X144265000Y-65656750D02*
X144265000Y-66169250D01*
G75*
G02*
X144046250Y-66388000I-218750J0D01*
G01*
X143608750Y-66388000D01*
G75*
G02*
X143390000Y-66169250I0J218750D01*
G01*
X143390000Y-65656750D01*
G75*
G02*
X143608750Y-65438000I218750J0D01*
G01*
X144046250Y-65438000D01*
G75*
G02*
X144265000Y-65656750I0J-218750D01*
G01*
G37*
G36*
G01*
X145840000Y-65656750D02*
X145840000Y-66169250D01*
G75*
G02*
X145621250Y-66388000I-218750J0D01*
G01*
X145183750Y-66388000D01*
G75*
G02*
X144965000Y-66169250I0J218750D01*
G01*
X144965000Y-65656750D01*
G75*
G02*
X145183750Y-65438000I218750J0D01*
G01*
X145621250Y-65438000D01*
G75*
G02*
X145840000Y-65656750I0J-218750D01*
G01*
G37*
G36*
G01*
X141376250Y-68960000D02*
X140863750Y-68960000D01*
G75*
G02*
X140645000Y-68741250I0J218750D01*
G01*
X140645000Y-68303750D01*
G75*
G02*
X140863750Y-68085000I218750J0D01*
G01*
X141376250Y-68085000D01*
G75*
G02*
X141595000Y-68303750I0J-218750D01*
G01*
X141595000Y-68741250D01*
G75*
G02*
X141376250Y-68960000I-218750J0D01*
G01*
G37*
G36*
G01*
X141376250Y-70535000D02*
X140863750Y-70535000D01*
G75*
G02*
X140645000Y-70316250I0J218750D01*
G01*
X140645000Y-69878750D01*
G75*
G02*
X140863750Y-69660000I218750J0D01*
G01*
X141376250Y-69660000D01*
G75*
G02*
X141595000Y-69878750I0J-218750D01*
G01*
X141595000Y-70316250D01*
G75*
G02*
X141376250Y-70535000I-218750J0D01*
G01*
G37*
G36*
G01*
X166513750Y-65816500D02*
X167026250Y-65816500D01*
G75*
G02*
X167245000Y-66035250I0J-218750D01*
G01*
X167245000Y-66472750D01*
G75*
G02*
X167026250Y-66691500I-218750J0D01*
G01*
X166513750Y-66691500D01*
G75*
G02*
X166295000Y-66472750I0J218750D01*
G01*
X166295000Y-66035250D01*
G75*
G02*
X166513750Y-65816500I218750J0D01*
G01*
G37*
G36*
G01*
X166513750Y-64241500D02*
X167026250Y-64241500D01*
G75*
G02*
X167245000Y-64460250I0J-218750D01*
G01*
X167245000Y-64897750D01*
G75*
G02*
X167026250Y-65116500I-218750J0D01*
G01*
X166513750Y-65116500D01*
G75*
G02*
X166295000Y-64897750I0J218750D01*
G01*
X166295000Y-64460250D01*
G75*
G02*
X166513750Y-64241500I218750J0D01*
G01*
G37*
G36*
G01*
X158058500Y-63756250D02*
X158058500Y-63243750D01*
G75*
G02*
X158277250Y-63025000I218750J0D01*
G01*
X158714750Y-63025000D01*
G75*
G02*
X158933500Y-63243750I0J-218750D01*
G01*
X158933500Y-63756250D01*
G75*
G02*
X158714750Y-63975000I-218750J0D01*
G01*
X158277250Y-63975000D01*
G75*
G02*
X158058500Y-63756250I0J218750D01*
G01*
G37*
G36*
G01*
X156483500Y-63756250D02*
X156483500Y-63243750D01*
G75*
G02*
X156702250Y-63025000I218750J0D01*
G01*
X157139750Y-63025000D01*
G75*
G02*
X157358500Y-63243750I0J-218750D01*
G01*
X157358500Y-63756250D01*
G75*
G02*
X157139750Y-63975000I-218750J0D01*
G01*
X156702250Y-63975000D01*
G75*
G02*
X156483500Y-63756250I0J218750D01*
G01*
G37*
G36*
G01*
X159187500Y-61719750D02*
X159187500Y-62232250D01*
G75*
G02*
X158968750Y-62451000I-218750J0D01*
G01*
X158531250Y-62451000D01*
G75*
G02*
X158312500Y-62232250I0J218750D01*
G01*
X158312500Y-61719750D01*
G75*
G02*
X158531250Y-61501000I218750J0D01*
G01*
X158968750Y-61501000D01*
G75*
G02*
X159187500Y-61719750I0J-218750D01*
G01*
G37*
G36*
G01*
X160762500Y-61719750D02*
X160762500Y-62232250D01*
G75*
G02*
X160543750Y-62451000I-218750J0D01*
G01*
X160106250Y-62451000D01*
G75*
G02*
X159887500Y-62232250I0J218750D01*
G01*
X159887500Y-61719750D01*
G75*
G02*
X160106250Y-61501000I218750J0D01*
G01*
X160543750Y-61501000D01*
G75*
G02*
X160762500Y-61719750I0J-218750D01*
G01*
G37*
G36*
G01*
X154886500Y-65743750D02*
X154886500Y-66256250D01*
G75*
G02*
X154667750Y-66475000I-218750J0D01*
G01*
X154230250Y-66475000D01*
G75*
G02*
X154011500Y-66256250I0J218750D01*
G01*
X154011500Y-65743750D01*
G75*
G02*
X154230250Y-65525000I218750J0D01*
G01*
X154667750Y-65525000D01*
G75*
G02*
X154886500Y-65743750I0J-218750D01*
G01*
G37*
G36*
G01*
X156461500Y-65743750D02*
X156461500Y-66256250D01*
G75*
G02*
X156242750Y-66475000I-218750J0D01*
G01*
X155805250Y-66475000D01*
G75*
G02*
X155586500Y-66256250I0J218750D01*
G01*
X155586500Y-65743750D01*
G75*
G02*
X155805250Y-65525000I218750J0D01*
G01*
X156242750Y-65525000D01*
G75*
G02*
X156461500Y-65743750I0J-218750D01*
G01*
G37*
G36*
G01*
X148406500Y-69344250D02*
X148406500Y-68831750D01*
G75*
G02*
X148625250Y-68613000I218750J0D01*
G01*
X149062750Y-68613000D01*
G75*
G02*
X149281500Y-68831750I0J-218750D01*
G01*
X149281500Y-69344250D01*
G75*
G02*
X149062750Y-69563000I-218750J0D01*
G01*
X148625250Y-69563000D01*
G75*
G02*
X148406500Y-69344250I0J218750D01*
G01*
G37*
G36*
G01*
X146831500Y-69344250D02*
X146831500Y-68831750D01*
G75*
G02*
X147050250Y-68613000I218750J0D01*
G01*
X147487750Y-68613000D01*
G75*
G02*
X147706500Y-68831750I0J-218750D01*
G01*
X147706500Y-69344250D01*
G75*
G02*
X147487750Y-69563000I-218750J0D01*
G01*
X147050250Y-69563000D01*
G75*
G02*
X146831500Y-69344250I0J218750D01*
G01*
G37*
G36*
G01*
X160260250Y-64230000D02*
X159747750Y-64230000D01*
G75*
G02*
X159529000Y-64011250I0J218750D01*
G01*
X159529000Y-63573750D01*
G75*
G02*
X159747750Y-63355000I218750J0D01*
G01*
X160260250Y-63355000D01*
G75*
G02*
X160479000Y-63573750I0J-218750D01*
G01*
X160479000Y-64011250D01*
G75*
G02*
X160260250Y-64230000I-218750J0D01*
G01*
G37*
G36*
G01*
X160260250Y-65805000D02*
X159747750Y-65805000D01*
G75*
G02*
X159529000Y-65586250I0J218750D01*
G01*
X159529000Y-65148750D01*
G75*
G02*
X159747750Y-64930000I218750J0D01*
G01*
X160260250Y-64930000D01*
G75*
G02*
X160479000Y-65148750I0J-218750D01*
G01*
X160479000Y-65586250D01*
G75*
G02*
X160260250Y-65805000I-218750J0D01*
G01*
G37*
G36*
G01*
X159747750Y-68740000D02*
X160260250Y-68740000D01*
G75*
G02*
X160479000Y-68958750I0J-218750D01*
G01*
X160479000Y-69396250D01*
G75*
G02*
X160260250Y-69615000I-218750J0D01*
G01*
X159747750Y-69615000D01*
G75*
G02*
X159529000Y-69396250I0J218750D01*
G01*
X159529000Y-68958750D01*
G75*
G02*
X159747750Y-68740000I218750J0D01*
G01*
G37*
G36*
G01*
X159747750Y-67165000D02*
X160260250Y-67165000D01*
G75*
G02*
X160479000Y-67383750I0J-218750D01*
G01*
X160479000Y-67821250D01*
G75*
G02*
X160260250Y-68040000I-218750J0D01*
G01*
X159747750Y-68040000D01*
G75*
G02*
X159529000Y-67821250I0J218750D01*
G01*
X159529000Y-67383750D01*
G75*
G02*
X159747750Y-67165000I218750J0D01*
G01*
G37*
G36*
G01*
X162884500Y-59946250D02*
X162884500Y-59433750D01*
G75*
G02*
X163103250Y-59215000I218750J0D01*
G01*
X163540750Y-59215000D01*
G75*
G02*
X163759500Y-59433750I0J-218750D01*
G01*
X163759500Y-59946250D01*
G75*
G02*
X163540750Y-60165000I-218750J0D01*
G01*
X163103250Y-60165000D01*
G75*
G02*
X162884500Y-59946250I0J218750D01*
G01*
G37*
G36*
G01*
X161309500Y-59946250D02*
X161309500Y-59433750D01*
G75*
G02*
X161528250Y-59215000I218750J0D01*
G01*
X161965750Y-59215000D01*
G75*
G02*
X162184500Y-59433750I0J-218750D01*
G01*
X162184500Y-59946250D01*
G75*
G02*
X161965750Y-60165000I-218750J0D01*
G01*
X161528250Y-60165000D01*
G75*
G02*
X161309500Y-59946250I0J218750D01*
G01*
G37*
G36*
G01*
X166661500Y-60256250D02*
X166661500Y-59743750D01*
G75*
G02*
X166880250Y-59525000I218750J0D01*
G01*
X167317750Y-59525000D01*
G75*
G02*
X167536500Y-59743750I0J-218750D01*
G01*
X167536500Y-60256250D01*
G75*
G02*
X167317750Y-60475000I-218750J0D01*
G01*
X166880250Y-60475000D01*
G75*
G02*
X166661500Y-60256250I0J218750D01*
G01*
G37*
G36*
G01*
X165086500Y-60256250D02*
X165086500Y-59743750D01*
G75*
G02*
X165305250Y-59525000I218750J0D01*
G01*
X165742750Y-59525000D01*
G75*
G02*
X165961500Y-59743750I0J-218750D01*
G01*
X165961500Y-60256250D01*
G75*
G02*
X165742750Y-60475000I-218750J0D01*
G01*
X165305250Y-60475000D01*
G75*
G02*
X165086500Y-60256250I0J218750D01*
G01*
G37*
G36*
G01*
X167161500Y-68256250D02*
X167161500Y-67743750D01*
G75*
G02*
X167380250Y-67525000I218750J0D01*
G01*
X167817750Y-67525000D01*
G75*
G02*
X168036500Y-67743750I0J-218750D01*
G01*
X168036500Y-68256250D01*
G75*
G02*
X167817750Y-68475000I-218750J0D01*
G01*
X167380250Y-68475000D01*
G75*
G02*
X167161500Y-68256250I0J218750D01*
G01*
G37*
G36*
G01*
X165586500Y-68256250D02*
X165586500Y-67743750D01*
G75*
G02*
X165805250Y-67525000I218750J0D01*
G01*
X166242750Y-67525000D01*
G75*
G02*
X166461500Y-67743750I0J-218750D01*
G01*
X166461500Y-68256250D01*
G75*
G02*
X166242750Y-68475000I-218750J0D01*
G01*
X165805250Y-68475000D01*
G75*
G02*
X165586500Y-68256250I0J218750D01*
G01*
G37*
D18*
X158024000Y-65235000D03*
X158024000Y-67735000D03*
D19*
X140500000Y-60254000D03*
X144200000Y-60254000D03*
D11*
X106934000Y-63115000D03*
X101854000Y-63115000D03*
X96774000Y-63115000D03*
X109474000Y-66425000D03*
X104394000Y-66425000D03*
X99314000Y-66425000D03*
D20*
X151476000Y-69115000D03*
D21*
X152676000Y-68365000D03*
X152676000Y-68865000D03*
X152676000Y-69365000D03*
X152676000Y-69865000D03*
X150276000Y-69865000D03*
X150276000Y-69365000D03*
X150276000Y-68865000D03*
X150276000Y-68365000D03*
D11*
X217170000Y-65778000D03*
X212090000Y-65778000D03*
X207010000Y-65778000D03*
X219710000Y-69088000D03*
X214630000Y-69088000D03*
X209550000Y-69088000D03*
M02*
