G04 #@! TF.GenerationSoftware,KiCad,Pcbnew,(5.1.6-0-10_14)*
G04 #@! TF.CreationDate,2020-07-22T22:48:04-07:00*
G04 #@! TF.ProjectId,VineHoop_V1_2,56696e65-486f-46f7-905f-56315f322e6b,rev?*
G04 #@! TF.SameCoordinates,Original*
G04 #@! TF.FileFunction,Copper,L2,Bot*
G04 #@! TF.FilePolarity,Positive*
%FSLAX46Y46*%
G04 Gerber Fmt 4.6, Leading zero omitted, Abs format (unit mm)*
G04 Created by KiCad (PCBNEW (5.1.6-0-10_14)) date 2020-07-22 22:48:04*
%MOMM*%
%LPD*%
G01*
G04 APERTURE LIST*
G04 #@! TA.AperFunction,ViaPad*
%ADD10C,0.660400*%
G04 #@! TD*
G04 #@! TA.AperFunction,Conductor*
%ADD11C,0.152400*%
G04 #@! TD*
G04 #@! TA.AperFunction,Conductor*
%ADD12C,0.127000*%
G04 #@! TD*
G04 APERTURE END LIST*
D10*
X147955000Y-63627000D03*
X150495000Y-63627000D03*
X147955000Y-61595000D03*
X130746500Y-70866000D03*
X164909500Y-69723000D03*
X179514500Y-62992000D03*
X183388000Y-67056000D03*
X139001500Y-62992000D03*
X135763000Y-59690000D03*
X142684500Y-65786000D03*
X144335500Y-68707000D03*
X138620500Y-66421000D03*
X141160500Y-67373500D03*
X147256500Y-67945000D03*
X152908000Y-67183000D03*
X150495000Y-61595000D03*
X148526500Y-58928000D03*
X161036000Y-63055500D03*
X165989000Y-60960000D03*
X165862000Y-66929000D03*
X167640000Y-69278500D03*
X164909500Y-67881500D03*
X158813500Y-69151500D03*
X163576000Y-64833500D03*
X163576000Y-62801500D03*
X159258000Y-59880500D03*
X151638000Y-59690000D03*
X156806899Y-59918601D03*
X151574500Y-66738500D03*
X151765000Y-65278000D03*
X142229705Y-64039801D03*
X155277216Y-64345216D03*
X153924000Y-58420000D03*
X153924000Y-60960000D03*
X152654000Y-60960000D03*
X152654000Y-58420000D03*
X157988000Y-59309000D03*
X154686000Y-63169800D03*
X156734399Y-62435248D03*
X155662368Y-63169800D03*
X153670000Y-63169800D03*
X155956000Y-58420000D03*
X152654000Y-63169800D03*
X154940000Y-58420000D03*
D11*
X155252432Y-64370000D02*
X155277216Y-64345216D01*
X142559904Y-64370000D02*
X155252432Y-64370000D01*
X142229705Y-64039801D02*
X142559904Y-64370000D01*
X153924000Y-60960000D02*
X153924000Y-58420000D01*
X152654000Y-60960000D02*
X152654000Y-58420000D01*
X157988000Y-59867800D02*
X157988000Y-59436000D01*
X154686000Y-63169800D02*
X157988000Y-59867800D01*
X155662368Y-63169800D02*
X155999847Y-63169800D01*
X155999847Y-63169800D02*
X156734399Y-62435248D01*
X155956000Y-60883800D02*
X155956000Y-58420000D01*
X153670000Y-63169800D02*
X155956000Y-60883800D01*
X154940000Y-60883800D02*
X154940000Y-58420000D01*
X152654000Y-63169800D02*
X154940000Y-60883800D01*
D12*
G36*
X185204501Y-71920500D02*
G01*
X140218191Y-71920500D01*
X140217812Y-71920464D01*
X140207696Y-71920500D01*
X140197421Y-71920500D01*
X140197036Y-71920538D01*
X122580000Y-71983233D01*
X122580000Y-65224214D01*
X151218900Y-65224214D01*
X151218900Y-65331786D01*
X151239887Y-65437291D01*
X151281053Y-65536675D01*
X151340817Y-65626118D01*
X151416882Y-65702183D01*
X151506325Y-65761947D01*
X151605709Y-65803113D01*
X151711214Y-65824100D01*
X151818786Y-65824100D01*
X151924291Y-65803113D01*
X152023675Y-65761947D01*
X152113118Y-65702183D01*
X152189183Y-65626118D01*
X152248947Y-65536675D01*
X152290113Y-65437291D01*
X152311100Y-65331786D01*
X152311100Y-65224214D01*
X152290113Y-65118709D01*
X152248947Y-65019325D01*
X152189183Y-64929882D01*
X152113118Y-64853817D01*
X152023675Y-64794053D01*
X151924291Y-64752887D01*
X151818786Y-64731900D01*
X151711214Y-64731900D01*
X151605709Y-64752887D01*
X151506325Y-64794053D01*
X151416882Y-64853817D01*
X151340817Y-64929882D01*
X151281053Y-65019325D01*
X151239887Y-65118709D01*
X151218900Y-65224214D01*
X122580000Y-65224214D01*
X122580000Y-63986015D01*
X141683605Y-63986015D01*
X141683605Y-64093587D01*
X141704592Y-64199092D01*
X141745758Y-64298476D01*
X141805522Y-64387919D01*
X141881587Y-64463984D01*
X141971030Y-64523748D01*
X142070414Y-64564914D01*
X142175919Y-64585901D01*
X142283491Y-64585901D01*
X142348589Y-64572952D01*
X142352359Y-64577545D01*
X142363501Y-64586689D01*
X142363502Y-64586690D01*
X142396837Y-64614047D01*
X142447581Y-64641171D01*
X142502642Y-64657873D01*
X142559904Y-64663513D01*
X142574250Y-64662100D01*
X154832163Y-64662100D01*
X154853033Y-64693334D01*
X154929098Y-64769399D01*
X155018541Y-64829163D01*
X155117925Y-64870329D01*
X155223430Y-64891316D01*
X155331002Y-64891316D01*
X155436507Y-64870329D01*
X155535891Y-64829163D01*
X155625334Y-64769399D01*
X155701399Y-64693334D01*
X155761163Y-64603891D01*
X155802329Y-64504507D01*
X155823316Y-64399002D01*
X155823316Y-64291430D01*
X155802329Y-64185925D01*
X155761163Y-64086541D01*
X155701399Y-63997098D01*
X155625334Y-63921033D01*
X155535891Y-63861269D01*
X155436507Y-63820103D01*
X155331002Y-63799116D01*
X155223430Y-63799116D01*
X155117925Y-63820103D01*
X155018541Y-63861269D01*
X154929098Y-63921033D01*
X154853033Y-63997098D01*
X154799043Y-64077900D01*
X142775805Y-64077900D01*
X142775805Y-63986015D01*
X142754818Y-63880510D01*
X142713652Y-63781126D01*
X142653888Y-63691683D01*
X142577823Y-63615618D01*
X142488380Y-63555854D01*
X142388996Y-63514688D01*
X142283491Y-63493701D01*
X142175919Y-63493701D01*
X142070414Y-63514688D01*
X141971030Y-63555854D01*
X141881587Y-63615618D01*
X141805522Y-63691683D01*
X141745758Y-63781126D01*
X141704592Y-63880510D01*
X141683605Y-63986015D01*
X122580000Y-63986015D01*
X122580000Y-63116014D01*
X152107900Y-63116014D01*
X152107900Y-63223586D01*
X152128887Y-63329091D01*
X152170053Y-63428475D01*
X152229817Y-63517918D01*
X152305882Y-63593983D01*
X152395325Y-63653747D01*
X152494709Y-63694913D01*
X152600214Y-63715900D01*
X152707786Y-63715900D01*
X152813291Y-63694913D01*
X152912675Y-63653747D01*
X153002118Y-63593983D01*
X153078183Y-63517918D01*
X153137947Y-63428475D01*
X153162000Y-63370406D01*
X153186053Y-63428475D01*
X153245817Y-63517918D01*
X153321882Y-63593983D01*
X153411325Y-63653747D01*
X153510709Y-63694913D01*
X153616214Y-63715900D01*
X153723786Y-63715900D01*
X153829291Y-63694913D01*
X153928675Y-63653747D01*
X154018118Y-63593983D01*
X154094183Y-63517918D01*
X154153947Y-63428475D01*
X154178000Y-63370406D01*
X154202053Y-63428475D01*
X154261817Y-63517918D01*
X154337882Y-63593983D01*
X154427325Y-63653747D01*
X154526709Y-63694913D01*
X154632214Y-63715900D01*
X154739786Y-63715900D01*
X154845291Y-63694913D01*
X154944675Y-63653747D01*
X155034118Y-63593983D01*
X155110183Y-63517918D01*
X155169947Y-63428475D01*
X155174184Y-63418246D01*
X155178421Y-63428475D01*
X155238185Y-63517918D01*
X155314250Y-63593983D01*
X155403693Y-63653747D01*
X155503077Y-63694913D01*
X155608582Y-63715900D01*
X155716154Y-63715900D01*
X155821659Y-63694913D01*
X155921043Y-63653747D01*
X156010486Y-63593983D01*
X156086551Y-63517918D01*
X156146315Y-63428475D01*
X156149377Y-63421083D01*
X156162914Y-63413847D01*
X156207392Y-63377345D01*
X156216540Y-63366198D01*
X156614535Y-62968204D01*
X156680613Y-62981348D01*
X156788185Y-62981348D01*
X156893690Y-62960361D01*
X156993074Y-62919195D01*
X157082517Y-62859431D01*
X157158582Y-62783366D01*
X157218346Y-62693923D01*
X157259512Y-62594539D01*
X157280499Y-62489034D01*
X157280499Y-62381462D01*
X157259512Y-62275957D01*
X157218346Y-62176573D01*
X157158582Y-62087130D01*
X157082517Y-62011065D01*
X156993074Y-61951301D01*
X156893690Y-61910135D01*
X156788185Y-61889148D01*
X156680613Y-61889148D01*
X156575108Y-61910135D01*
X156475724Y-61951301D01*
X156386281Y-62011065D01*
X156310216Y-62087130D01*
X156250452Y-62176573D01*
X156209286Y-62275957D01*
X156188299Y-62381462D01*
X156188299Y-62489034D01*
X156201443Y-62555112D01*
X156010712Y-62745843D01*
X156010486Y-62745617D01*
X155921043Y-62685853D01*
X155821659Y-62644687D01*
X155716154Y-62623700D01*
X155645191Y-62623700D01*
X158184399Y-60084492D01*
X158195545Y-60075345D01*
X158232047Y-60030867D01*
X158259171Y-59980123D01*
X158275873Y-59925062D01*
X158280100Y-59882146D01*
X158280100Y-59882137D01*
X158281512Y-59867801D01*
X158280100Y-59853465D01*
X158280100Y-59770613D01*
X158336118Y-59733183D01*
X158412183Y-59657118D01*
X158471947Y-59567675D01*
X158513113Y-59468291D01*
X158534100Y-59362786D01*
X158534100Y-59255214D01*
X158513113Y-59149709D01*
X158471947Y-59050325D01*
X158412183Y-58960882D01*
X158336118Y-58884817D01*
X158246675Y-58825053D01*
X158147291Y-58783887D01*
X158041786Y-58762900D01*
X157934214Y-58762900D01*
X157828709Y-58783887D01*
X157729325Y-58825053D01*
X157639882Y-58884817D01*
X157563817Y-58960882D01*
X157504053Y-59050325D01*
X157462887Y-59149709D01*
X157441900Y-59255214D01*
X157441900Y-59362786D01*
X157462887Y-59468291D01*
X157504053Y-59567675D01*
X157563817Y-59657118D01*
X157639882Y-59733183D01*
X157681630Y-59761079D01*
X154805865Y-62636844D01*
X154739786Y-62623700D01*
X154632214Y-62623700D01*
X154628440Y-62624451D01*
X156152399Y-61100492D01*
X156163545Y-61091345D01*
X156200047Y-61046867D01*
X156227171Y-60996123D01*
X156243873Y-60941062D01*
X156248100Y-60898146D01*
X156248100Y-60898137D01*
X156249512Y-60883801D01*
X156248100Y-60869465D01*
X156248100Y-58881613D01*
X156304118Y-58844183D01*
X156380183Y-58768118D01*
X156439947Y-58678675D01*
X156481113Y-58579291D01*
X156502100Y-58473786D01*
X156502100Y-58366214D01*
X156481113Y-58260709D01*
X156439947Y-58161325D01*
X156380183Y-58071882D01*
X156304118Y-57995817D01*
X156214675Y-57936053D01*
X156115291Y-57894887D01*
X156009786Y-57873900D01*
X155902214Y-57873900D01*
X155796709Y-57894887D01*
X155697325Y-57936053D01*
X155607882Y-57995817D01*
X155531817Y-58071882D01*
X155472053Y-58161325D01*
X155448000Y-58219394D01*
X155423947Y-58161325D01*
X155364183Y-58071882D01*
X155288118Y-57995817D01*
X155198675Y-57936053D01*
X155099291Y-57894887D01*
X154993786Y-57873900D01*
X154886214Y-57873900D01*
X154780709Y-57894887D01*
X154681325Y-57936053D01*
X154591882Y-57995817D01*
X154515817Y-58071882D01*
X154456053Y-58161325D01*
X154432000Y-58219394D01*
X154407947Y-58161325D01*
X154348183Y-58071882D01*
X154272118Y-57995817D01*
X154182675Y-57936053D01*
X154083291Y-57894887D01*
X153977786Y-57873900D01*
X153870214Y-57873900D01*
X153764709Y-57894887D01*
X153665325Y-57936053D01*
X153575882Y-57995817D01*
X153499817Y-58071882D01*
X153440053Y-58161325D01*
X153398887Y-58260709D01*
X153377900Y-58366214D01*
X153377900Y-58473786D01*
X153398887Y-58579291D01*
X153440053Y-58678675D01*
X153499817Y-58768118D01*
X153575882Y-58844183D01*
X153631901Y-58881614D01*
X153631900Y-60498387D01*
X153575882Y-60535817D01*
X153499817Y-60611882D01*
X153440053Y-60701325D01*
X153398887Y-60800709D01*
X153377900Y-60906214D01*
X153377900Y-61013786D01*
X153398887Y-61119291D01*
X153440053Y-61218675D01*
X153499817Y-61308118D01*
X153575882Y-61384183D01*
X153665325Y-61443947D01*
X153764709Y-61485113D01*
X153870214Y-61506100D01*
X153904609Y-61506100D01*
X152773865Y-62636844D01*
X152707786Y-62623700D01*
X152600214Y-62623700D01*
X152494709Y-62644687D01*
X152395325Y-62685853D01*
X152305882Y-62745617D01*
X152229817Y-62821682D01*
X152170053Y-62911125D01*
X152128887Y-63010509D01*
X152107900Y-63116014D01*
X122580000Y-63116014D01*
X122580000Y-58366214D01*
X152107900Y-58366214D01*
X152107900Y-58473786D01*
X152128887Y-58579291D01*
X152170053Y-58678675D01*
X152229817Y-58768118D01*
X152305882Y-58844183D01*
X152361901Y-58881614D01*
X152361900Y-60498387D01*
X152305882Y-60535817D01*
X152229817Y-60611882D01*
X152170053Y-60701325D01*
X152128887Y-60800709D01*
X152107900Y-60906214D01*
X152107900Y-61013786D01*
X152128887Y-61119291D01*
X152170053Y-61218675D01*
X152229817Y-61308118D01*
X152305882Y-61384183D01*
X152395325Y-61443947D01*
X152494709Y-61485113D01*
X152600214Y-61506100D01*
X152707786Y-61506100D01*
X152813291Y-61485113D01*
X152912675Y-61443947D01*
X153002118Y-61384183D01*
X153078183Y-61308118D01*
X153137947Y-61218675D01*
X153179113Y-61119291D01*
X153200100Y-61013786D01*
X153200100Y-60906214D01*
X153179113Y-60800709D01*
X153137947Y-60701325D01*
X153078183Y-60611882D01*
X153002118Y-60535817D01*
X152946100Y-60498387D01*
X152946100Y-58881613D01*
X153002118Y-58844183D01*
X153078183Y-58768118D01*
X153137947Y-58678675D01*
X153179113Y-58579291D01*
X153200100Y-58473786D01*
X153200100Y-58366214D01*
X153179113Y-58260709D01*
X153137947Y-58161325D01*
X153078183Y-58071882D01*
X153002118Y-57995817D01*
X152912675Y-57936053D01*
X152813291Y-57894887D01*
X152707786Y-57873900D01*
X152600214Y-57873900D01*
X152494709Y-57894887D01*
X152395325Y-57936053D01*
X152305882Y-57995817D01*
X152229817Y-58071882D01*
X152170053Y-58161325D01*
X152128887Y-58260709D01*
X152107900Y-58366214D01*
X122580000Y-58366214D01*
X122580000Y-56603500D01*
X185204500Y-56603500D01*
X185204501Y-71920500D01*
G37*
X185204501Y-71920500D02*
X140218191Y-71920500D01*
X140217812Y-71920464D01*
X140207696Y-71920500D01*
X140197421Y-71920500D01*
X140197036Y-71920538D01*
X122580000Y-71983233D01*
X122580000Y-65224214D01*
X151218900Y-65224214D01*
X151218900Y-65331786D01*
X151239887Y-65437291D01*
X151281053Y-65536675D01*
X151340817Y-65626118D01*
X151416882Y-65702183D01*
X151506325Y-65761947D01*
X151605709Y-65803113D01*
X151711214Y-65824100D01*
X151818786Y-65824100D01*
X151924291Y-65803113D01*
X152023675Y-65761947D01*
X152113118Y-65702183D01*
X152189183Y-65626118D01*
X152248947Y-65536675D01*
X152290113Y-65437291D01*
X152311100Y-65331786D01*
X152311100Y-65224214D01*
X152290113Y-65118709D01*
X152248947Y-65019325D01*
X152189183Y-64929882D01*
X152113118Y-64853817D01*
X152023675Y-64794053D01*
X151924291Y-64752887D01*
X151818786Y-64731900D01*
X151711214Y-64731900D01*
X151605709Y-64752887D01*
X151506325Y-64794053D01*
X151416882Y-64853817D01*
X151340817Y-64929882D01*
X151281053Y-65019325D01*
X151239887Y-65118709D01*
X151218900Y-65224214D01*
X122580000Y-65224214D01*
X122580000Y-63986015D01*
X141683605Y-63986015D01*
X141683605Y-64093587D01*
X141704592Y-64199092D01*
X141745758Y-64298476D01*
X141805522Y-64387919D01*
X141881587Y-64463984D01*
X141971030Y-64523748D01*
X142070414Y-64564914D01*
X142175919Y-64585901D01*
X142283491Y-64585901D01*
X142348589Y-64572952D01*
X142352359Y-64577545D01*
X142363501Y-64586689D01*
X142363502Y-64586690D01*
X142396837Y-64614047D01*
X142447581Y-64641171D01*
X142502642Y-64657873D01*
X142559904Y-64663513D01*
X142574250Y-64662100D01*
X154832163Y-64662100D01*
X154853033Y-64693334D01*
X154929098Y-64769399D01*
X155018541Y-64829163D01*
X155117925Y-64870329D01*
X155223430Y-64891316D01*
X155331002Y-64891316D01*
X155436507Y-64870329D01*
X155535891Y-64829163D01*
X155625334Y-64769399D01*
X155701399Y-64693334D01*
X155761163Y-64603891D01*
X155802329Y-64504507D01*
X155823316Y-64399002D01*
X155823316Y-64291430D01*
X155802329Y-64185925D01*
X155761163Y-64086541D01*
X155701399Y-63997098D01*
X155625334Y-63921033D01*
X155535891Y-63861269D01*
X155436507Y-63820103D01*
X155331002Y-63799116D01*
X155223430Y-63799116D01*
X155117925Y-63820103D01*
X155018541Y-63861269D01*
X154929098Y-63921033D01*
X154853033Y-63997098D01*
X154799043Y-64077900D01*
X142775805Y-64077900D01*
X142775805Y-63986015D01*
X142754818Y-63880510D01*
X142713652Y-63781126D01*
X142653888Y-63691683D01*
X142577823Y-63615618D01*
X142488380Y-63555854D01*
X142388996Y-63514688D01*
X142283491Y-63493701D01*
X142175919Y-63493701D01*
X142070414Y-63514688D01*
X141971030Y-63555854D01*
X141881587Y-63615618D01*
X141805522Y-63691683D01*
X141745758Y-63781126D01*
X141704592Y-63880510D01*
X141683605Y-63986015D01*
X122580000Y-63986015D01*
X122580000Y-63116014D01*
X152107900Y-63116014D01*
X152107900Y-63223586D01*
X152128887Y-63329091D01*
X152170053Y-63428475D01*
X152229817Y-63517918D01*
X152305882Y-63593983D01*
X152395325Y-63653747D01*
X152494709Y-63694913D01*
X152600214Y-63715900D01*
X152707786Y-63715900D01*
X152813291Y-63694913D01*
X152912675Y-63653747D01*
X153002118Y-63593983D01*
X153078183Y-63517918D01*
X153137947Y-63428475D01*
X153162000Y-63370406D01*
X153186053Y-63428475D01*
X153245817Y-63517918D01*
X153321882Y-63593983D01*
X153411325Y-63653747D01*
X153510709Y-63694913D01*
X153616214Y-63715900D01*
X153723786Y-63715900D01*
X153829291Y-63694913D01*
X153928675Y-63653747D01*
X154018118Y-63593983D01*
X154094183Y-63517918D01*
X154153947Y-63428475D01*
X154178000Y-63370406D01*
X154202053Y-63428475D01*
X154261817Y-63517918D01*
X154337882Y-63593983D01*
X154427325Y-63653747D01*
X154526709Y-63694913D01*
X154632214Y-63715900D01*
X154739786Y-63715900D01*
X154845291Y-63694913D01*
X154944675Y-63653747D01*
X155034118Y-63593983D01*
X155110183Y-63517918D01*
X155169947Y-63428475D01*
X155174184Y-63418246D01*
X155178421Y-63428475D01*
X155238185Y-63517918D01*
X155314250Y-63593983D01*
X155403693Y-63653747D01*
X155503077Y-63694913D01*
X155608582Y-63715900D01*
X155716154Y-63715900D01*
X155821659Y-63694913D01*
X155921043Y-63653747D01*
X156010486Y-63593983D01*
X156086551Y-63517918D01*
X156146315Y-63428475D01*
X156149377Y-63421083D01*
X156162914Y-63413847D01*
X156207392Y-63377345D01*
X156216540Y-63366198D01*
X156614535Y-62968204D01*
X156680613Y-62981348D01*
X156788185Y-62981348D01*
X156893690Y-62960361D01*
X156993074Y-62919195D01*
X157082517Y-62859431D01*
X157158582Y-62783366D01*
X157218346Y-62693923D01*
X157259512Y-62594539D01*
X157280499Y-62489034D01*
X157280499Y-62381462D01*
X157259512Y-62275957D01*
X157218346Y-62176573D01*
X157158582Y-62087130D01*
X157082517Y-62011065D01*
X156993074Y-61951301D01*
X156893690Y-61910135D01*
X156788185Y-61889148D01*
X156680613Y-61889148D01*
X156575108Y-61910135D01*
X156475724Y-61951301D01*
X156386281Y-62011065D01*
X156310216Y-62087130D01*
X156250452Y-62176573D01*
X156209286Y-62275957D01*
X156188299Y-62381462D01*
X156188299Y-62489034D01*
X156201443Y-62555112D01*
X156010712Y-62745843D01*
X156010486Y-62745617D01*
X155921043Y-62685853D01*
X155821659Y-62644687D01*
X155716154Y-62623700D01*
X155645191Y-62623700D01*
X158184399Y-60084492D01*
X158195545Y-60075345D01*
X158232047Y-60030867D01*
X158259171Y-59980123D01*
X158275873Y-59925062D01*
X158280100Y-59882146D01*
X158280100Y-59882137D01*
X158281512Y-59867801D01*
X158280100Y-59853465D01*
X158280100Y-59770613D01*
X158336118Y-59733183D01*
X158412183Y-59657118D01*
X158471947Y-59567675D01*
X158513113Y-59468291D01*
X158534100Y-59362786D01*
X158534100Y-59255214D01*
X158513113Y-59149709D01*
X158471947Y-59050325D01*
X158412183Y-58960882D01*
X158336118Y-58884817D01*
X158246675Y-58825053D01*
X158147291Y-58783887D01*
X158041786Y-58762900D01*
X157934214Y-58762900D01*
X157828709Y-58783887D01*
X157729325Y-58825053D01*
X157639882Y-58884817D01*
X157563817Y-58960882D01*
X157504053Y-59050325D01*
X157462887Y-59149709D01*
X157441900Y-59255214D01*
X157441900Y-59362786D01*
X157462887Y-59468291D01*
X157504053Y-59567675D01*
X157563817Y-59657118D01*
X157639882Y-59733183D01*
X157681630Y-59761079D01*
X154805865Y-62636844D01*
X154739786Y-62623700D01*
X154632214Y-62623700D01*
X154628440Y-62624451D01*
X156152399Y-61100492D01*
X156163545Y-61091345D01*
X156200047Y-61046867D01*
X156227171Y-60996123D01*
X156243873Y-60941062D01*
X156248100Y-60898146D01*
X156248100Y-60898137D01*
X156249512Y-60883801D01*
X156248100Y-60869465D01*
X156248100Y-58881613D01*
X156304118Y-58844183D01*
X156380183Y-58768118D01*
X156439947Y-58678675D01*
X156481113Y-58579291D01*
X156502100Y-58473786D01*
X156502100Y-58366214D01*
X156481113Y-58260709D01*
X156439947Y-58161325D01*
X156380183Y-58071882D01*
X156304118Y-57995817D01*
X156214675Y-57936053D01*
X156115291Y-57894887D01*
X156009786Y-57873900D01*
X155902214Y-57873900D01*
X155796709Y-57894887D01*
X155697325Y-57936053D01*
X155607882Y-57995817D01*
X155531817Y-58071882D01*
X155472053Y-58161325D01*
X155448000Y-58219394D01*
X155423947Y-58161325D01*
X155364183Y-58071882D01*
X155288118Y-57995817D01*
X155198675Y-57936053D01*
X155099291Y-57894887D01*
X154993786Y-57873900D01*
X154886214Y-57873900D01*
X154780709Y-57894887D01*
X154681325Y-57936053D01*
X154591882Y-57995817D01*
X154515817Y-58071882D01*
X154456053Y-58161325D01*
X154432000Y-58219394D01*
X154407947Y-58161325D01*
X154348183Y-58071882D01*
X154272118Y-57995817D01*
X154182675Y-57936053D01*
X154083291Y-57894887D01*
X153977786Y-57873900D01*
X153870214Y-57873900D01*
X153764709Y-57894887D01*
X153665325Y-57936053D01*
X153575882Y-57995817D01*
X153499817Y-58071882D01*
X153440053Y-58161325D01*
X153398887Y-58260709D01*
X153377900Y-58366214D01*
X153377900Y-58473786D01*
X153398887Y-58579291D01*
X153440053Y-58678675D01*
X153499817Y-58768118D01*
X153575882Y-58844183D01*
X153631901Y-58881614D01*
X153631900Y-60498387D01*
X153575882Y-60535817D01*
X153499817Y-60611882D01*
X153440053Y-60701325D01*
X153398887Y-60800709D01*
X153377900Y-60906214D01*
X153377900Y-61013786D01*
X153398887Y-61119291D01*
X153440053Y-61218675D01*
X153499817Y-61308118D01*
X153575882Y-61384183D01*
X153665325Y-61443947D01*
X153764709Y-61485113D01*
X153870214Y-61506100D01*
X153904609Y-61506100D01*
X152773865Y-62636844D01*
X152707786Y-62623700D01*
X152600214Y-62623700D01*
X152494709Y-62644687D01*
X152395325Y-62685853D01*
X152305882Y-62745617D01*
X152229817Y-62821682D01*
X152170053Y-62911125D01*
X152128887Y-63010509D01*
X152107900Y-63116014D01*
X122580000Y-63116014D01*
X122580000Y-58366214D01*
X152107900Y-58366214D01*
X152107900Y-58473786D01*
X152128887Y-58579291D01*
X152170053Y-58678675D01*
X152229817Y-58768118D01*
X152305882Y-58844183D01*
X152361901Y-58881614D01*
X152361900Y-60498387D01*
X152305882Y-60535817D01*
X152229817Y-60611882D01*
X152170053Y-60701325D01*
X152128887Y-60800709D01*
X152107900Y-60906214D01*
X152107900Y-61013786D01*
X152128887Y-61119291D01*
X152170053Y-61218675D01*
X152229817Y-61308118D01*
X152305882Y-61384183D01*
X152395325Y-61443947D01*
X152494709Y-61485113D01*
X152600214Y-61506100D01*
X152707786Y-61506100D01*
X152813291Y-61485113D01*
X152912675Y-61443947D01*
X153002118Y-61384183D01*
X153078183Y-61308118D01*
X153137947Y-61218675D01*
X153179113Y-61119291D01*
X153200100Y-61013786D01*
X153200100Y-60906214D01*
X153179113Y-60800709D01*
X153137947Y-60701325D01*
X153078183Y-60611882D01*
X153002118Y-60535817D01*
X152946100Y-60498387D01*
X152946100Y-58881613D01*
X153002118Y-58844183D01*
X153078183Y-58768118D01*
X153137947Y-58678675D01*
X153179113Y-58579291D01*
X153200100Y-58473786D01*
X153200100Y-58366214D01*
X153179113Y-58260709D01*
X153137947Y-58161325D01*
X153078183Y-58071882D01*
X153002118Y-57995817D01*
X152912675Y-57936053D01*
X152813291Y-57894887D01*
X152707786Y-57873900D01*
X152600214Y-57873900D01*
X152494709Y-57894887D01*
X152395325Y-57936053D01*
X152305882Y-57995817D01*
X152229817Y-58071882D01*
X152170053Y-58161325D01*
X152128887Y-58260709D01*
X152107900Y-58366214D01*
X122580000Y-58366214D01*
X122580000Y-56603500D01*
X185204500Y-56603500D01*
X185204501Y-71920500D01*
M02*
