%TF.GenerationSoftware,KiCad,Pcbnew,(5.99.0-2415-gbbdd3fce7)*%
%TF.CreationDate,2020-09-24T22:56:08-07:00*%
%TF.ProjectId,BubblePCB_20,42756262-6c65-4504-9342-5f32302e6b69,rev?*%
%TF.SameCoordinates,Original*%
%TF.FileFunction,Soldermask,Bot*%
%TF.FilePolarity,Negative*%
%FSLAX46Y46*%
G04 Gerber Fmt 4.6, Leading zero omitted, Abs format (unit mm)*
G04 Created by KiCad (PCBNEW (5.99.0-2415-gbbdd3fce7)) date 2020-09-24 22:56:08*
%MOMM*%
%LPD*%
G01*
G04 APERTURE LIST*
%ADD10O,1.801600X1.801600*%
%ADD11C,5.701600*%
%ADD12C,1.701600*%
%ADD13O,1.701600X1.701600*%
G04 APERTURE END LIST*
D10*
%TO.C,J4*%
X70358000Y-149352000D03*
X67818000Y-149352000D03*
X65278000Y-149352000D03*
X62738000Y-149352000D03*
X60198000Y-149352000D03*
X57658000Y-149352000D03*
X55118000Y-149352000D03*
X52578000Y-149352000D03*
X50038000Y-149352000D03*
X47498000Y-149352000D03*
X44958000Y-149352000D03*
G36*
G01*
X43264964Y-150252800D02*
X41571036Y-150252800D01*
G75*
G02*
X41517200Y-150198964I0J53836D01*
G01*
X41517200Y-148505036D01*
G75*
G02*
X41571036Y-148451200I53836J0D01*
G01*
X43264964Y-148451200D01*
G75*
G02*
X43318800Y-148505036I0J-53836D01*
G01*
X43318800Y-150198964D01*
G75*
G02*
X43264964Y-150252800I-53836J0D01*
G01*
G37*
%TD*%
%TO.C,J3*%
X101410000Y-129040000D03*
X101410000Y-131580000D03*
X101410000Y-134120000D03*
X101410000Y-136660000D03*
X101410000Y-139200000D03*
X101410000Y-141740000D03*
G36*
G01*
X102310800Y-143433036D02*
X102310800Y-145126964D01*
G75*
G02*
X102256964Y-145180800I-53836J0D01*
G01*
X100563036Y-145180800D01*
G75*
G02*
X100509200Y-145126964I0J53836D01*
G01*
X100509200Y-143433036D01*
G75*
G02*
X100563036Y-143379200I53836J0D01*
G01*
X102256964Y-143379200D01*
G75*
G02*
X102310800Y-143433036I0J-53836D01*
G01*
G37*
%TD*%
D11*
%TO.C,REF\u002A\u002A*%
X51250000Y-66548000D03*
%TD*%
%TO.C,REF\u002A\u002A*%
X86683000Y-66548000D03*
%TD*%
%TO.C,REF\u002A\u002A*%
X97790000Y-149500000D03*
%TD*%
%TO.C,a*%
X35500000Y-149500000D03*
%TD*%
D12*
%TO.C,R6*%
X66802000Y-122936000D03*
D13*
X66802000Y-112776000D03*
%TD*%
D12*
%TO.C,R10*%
X66802000Y-66040000D03*
D13*
X66802000Y-55880000D03*
%TD*%
D12*
%TO.C,R1*%
X35372201Y-114554000D03*
D13*
X35372201Y-124714000D03*
%TD*%
D12*
%TO.C,R8*%
X66802000Y-95758000D03*
D13*
X66802000Y-85598000D03*
%TD*%
%TO.C,J1*%
G36*
G01*
X36396964Y-130030800D02*
X34703036Y-130030800D01*
G75*
G02*
X34649200Y-129976964I0J53836D01*
G01*
X34649200Y-128283036D01*
G75*
G02*
X34703036Y-128229200I53836J0D01*
G01*
X36396964Y-128229200D01*
G75*
G02*
X36450800Y-128283036I0J-53836D01*
G01*
X36450800Y-129976964D01*
G75*
G02*
X36396964Y-130030800I-53836J0D01*
G01*
G37*
D10*
X38090000Y-129130000D03*
X40630000Y-129130000D03*
X43170000Y-129130000D03*
X45710000Y-129130000D03*
X48250000Y-129130000D03*
X50790000Y-129130000D03*
X53330000Y-129130000D03*
X55870000Y-129130000D03*
X58410000Y-129130000D03*
X60950000Y-129130000D03*
X63490000Y-129130000D03*
X66030000Y-129130000D03*
X68570000Y-129130000D03*
X71110000Y-129130000D03*
X73650000Y-129130000D03*
X76190000Y-129130000D03*
X78730000Y-129130000D03*
X81270000Y-129130000D03*
X83810000Y-129130000D03*
X86350000Y-129130000D03*
X88890000Y-129130000D03*
X91430000Y-129130000D03*
X93970000Y-129130000D03*
%TD*%
%TO.C,J2*%
G36*
G01*
X36396964Y-145180800D02*
X34703036Y-145180800D01*
G75*
G02*
X34649200Y-145126964I0J53836D01*
G01*
X34649200Y-143433036D01*
G75*
G02*
X34703036Y-143379200I53836J0D01*
G01*
X36396964Y-143379200D01*
G75*
G02*
X36450800Y-143433036I0J-53836D01*
G01*
X36450800Y-145126964D01*
G75*
G02*
X36396964Y-145180800I-53836J0D01*
G01*
G37*
X38090000Y-144280000D03*
X40630000Y-144280000D03*
X43170000Y-144280000D03*
X45710000Y-144280000D03*
X48250000Y-144280000D03*
X50790000Y-144280000D03*
X53330000Y-144280000D03*
X55870000Y-144280000D03*
X58410000Y-144280000D03*
X60950000Y-144280000D03*
X63490000Y-144280000D03*
X66030000Y-144280000D03*
X68570000Y-144280000D03*
X71110000Y-144280000D03*
X73650000Y-144280000D03*
X76190000Y-144280000D03*
X78730000Y-144280000D03*
X81270000Y-144280000D03*
X83810000Y-144280000D03*
X86350000Y-144280000D03*
X88890000Y-144280000D03*
X91430000Y-144280000D03*
X93970000Y-144280000D03*
%TD*%
D12*
%TO.C,R4*%
X35372201Y-71120000D03*
D13*
X35372201Y-81280000D03*
%TD*%
D12*
%TO.C,R16*%
X101346000Y-122682000D03*
D13*
X101346000Y-112522000D03*
%TD*%
D12*
%TO.C,R19*%
X101346000Y-80543181D03*
D13*
X101346000Y-70383181D03*
%TD*%
D12*
%TO.C,R5*%
X35372201Y-55880000D03*
D13*
X35372201Y-66040000D03*
%TD*%
D12*
%TO.C,R12*%
X71120000Y-99364800D03*
D13*
X71120000Y-109524800D03*
%TD*%
D12*
%TO.C,R11*%
X71120000Y-112826800D03*
D13*
X71120000Y-122986800D03*
%TD*%
D12*
%TO.C,R9*%
X66802000Y-80772000D03*
D13*
X66802000Y-70612000D03*
%TD*%
D12*
%TO.C,R7*%
X66802000Y-109474000D03*
D13*
X66802000Y-99314000D03*
%TD*%
D12*
%TO.C,R3*%
X35372201Y-86360000D03*
D13*
X35372201Y-96520000D03*
%TD*%
D12*
%TO.C,R17*%
X101346000Y-109756737D03*
D13*
X101346000Y-99596737D03*
%TD*%
D12*
%TO.C,R13*%
X71120000Y-85598000D03*
D13*
X71120000Y-95758000D03*
%TD*%
D12*
%TO.C,R2*%
X35372201Y-101092000D03*
D13*
X35372201Y-111252000D03*
%TD*%
D12*
%TO.C,R15*%
X71120000Y-55880000D03*
D13*
X71120000Y-66040000D03*
%TD*%
D12*
%TO.C,R14*%
X71120000Y-70612000D03*
D13*
X71120000Y-80772000D03*
%TD*%
D12*
%TO.C,R20*%
X101346000Y-65835388D03*
D13*
X101346000Y-55675388D03*
%TD*%
D12*
%TO.C,R18*%
X101396800Y-96021611D03*
D13*
X101396800Y-85861611D03*
%TD*%
M02*
