M48
; DRILL file {KiCad (5.99.0-2415-gbbdd3fce7)} date Thursday, September 24, 2020 at 10:57:00 PM
; FORMAT={-:-/ absolute / inch / decimal}
; #@! TF.CreationDate,2020-09-24T22:57:00-07:00
; #@! TF.GenerationSoftware,Kicad,Pcbnew,(5.99.0-2415-gbbdd3fce7)
FMAT,2
INCH
T1C0.0130
T2C0.0157
T3C0.0315
T4C0.0394
T5C0.1260
%
G90
G05
T1
X1.5055Y-2.4673
X1.5055Y-3.6717
X1.5055Y-4.2756
X1.5063Y-3.0835
X1.51Y-4.89
X2.32Y-4.916
X2.325Y-4.8165
X2.37Y-4.8165
X2.375Y-4.916
X2.405Y-4.8165
X2.4398Y-4.9162
X2.44Y-4.815
X2.4406Y-3.413
X2.4461Y-2.2122
X2.4461Y-4.0138
X2.4469Y-2.8134
X2.4476Y-4.6146
X2.4835Y-4.916
X2.689Y-2.666
X2.7187Y-5.46
X2.751Y-2.69
X2.7805Y-5.46
X2.8815Y-4.8594
X2.9094Y-3.6685
X2.9106Y-3.0807
X2.9106Y-4.2705
X3.2Y-5.4291
X3.2Y-5.4909
X3.8189Y-2.2118
X3.8201Y-3.4106
X3.8209Y-2.8102
X3.8874Y-3.963
X3.8882Y-4.5665
X3.9474Y-5.45
X4.07Y-5.55
T2
X2.9099Y-2.4937
T3
X2.8Y-4.442
X2.8Y-4.842
X1.3926Y-3.4
X1.3926Y-3.8
X1.3926Y-2.2
X1.3926Y-2.6
X2.63Y-3.91
X2.63Y-4.31
X2.63Y-3.37
X2.63Y-3.77
X2.63Y-2.2
X2.63Y-2.6
X2.8Y-2.2
X2.8Y-2.6
X2.8Y-2.78
X2.8Y-3.18
X3.99Y-2.771
X3.99Y-3.171
X1.3926Y-4.51
X1.3926Y-4.91
X3.992Y-3.3804
X3.992Y-3.7804
X2.63Y-4.44
X2.63Y-4.84
X1.3926Y-3.98
X1.3926Y-4.38
X2.8Y-3.37
X2.8Y-3.77
X3.99Y-2.1919
X3.99Y-2.5919
X1.3926Y-2.8
X1.3926Y-3.2
X3.99Y-4.43
X3.99Y-4.83
X2.63Y-2.78
X2.63Y-3.18
X2.8Y-3.912
X2.8Y-4.312
X3.99Y-3.9211
X3.99Y-4.3211
T4
X1.67Y-5.88
X1.77Y-5.88
X1.87Y-5.88
X1.97Y-5.88
X2.07Y-5.88
X2.17Y-5.88
X2.27Y-5.88
X2.37Y-5.88
X2.47Y-5.88
X2.57Y-5.88
X2.67Y-5.88
X2.77Y-5.88
X1.3996Y-5.6803
X1.4996Y-5.6803
X1.5996Y-5.6803
X1.6996Y-5.6803
X1.7996Y-5.6803
X1.8996Y-5.6803
X1.9996Y-5.6803
X2.0996Y-5.6803
X2.1996Y-5.6803
X2.2996Y-5.6803
X2.3996Y-5.6803
X2.4996Y-5.6803
X2.5996Y-5.6803
X2.6996Y-5.6803
X2.7996Y-5.6803
X2.8996Y-5.6803
X2.9996Y-5.6803
X3.0996Y-5.6803
X3.1996Y-5.6803
X3.2996Y-5.6803
X3.3996Y-5.6803
X3.4996Y-5.6803
X3.5996Y-5.6803
X3.6996Y-5.6803
X1.3996Y-5.0839
X1.4996Y-5.0839
X1.5996Y-5.0839
X1.6996Y-5.0839
X1.7996Y-5.0839
X1.8996Y-5.0839
X1.9996Y-5.0839
X2.0996Y-5.0839
X2.1996Y-5.0839
X2.2996Y-5.0839
X2.3996Y-5.0839
X2.4996Y-5.0839
X2.5996Y-5.0839
X2.6996Y-5.0839
X2.7996Y-5.0839
X2.8996Y-5.0839
X2.9996Y-5.0839
X3.0996Y-5.0839
X3.1996Y-5.0839
X3.2996Y-5.0839
X3.3996Y-5.0839
X3.4996Y-5.0839
X3.5996Y-5.0839
X3.6996Y-5.0839
X3.9925Y-5.0803
X3.9925Y-5.1803
X3.9925Y-5.2803
X3.9925Y-5.3803
X3.9925Y-5.4803
X3.9925Y-5.5803
X3.9925Y-5.6803
T5
X1.3976Y-5.8858
X3.85Y-5.8858
X2.0177Y-2.62
X3.4127Y-2.62
T0
M30
