%TF.GenerationSoftware,KiCad,Pcbnew,(5.99.0-2415-gbbdd3fce7)*%
%TF.CreationDate,2020-09-24T22:56:08-07:00*%
%TF.ProjectId,BubblePCB_20,42756262-6c65-4504-9342-5f32302e6b69,rev?*%
%TF.SameCoordinates,Original*%
%TF.FileFunction,Legend,Top*%
%TF.FilePolarity,Positive*%
%FSLAX46Y46*%
G04 Gerber Fmt 4.6, Leading zero omitted, Abs format (unit mm)*
G04 Created by KiCad (PCBNEW (5.99.0-2415-gbbdd3fce7)) date 2020-09-24 22:56:08*
%MOMM*%
%LPD*%
G01*
G04 APERTURE LIST*
%ADD10C,0.150000*%
%ADD11C,0.200000*%
%ADD12C,0.120000*%
G04 APERTURE END LIST*
D10*
X40716285Y-151646000D02*
X40630571Y-151598380D01*
X40502000Y-151598380D01*
X40373428Y-151646000D01*
X40287714Y-151741238D01*
X40244857Y-151836476D01*
X40202000Y-152026952D01*
X40202000Y-152169809D01*
X40244857Y-152360285D01*
X40287714Y-152455523D01*
X40373428Y-152550761D01*
X40502000Y-152598380D01*
X40587714Y-152598380D01*
X40716285Y-152550761D01*
X40759142Y-152503142D01*
X40759142Y-152169809D01*
X40587714Y-152169809D01*
X41144857Y-152598380D02*
X41144857Y-151598380D01*
X41659142Y-152598380D01*
X41659142Y-151598380D01*
X42087714Y-152598380D02*
X42087714Y-151598380D01*
X42302000Y-151598380D01*
X42430571Y-151646000D01*
X42516285Y-151741238D01*
X42559142Y-151836476D01*
X42602000Y-152026952D01*
X42602000Y-152169809D01*
X42559142Y-152360285D01*
X42516285Y-152455523D01*
X42430571Y-152550761D01*
X42302000Y-152598380D01*
X42087714Y-152598380D01*
X70167523Y-152598380D02*
X69596095Y-152598380D01*
X69881809Y-152598380D02*
X69881809Y-151598380D01*
X69786571Y-151741238D01*
X69691333Y-151836476D01*
X69596095Y-151884095D01*
X70786571Y-151598380D02*
X70881809Y-151598380D01*
X70977047Y-151646000D01*
X71024666Y-151693619D01*
X71072285Y-151788857D01*
X71119904Y-151979333D01*
X71119904Y-152217428D01*
X71072285Y-152407904D01*
X71024666Y-152503142D01*
X70977047Y-152550761D01*
X70881809Y-152598380D01*
X70786571Y-152598380D01*
X70691333Y-152550761D01*
X70643714Y-152503142D01*
X70596095Y-152407904D01*
X70548476Y-152217428D01*
X70548476Y-151979333D01*
X70596095Y-151788857D01*
X70643714Y-151693619D01*
X70691333Y-151646000D01*
X70786571Y-151598380D01*
X67627523Y-152598380D02*
X67818000Y-152598380D01*
X67913238Y-152550761D01*
X67960857Y-152503142D01*
X68056095Y-152360285D01*
X68103714Y-152169809D01*
X68103714Y-151788857D01*
X68056095Y-151693619D01*
X68008476Y-151646000D01*
X67913238Y-151598380D01*
X67722761Y-151598380D01*
X67627523Y-151646000D01*
X67579904Y-151693619D01*
X67532285Y-151788857D01*
X67532285Y-152026952D01*
X67579904Y-152122190D01*
X67627523Y-152169809D01*
X67722761Y-152217428D01*
X67913238Y-152217428D01*
X68008476Y-152169809D01*
X68056095Y-152122190D01*
X68103714Y-152026952D01*
X65182761Y-152026952D02*
X65087523Y-151979333D01*
X65039904Y-151931714D01*
X64992285Y-151836476D01*
X64992285Y-151788857D01*
X65039904Y-151693619D01*
X65087523Y-151646000D01*
X65182761Y-151598380D01*
X65373238Y-151598380D01*
X65468476Y-151646000D01*
X65516095Y-151693619D01*
X65563714Y-151788857D01*
X65563714Y-151836476D01*
X65516095Y-151931714D01*
X65468476Y-151979333D01*
X65373238Y-152026952D01*
X65182761Y-152026952D01*
X65087523Y-152074571D01*
X65039904Y-152122190D01*
X64992285Y-152217428D01*
X64992285Y-152407904D01*
X65039904Y-152503142D01*
X65087523Y-152550761D01*
X65182761Y-152598380D01*
X65373238Y-152598380D01*
X65468476Y-152550761D01*
X65516095Y-152503142D01*
X65563714Y-152407904D01*
X65563714Y-152217428D01*
X65516095Y-152122190D01*
X65468476Y-152074571D01*
X65373238Y-152026952D01*
X62404666Y-151598380D02*
X63071333Y-151598380D01*
X62642761Y-152598380D01*
X60388476Y-151598380D02*
X60198000Y-151598380D01*
X60102761Y-151646000D01*
X60055142Y-151693619D01*
X59959904Y-151836476D01*
X59912285Y-152026952D01*
X59912285Y-152407904D01*
X59959904Y-152503142D01*
X60007523Y-152550761D01*
X60102761Y-152598380D01*
X60293238Y-152598380D01*
X60388476Y-152550761D01*
X60436095Y-152503142D01*
X60483714Y-152407904D01*
X60483714Y-152169809D01*
X60436095Y-152074571D01*
X60388476Y-152026952D01*
X60293238Y-151979333D01*
X60102761Y-151979333D01*
X60007523Y-152026952D01*
X59959904Y-152074571D01*
X59912285Y-152169809D01*
X57896095Y-151598380D02*
X57419904Y-151598380D01*
X57372285Y-152074571D01*
X57419904Y-152026952D01*
X57515142Y-151979333D01*
X57753238Y-151979333D01*
X57848476Y-152026952D01*
X57896095Y-152074571D01*
X57943714Y-152169809D01*
X57943714Y-152407904D01*
X57896095Y-152503142D01*
X57848476Y-152550761D01*
X57753238Y-152598380D01*
X57515142Y-152598380D01*
X57419904Y-152550761D01*
X57372285Y-152503142D01*
X55308476Y-151931714D02*
X55308476Y-152598380D01*
X55070380Y-151550761D02*
X54832285Y-152265047D01*
X55451333Y-152265047D01*
X52244666Y-151598380D02*
X52863714Y-151598380D01*
X52530380Y-151979333D01*
X52673238Y-151979333D01*
X52768476Y-152026952D01*
X52816095Y-152074571D01*
X52863714Y-152169809D01*
X52863714Y-152407904D01*
X52816095Y-152503142D01*
X52768476Y-152550761D01*
X52673238Y-152598380D01*
X52387523Y-152598380D01*
X52292285Y-152550761D01*
X52244666Y-152503142D01*
X49752285Y-151693619D02*
X49799904Y-151646000D01*
X49895142Y-151598380D01*
X50133238Y-151598380D01*
X50228476Y-151646000D01*
X50276095Y-151693619D01*
X50323714Y-151788857D01*
X50323714Y-151884095D01*
X50276095Y-152026952D01*
X49704666Y-152598380D01*
X50323714Y-152598380D01*
X47450380Y-151598380D02*
X47545619Y-151598380D01*
X47640857Y-151646000D01*
X47688476Y-151693619D01*
X47736095Y-151788857D01*
X47783714Y-151979333D01*
X47783714Y-152217428D01*
X47736095Y-152407904D01*
X47688476Y-152503142D01*
X47640857Y-152550761D01*
X47545619Y-152598380D01*
X47450380Y-152598380D01*
X47355142Y-152550761D01*
X47307523Y-152503142D01*
X47259904Y-152407904D01*
X47212285Y-152217428D01*
X47212285Y-151979333D01*
X47259904Y-151788857D01*
X47307523Y-151693619D01*
X47355142Y-151646000D01*
X47450380Y-151598380D01*
X43843714Y-151598380D02*
X44400857Y-151598380D01*
X44100857Y-151979333D01*
X44229428Y-151979333D01*
X44315142Y-152026952D01*
X44358000Y-152074571D01*
X44400857Y-152169809D01*
X44400857Y-152407904D01*
X44358000Y-152503142D01*
X44315142Y-152550761D01*
X44229428Y-152598380D01*
X43972285Y-152598380D01*
X43886571Y-152550761D01*
X43843714Y-152503142D01*
X44658000Y-151598380D02*
X44958000Y-152598380D01*
X45258000Y-151598380D01*
X45472285Y-151598380D02*
X46029428Y-151598380D01*
X45729428Y-151979333D01*
X45858000Y-151979333D01*
X45943714Y-152026952D01*
X45986571Y-152074571D01*
X46029428Y-152169809D01*
X46029428Y-152407904D01*
X45986571Y-152503142D01*
X45943714Y-152550761D01*
X45858000Y-152598380D01*
X45600857Y-152598380D01*
X45515142Y-152550761D01*
X45472285Y-152503142D01*
D11*
X74526285Y-148037357D02*
X74740571Y-148108785D01*
X74812000Y-148180214D01*
X74883428Y-148323071D01*
X74883428Y-148537357D01*
X74812000Y-148680214D01*
X74740571Y-148751642D01*
X74597714Y-148823071D01*
X74026285Y-148823071D01*
X74026285Y-147323071D01*
X74526285Y-147323071D01*
X74669142Y-147394500D01*
X74740571Y-147465928D01*
X74812000Y-147608785D01*
X74812000Y-147751642D01*
X74740571Y-147894500D01*
X74669142Y-147965928D01*
X74526285Y-148037357D01*
X74026285Y-148037357D01*
X76169142Y-147823071D02*
X76169142Y-148823071D01*
X75526285Y-147823071D02*
X75526285Y-148608785D01*
X75597714Y-148751642D01*
X75740571Y-148823071D01*
X75954857Y-148823071D01*
X76097714Y-148751642D01*
X76169142Y-148680214D01*
X76883428Y-148823071D02*
X76883428Y-147323071D01*
X76883428Y-147894500D02*
X77026285Y-147823071D01*
X77312000Y-147823071D01*
X77454857Y-147894500D01*
X77526285Y-147965928D01*
X77597714Y-148108785D01*
X77597714Y-148537357D01*
X77526285Y-148680214D01*
X77454857Y-148751642D01*
X77312000Y-148823071D01*
X77026285Y-148823071D01*
X76883428Y-148751642D01*
X78240571Y-148823071D02*
X78240571Y-147323071D01*
X78240571Y-147894500D02*
X78383428Y-147823071D01*
X78669142Y-147823071D01*
X78812000Y-147894500D01*
X78883428Y-147965928D01*
X78954857Y-148108785D01*
X78954857Y-148537357D01*
X78883428Y-148680214D01*
X78812000Y-148751642D01*
X78669142Y-148823071D01*
X78383428Y-148823071D01*
X78240571Y-148751642D01*
X79812000Y-148823071D02*
X79669142Y-148751642D01*
X79597714Y-148608785D01*
X79597714Y-147323071D01*
X80954857Y-148751642D02*
X80812000Y-148823071D01*
X80526285Y-148823071D01*
X80383428Y-148751642D01*
X80312000Y-148608785D01*
X80312000Y-148037357D01*
X80383428Y-147894500D01*
X80526285Y-147823071D01*
X80812000Y-147823071D01*
X80954857Y-147894500D01*
X81026285Y-148037357D01*
X81026285Y-148180214D01*
X80312000Y-148323071D01*
X82812000Y-148823071D02*
X82812000Y-147323071D01*
X83383428Y-147323071D01*
X83526285Y-147394500D01*
X83597714Y-147465928D01*
X83669142Y-147608785D01*
X83669142Y-147823071D01*
X83597714Y-147965928D01*
X83526285Y-148037357D01*
X83383428Y-148108785D01*
X82812000Y-148108785D01*
X85169142Y-148680214D02*
X85097714Y-148751642D01*
X84883428Y-148823071D01*
X84740571Y-148823071D01*
X84526285Y-148751642D01*
X84383428Y-148608785D01*
X84312000Y-148465928D01*
X84240571Y-148180214D01*
X84240571Y-147965928D01*
X84312000Y-147680214D01*
X84383428Y-147537357D01*
X84526285Y-147394500D01*
X84740571Y-147323071D01*
X84883428Y-147323071D01*
X85097714Y-147394500D01*
X85169142Y-147465928D01*
X86312000Y-148037357D02*
X86526285Y-148108785D01*
X86597714Y-148180214D01*
X86669142Y-148323071D01*
X86669142Y-148537357D01*
X86597714Y-148680214D01*
X86526285Y-148751642D01*
X86383428Y-148823071D01*
X85812000Y-148823071D01*
X85812000Y-147323071D01*
X86312000Y-147323071D01*
X86454857Y-147394500D01*
X86526285Y-147465928D01*
X86597714Y-147608785D01*
X86597714Y-147751642D01*
X86526285Y-147894500D01*
X86454857Y-147965928D01*
X86312000Y-148037357D01*
X85812000Y-148037357D01*
X88240571Y-147323071D02*
X88740571Y-148823071D01*
X89240571Y-147323071D01*
X90526285Y-148823071D02*
X89669142Y-148823071D01*
X90097714Y-148823071D02*
X90097714Y-147323071D01*
X89954857Y-147537357D01*
X89812000Y-147680214D01*
X89669142Y-147751642D01*
X91169142Y-148680214D02*
X91240571Y-148751642D01*
X91169142Y-148823071D01*
X91097714Y-148751642D01*
X91169142Y-148680214D01*
X91169142Y-148823071D01*
X92669142Y-148823071D02*
X91812000Y-148823071D01*
X92240571Y-148823071D02*
X92240571Y-147323071D01*
X92097714Y-147537357D01*
X91954857Y-147680214D01*
X91812000Y-147751642D01*
X77204857Y-149880928D02*
X77276285Y-149809500D01*
X77419142Y-149738071D01*
X77776285Y-149738071D01*
X77919142Y-149809500D01*
X77990571Y-149880928D01*
X78062000Y-150023785D01*
X78062000Y-150166642D01*
X77990571Y-150380928D01*
X77133428Y-151238071D01*
X78062000Y-151238071D01*
X78990571Y-149738071D02*
X79133428Y-149738071D01*
X79276285Y-149809500D01*
X79347714Y-149880928D01*
X79419142Y-150023785D01*
X79490571Y-150309500D01*
X79490571Y-150666642D01*
X79419142Y-150952357D01*
X79347714Y-151095214D01*
X79276285Y-151166642D01*
X79133428Y-151238071D01*
X78990571Y-151238071D01*
X78847714Y-151166642D01*
X78776285Y-151095214D01*
X78704857Y-150952357D01*
X78633428Y-150666642D01*
X78633428Y-150309500D01*
X78704857Y-150023785D01*
X78776285Y-149880928D01*
X78847714Y-149809500D01*
X78990571Y-149738071D01*
X81204857Y-151166642D02*
X81419142Y-151238071D01*
X81776285Y-151238071D01*
X81919142Y-151166642D01*
X81990571Y-151095214D01*
X82062000Y-150952357D01*
X82062000Y-150809500D01*
X81990571Y-150666642D01*
X81919142Y-150595214D01*
X81776285Y-150523785D01*
X81490571Y-150452357D01*
X81347714Y-150380928D01*
X81276285Y-150309500D01*
X81204857Y-150166642D01*
X81204857Y-150023785D01*
X81276285Y-149880928D01*
X81347714Y-149809500D01*
X81490571Y-149738071D01*
X81847714Y-149738071D01*
X82062000Y-149809500D01*
X83276285Y-151166642D02*
X83133428Y-151238071D01*
X82847714Y-151238071D01*
X82704857Y-151166642D01*
X82633428Y-151023785D01*
X82633428Y-150452357D01*
X82704857Y-150309500D01*
X82847714Y-150238071D01*
X83133428Y-150238071D01*
X83276285Y-150309500D01*
X83347714Y-150452357D01*
X83347714Y-150595214D01*
X82633428Y-150738071D01*
X83990571Y-150238071D02*
X83990571Y-151238071D01*
X83990571Y-150380928D02*
X84062000Y-150309500D01*
X84204857Y-150238071D01*
X84419142Y-150238071D01*
X84562000Y-150309500D01*
X84633428Y-150452357D01*
X84633428Y-151238071D01*
X85276285Y-151166642D02*
X85419142Y-151238071D01*
X85704857Y-151238071D01*
X85847714Y-151166642D01*
X85919142Y-151023785D01*
X85919142Y-150952357D01*
X85847714Y-150809500D01*
X85704857Y-150738071D01*
X85490571Y-150738071D01*
X85347714Y-150666642D01*
X85276285Y-150523785D01*
X85276285Y-150452357D01*
X85347714Y-150309500D01*
X85490571Y-150238071D01*
X85704857Y-150238071D01*
X85847714Y-150309500D01*
X86776285Y-151238071D02*
X86633428Y-151166642D01*
X86562000Y-151095214D01*
X86490571Y-150952357D01*
X86490571Y-150523785D01*
X86562000Y-150380928D01*
X86633428Y-150309500D01*
X86776285Y-150238071D01*
X86990571Y-150238071D01*
X87133428Y-150309500D01*
X87204857Y-150380928D01*
X87276285Y-150523785D01*
X87276285Y-150952357D01*
X87204857Y-151095214D01*
X87133428Y-151166642D01*
X86990571Y-151238071D01*
X86776285Y-151238071D01*
X87919142Y-151238071D02*
X87919142Y-150238071D01*
X87919142Y-150523785D02*
X87990571Y-150380928D01*
X88062000Y-150309500D01*
X88204857Y-150238071D01*
X88347714Y-150238071D01*
X88776285Y-151166642D02*
X88919142Y-151238071D01*
X89204857Y-151238071D01*
X89347714Y-151166642D01*
X89419142Y-151023785D01*
X89419142Y-150952357D01*
X89347714Y-150809500D01*
X89204857Y-150738071D01*
X88990571Y-150738071D01*
X88847714Y-150666642D01*
X88776285Y-150523785D01*
X88776285Y-150452357D01*
X88847714Y-150309500D01*
X88990571Y-150238071D01*
X89204857Y-150238071D01*
X89347714Y-150309500D01*
D10*
X97485285Y-143822000D02*
X97399571Y-143779142D01*
X97271000Y-143779142D01*
X97142428Y-143822000D01*
X97056714Y-143907714D01*
X97013857Y-143993428D01*
X96971000Y-144164857D01*
X96971000Y-144293428D01*
X97013857Y-144464857D01*
X97056714Y-144550571D01*
X97142428Y-144636285D01*
X97271000Y-144679142D01*
X97356714Y-144679142D01*
X97485285Y-144636285D01*
X97528142Y-144593428D01*
X97528142Y-144293428D01*
X97356714Y-144293428D01*
X97913857Y-144679142D02*
X97913857Y-143779142D01*
X98428142Y-144679142D01*
X98428142Y-143779142D01*
X98856714Y-144679142D02*
X98856714Y-143779142D01*
X99071000Y-143779142D01*
X99199571Y-143822000D01*
X99285285Y-143907714D01*
X99328142Y-143993428D01*
X99371000Y-144164857D01*
X99371000Y-144293428D01*
X99328142Y-144464857D01*
X99285285Y-144550571D01*
X99199571Y-144636285D01*
X99071000Y-144679142D01*
X98856714Y-144679142D01*
X97056714Y-141239142D02*
X97613857Y-141239142D01*
X97313857Y-141582000D01*
X97442428Y-141582000D01*
X97528142Y-141624857D01*
X97571000Y-141667714D01*
X97613857Y-141753428D01*
X97613857Y-141967714D01*
X97571000Y-142053428D01*
X97528142Y-142096285D01*
X97442428Y-142139142D01*
X97185285Y-142139142D01*
X97099571Y-142096285D01*
X97056714Y-142053428D01*
X97871000Y-141239142D02*
X98171000Y-142139142D01*
X98471000Y-141239142D01*
X98685285Y-141239142D02*
X99242428Y-141239142D01*
X98942428Y-141582000D01*
X99071000Y-141582000D01*
X99156714Y-141624857D01*
X99199571Y-141667714D01*
X99242428Y-141753428D01*
X99242428Y-141967714D01*
X99199571Y-142053428D01*
X99156714Y-142096285D01*
X99071000Y-142139142D01*
X98813857Y-142139142D01*
X98728142Y-142096285D01*
X98685285Y-142053428D01*
X97790095Y-138731619D02*
X97837714Y-138684000D01*
X97932952Y-138636380D01*
X98171047Y-138636380D01*
X98266285Y-138684000D01*
X98313904Y-138731619D01*
X98361523Y-138826857D01*
X98361523Y-138922095D01*
X98313904Y-139064952D01*
X97742476Y-139636380D01*
X98361523Y-139636380D01*
X99218666Y-138969714D02*
X99218666Y-139636380D01*
X98980571Y-138588761D02*
X98742476Y-139303047D01*
X99361523Y-139303047D01*
X97790095Y-136191619D02*
X97837714Y-136144000D01*
X97932952Y-136096380D01*
X98171047Y-136096380D01*
X98266285Y-136144000D01*
X98313904Y-136191619D01*
X98361523Y-136286857D01*
X98361523Y-136382095D01*
X98313904Y-136524952D01*
X97742476Y-137096380D01*
X98361523Y-137096380D01*
X99266285Y-136096380D02*
X98790095Y-136096380D01*
X98742476Y-136572571D01*
X98790095Y-136524952D01*
X98885333Y-136477333D01*
X99123428Y-136477333D01*
X99218666Y-136524952D01*
X99266285Y-136572571D01*
X99313904Y-136667809D01*
X99313904Y-136905904D01*
X99266285Y-137001142D01*
X99218666Y-137048761D01*
X99123428Y-137096380D01*
X98885333Y-137096380D01*
X98790095Y-137048761D01*
X98742476Y-137001142D01*
X97742476Y-133556380D02*
X98361523Y-133556380D01*
X98028190Y-133937333D01*
X98171047Y-133937333D01*
X98266285Y-133984952D01*
X98313904Y-134032571D01*
X98361523Y-134127809D01*
X98361523Y-134365904D01*
X98313904Y-134461142D01*
X98266285Y-134508761D01*
X98171047Y-134556380D01*
X97885333Y-134556380D01*
X97790095Y-134508761D01*
X97742476Y-134461142D01*
X99266285Y-133556380D02*
X98790095Y-133556380D01*
X98742476Y-134032571D01*
X98790095Y-133984952D01*
X98885333Y-133937333D01*
X99123428Y-133937333D01*
X99218666Y-133984952D01*
X99266285Y-134032571D01*
X99313904Y-134127809D01*
X99313904Y-134365904D01*
X99266285Y-134461142D01*
X99218666Y-134508761D01*
X99123428Y-134556380D01*
X98885333Y-134556380D01*
X98790095Y-134508761D01*
X98742476Y-134461142D01*
X97742476Y-131016380D02*
X98361523Y-131016380D01*
X98028190Y-131397333D01*
X98171047Y-131397333D01*
X98266285Y-131444952D01*
X98313904Y-131492571D01*
X98361523Y-131587809D01*
X98361523Y-131825904D01*
X98313904Y-131921142D01*
X98266285Y-131968761D01*
X98171047Y-132016380D01*
X97885333Y-132016380D01*
X97790095Y-131968761D01*
X97742476Y-131921142D01*
X98694857Y-131016380D02*
X99313904Y-131016380D01*
X98980571Y-131397333D01*
X99123428Y-131397333D01*
X99218666Y-131444952D01*
X99266285Y-131492571D01*
X99313904Y-131587809D01*
X99313904Y-131825904D01*
X99266285Y-131921142D01*
X99218666Y-131968761D01*
X99123428Y-132016380D01*
X98837714Y-132016380D01*
X98742476Y-131968761D01*
X98694857Y-131921142D01*
X97742476Y-128476380D02*
X98361523Y-128476380D01*
X98028190Y-128857333D01*
X98171047Y-128857333D01*
X98266285Y-128904952D01*
X98313904Y-128952571D01*
X98361523Y-129047809D01*
X98361523Y-129285904D01*
X98313904Y-129381142D01*
X98266285Y-129428761D01*
X98171047Y-129476380D01*
X97885333Y-129476380D01*
X97790095Y-129428761D01*
X97742476Y-129381142D01*
X99218666Y-128809714D02*
X99218666Y-129476380D01*
X98980571Y-128428761D02*
X98742476Y-129143047D01*
X99361523Y-129143047D01*
%TO.C,J4*%
X39290666Y-149058380D02*
X39290666Y-149772666D01*
X39243047Y-149915523D01*
X39147809Y-150010761D01*
X39004952Y-150058380D01*
X38909714Y-150058380D01*
X40195428Y-149391714D02*
X40195428Y-150058380D01*
X39957333Y-149010761D02*
X39719238Y-149725047D01*
X40338285Y-149725047D01*
%TO.C,J3*%
X102028666Y-146532380D02*
X102028666Y-147246666D01*
X101981047Y-147389523D01*
X101885809Y-147484761D01*
X101742952Y-147532380D01*
X101647714Y-147532380D01*
X102409619Y-146532380D02*
X103028666Y-146532380D01*
X102695333Y-146913333D01*
X102838190Y-146913333D01*
X102933428Y-146960952D01*
X102981047Y-147008571D01*
X103028666Y-147103809D01*
X103028666Y-147341904D01*
X102981047Y-147437142D01*
X102933428Y-147484761D01*
X102838190Y-147532380D01*
X102552476Y-147532380D01*
X102457238Y-147484761D01*
X102409619Y-147437142D01*
%TO.C,R6*%
X66453333Y-125672380D02*
X66120000Y-125196190D01*
X65881904Y-125672380D02*
X65881904Y-124672380D01*
X66262857Y-124672380D01*
X66358095Y-124720000D01*
X66405714Y-124767619D01*
X66453333Y-124862857D01*
X66453333Y-125005714D01*
X66405714Y-125100952D01*
X66358095Y-125148571D01*
X66262857Y-125196190D01*
X65881904Y-125196190D01*
X67310476Y-124672380D02*
X67120000Y-124672380D01*
X67024761Y-124720000D01*
X66977142Y-124767619D01*
X66881904Y-124910476D01*
X66834285Y-125100952D01*
X66834285Y-125481904D01*
X66881904Y-125577142D01*
X66929523Y-125624761D01*
X67024761Y-125672380D01*
X67215238Y-125672380D01*
X67310476Y-125624761D01*
X67358095Y-125577142D01*
X67405714Y-125481904D01*
X67405714Y-125243809D01*
X67358095Y-125148571D01*
X67310476Y-125100952D01*
X67215238Y-125053333D01*
X67024761Y-125053333D01*
X66929523Y-125100952D01*
X66881904Y-125148571D01*
X66834285Y-125243809D01*
%TO.C,U15*%
X78094904Y-63173380D02*
X78094904Y-63982904D01*
X78142523Y-64078142D01*
X78190142Y-64125761D01*
X78285380Y-64173380D01*
X78475857Y-64173380D01*
X78571095Y-64125761D01*
X78618714Y-64078142D01*
X78666333Y-63982904D01*
X78666333Y-63173380D01*
X79666333Y-64173380D02*
X79094904Y-64173380D01*
X79380619Y-64173380D02*
X79380619Y-63173380D01*
X79285380Y-63316238D01*
X79190142Y-63411476D01*
X79094904Y-63459095D01*
X80571095Y-63173380D02*
X80094904Y-63173380D01*
X80047285Y-63649571D01*
X80094904Y-63601952D01*
X80190142Y-63554333D01*
X80428238Y-63554333D01*
X80523476Y-63601952D01*
X80571095Y-63649571D01*
X80618714Y-63744809D01*
X80618714Y-63982904D01*
X80571095Y-64078142D01*
X80523476Y-64125761D01*
X80428238Y-64173380D01*
X80190142Y-64173380D01*
X80094904Y-64125761D01*
X80047285Y-64078142D01*
%TO.C,U13*%
X77654904Y-94223380D02*
X77654904Y-95032904D01*
X77702523Y-95128142D01*
X77750142Y-95175761D01*
X77845380Y-95223380D01*
X78035857Y-95223380D01*
X78131095Y-95175761D01*
X78178714Y-95128142D01*
X78226333Y-95032904D01*
X78226333Y-94223380D01*
X79226333Y-95223380D02*
X78654904Y-95223380D01*
X78940619Y-95223380D02*
X78940619Y-94223380D01*
X78845380Y-94366238D01*
X78750142Y-94461476D01*
X78654904Y-94509095D01*
X79559666Y-94223380D02*
X80178714Y-94223380D01*
X79845380Y-94604333D01*
X79988238Y-94604333D01*
X80083476Y-94651952D01*
X80131095Y-94699571D01*
X80178714Y-94794809D01*
X80178714Y-95032904D01*
X80131095Y-95128142D01*
X80083476Y-95175761D01*
X79988238Y-95223380D01*
X79702523Y-95223380D01*
X79607285Y-95175761D01*
X79559666Y-95128142D01*
%TO.C,U8*%
X57428095Y-94002380D02*
X57428095Y-94811904D01*
X57475714Y-94907142D01*
X57523333Y-94954761D01*
X57618571Y-95002380D01*
X57809047Y-95002380D01*
X57904285Y-94954761D01*
X57951904Y-94907142D01*
X57999523Y-94811904D01*
X57999523Y-94002380D01*
X58618571Y-94430952D02*
X58523333Y-94383333D01*
X58475714Y-94335714D01*
X58428095Y-94240476D01*
X58428095Y-94192857D01*
X58475714Y-94097619D01*
X58523333Y-94050000D01*
X58618571Y-94002380D01*
X58809047Y-94002380D01*
X58904285Y-94050000D01*
X58951904Y-94097619D01*
X58999523Y-94192857D01*
X58999523Y-94240476D01*
X58951904Y-94335714D01*
X58904285Y-94383333D01*
X58809047Y-94430952D01*
X58618571Y-94430952D01*
X58523333Y-94478571D01*
X58475714Y-94526190D01*
X58428095Y-94621428D01*
X58428095Y-94811904D01*
X58475714Y-94907142D01*
X58523333Y-94954761D01*
X58618571Y-95002380D01*
X58809047Y-95002380D01*
X58904285Y-94954761D01*
X58951904Y-94907142D01*
X58999523Y-94811904D01*
X58999523Y-94621428D01*
X58951904Y-94526190D01*
X58904285Y-94478571D01*
X58809047Y-94430952D01*
%TO.C,R10*%
X63057142Y-66832380D02*
X62723809Y-66356190D01*
X62485714Y-66832380D02*
X62485714Y-65832380D01*
X62866666Y-65832380D01*
X62961904Y-65880000D01*
X63009523Y-65927619D01*
X63057142Y-66022857D01*
X63057142Y-66165714D01*
X63009523Y-66260952D01*
X62961904Y-66308571D01*
X62866666Y-66356190D01*
X62485714Y-66356190D01*
X64009523Y-66832380D02*
X63438095Y-66832380D01*
X63723809Y-66832380D02*
X63723809Y-65832380D01*
X63628571Y-65975238D01*
X63533333Y-66070476D01*
X63438095Y-66118095D01*
X64628571Y-65832380D02*
X64723809Y-65832380D01*
X64819047Y-65880000D01*
X64866666Y-65927619D01*
X64914285Y-66022857D01*
X64961904Y-66213333D01*
X64961904Y-66451428D01*
X64914285Y-66641904D01*
X64866666Y-66737142D01*
X64819047Y-66784761D01*
X64723809Y-66832380D01*
X64628571Y-66832380D01*
X64533333Y-66784761D01*
X64485714Y-66737142D01*
X64438095Y-66641904D01*
X64390476Y-66451428D01*
X64390476Y-66213333D01*
X64438095Y-66022857D01*
X64485714Y-65927619D01*
X64533333Y-65880000D01*
X64628571Y-65832380D01*
%TO.C,U14*%
X78094904Y-78413380D02*
X78094904Y-79222904D01*
X78142523Y-79318142D01*
X78190142Y-79365761D01*
X78285380Y-79413380D01*
X78475857Y-79413380D01*
X78571095Y-79365761D01*
X78618714Y-79318142D01*
X78666333Y-79222904D01*
X78666333Y-78413380D01*
X79666333Y-79413380D02*
X79094904Y-79413380D01*
X79380619Y-79413380D02*
X79380619Y-78413380D01*
X79285380Y-78556238D01*
X79190142Y-78651476D01*
X79094904Y-78699095D01*
X80523476Y-78746714D02*
X80523476Y-79413380D01*
X80285380Y-78365761D02*
X80047285Y-79080047D01*
X80666333Y-79080047D01*
%TO.C,R1*%
X37753333Y-125632380D02*
X37420000Y-125156190D01*
X37181904Y-125632380D02*
X37181904Y-124632380D01*
X37562857Y-124632380D01*
X37658095Y-124680000D01*
X37705714Y-124727619D01*
X37753333Y-124822857D01*
X37753333Y-124965714D01*
X37705714Y-125060952D01*
X37658095Y-125108571D01*
X37562857Y-125156190D01*
X37181904Y-125156190D01*
X38705714Y-125632380D02*
X38134285Y-125632380D01*
X38420000Y-125632380D02*
X38420000Y-124632380D01*
X38324761Y-124775238D01*
X38229523Y-124870476D01*
X38134285Y-124918095D01*
%TO.C,R8*%
X63533333Y-96550380D02*
X63200000Y-96074190D01*
X62961904Y-96550380D02*
X62961904Y-95550380D01*
X63342857Y-95550380D01*
X63438095Y-95598000D01*
X63485714Y-95645619D01*
X63533333Y-95740857D01*
X63533333Y-95883714D01*
X63485714Y-95978952D01*
X63438095Y-96026571D01*
X63342857Y-96074190D01*
X62961904Y-96074190D01*
X64104761Y-95978952D02*
X64009523Y-95931333D01*
X63961904Y-95883714D01*
X63914285Y-95788476D01*
X63914285Y-95740857D01*
X63961904Y-95645619D01*
X64009523Y-95598000D01*
X64104761Y-95550380D01*
X64295238Y-95550380D01*
X64390476Y-95598000D01*
X64438095Y-95645619D01*
X64485714Y-95740857D01*
X64485714Y-95788476D01*
X64438095Y-95883714D01*
X64390476Y-95931333D01*
X64295238Y-95978952D01*
X64104761Y-95978952D01*
X64009523Y-96026571D01*
X63961904Y-96074190D01*
X63914285Y-96169428D01*
X63914285Y-96359904D01*
X63961904Y-96455142D01*
X64009523Y-96502761D01*
X64104761Y-96550380D01*
X64295238Y-96550380D01*
X64390476Y-96502761D01*
X64438095Y-96455142D01*
X64485714Y-96359904D01*
X64485714Y-96169428D01*
X64438095Y-96074190D01*
X64390476Y-96026571D01*
X64295238Y-95978952D01*
%TO.C,J1*%
X32566666Y-128692380D02*
X32566666Y-129406666D01*
X32519047Y-129549523D01*
X32423809Y-129644761D01*
X32280952Y-129692380D01*
X32185714Y-129692380D01*
X33566666Y-129692380D02*
X32995238Y-129692380D01*
X33280952Y-129692380D02*
X33280952Y-128692380D01*
X33185714Y-128835238D01*
X33090476Y-128930476D01*
X32995238Y-128978095D01*
%TO.C,J2*%
X32466666Y-143792380D02*
X32466666Y-144506666D01*
X32419047Y-144649523D01*
X32323809Y-144744761D01*
X32180952Y-144792380D01*
X32085714Y-144792380D01*
X32895238Y-143887619D02*
X32942857Y-143840000D01*
X33038095Y-143792380D01*
X33276190Y-143792380D01*
X33371428Y-143840000D01*
X33419047Y-143887619D01*
X33466666Y-143982857D01*
X33466666Y-144078095D01*
X33419047Y-144220952D01*
X32847619Y-144792380D01*
X33466666Y-144792380D01*
%TO.C,R4*%
X37753333Y-82198380D02*
X37420000Y-81722190D01*
X37181904Y-82198380D02*
X37181904Y-81198380D01*
X37562857Y-81198380D01*
X37658095Y-81246000D01*
X37705714Y-81293619D01*
X37753333Y-81388857D01*
X37753333Y-81531714D01*
X37705714Y-81626952D01*
X37658095Y-81674571D01*
X37562857Y-81722190D01*
X37181904Y-81722190D01*
X38610476Y-81531714D02*
X38610476Y-82198380D01*
X38372380Y-81150761D02*
X38134285Y-81865047D01*
X38753333Y-81865047D01*
%TO.C,U18*%
X92161904Y-93512380D02*
X92161904Y-94321904D01*
X92209523Y-94417142D01*
X92257142Y-94464761D01*
X92352380Y-94512380D01*
X92542857Y-94512380D01*
X92638095Y-94464761D01*
X92685714Y-94417142D01*
X92733333Y-94321904D01*
X92733333Y-93512380D01*
X93733333Y-94512380D02*
X93161904Y-94512380D01*
X93447619Y-94512380D02*
X93447619Y-93512380D01*
X93352380Y-93655238D01*
X93257142Y-93750476D01*
X93161904Y-93798095D01*
X94304761Y-93940952D02*
X94209523Y-93893333D01*
X94161904Y-93845714D01*
X94114285Y-93750476D01*
X94114285Y-93702857D01*
X94161904Y-93607619D01*
X94209523Y-93560000D01*
X94304761Y-93512380D01*
X94495238Y-93512380D01*
X94590476Y-93560000D01*
X94638095Y-93607619D01*
X94685714Y-93702857D01*
X94685714Y-93750476D01*
X94638095Y-93845714D01*
X94590476Y-93893333D01*
X94495238Y-93940952D01*
X94304761Y-93940952D01*
X94209523Y-93988571D01*
X94161904Y-94036190D01*
X94114285Y-94131428D01*
X94114285Y-94321904D01*
X94161904Y-94417142D01*
X94209523Y-94464761D01*
X94304761Y-94512380D01*
X94495238Y-94512380D01*
X94590476Y-94464761D01*
X94638095Y-94417142D01*
X94685714Y-94321904D01*
X94685714Y-94131428D01*
X94638095Y-94036190D01*
X94590476Y-93988571D01*
X94495238Y-93940952D01*
%TO.C,U3*%
X42478296Y-94252380D02*
X42478296Y-95061904D01*
X42525915Y-95157142D01*
X42573534Y-95204761D01*
X42668772Y-95252380D01*
X42859248Y-95252380D01*
X42954486Y-95204761D01*
X43002105Y-95157142D01*
X43049724Y-95061904D01*
X43049724Y-94252380D01*
X43430677Y-94252380D02*
X44049724Y-94252380D01*
X43716391Y-94633333D01*
X43859248Y-94633333D01*
X43954486Y-94680952D01*
X44002105Y-94728571D01*
X44049724Y-94823809D01*
X44049724Y-95061904D01*
X44002105Y-95157142D01*
X43954486Y-95204761D01*
X43859248Y-95252380D01*
X43573534Y-95252380D01*
X43478296Y-95204761D01*
X43430677Y-95157142D01*
%TO.C,R16*%
X100703142Y-125420380D02*
X100369809Y-124944190D01*
X100131714Y-125420380D02*
X100131714Y-124420380D01*
X100512666Y-124420380D01*
X100607904Y-124468000D01*
X100655523Y-124515619D01*
X100703142Y-124610857D01*
X100703142Y-124753714D01*
X100655523Y-124848952D01*
X100607904Y-124896571D01*
X100512666Y-124944190D01*
X100131714Y-124944190D01*
X101655523Y-125420380D02*
X101084095Y-125420380D01*
X101369809Y-125420380D02*
X101369809Y-124420380D01*
X101274571Y-124563238D01*
X101179333Y-124658476D01*
X101084095Y-124706095D01*
X102512666Y-124420380D02*
X102322190Y-124420380D01*
X102226952Y-124468000D01*
X102179333Y-124515619D01*
X102084095Y-124658476D01*
X102036476Y-124848952D01*
X102036476Y-125229904D01*
X102084095Y-125325142D01*
X102131714Y-125372761D01*
X102226952Y-125420380D01*
X102417428Y-125420380D01*
X102512666Y-125372761D01*
X102560285Y-125325142D01*
X102607904Y-125229904D01*
X102607904Y-124991809D01*
X102560285Y-124896571D01*
X102512666Y-124848952D01*
X102417428Y-124801333D01*
X102226952Y-124801333D01*
X102131714Y-124848952D01*
X102084095Y-124896571D01*
X102036476Y-124991809D01*
%TO.C,U17*%
X92161904Y-108752380D02*
X92161904Y-109561904D01*
X92209523Y-109657142D01*
X92257142Y-109704761D01*
X92352380Y-109752380D01*
X92542857Y-109752380D01*
X92638095Y-109704761D01*
X92685714Y-109657142D01*
X92733333Y-109561904D01*
X92733333Y-108752380D01*
X93733333Y-109752380D02*
X93161904Y-109752380D01*
X93447619Y-109752380D02*
X93447619Y-108752380D01*
X93352380Y-108895238D01*
X93257142Y-108990476D01*
X93161904Y-109038095D01*
X94066666Y-108752380D02*
X94733333Y-108752380D01*
X94304761Y-109752380D01*
%TO.C,U20*%
X92161904Y-63032380D02*
X92161904Y-63841904D01*
X92209523Y-63937142D01*
X92257142Y-63984761D01*
X92352380Y-64032380D01*
X92542857Y-64032380D01*
X92638095Y-63984761D01*
X92685714Y-63937142D01*
X92733333Y-63841904D01*
X92733333Y-63032380D01*
X93161904Y-63127619D02*
X93209523Y-63080000D01*
X93304761Y-63032380D01*
X93542857Y-63032380D01*
X93638095Y-63080000D01*
X93685714Y-63127619D01*
X93733333Y-63222857D01*
X93733333Y-63318095D01*
X93685714Y-63460952D01*
X93114285Y-64032380D01*
X93733333Y-64032380D01*
X94352380Y-63032380D02*
X94447619Y-63032380D01*
X94542857Y-63080000D01*
X94590476Y-63127619D01*
X94638095Y-63222857D01*
X94685714Y-63413333D01*
X94685714Y-63651428D01*
X94638095Y-63841904D01*
X94590476Y-63937142D01*
X94542857Y-63984761D01*
X94447619Y-64032380D01*
X94352380Y-64032380D01*
X94257142Y-63984761D01*
X94209523Y-63937142D01*
X94161904Y-63841904D01*
X94114285Y-63651428D01*
X94114285Y-63413333D01*
X94161904Y-63222857D01*
X94209523Y-63127619D01*
X94257142Y-63080000D01*
X94352380Y-63032380D01*
%TO.C,R19*%
X97401142Y-80970380D02*
X97067809Y-80494190D01*
X96829714Y-80970380D02*
X96829714Y-79970380D01*
X97210666Y-79970380D01*
X97305904Y-80018000D01*
X97353523Y-80065619D01*
X97401142Y-80160857D01*
X97401142Y-80303714D01*
X97353523Y-80398952D01*
X97305904Y-80446571D01*
X97210666Y-80494190D01*
X96829714Y-80494190D01*
X98353523Y-80970380D02*
X97782095Y-80970380D01*
X98067809Y-80970380D02*
X98067809Y-79970380D01*
X97972571Y-80113238D01*
X97877333Y-80208476D01*
X97782095Y-80256095D01*
X98829714Y-80970380D02*
X99020190Y-80970380D01*
X99115428Y-80922761D01*
X99163047Y-80875142D01*
X99258285Y-80732285D01*
X99305904Y-80541809D01*
X99305904Y-80160857D01*
X99258285Y-80065619D01*
X99210666Y-80018000D01*
X99115428Y-79970380D01*
X98924952Y-79970380D01*
X98829714Y-80018000D01*
X98782095Y-80065619D01*
X98734476Y-80160857D01*
X98734476Y-80398952D01*
X98782095Y-80494190D01*
X98829714Y-80541809D01*
X98924952Y-80589428D01*
X99115428Y-80589428D01*
X99210666Y-80541809D01*
X99258285Y-80494190D01*
X99305904Y-80398952D01*
%TO.C,U16*%
X92161904Y-123992380D02*
X92161904Y-124801904D01*
X92209523Y-124897142D01*
X92257142Y-124944761D01*
X92352380Y-124992380D01*
X92542857Y-124992380D01*
X92638095Y-124944761D01*
X92685714Y-124897142D01*
X92733333Y-124801904D01*
X92733333Y-123992380D01*
X93733333Y-124992380D02*
X93161904Y-124992380D01*
X93447619Y-124992380D02*
X93447619Y-123992380D01*
X93352380Y-124135238D01*
X93257142Y-124230476D01*
X93161904Y-124278095D01*
X94590476Y-123992380D02*
X94400000Y-123992380D01*
X94304761Y-124040000D01*
X94257142Y-124087619D01*
X94161904Y-124230476D01*
X94114285Y-124420952D01*
X94114285Y-124801904D01*
X94161904Y-124897142D01*
X94209523Y-124944761D01*
X94304761Y-124992380D01*
X94495238Y-124992380D01*
X94590476Y-124944761D01*
X94638095Y-124897142D01*
X94685714Y-124801904D01*
X94685714Y-124563809D01*
X94638095Y-124468571D01*
X94590476Y-124420952D01*
X94495238Y-124373333D01*
X94304761Y-124373333D01*
X94209523Y-124420952D01*
X94161904Y-124468571D01*
X94114285Y-124563809D01*
%TO.C,R5*%
X37753333Y-66958380D02*
X37420000Y-66482190D01*
X37181904Y-66958380D02*
X37181904Y-65958380D01*
X37562857Y-65958380D01*
X37658095Y-66006000D01*
X37705714Y-66053619D01*
X37753333Y-66148857D01*
X37753333Y-66291714D01*
X37705714Y-66386952D01*
X37658095Y-66434571D01*
X37562857Y-66482190D01*
X37181904Y-66482190D01*
X38658095Y-65958380D02*
X38181904Y-65958380D01*
X38134285Y-66434571D01*
X38181904Y-66386952D01*
X38277142Y-66339333D01*
X38515238Y-66339333D01*
X38610476Y-66386952D01*
X38658095Y-66434571D01*
X38705714Y-66529809D01*
X38705714Y-66767904D01*
X38658095Y-66863142D01*
X38610476Y-66910761D01*
X38515238Y-66958380D01*
X38277142Y-66958380D01*
X38181904Y-66910761D01*
X38134285Y-66863142D01*
%TO.C,R12*%
X73487142Y-110492380D02*
X73153809Y-110016190D01*
X72915714Y-110492380D02*
X72915714Y-109492380D01*
X73296666Y-109492380D01*
X73391904Y-109540000D01*
X73439523Y-109587619D01*
X73487142Y-109682857D01*
X73487142Y-109825714D01*
X73439523Y-109920952D01*
X73391904Y-109968571D01*
X73296666Y-110016190D01*
X72915714Y-110016190D01*
X74439523Y-110492380D02*
X73868095Y-110492380D01*
X74153809Y-110492380D02*
X74153809Y-109492380D01*
X74058571Y-109635238D01*
X73963333Y-109730476D01*
X73868095Y-109778095D01*
X74820476Y-109587619D02*
X74868095Y-109540000D01*
X74963333Y-109492380D01*
X75201428Y-109492380D01*
X75296666Y-109540000D01*
X75344285Y-109587619D01*
X75391904Y-109682857D01*
X75391904Y-109778095D01*
X75344285Y-109920952D01*
X74772857Y-110492380D01*
X75391904Y-110492380D01*
%TO.C,U12*%
X77654904Y-109463380D02*
X77654904Y-110272904D01*
X77702523Y-110368142D01*
X77750142Y-110415761D01*
X77845380Y-110463380D01*
X78035857Y-110463380D01*
X78131095Y-110415761D01*
X78178714Y-110368142D01*
X78226333Y-110272904D01*
X78226333Y-109463380D01*
X79226333Y-110463380D02*
X78654904Y-110463380D01*
X78940619Y-110463380D02*
X78940619Y-109463380D01*
X78845380Y-109606238D01*
X78750142Y-109701476D01*
X78654904Y-109749095D01*
X79607285Y-109558619D02*
X79654904Y-109511000D01*
X79750142Y-109463380D01*
X79988238Y-109463380D01*
X80083476Y-109511000D01*
X80131095Y-109558619D01*
X80178714Y-109653857D01*
X80178714Y-109749095D01*
X80131095Y-109891952D01*
X79559666Y-110463380D01*
X80178714Y-110463380D01*
%TO.C,U5*%
X42478296Y-63772380D02*
X42478296Y-64581904D01*
X42525915Y-64677142D01*
X42573534Y-64724761D01*
X42668772Y-64772380D01*
X42859248Y-64772380D01*
X42954486Y-64724761D01*
X43002105Y-64677142D01*
X43049724Y-64581904D01*
X43049724Y-63772380D01*
X44002105Y-63772380D02*
X43525915Y-63772380D01*
X43478296Y-64248571D01*
X43525915Y-64200952D01*
X43621153Y-64153333D01*
X43859248Y-64153333D01*
X43954486Y-64200952D01*
X44002105Y-64248571D01*
X44049724Y-64343809D01*
X44049724Y-64581904D01*
X44002105Y-64677142D01*
X43954486Y-64724761D01*
X43859248Y-64772380D01*
X43621153Y-64772380D01*
X43525915Y-64724761D01*
X43478296Y-64677142D01*
%TO.C,U6*%
X57428095Y-124482380D02*
X57428095Y-125291904D01*
X57475714Y-125387142D01*
X57523333Y-125434761D01*
X57618571Y-125482380D01*
X57809047Y-125482380D01*
X57904285Y-125434761D01*
X57951904Y-125387142D01*
X57999523Y-125291904D01*
X57999523Y-124482380D01*
X58904285Y-124482380D02*
X58713809Y-124482380D01*
X58618571Y-124530000D01*
X58570952Y-124577619D01*
X58475714Y-124720476D01*
X58428095Y-124910952D01*
X58428095Y-125291904D01*
X58475714Y-125387142D01*
X58523333Y-125434761D01*
X58618571Y-125482380D01*
X58809047Y-125482380D01*
X58904285Y-125434761D01*
X58951904Y-125387142D01*
X58999523Y-125291904D01*
X58999523Y-125053809D01*
X58951904Y-124958571D01*
X58904285Y-124910952D01*
X58809047Y-124863333D01*
X58618571Y-124863333D01*
X58523333Y-124910952D01*
X58475714Y-124958571D01*
X58428095Y-125053809D01*
%TO.C,R11*%
X70647142Y-125602380D02*
X70313809Y-125126190D01*
X70075714Y-125602380D02*
X70075714Y-124602380D01*
X70456666Y-124602380D01*
X70551904Y-124650000D01*
X70599523Y-124697619D01*
X70647142Y-124792857D01*
X70647142Y-124935714D01*
X70599523Y-125030952D01*
X70551904Y-125078571D01*
X70456666Y-125126190D01*
X70075714Y-125126190D01*
X71599523Y-125602380D02*
X71028095Y-125602380D01*
X71313809Y-125602380D02*
X71313809Y-124602380D01*
X71218571Y-124745238D01*
X71123333Y-124840476D01*
X71028095Y-124888095D01*
X72551904Y-125602380D02*
X71980476Y-125602380D01*
X72266190Y-125602380D02*
X72266190Y-124602380D01*
X72170952Y-124745238D01*
X72075714Y-124840476D01*
X71980476Y-124888095D01*
%TO.C,R9*%
X63533333Y-81564380D02*
X63200000Y-81088190D01*
X62961904Y-81564380D02*
X62961904Y-80564380D01*
X63342857Y-80564380D01*
X63438095Y-80612000D01*
X63485714Y-80659619D01*
X63533333Y-80754857D01*
X63533333Y-80897714D01*
X63485714Y-80992952D01*
X63438095Y-81040571D01*
X63342857Y-81088190D01*
X62961904Y-81088190D01*
X64009523Y-81564380D02*
X64200000Y-81564380D01*
X64295238Y-81516761D01*
X64342857Y-81469142D01*
X64438095Y-81326285D01*
X64485714Y-81135809D01*
X64485714Y-80754857D01*
X64438095Y-80659619D01*
X64390476Y-80612000D01*
X64295238Y-80564380D01*
X64104761Y-80564380D01*
X64009523Y-80612000D01*
X63961904Y-80659619D01*
X63914285Y-80754857D01*
X63914285Y-80992952D01*
X63961904Y-81088190D01*
X64009523Y-81135809D01*
X64104761Y-81183428D01*
X64295238Y-81183428D01*
X64390476Y-81135809D01*
X64438095Y-81088190D01*
X64485714Y-80992952D01*
%TO.C,U2*%
X42478296Y-109492380D02*
X42478296Y-110301904D01*
X42525915Y-110397142D01*
X42573534Y-110444761D01*
X42668772Y-110492380D01*
X42859248Y-110492380D01*
X42954486Y-110444761D01*
X43002105Y-110397142D01*
X43049724Y-110301904D01*
X43049724Y-109492380D01*
X43478296Y-109587619D02*
X43525915Y-109540000D01*
X43621153Y-109492380D01*
X43859248Y-109492380D01*
X43954486Y-109540000D01*
X44002105Y-109587619D01*
X44049724Y-109682857D01*
X44049724Y-109778095D01*
X44002105Y-109920952D01*
X43430677Y-110492380D01*
X44049724Y-110492380D01*
%TO.C,R7*%
X63533333Y-110266380D02*
X63200000Y-109790190D01*
X62961904Y-110266380D02*
X62961904Y-109266380D01*
X63342857Y-109266380D01*
X63438095Y-109314000D01*
X63485714Y-109361619D01*
X63533333Y-109456857D01*
X63533333Y-109599714D01*
X63485714Y-109694952D01*
X63438095Y-109742571D01*
X63342857Y-109790190D01*
X62961904Y-109790190D01*
X63866666Y-109266380D02*
X64533333Y-109266380D01*
X64104761Y-110266380D01*
%TO.C,R3*%
X37753333Y-97438380D02*
X37420000Y-96962190D01*
X37181904Y-97438380D02*
X37181904Y-96438380D01*
X37562857Y-96438380D01*
X37658095Y-96486000D01*
X37705714Y-96533619D01*
X37753333Y-96628857D01*
X37753333Y-96771714D01*
X37705714Y-96866952D01*
X37658095Y-96914571D01*
X37562857Y-96962190D01*
X37181904Y-96962190D01*
X38086666Y-96438380D02*
X38705714Y-96438380D01*
X38372380Y-96819333D01*
X38515238Y-96819333D01*
X38610476Y-96866952D01*
X38658095Y-96914571D01*
X38705714Y-97009809D01*
X38705714Y-97247904D01*
X38658095Y-97343142D01*
X38610476Y-97390761D01*
X38515238Y-97438380D01*
X38229523Y-97438380D01*
X38134285Y-97390761D01*
X38086666Y-97343142D01*
%TO.C,R17*%
X97401142Y-110434380D02*
X97067809Y-109958190D01*
X96829714Y-110434380D02*
X96829714Y-109434380D01*
X97210666Y-109434380D01*
X97305904Y-109482000D01*
X97353523Y-109529619D01*
X97401142Y-109624857D01*
X97401142Y-109767714D01*
X97353523Y-109862952D01*
X97305904Y-109910571D01*
X97210666Y-109958190D01*
X96829714Y-109958190D01*
X98353523Y-110434380D02*
X97782095Y-110434380D01*
X98067809Y-110434380D02*
X98067809Y-109434380D01*
X97972571Y-109577238D01*
X97877333Y-109672476D01*
X97782095Y-109720095D01*
X98686857Y-109434380D02*
X99353523Y-109434380D01*
X98924952Y-110434380D01*
%TO.C,U10*%
X56951904Y-63522380D02*
X56951904Y-64331904D01*
X56999523Y-64427142D01*
X57047142Y-64474761D01*
X57142380Y-64522380D01*
X57332857Y-64522380D01*
X57428095Y-64474761D01*
X57475714Y-64427142D01*
X57523333Y-64331904D01*
X57523333Y-63522380D01*
X58523333Y-64522380D02*
X57951904Y-64522380D01*
X58237619Y-64522380D02*
X58237619Y-63522380D01*
X58142380Y-63665238D01*
X58047142Y-63760476D01*
X57951904Y-63808095D01*
X59142380Y-63522380D02*
X59237619Y-63522380D01*
X59332857Y-63570000D01*
X59380476Y-63617619D01*
X59428095Y-63712857D01*
X59475714Y-63903333D01*
X59475714Y-64141428D01*
X59428095Y-64331904D01*
X59380476Y-64427142D01*
X59332857Y-64474761D01*
X59237619Y-64522380D01*
X59142380Y-64522380D01*
X59047142Y-64474761D01*
X58999523Y-64427142D01*
X58951904Y-64331904D01*
X58904285Y-64141428D01*
X58904285Y-63903333D01*
X58951904Y-63712857D01*
X58999523Y-63617619D01*
X59047142Y-63570000D01*
X59142380Y-63522380D01*
%TO.C,R13*%
X73597142Y-96872380D02*
X73263809Y-96396190D01*
X73025714Y-96872380D02*
X73025714Y-95872380D01*
X73406666Y-95872380D01*
X73501904Y-95920000D01*
X73549523Y-95967619D01*
X73597142Y-96062857D01*
X73597142Y-96205714D01*
X73549523Y-96300952D01*
X73501904Y-96348571D01*
X73406666Y-96396190D01*
X73025714Y-96396190D01*
X74549523Y-96872380D02*
X73978095Y-96872380D01*
X74263809Y-96872380D02*
X74263809Y-95872380D01*
X74168571Y-96015238D01*
X74073333Y-96110476D01*
X73978095Y-96158095D01*
X74882857Y-95872380D02*
X75501904Y-95872380D01*
X75168571Y-96253333D01*
X75311428Y-96253333D01*
X75406666Y-96300952D01*
X75454285Y-96348571D01*
X75501904Y-96443809D01*
X75501904Y-96681904D01*
X75454285Y-96777142D01*
X75406666Y-96824761D01*
X75311428Y-96872380D01*
X75025714Y-96872380D01*
X74930476Y-96824761D01*
X74882857Y-96777142D01*
%TO.C,R2*%
X37753333Y-112170380D02*
X37420000Y-111694190D01*
X37181904Y-112170380D02*
X37181904Y-111170380D01*
X37562857Y-111170380D01*
X37658095Y-111218000D01*
X37705714Y-111265619D01*
X37753333Y-111360857D01*
X37753333Y-111503714D01*
X37705714Y-111598952D01*
X37658095Y-111646571D01*
X37562857Y-111694190D01*
X37181904Y-111694190D01*
X38134285Y-111265619D02*
X38181904Y-111218000D01*
X38277142Y-111170380D01*
X38515238Y-111170380D01*
X38610476Y-111218000D01*
X38658095Y-111265619D01*
X38705714Y-111360857D01*
X38705714Y-111456095D01*
X38658095Y-111598952D01*
X38086666Y-112170380D01*
X38705714Y-112170380D01*
%TO.C,U4*%
X42478296Y-79012380D02*
X42478296Y-79821904D01*
X42525915Y-79917142D01*
X42573534Y-79964761D01*
X42668772Y-80012380D01*
X42859248Y-80012380D01*
X42954486Y-79964761D01*
X43002105Y-79917142D01*
X43049724Y-79821904D01*
X43049724Y-79012380D01*
X43954486Y-79345714D02*
X43954486Y-80012380D01*
X43716391Y-78964761D02*
X43478296Y-79679047D01*
X44097343Y-79679047D01*
%TO.C,U7*%
X57428095Y-109242380D02*
X57428095Y-110051904D01*
X57475714Y-110147142D01*
X57523333Y-110194761D01*
X57618571Y-110242380D01*
X57809047Y-110242380D01*
X57904285Y-110194761D01*
X57951904Y-110147142D01*
X57999523Y-110051904D01*
X57999523Y-109242380D01*
X58380476Y-109242380D02*
X59047142Y-109242380D01*
X58618571Y-110242380D01*
%TO.C,U9*%
X57428095Y-78762380D02*
X57428095Y-79571904D01*
X57475714Y-79667142D01*
X57523333Y-79714761D01*
X57618571Y-79762380D01*
X57809047Y-79762380D01*
X57904285Y-79714761D01*
X57951904Y-79667142D01*
X57999523Y-79571904D01*
X57999523Y-78762380D01*
X58523333Y-79762380D02*
X58713809Y-79762380D01*
X58809047Y-79714761D01*
X58856666Y-79667142D01*
X58951904Y-79524285D01*
X58999523Y-79333809D01*
X58999523Y-78952857D01*
X58951904Y-78857619D01*
X58904285Y-78810000D01*
X58809047Y-78762380D01*
X58618571Y-78762380D01*
X58523333Y-78810000D01*
X58475714Y-78857619D01*
X58428095Y-78952857D01*
X58428095Y-79190952D01*
X58475714Y-79286190D01*
X58523333Y-79333809D01*
X58618571Y-79381428D01*
X58809047Y-79381428D01*
X58904285Y-79333809D01*
X58951904Y-79286190D01*
X58999523Y-79190952D01*
%TO.C,U1*%
X42478296Y-124732380D02*
X42478296Y-125541904D01*
X42525915Y-125637142D01*
X42573534Y-125684761D01*
X42668772Y-125732380D01*
X42859248Y-125732380D01*
X42954486Y-125684761D01*
X43002105Y-125637142D01*
X43049724Y-125541904D01*
X43049724Y-124732380D01*
X44049724Y-125732380D02*
X43478296Y-125732380D01*
X43764010Y-125732380D02*
X43764010Y-124732380D01*
X43668772Y-124875238D01*
X43573534Y-124970476D01*
X43478296Y-125018095D01*
%TO.C,R15*%
X73567142Y-66922380D02*
X73233809Y-66446190D01*
X72995714Y-66922380D02*
X72995714Y-65922380D01*
X73376666Y-65922380D01*
X73471904Y-65970000D01*
X73519523Y-66017619D01*
X73567142Y-66112857D01*
X73567142Y-66255714D01*
X73519523Y-66350952D01*
X73471904Y-66398571D01*
X73376666Y-66446190D01*
X72995714Y-66446190D01*
X74519523Y-66922380D02*
X73948095Y-66922380D01*
X74233809Y-66922380D02*
X74233809Y-65922380D01*
X74138571Y-66065238D01*
X74043333Y-66160476D01*
X73948095Y-66208095D01*
X75424285Y-65922380D02*
X74948095Y-65922380D01*
X74900476Y-66398571D01*
X74948095Y-66350952D01*
X75043333Y-66303333D01*
X75281428Y-66303333D01*
X75376666Y-66350952D01*
X75424285Y-66398571D01*
X75471904Y-66493809D01*
X75471904Y-66731904D01*
X75424285Y-66827142D01*
X75376666Y-66874761D01*
X75281428Y-66922380D01*
X75043333Y-66922380D01*
X74948095Y-66874761D01*
X74900476Y-66827142D01*
%TO.C,R14*%
X73627142Y-81712380D02*
X73293809Y-81236190D01*
X73055714Y-81712380D02*
X73055714Y-80712380D01*
X73436666Y-80712380D01*
X73531904Y-80760000D01*
X73579523Y-80807619D01*
X73627142Y-80902857D01*
X73627142Y-81045714D01*
X73579523Y-81140952D01*
X73531904Y-81188571D01*
X73436666Y-81236190D01*
X73055714Y-81236190D01*
X74579523Y-81712380D02*
X74008095Y-81712380D01*
X74293809Y-81712380D02*
X74293809Y-80712380D01*
X74198571Y-80855238D01*
X74103333Y-80950476D01*
X74008095Y-80998095D01*
X75436666Y-81045714D02*
X75436666Y-81712380D01*
X75198571Y-80664761D02*
X74960476Y-81379047D01*
X75579523Y-81379047D01*
%TO.C,U19*%
X92161904Y-78272380D02*
X92161904Y-79081904D01*
X92209523Y-79177142D01*
X92257142Y-79224761D01*
X92352380Y-79272380D01*
X92542857Y-79272380D01*
X92638095Y-79224761D01*
X92685714Y-79177142D01*
X92733333Y-79081904D01*
X92733333Y-78272380D01*
X93733333Y-79272380D02*
X93161904Y-79272380D01*
X93447619Y-79272380D02*
X93447619Y-78272380D01*
X93352380Y-78415238D01*
X93257142Y-78510476D01*
X93161904Y-78558095D01*
X94209523Y-79272380D02*
X94400000Y-79272380D01*
X94495238Y-79224761D01*
X94542857Y-79177142D01*
X94638095Y-79034285D01*
X94685714Y-78843809D01*
X94685714Y-78462857D01*
X94638095Y-78367619D01*
X94590476Y-78320000D01*
X94495238Y-78272380D01*
X94304761Y-78272380D01*
X94209523Y-78320000D01*
X94161904Y-78367619D01*
X94114285Y-78462857D01*
X94114285Y-78700952D01*
X94161904Y-78796190D01*
X94209523Y-78843809D01*
X94304761Y-78891428D01*
X94495238Y-78891428D01*
X94590476Y-78843809D01*
X94638095Y-78796190D01*
X94685714Y-78700952D01*
%TO.C,U11*%
X77654904Y-124703380D02*
X77654904Y-125512904D01*
X77702523Y-125608142D01*
X77750142Y-125655761D01*
X77845380Y-125703380D01*
X78035857Y-125703380D01*
X78131095Y-125655761D01*
X78178714Y-125608142D01*
X78226333Y-125512904D01*
X78226333Y-124703380D01*
X79226333Y-125703380D02*
X78654904Y-125703380D01*
X78940619Y-125703380D02*
X78940619Y-124703380D01*
X78845380Y-124846238D01*
X78750142Y-124941476D01*
X78654904Y-124989095D01*
X80178714Y-125703380D02*
X79607285Y-125703380D01*
X79893000Y-125703380D02*
X79893000Y-124703380D01*
X79797761Y-124846238D01*
X79702523Y-124941476D01*
X79607285Y-124989095D01*
%TO.C,R20*%
X97401142Y-66492380D02*
X97067809Y-66016190D01*
X96829714Y-66492380D02*
X96829714Y-65492380D01*
X97210666Y-65492380D01*
X97305904Y-65540000D01*
X97353523Y-65587619D01*
X97401142Y-65682857D01*
X97401142Y-65825714D01*
X97353523Y-65920952D01*
X97305904Y-65968571D01*
X97210666Y-66016190D01*
X96829714Y-66016190D01*
X97782095Y-65587619D02*
X97829714Y-65540000D01*
X97924952Y-65492380D01*
X98163047Y-65492380D01*
X98258285Y-65540000D01*
X98305904Y-65587619D01*
X98353523Y-65682857D01*
X98353523Y-65778095D01*
X98305904Y-65920952D01*
X97734476Y-66492380D01*
X98353523Y-66492380D01*
X98972571Y-65492380D02*
X99067809Y-65492380D01*
X99163047Y-65540000D01*
X99210666Y-65587619D01*
X99258285Y-65682857D01*
X99305904Y-65873333D01*
X99305904Y-66111428D01*
X99258285Y-66301904D01*
X99210666Y-66397142D01*
X99163047Y-66444761D01*
X99067809Y-66492380D01*
X98972571Y-66492380D01*
X98877333Y-66444761D01*
X98829714Y-66397142D01*
X98782095Y-66301904D01*
X98734476Y-66111428D01*
X98734476Y-65873333D01*
X98782095Y-65682857D01*
X98829714Y-65587619D01*
X98877333Y-65540000D01*
X98972571Y-65492380D01*
%TO.C,R18*%
X97401142Y-96464380D02*
X97067809Y-95988190D01*
X96829714Y-96464380D02*
X96829714Y-95464380D01*
X97210666Y-95464380D01*
X97305904Y-95512000D01*
X97353523Y-95559619D01*
X97401142Y-95654857D01*
X97401142Y-95797714D01*
X97353523Y-95892952D01*
X97305904Y-95940571D01*
X97210666Y-95988190D01*
X96829714Y-95988190D01*
X98353523Y-96464380D02*
X97782095Y-96464380D01*
X98067809Y-96464380D02*
X98067809Y-95464380D01*
X97972571Y-95607238D01*
X97877333Y-95702476D01*
X97782095Y-95750095D01*
X98924952Y-95892952D02*
X98829714Y-95845333D01*
X98782095Y-95797714D01*
X98734476Y-95702476D01*
X98734476Y-95654857D01*
X98782095Y-95559619D01*
X98829714Y-95512000D01*
X98924952Y-95464380D01*
X99115428Y-95464380D01*
X99210666Y-95512000D01*
X99258285Y-95559619D01*
X99305904Y-95654857D01*
X99305904Y-95702476D01*
X99258285Y-95797714D01*
X99210666Y-95845333D01*
X99115428Y-95892952D01*
X98924952Y-95892952D01*
X98829714Y-95940571D01*
X98782095Y-95988190D01*
X98734476Y-96083428D01*
X98734476Y-96273904D01*
X98782095Y-96369142D01*
X98829714Y-96416761D01*
X98924952Y-96464380D01*
X99115428Y-96464380D01*
X99210666Y-96416761D01*
X99258285Y-96369142D01*
X99305904Y-96273904D01*
X99305904Y-96083428D01*
X99258285Y-95988190D01*
X99210666Y-95940571D01*
X99115428Y-95892952D01*
D12*
%TO.C,J4*%
X41088000Y-150682000D02*
X41088000Y-149352000D01*
X42418000Y-150682000D02*
X41088000Y-150682000D01*
X43688000Y-150682000D02*
X43688000Y-148022000D01*
X43688000Y-148022000D02*
X71688000Y-148022000D01*
X43688000Y-150682000D02*
X71688000Y-150682000D01*
X71688000Y-150682000D02*
X71688000Y-148022000D01*
%TO.C,J3*%
X102740000Y-145610000D02*
X101410000Y-145610000D01*
X102740000Y-144280000D02*
X102740000Y-145610000D01*
X102740000Y-143010000D02*
X100080000Y-143010000D01*
X100080000Y-143010000D02*
X100080000Y-127710000D01*
X102740000Y-143010000D02*
X102740000Y-127710000D01*
X102740000Y-127710000D02*
X100080000Y-127710000D01*
%TO.C,R6*%
X66802000Y-121896000D02*
X66802000Y-121126000D01*
X65432000Y-114586000D02*
X65432000Y-121126000D01*
X68172000Y-121126000D02*
X68172000Y-114586000D01*
X66802000Y-113816000D02*
X66802000Y-114586000D01*
X65432000Y-121126000D02*
X68172000Y-121126000D01*
X68172000Y-114586000D02*
X65432000Y-114586000D01*
%TO.C,R10*%
X66802000Y-65000000D02*
X66802000Y-64230000D01*
X65432000Y-57690000D02*
X65432000Y-64230000D01*
X68172000Y-64230000D02*
X68172000Y-57690000D01*
X66802000Y-56920000D02*
X66802000Y-57690000D01*
X65432000Y-64230000D02*
X68172000Y-64230000D01*
X68172000Y-57690000D02*
X65432000Y-57690000D01*
%TO.C,R1*%
X35372201Y-115594000D02*
X35372201Y-116364000D01*
X36742201Y-122904000D02*
X36742201Y-116364000D01*
X34002201Y-116364000D02*
X34002201Y-122904000D01*
X35372201Y-123674000D02*
X35372201Y-122904000D01*
X36742201Y-116364000D02*
X34002201Y-116364000D01*
X34002201Y-122904000D02*
X36742201Y-122904000D01*
%TO.C,R8*%
X66802000Y-94718000D02*
X66802000Y-93948000D01*
X65432000Y-87408000D02*
X65432000Y-93948000D01*
X68172000Y-93948000D02*
X68172000Y-87408000D01*
X66802000Y-86638000D02*
X66802000Y-87408000D01*
X65432000Y-93948000D02*
X68172000Y-93948000D01*
X68172000Y-87408000D02*
X65432000Y-87408000D01*
%TO.C,J1*%
X35550000Y-130460000D02*
X34220000Y-130460000D01*
X36820000Y-130460000D02*
X95300000Y-130460000D01*
X34220000Y-130460000D02*
X34220000Y-129130000D01*
X95300000Y-130460000D02*
X95300000Y-127800000D01*
X36820000Y-127800000D02*
X95300000Y-127800000D01*
X36820000Y-130460000D02*
X36820000Y-127800000D01*
%TO.C,J2*%
X35550000Y-145610000D02*
X34220000Y-145610000D01*
X36820000Y-145610000D02*
X95300000Y-145610000D01*
X34220000Y-145610000D02*
X34220000Y-144280000D01*
X95300000Y-145610000D02*
X95300000Y-142950000D01*
X36820000Y-142950000D02*
X95300000Y-142950000D01*
X36820000Y-145610000D02*
X36820000Y-142950000D01*
%TO.C,R4*%
X35372201Y-72160000D02*
X35372201Y-72930000D01*
X36742201Y-79470000D02*
X36742201Y-72930000D01*
X34002201Y-72930000D02*
X34002201Y-79470000D01*
X35372201Y-80240000D02*
X35372201Y-79470000D01*
X36742201Y-72930000D02*
X34002201Y-72930000D01*
X34002201Y-79470000D02*
X36742201Y-79470000D01*
%TO.C,R16*%
X101346000Y-121642000D02*
X101346000Y-120872000D01*
X99976000Y-114332000D02*
X99976000Y-120872000D01*
X102716000Y-120872000D02*
X102716000Y-114332000D01*
X101346000Y-113562000D02*
X101346000Y-114332000D01*
X99976000Y-120872000D02*
X102716000Y-120872000D01*
X102716000Y-114332000D02*
X99976000Y-114332000D01*
%TO.C,R19*%
X101346000Y-79503181D02*
X101346000Y-78733181D01*
X99976000Y-72193181D02*
X99976000Y-78733181D01*
X102716000Y-78733181D02*
X102716000Y-72193181D01*
X101346000Y-71423181D02*
X101346000Y-72193181D01*
X99976000Y-78733181D02*
X102716000Y-78733181D01*
X102716000Y-72193181D02*
X99976000Y-72193181D01*
%TO.C,R5*%
X35372201Y-56920000D02*
X35372201Y-57690000D01*
X36742201Y-64230000D02*
X36742201Y-57690000D01*
X34002201Y-57690000D02*
X34002201Y-64230000D01*
X35372201Y-65000000D02*
X35372201Y-64230000D01*
X36742201Y-57690000D02*
X34002201Y-57690000D01*
X34002201Y-64230000D02*
X36742201Y-64230000D01*
%TO.C,R12*%
X71120000Y-100404800D02*
X71120000Y-101174800D01*
X72490000Y-107714800D02*
X72490000Y-101174800D01*
X69750000Y-101174800D02*
X69750000Y-107714800D01*
X71120000Y-108484800D02*
X71120000Y-107714800D01*
X72490000Y-101174800D02*
X69750000Y-101174800D01*
X69750000Y-107714800D02*
X72490000Y-107714800D01*
%TO.C,R11*%
X71120000Y-113866800D02*
X71120000Y-114636800D01*
X72490000Y-121176800D02*
X72490000Y-114636800D01*
X69750000Y-114636800D02*
X69750000Y-121176800D01*
X71120000Y-121946800D02*
X71120000Y-121176800D01*
X72490000Y-114636800D02*
X69750000Y-114636800D01*
X69750000Y-121176800D02*
X72490000Y-121176800D01*
%TO.C,R9*%
X66802000Y-79732000D02*
X66802000Y-78962000D01*
X65432000Y-72422000D02*
X65432000Y-78962000D01*
X68172000Y-78962000D02*
X68172000Y-72422000D01*
X66802000Y-71652000D02*
X66802000Y-72422000D01*
X65432000Y-78962000D02*
X68172000Y-78962000D01*
X68172000Y-72422000D02*
X65432000Y-72422000D01*
%TO.C,R7*%
X66802000Y-108434000D02*
X66802000Y-107664000D01*
X65432000Y-101124000D02*
X65432000Y-107664000D01*
X68172000Y-107664000D02*
X68172000Y-101124000D01*
X66802000Y-100354000D02*
X66802000Y-101124000D01*
X65432000Y-107664000D02*
X68172000Y-107664000D01*
X68172000Y-101124000D02*
X65432000Y-101124000D01*
%TO.C,R3*%
X35372201Y-87400000D02*
X35372201Y-88170000D01*
X36742201Y-94710000D02*
X36742201Y-88170000D01*
X34002201Y-88170000D02*
X34002201Y-94710000D01*
X35372201Y-95480000D02*
X35372201Y-94710000D01*
X36742201Y-88170000D02*
X34002201Y-88170000D01*
X34002201Y-94710000D02*
X36742201Y-94710000D01*
%TO.C,R17*%
X101346000Y-108716737D02*
X101346000Y-107946737D01*
X99976000Y-101406737D02*
X99976000Y-107946737D01*
X102716000Y-107946737D02*
X102716000Y-101406737D01*
X101346000Y-100636737D02*
X101346000Y-101406737D01*
X99976000Y-107946737D02*
X102716000Y-107946737D01*
X102716000Y-101406737D02*
X99976000Y-101406737D01*
%TO.C,R13*%
X71120000Y-86638000D02*
X71120000Y-87408000D01*
X72490000Y-93948000D02*
X72490000Y-87408000D01*
X69750000Y-87408000D02*
X69750000Y-93948000D01*
X71120000Y-94718000D02*
X71120000Y-93948000D01*
X72490000Y-87408000D02*
X69750000Y-87408000D01*
X69750000Y-93948000D02*
X72490000Y-93948000D01*
%TO.C,R2*%
X35372201Y-102132000D02*
X35372201Y-102902000D01*
X36742201Y-109442000D02*
X36742201Y-102902000D01*
X34002201Y-102902000D02*
X34002201Y-109442000D01*
X35372201Y-110212000D02*
X35372201Y-109442000D01*
X36742201Y-102902000D02*
X34002201Y-102902000D01*
X34002201Y-109442000D02*
X36742201Y-109442000D01*
%TO.C,R15*%
X71120000Y-56920000D02*
X71120000Y-57690000D01*
X72490000Y-64230000D02*
X72490000Y-57690000D01*
X69750000Y-57690000D02*
X69750000Y-64230000D01*
X71120000Y-65000000D02*
X71120000Y-64230000D01*
X72490000Y-57690000D02*
X69750000Y-57690000D01*
X69750000Y-64230000D02*
X72490000Y-64230000D01*
%TO.C,R14*%
X71120000Y-71652000D02*
X71120000Y-72422000D01*
X72490000Y-78962000D02*
X72490000Y-72422000D01*
X69750000Y-72422000D02*
X69750000Y-78962000D01*
X71120000Y-79732000D02*
X71120000Y-78962000D01*
X72490000Y-72422000D02*
X69750000Y-72422000D01*
X69750000Y-78962000D02*
X72490000Y-78962000D01*
%TO.C,R20*%
X101346000Y-64795388D02*
X101346000Y-64025388D01*
X99976000Y-57485388D02*
X99976000Y-64025388D01*
X102716000Y-64025388D02*
X102716000Y-57485388D01*
X101346000Y-56715388D02*
X101346000Y-57485388D01*
X99976000Y-64025388D02*
X102716000Y-64025388D01*
X102716000Y-57485388D02*
X99976000Y-57485388D01*
%TO.C,R18*%
X101396800Y-94981611D02*
X101396800Y-94211611D01*
X100026800Y-87671611D02*
X100026800Y-94211611D01*
X102766800Y-94211611D02*
X102766800Y-87671611D01*
X101396800Y-86901611D02*
X101396800Y-87671611D01*
X100026800Y-94211611D02*
X102766800Y-94211611D01*
X102766800Y-87671611D02*
X100026800Y-87671611D01*
%TD*%
M02*
