%TF.GenerationSoftware,KiCad,Pcbnew,(5.99.0-2415-gbbdd3fce7)*%
%TF.CreationDate,2020-09-24T22:56:08-07:00*%
%TF.ProjectId,BubblePCB_20,42756262-6c65-4504-9342-5f32302e6b69,rev?*%
%TF.SameCoordinates,Original*%
%TF.FileFunction,Soldermask,Top*%
%TF.FilePolarity,Negative*%
%FSLAX46Y46*%
G04 Gerber Fmt 4.6, Leading zero omitted, Abs format (unit mm)*
G04 Created by KiCad (PCBNEW (5.99.0-2415-gbbdd3fce7)) date 2020-09-24 22:56:08*
%MOMM*%
%LPD*%
G01*
G04 APERTURE LIST*
%ADD10O,1.801600X1.801600*%
%ADD11C,5.701600*%
%ADD12C,1.701600*%
%ADD13O,1.701600X1.701600*%
G04 APERTURE END LIST*
D10*
%TO.C,J4*%
X70358000Y-149352000D03*
X67818000Y-149352000D03*
X65278000Y-149352000D03*
X62738000Y-149352000D03*
X60198000Y-149352000D03*
X57658000Y-149352000D03*
X55118000Y-149352000D03*
X52578000Y-149352000D03*
X50038000Y-149352000D03*
X47498000Y-149352000D03*
X44958000Y-149352000D03*
G36*
G01*
X43264964Y-150252800D02*
X41571036Y-150252800D01*
G75*
G02*
X41517200Y-150198964I0J53836D01*
G01*
X41517200Y-148505036D01*
G75*
G02*
X41571036Y-148451200I53836J0D01*
G01*
X43264964Y-148451200D01*
G75*
G02*
X43318800Y-148505036I0J-53836D01*
G01*
X43318800Y-150198964D01*
G75*
G02*
X43264964Y-150252800I-53836J0D01*
G01*
G37*
%TD*%
%TO.C,J3*%
X101410000Y-129040000D03*
X101410000Y-131580000D03*
X101410000Y-134120000D03*
X101410000Y-136660000D03*
X101410000Y-139200000D03*
X101410000Y-141740000D03*
G36*
G01*
X102310800Y-143433036D02*
X102310800Y-145126964D01*
G75*
G02*
X102256964Y-145180800I-53836J0D01*
G01*
X100563036Y-145180800D01*
G75*
G02*
X100509200Y-145126964I0J53836D01*
G01*
X100509200Y-143433036D01*
G75*
G02*
X100563036Y-143379200I53836J0D01*
G01*
X102256964Y-143379200D01*
G75*
G02*
X102310800Y-143433036I0J-53836D01*
G01*
G37*
%TD*%
D11*
%TO.C,REF\u002A\u002A*%
X51250000Y-66548000D03*
%TD*%
%TO.C,REF\u002A\u002A*%
X86683000Y-66548000D03*
%TD*%
%TO.C,REF\u002A\u002A*%
X97790000Y-149500000D03*
%TD*%
%TO.C,a*%
X35500000Y-149500000D03*
%TD*%
D12*
%TO.C,R6*%
X66802000Y-122936000D03*
D13*
X66802000Y-112776000D03*
%TD*%
%TO.C,U15*%
G36*
G01*
X74740060Y-61756800D02*
X73005940Y-61756800D01*
G75*
G02*
X72947200Y-61698060I0J58740D01*
G01*
X72947200Y-61063940D01*
G75*
G02*
X73005940Y-61005200I58740J0D01*
G01*
X74740060Y-61005200D01*
G75*
G02*
X74798800Y-61063940I0J-58740D01*
G01*
X74798800Y-61698060D01*
G75*
G02*
X74740060Y-61756800I-58740J0D01*
G01*
G37*
G36*
G01*
X74740060Y-59216800D02*
X73005940Y-59216800D01*
G75*
G02*
X72947200Y-59158060I0J58740D01*
G01*
X72947200Y-58523940D01*
G75*
G02*
X73005940Y-58465200I58740J0D01*
G01*
X74740060Y-58465200D01*
G75*
G02*
X74798800Y-58523940I0J-58740D01*
G01*
X74798800Y-59158060D01*
G75*
G02*
X74740060Y-59216800I-58740J0D01*
G01*
G37*
G36*
G01*
X74740060Y-56676800D02*
X73005940Y-56676800D01*
G75*
G02*
X72947200Y-56618060I0J58740D01*
G01*
X72947200Y-55983940D01*
G75*
G02*
X73005940Y-55925200I58740J0D01*
G01*
X74740060Y-55925200D01*
G75*
G02*
X74798800Y-55983940I0J-58740D01*
G01*
X74798800Y-56618060D01*
G75*
G02*
X74740060Y-56676800I-58740J0D01*
G01*
G37*
G36*
G01*
X85340060Y-56676800D02*
X83605940Y-56676800D01*
G75*
G02*
X83547200Y-56618060I0J58740D01*
G01*
X83547200Y-55983940D01*
G75*
G02*
X83605940Y-55925200I58740J0D01*
G01*
X85340060Y-55925200D01*
G75*
G02*
X85398800Y-55983940I0J-58740D01*
G01*
X85398800Y-56618060D01*
G75*
G02*
X85340060Y-56676800I-58740J0D01*
G01*
G37*
G36*
G01*
X85340060Y-59216800D02*
X83605940Y-59216800D01*
G75*
G02*
X83547200Y-59158060I0J58740D01*
G01*
X83547200Y-58523940D01*
G75*
G02*
X83605940Y-58465200I58740J0D01*
G01*
X85340060Y-58465200D01*
G75*
G02*
X85398800Y-58523940I0J-58740D01*
G01*
X85398800Y-59158060D01*
G75*
G02*
X85340060Y-59216800I-58740J0D01*
G01*
G37*
G36*
G01*
X85340060Y-61756800D02*
X83605940Y-61756800D01*
G75*
G02*
X83547200Y-61698060I0J58740D01*
G01*
X83547200Y-61063940D01*
G75*
G02*
X83605940Y-61005200I58740J0D01*
G01*
X85340060Y-61005200D01*
G75*
G02*
X85398800Y-61063940I0J-58740D01*
G01*
X85398800Y-61698060D01*
G75*
G02*
X85340060Y-61756800I-58740J0D01*
G01*
G37*
%TD*%
%TO.C,U13*%
G36*
G01*
X74750060Y-92196800D02*
X73015940Y-92196800D01*
G75*
G02*
X72957200Y-92138060I0J58740D01*
G01*
X72957200Y-91503940D01*
G75*
G02*
X73015940Y-91445200I58740J0D01*
G01*
X74750060Y-91445200D01*
G75*
G02*
X74808800Y-91503940I0J-58740D01*
G01*
X74808800Y-92138060D01*
G75*
G02*
X74750060Y-92196800I-58740J0D01*
G01*
G37*
G36*
G01*
X74750060Y-89656800D02*
X73015940Y-89656800D01*
G75*
G02*
X72957200Y-89598060I0J58740D01*
G01*
X72957200Y-88963940D01*
G75*
G02*
X73015940Y-88905200I58740J0D01*
G01*
X74750060Y-88905200D01*
G75*
G02*
X74808800Y-88963940I0J-58740D01*
G01*
X74808800Y-89598060D01*
G75*
G02*
X74750060Y-89656800I-58740J0D01*
G01*
G37*
G36*
G01*
X74750060Y-87116800D02*
X73015940Y-87116800D01*
G75*
G02*
X72957200Y-87058060I0J58740D01*
G01*
X72957200Y-86423940D01*
G75*
G02*
X73015940Y-86365200I58740J0D01*
G01*
X74750060Y-86365200D01*
G75*
G02*
X74808800Y-86423940I0J-58740D01*
G01*
X74808800Y-87058060D01*
G75*
G02*
X74750060Y-87116800I-58740J0D01*
G01*
G37*
G36*
G01*
X85350060Y-87116800D02*
X83615940Y-87116800D01*
G75*
G02*
X83557200Y-87058060I0J58740D01*
G01*
X83557200Y-86423940D01*
G75*
G02*
X83615940Y-86365200I58740J0D01*
G01*
X85350060Y-86365200D01*
G75*
G02*
X85408800Y-86423940I0J-58740D01*
G01*
X85408800Y-87058060D01*
G75*
G02*
X85350060Y-87116800I-58740J0D01*
G01*
G37*
G36*
G01*
X85350060Y-89656800D02*
X83615940Y-89656800D01*
G75*
G02*
X83557200Y-89598060I0J58740D01*
G01*
X83557200Y-88963940D01*
G75*
G02*
X83615940Y-88905200I58740J0D01*
G01*
X85350060Y-88905200D01*
G75*
G02*
X85408800Y-88963940I0J-58740D01*
G01*
X85408800Y-89598060D01*
G75*
G02*
X85350060Y-89656800I-58740J0D01*
G01*
G37*
G36*
G01*
X85350060Y-92196800D02*
X83615940Y-92196800D01*
G75*
G02*
X83557200Y-92138060I0J58740D01*
G01*
X83557200Y-91503940D01*
G75*
G02*
X83615940Y-91445200I58740J0D01*
G01*
X85350060Y-91445200D01*
G75*
G02*
X85408800Y-91503940I0J-58740D01*
G01*
X85408800Y-92138060D01*
G75*
G02*
X85350060Y-92196800I-58740J0D01*
G01*
G37*
%TD*%
%TO.C,U8*%
G36*
G01*
X63132940Y-86324200D02*
X64867060Y-86324200D01*
G75*
G02*
X64925800Y-86382940I0J-58740D01*
G01*
X64925800Y-87017060D01*
G75*
G02*
X64867060Y-87075800I-58740J0D01*
G01*
X63132940Y-87075800D01*
G75*
G02*
X63074200Y-87017060I0J58740D01*
G01*
X63074200Y-86382940D01*
G75*
G02*
X63132940Y-86324200I58740J0D01*
G01*
G37*
G36*
G01*
X63132940Y-88864200D02*
X64867060Y-88864200D01*
G75*
G02*
X64925800Y-88922940I0J-58740D01*
G01*
X64925800Y-89557060D01*
G75*
G02*
X64867060Y-89615800I-58740J0D01*
G01*
X63132940Y-89615800D01*
G75*
G02*
X63074200Y-89557060I0J58740D01*
G01*
X63074200Y-88922940D01*
G75*
G02*
X63132940Y-88864200I58740J0D01*
G01*
G37*
G36*
G01*
X63132940Y-91404200D02*
X64867060Y-91404200D01*
G75*
G02*
X64925800Y-91462940I0J-58740D01*
G01*
X64925800Y-92097060D01*
G75*
G02*
X64867060Y-92155800I-58740J0D01*
G01*
X63132940Y-92155800D01*
G75*
G02*
X63074200Y-92097060I0J58740D01*
G01*
X63074200Y-91462940D01*
G75*
G02*
X63132940Y-91404200I58740J0D01*
G01*
G37*
G36*
G01*
X52532940Y-91404200D02*
X54267060Y-91404200D01*
G75*
G02*
X54325800Y-91462940I0J-58740D01*
G01*
X54325800Y-92097060D01*
G75*
G02*
X54267060Y-92155800I-58740J0D01*
G01*
X52532940Y-92155800D01*
G75*
G02*
X52474200Y-92097060I0J58740D01*
G01*
X52474200Y-91462940D01*
G75*
G02*
X52532940Y-91404200I58740J0D01*
G01*
G37*
G36*
G01*
X52532940Y-88864200D02*
X54267060Y-88864200D01*
G75*
G02*
X54325800Y-88922940I0J-58740D01*
G01*
X54325800Y-89557060D01*
G75*
G02*
X54267060Y-89615800I-58740J0D01*
G01*
X52532940Y-89615800D01*
G75*
G02*
X52474200Y-89557060I0J58740D01*
G01*
X52474200Y-88922940D01*
G75*
G02*
X52532940Y-88864200I58740J0D01*
G01*
G37*
G36*
G01*
X52532940Y-86324200D02*
X54267060Y-86324200D01*
G75*
G02*
X54325800Y-86382940I0J-58740D01*
G01*
X54325800Y-87017060D01*
G75*
G02*
X54267060Y-87075800I-58740J0D01*
G01*
X52532940Y-87075800D01*
G75*
G02*
X52474200Y-87017060I0J58740D01*
G01*
X52474200Y-86382940D01*
G75*
G02*
X52532940Y-86324200I58740J0D01*
G01*
G37*
%TD*%
D12*
%TO.C,R10*%
X66802000Y-66040000D03*
D13*
X66802000Y-55880000D03*
%TD*%
%TO.C,U14*%
G36*
G01*
X74740060Y-76996800D02*
X73005940Y-76996800D01*
G75*
G02*
X72947200Y-76938060I0J58740D01*
G01*
X72947200Y-76303940D01*
G75*
G02*
X73005940Y-76245200I58740J0D01*
G01*
X74740060Y-76245200D01*
G75*
G02*
X74798800Y-76303940I0J-58740D01*
G01*
X74798800Y-76938060D01*
G75*
G02*
X74740060Y-76996800I-58740J0D01*
G01*
G37*
G36*
G01*
X74740060Y-74456800D02*
X73005940Y-74456800D01*
G75*
G02*
X72947200Y-74398060I0J58740D01*
G01*
X72947200Y-73763940D01*
G75*
G02*
X73005940Y-73705200I58740J0D01*
G01*
X74740060Y-73705200D01*
G75*
G02*
X74798800Y-73763940I0J-58740D01*
G01*
X74798800Y-74398060D01*
G75*
G02*
X74740060Y-74456800I-58740J0D01*
G01*
G37*
G36*
G01*
X74740060Y-71916800D02*
X73005940Y-71916800D01*
G75*
G02*
X72947200Y-71858060I0J58740D01*
G01*
X72947200Y-71223940D01*
G75*
G02*
X73005940Y-71165200I58740J0D01*
G01*
X74740060Y-71165200D01*
G75*
G02*
X74798800Y-71223940I0J-58740D01*
G01*
X74798800Y-71858060D01*
G75*
G02*
X74740060Y-71916800I-58740J0D01*
G01*
G37*
G36*
G01*
X85340060Y-71916800D02*
X83605940Y-71916800D01*
G75*
G02*
X83547200Y-71858060I0J58740D01*
G01*
X83547200Y-71223940D01*
G75*
G02*
X83605940Y-71165200I58740J0D01*
G01*
X85340060Y-71165200D01*
G75*
G02*
X85398800Y-71223940I0J-58740D01*
G01*
X85398800Y-71858060D01*
G75*
G02*
X85340060Y-71916800I-58740J0D01*
G01*
G37*
G36*
G01*
X85340060Y-74456800D02*
X83605940Y-74456800D01*
G75*
G02*
X83547200Y-74398060I0J58740D01*
G01*
X83547200Y-73763940D01*
G75*
G02*
X83605940Y-73705200I58740J0D01*
G01*
X85340060Y-73705200D01*
G75*
G02*
X85398800Y-73763940I0J-58740D01*
G01*
X85398800Y-74398060D01*
G75*
G02*
X85340060Y-74456800I-58740J0D01*
G01*
G37*
G36*
G01*
X85340060Y-76996800D02*
X83605940Y-76996800D01*
G75*
G02*
X83547200Y-76938060I0J58740D01*
G01*
X83547200Y-76303940D01*
G75*
G02*
X83605940Y-76245200I58740J0D01*
G01*
X85340060Y-76245200D01*
G75*
G02*
X85398800Y-76303940I0J-58740D01*
G01*
X85398800Y-76938060D01*
G75*
G02*
X85340060Y-76996800I-58740J0D01*
G01*
G37*
%TD*%
D12*
%TO.C,R1*%
X35372201Y-114554000D03*
D13*
X35372201Y-124714000D03*
%TD*%
D12*
%TO.C,R8*%
X66802000Y-95758000D03*
D13*
X66802000Y-85598000D03*
%TD*%
%TO.C,J1*%
G36*
G01*
X36396964Y-130030800D02*
X34703036Y-130030800D01*
G75*
G02*
X34649200Y-129976964I0J53836D01*
G01*
X34649200Y-128283036D01*
G75*
G02*
X34703036Y-128229200I53836J0D01*
G01*
X36396964Y-128229200D01*
G75*
G02*
X36450800Y-128283036I0J-53836D01*
G01*
X36450800Y-129976964D01*
G75*
G02*
X36396964Y-130030800I-53836J0D01*
G01*
G37*
D10*
X38090000Y-129130000D03*
X40630000Y-129130000D03*
X43170000Y-129130000D03*
X45710000Y-129130000D03*
X48250000Y-129130000D03*
X50790000Y-129130000D03*
X53330000Y-129130000D03*
X55870000Y-129130000D03*
X58410000Y-129130000D03*
X60950000Y-129130000D03*
X63490000Y-129130000D03*
X66030000Y-129130000D03*
X68570000Y-129130000D03*
X71110000Y-129130000D03*
X73650000Y-129130000D03*
X76190000Y-129130000D03*
X78730000Y-129130000D03*
X81270000Y-129130000D03*
X83810000Y-129130000D03*
X86350000Y-129130000D03*
X88890000Y-129130000D03*
X91430000Y-129130000D03*
X93970000Y-129130000D03*
%TD*%
%TO.C,J2*%
G36*
G01*
X36396964Y-145180800D02*
X34703036Y-145180800D01*
G75*
G02*
X34649200Y-145126964I0J53836D01*
G01*
X34649200Y-143433036D01*
G75*
G02*
X34703036Y-143379200I53836J0D01*
G01*
X36396964Y-143379200D01*
G75*
G02*
X36450800Y-143433036I0J-53836D01*
G01*
X36450800Y-145126964D01*
G75*
G02*
X36396964Y-145180800I-53836J0D01*
G01*
G37*
X38090000Y-144280000D03*
X40630000Y-144280000D03*
X43170000Y-144280000D03*
X45710000Y-144280000D03*
X48250000Y-144280000D03*
X50790000Y-144280000D03*
X53330000Y-144280000D03*
X55870000Y-144280000D03*
X58410000Y-144280000D03*
X60950000Y-144280000D03*
X63490000Y-144280000D03*
X66030000Y-144280000D03*
X68570000Y-144280000D03*
X71110000Y-144280000D03*
X73650000Y-144280000D03*
X76190000Y-144280000D03*
X78730000Y-144280000D03*
X81270000Y-144280000D03*
X83810000Y-144280000D03*
X86350000Y-144280000D03*
X88890000Y-144280000D03*
X91430000Y-144280000D03*
X93970000Y-144280000D03*
%TD*%
D12*
%TO.C,R4*%
X35372201Y-71120000D03*
D13*
X35372201Y-81280000D03*
%TD*%
%TO.C,U18*%
G36*
G01*
X97872940Y-86244200D02*
X99607060Y-86244200D01*
G75*
G02*
X99665800Y-86302940I0J-58740D01*
G01*
X99665800Y-86937060D01*
G75*
G02*
X99607060Y-86995800I-58740J0D01*
G01*
X97872940Y-86995800D01*
G75*
G02*
X97814200Y-86937060I0J58740D01*
G01*
X97814200Y-86302940D01*
G75*
G02*
X97872940Y-86244200I58740J0D01*
G01*
G37*
G36*
G01*
X97872940Y-88784200D02*
X99607060Y-88784200D01*
G75*
G02*
X99665800Y-88842940I0J-58740D01*
G01*
X99665800Y-89477060D01*
G75*
G02*
X99607060Y-89535800I-58740J0D01*
G01*
X97872940Y-89535800D01*
G75*
G02*
X97814200Y-89477060I0J58740D01*
G01*
X97814200Y-88842940D01*
G75*
G02*
X97872940Y-88784200I58740J0D01*
G01*
G37*
G36*
G01*
X97872940Y-91324200D02*
X99607060Y-91324200D01*
G75*
G02*
X99665800Y-91382940I0J-58740D01*
G01*
X99665800Y-92017060D01*
G75*
G02*
X99607060Y-92075800I-58740J0D01*
G01*
X97872940Y-92075800D01*
G75*
G02*
X97814200Y-92017060I0J58740D01*
G01*
X97814200Y-91382940D01*
G75*
G02*
X97872940Y-91324200I58740J0D01*
G01*
G37*
G36*
G01*
X87272940Y-91324200D02*
X89007060Y-91324200D01*
G75*
G02*
X89065800Y-91382940I0J-58740D01*
G01*
X89065800Y-92017060D01*
G75*
G02*
X89007060Y-92075800I-58740J0D01*
G01*
X87272940Y-92075800D01*
G75*
G02*
X87214200Y-92017060I0J58740D01*
G01*
X87214200Y-91382940D01*
G75*
G02*
X87272940Y-91324200I58740J0D01*
G01*
G37*
G36*
G01*
X87272940Y-88784200D02*
X89007060Y-88784200D01*
G75*
G02*
X89065800Y-88842940I0J-58740D01*
G01*
X89065800Y-89477060D01*
G75*
G02*
X89007060Y-89535800I-58740J0D01*
G01*
X87272940Y-89535800D01*
G75*
G02*
X87214200Y-89477060I0J58740D01*
G01*
X87214200Y-88842940D01*
G75*
G02*
X87272940Y-88784200I58740J0D01*
G01*
G37*
G36*
G01*
X87272940Y-86244200D02*
X89007060Y-86244200D01*
G75*
G02*
X89065800Y-86302940I0J-58740D01*
G01*
X89065800Y-86937060D01*
G75*
G02*
X89007060Y-86995800I-58740J0D01*
G01*
X87272940Y-86995800D01*
G75*
G02*
X87214200Y-86937060I0J58740D01*
G01*
X87214200Y-86302940D01*
G75*
G02*
X87272940Y-86244200I58740J0D01*
G01*
G37*
%TD*%
%TO.C,U3*%
G36*
G01*
X39097261Y-92225800D02*
X37363141Y-92225800D01*
G75*
G02*
X37304401Y-92167060I0J58740D01*
G01*
X37304401Y-91532940D01*
G75*
G02*
X37363141Y-91474200I58740J0D01*
G01*
X39097261Y-91474200D01*
G75*
G02*
X39156001Y-91532940I0J-58740D01*
G01*
X39156001Y-92167060D01*
G75*
G02*
X39097261Y-92225800I-58740J0D01*
G01*
G37*
G36*
G01*
X39097261Y-89685800D02*
X37363141Y-89685800D01*
G75*
G02*
X37304401Y-89627060I0J58740D01*
G01*
X37304401Y-88992940D01*
G75*
G02*
X37363141Y-88934200I58740J0D01*
G01*
X39097261Y-88934200D01*
G75*
G02*
X39156001Y-88992940I0J-58740D01*
G01*
X39156001Y-89627060D01*
G75*
G02*
X39097261Y-89685800I-58740J0D01*
G01*
G37*
G36*
G01*
X39097261Y-87145800D02*
X37363141Y-87145800D01*
G75*
G02*
X37304401Y-87087060I0J58740D01*
G01*
X37304401Y-86452940D01*
G75*
G02*
X37363141Y-86394200I58740J0D01*
G01*
X39097261Y-86394200D01*
G75*
G02*
X39156001Y-86452940I0J-58740D01*
G01*
X39156001Y-87087060D01*
G75*
G02*
X39097261Y-87145800I-58740J0D01*
G01*
G37*
G36*
G01*
X49697261Y-87145800D02*
X47963141Y-87145800D01*
G75*
G02*
X47904401Y-87087060I0J58740D01*
G01*
X47904401Y-86452940D01*
G75*
G02*
X47963141Y-86394200I58740J0D01*
G01*
X49697261Y-86394200D01*
G75*
G02*
X49756001Y-86452940I0J-58740D01*
G01*
X49756001Y-87087060D01*
G75*
G02*
X49697261Y-87145800I-58740J0D01*
G01*
G37*
G36*
G01*
X49697261Y-89685800D02*
X47963141Y-89685800D01*
G75*
G02*
X47904401Y-89627060I0J58740D01*
G01*
X47904401Y-88992940D01*
G75*
G02*
X47963141Y-88934200I58740J0D01*
G01*
X49697261Y-88934200D01*
G75*
G02*
X49756001Y-88992940I0J-58740D01*
G01*
X49756001Y-89627060D01*
G75*
G02*
X49697261Y-89685800I-58740J0D01*
G01*
G37*
G36*
G01*
X49697261Y-92225800D02*
X47963141Y-92225800D01*
G75*
G02*
X47904401Y-92167060I0J58740D01*
G01*
X47904401Y-91532940D01*
G75*
G02*
X47963141Y-91474200I58740J0D01*
G01*
X49697261Y-91474200D01*
G75*
G02*
X49756001Y-91532940I0J-58740D01*
G01*
X49756001Y-92167060D01*
G75*
G02*
X49697261Y-92225800I-58740J0D01*
G01*
G37*
%TD*%
D12*
%TO.C,R16*%
X101346000Y-122682000D03*
D13*
X101346000Y-112522000D03*
%TD*%
%TO.C,U17*%
G36*
G01*
X97872940Y-101484200D02*
X99607060Y-101484200D01*
G75*
G02*
X99665800Y-101542940I0J-58740D01*
G01*
X99665800Y-102177060D01*
G75*
G02*
X99607060Y-102235800I-58740J0D01*
G01*
X97872940Y-102235800D01*
G75*
G02*
X97814200Y-102177060I0J58740D01*
G01*
X97814200Y-101542940D01*
G75*
G02*
X97872940Y-101484200I58740J0D01*
G01*
G37*
G36*
G01*
X97872940Y-104024200D02*
X99607060Y-104024200D01*
G75*
G02*
X99665800Y-104082940I0J-58740D01*
G01*
X99665800Y-104717060D01*
G75*
G02*
X99607060Y-104775800I-58740J0D01*
G01*
X97872940Y-104775800D01*
G75*
G02*
X97814200Y-104717060I0J58740D01*
G01*
X97814200Y-104082940D01*
G75*
G02*
X97872940Y-104024200I58740J0D01*
G01*
G37*
G36*
G01*
X97872940Y-106564200D02*
X99607060Y-106564200D01*
G75*
G02*
X99665800Y-106622940I0J-58740D01*
G01*
X99665800Y-107257060D01*
G75*
G02*
X99607060Y-107315800I-58740J0D01*
G01*
X97872940Y-107315800D01*
G75*
G02*
X97814200Y-107257060I0J58740D01*
G01*
X97814200Y-106622940D01*
G75*
G02*
X97872940Y-106564200I58740J0D01*
G01*
G37*
G36*
G01*
X87272940Y-106564200D02*
X89007060Y-106564200D01*
G75*
G02*
X89065800Y-106622940I0J-58740D01*
G01*
X89065800Y-107257060D01*
G75*
G02*
X89007060Y-107315800I-58740J0D01*
G01*
X87272940Y-107315800D01*
G75*
G02*
X87214200Y-107257060I0J58740D01*
G01*
X87214200Y-106622940D01*
G75*
G02*
X87272940Y-106564200I58740J0D01*
G01*
G37*
G36*
G01*
X87272940Y-104024200D02*
X89007060Y-104024200D01*
G75*
G02*
X89065800Y-104082940I0J-58740D01*
G01*
X89065800Y-104717060D01*
G75*
G02*
X89007060Y-104775800I-58740J0D01*
G01*
X87272940Y-104775800D01*
G75*
G02*
X87214200Y-104717060I0J58740D01*
G01*
X87214200Y-104082940D01*
G75*
G02*
X87272940Y-104024200I58740J0D01*
G01*
G37*
G36*
G01*
X87272940Y-101484200D02*
X89007060Y-101484200D01*
G75*
G02*
X89065800Y-101542940I0J-58740D01*
G01*
X89065800Y-102177060D01*
G75*
G02*
X89007060Y-102235800I-58740J0D01*
G01*
X87272940Y-102235800D01*
G75*
G02*
X87214200Y-102177060I0J58740D01*
G01*
X87214200Y-101542940D01*
G75*
G02*
X87272940Y-101484200I58740J0D01*
G01*
G37*
%TD*%
%TO.C,U20*%
G36*
G01*
X97872940Y-55764200D02*
X99607060Y-55764200D01*
G75*
G02*
X99665800Y-55822940I0J-58740D01*
G01*
X99665800Y-56457060D01*
G75*
G02*
X99607060Y-56515800I-58740J0D01*
G01*
X97872940Y-56515800D01*
G75*
G02*
X97814200Y-56457060I0J58740D01*
G01*
X97814200Y-55822940D01*
G75*
G02*
X97872940Y-55764200I58740J0D01*
G01*
G37*
G36*
G01*
X97872940Y-58304200D02*
X99607060Y-58304200D01*
G75*
G02*
X99665800Y-58362940I0J-58740D01*
G01*
X99665800Y-58997060D01*
G75*
G02*
X99607060Y-59055800I-58740J0D01*
G01*
X97872940Y-59055800D01*
G75*
G02*
X97814200Y-58997060I0J58740D01*
G01*
X97814200Y-58362940D01*
G75*
G02*
X97872940Y-58304200I58740J0D01*
G01*
G37*
G36*
G01*
X97872940Y-60844200D02*
X99607060Y-60844200D01*
G75*
G02*
X99665800Y-60902940I0J-58740D01*
G01*
X99665800Y-61537060D01*
G75*
G02*
X99607060Y-61595800I-58740J0D01*
G01*
X97872940Y-61595800D01*
G75*
G02*
X97814200Y-61537060I0J58740D01*
G01*
X97814200Y-60902940D01*
G75*
G02*
X97872940Y-60844200I58740J0D01*
G01*
G37*
G36*
G01*
X87272940Y-60844200D02*
X89007060Y-60844200D01*
G75*
G02*
X89065800Y-60902940I0J-58740D01*
G01*
X89065800Y-61537060D01*
G75*
G02*
X89007060Y-61595800I-58740J0D01*
G01*
X87272940Y-61595800D01*
G75*
G02*
X87214200Y-61537060I0J58740D01*
G01*
X87214200Y-60902940D01*
G75*
G02*
X87272940Y-60844200I58740J0D01*
G01*
G37*
G36*
G01*
X87272940Y-58304200D02*
X89007060Y-58304200D01*
G75*
G02*
X89065800Y-58362940I0J-58740D01*
G01*
X89065800Y-58997060D01*
G75*
G02*
X89007060Y-59055800I-58740J0D01*
G01*
X87272940Y-59055800D01*
G75*
G02*
X87214200Y-58997060I0J58740D01*
G01*
X87214200Y-58362940D01*
G75*
G02*
X87272940Y-58304200I58740J0D01*
G01*
G37*
G36*
G01*
X87272940Y-55764200D02*
X89007060Y-55764200D01*
G75*
G02*
X89065800Y-55822940I0J-58740D01*
G01*
X89065800Y-56457060D01*
G75*
G02*
X89007060Y-56515800I-58740J0D01*
G01*
X87272940Y-56515800D01*
G75*
G02*
X87214200Y-56457060I0J58740D01*
G01*
X87214200Y-55822940D01*
G75*
G02*
X87272940Y-55764200I58740J0D01*
G01*
G37*
%TD*%
D12*
%TO.C,R19*%
X101346000Y-80543181D03*
D13*
X101346000Y-70383181D03*
%TD*%
%TO.C,U16*%
G36*
G01*
X97872940Y-116724200D02*
X99607060Y-116724200D01*
G75*
G02*
X99665800Y-116782940I0J-58740D01*
G01*
X99665800Y-117417060D01*
G75*
G02*
X99607060Y-117475800I-58740J0D01*
G01*
X97872940Y-117475800D01*
G75*
G02*
X97814200Y-117417060I0J58740D01*
G01*
X97814200Y-116782940D01*
G75*
G02*
X97872940Y-116724200I58740J0D01*
G01*
G37*
G36*
G01*
X97872940Y-119264200D02*
X99607060Y-119264200D01*
G75*
G02*
X99665800Y-119322940I0J-58740D01*
G01*
X99665800Y-119957060D01*
G75*
G02*
X99607060Y-120015800I-58740J0D01*
G01*
X97872940Y-120015800D01*
G75*
G02*
X97814200Y-119957060I0J58740D01*
G01*
X97814200Y-119322940D01*
G75*
G02*
X97872940Y-119264200I58740J0D01*
G01*
G37*
G36*
G01*
X97872940Y-121804200D02*
X99607060Y-121804200D01*
G75*
G02*
X99665800Y-121862940I0J-58740D01*
G01*
X99665800Y-122497060D01*
G75*
G02*
X99607060Y-122555800I-58740J0D01*
G01*
X97872940Y-122555800D01*
G75*
G02*
X97814200Y-122497060I0J58740D01*
G01*
X97814200Y-121862940D01*
G75*
G02*
X97872940Y-121804200I58740J0D01*
G01*
G37*
G36*
G01*
X87272940Y-121804200D02*
X89007060Y-121804200D01*
G75*
G02*
X89065800Y-121862940I0J-58740D01*
G01*
X89065800Y-122497060D01*
G75*
G02*
X89007060Y-122555800I-58740J0D01*
G01*
X87272940Y-122555800D01*
G75*
G02*
X87214200Y-122497060I0J58740D01*
G01*
X87214200Y-121862940D01*
G75*
G02*
X87272940Y-121804200I58740J0D01*
G01*
G37*
G36*
G01*
X87272940Y-119264200D02*
X89007060Y-119264200D01*
G75*
G02*
X89065800Y-119322940I0J-58740D01*
G01*
X89065800Y-119957060D01*
G75*
G02*
X89007060Y-120015800I-58740J0D01*
G01*
X87272940Y-120015800D01*
G75*
G02*
X87214200Y-119957060I0J58740D01*
G01*
X87214200Y-119322940D01*
G75*
G02*
X87272940Y-119264200I58740J0D01*
G01*
G37*
G36*
G01*
X87272940Y-116724200D02*
X89007060Y-116724200D01*
G75*
G02*
X89065800Y-116782940I0J-58740D01*
G01*
X89065800Y-117417060D01*
G75*
G02*
X89007060Y-117475800I-58740J0D01*
G01*
X87272940Y-117475800D01*
G75*
G02*
X87214200Y-117417060I0J58740D01*
G01*
X87214200Y-116782940D01*
G75*
G02*
X87272940Y-116724200I58740J0D01*
G01*
G37*
%TD*%
D12*
%TO.C,R5*%
X35372201Y-55880000D03*
D13*
X35372201Y-66040000D03*
%TD*%
D12*
%TO.C,R12*%
X71120000Y-99364800D03*
D13*
X71120000Y-109524800D03*
%TD*%
%TO.C,U12*%
G36*
G01*
X74750060Y-107436800D02*
X73015940Y-107436800D01*
G75*
G02*
X72957200Y-107378060I0J58740D01*
G01*
X72957200Y-106743940D01*
G75*
G02*
X73015940Y-106685200I58740J0D01*
G01*
X74750060Y-106685200D01*
G75*
G02*
X74808800Y-106743940I0J-58740D01*
G01*
X74808800Y-107378060D01*
G75*
G02*
X74750060Y-107436800I-58740J0D01*
G01*
G37*
G36*
G01*
X74750060Y-104896800D02*
X73015940Y-104896800D01*
G75*
G02*
X72957200Y-104838060I0J58740D01*
G01*
X72957200Y-104203940D01*
G75*
G02*
X73015940Y-104145200I58740J0D01*
G01*
X74750060Y-104145200D01*
G75*
G02*
X74808800Y-104203940I0J-58740D01*
G01*
X74808800Y-104838060D01*
G75*
G02*
X74750060Y-104896800I-58740J0D01*
G01*
G37*
G36*
G01*
X74750060Y-102356800D02*
X73015940Y-102356800D01*
G75*
G02*
X72957200Y-102298060I0J58740D01*
G01*
X72957200Y-101663940D01*
G75*
G02*
X73015940Y-101605200I58740J0D01*
G01*
X74750060Y-101605200D01*
G75*
G02*
X74808800Y-101663940I0J-58740D01*
G01*
X74808800Y-102298060D01*
G75*
G02*
X74750060Y-102356800I-58740J0D01*
G01*
G37*
G36*
G01*
X85350060Y-102356800D02*
X83615940Y-102356800D01*
G75*
G02*
X83557200Y-102298060I0J58740D01*
G01*
X83557200Y-101663940D01*
G75*
G02*
X83615940Y-101605200I58740J0D01*
G01*
X85350060Y-101605200D01*
G75*
G02*
X85408800Y-101663940I0J-58740D01*
G01*
X85408800Y-102298060D01*
G75*
G02*
X85350060Y-102356800I-58740J0D01*
G01*
G37*
G36*
G01*
X85350060Y-104896800D02*
X83615940Y-104896800D01*
G75*
G02*
X83557200Y-104838060I0J58740D01*
G01*
X83557200Y-104203940D01*
G75*
G02*
X83615940Y-104145200I58740J0D01*
G01*
X85350060Y-104145200D01*
G75*
G02*
X85408800Y-104203940I0J-58740D01*
G01*
X85408800Y-104838060D01*
G75*
G02*
X85350060Y-104896800I-58740J0D01*
G01*
G37*
G36*
G01*
X85350060Y-107436800D02*
X83615940Y-107436800D01*
G75*
G02*
X83557200Y-107378060I0J58740D01*
G01*
X83557200Y-106743940D01*
G75*
G02*
X83615940Y-106685200I58740J0D01*
G01*
X85350060Y-106685200D01*
G75*
G02*
X85408800Y-106743940I0J-58740D01*
G01*
X85408800Y-107378060D01*
G75*
G02*
X85350060Y-107436800I-58740J0D01*
G01*
G37*
%TD*%
%TO.C,U5*%
G36*
G01*
X39097261Y-61745800D02*
X37363141Y-61745800D01*
G75*
G02*
X37304401Y-61687060I0J58740D01*
G01*
X37304401Y-61052940D01*
G75*
G02*
X37363141Y-60994200I58740J0D01*
G01*
X39097261Y-60994200D01*
G75*
G02*
X39156001Y-61052940I0J-58740D01*
G01*
X39156001Y-61687060D01*
G75*
G02*
X39097261Y-61745800I-58740J0D01*
G01*
G37*
G36*
G01*
X39097261Y-59205800D02*
X37363141Y-59205800D01*
G75*
G02*
X37304401Y-59147060I0J58740D01*
G01*
X37304401Y-58512940D01*
G75*
G02*
X37363141Y-58454200I58740J0D01*
G01*
X39097261Y-58454200D01*
G75*
G02*
X39156001Y-58512940I0J-58740D01*
G01*
X39156001Y-59147060D01*
G75*
G02*
X39097261Y-59205800I-58740J0D01*
G01*
G37*
G36*
G01*
X39097261Y-56665800D02*
X37363141Y-56665800D01*
G75*
G02*
X37304401Y-56607060I0J58740D01*
G01*
X37304401Y-55972940D01*
G75*
G02*
X37363141Y-55914200I58740J0D01*
G01*
X39097261Y-55914200D01*
G75*
G02*
X39156001Y-55972940I0J-58740D01*
G01*
X39156001Y-56607060D01*
G75*
G02*
X39097261Y-56665800I-58740J0D01*
G01*
G37*
G36*
G01*
X49697261Y-56665800D02*
X47963141Y-56665800D01*
G75*
G02*
X47904401Y-56607060I0J58740D01*
G01*
X47904401Y-55972940D01*
G75*
G02*
X47963141Y-55914200I58740J0D01*
G01*
X49697261Y-55914200D01*
G75*
G02*
X49756001Y-55972940I0J-58740D01*
G01*
X49756001Y-56607060D01*
G75*
G02*
X49697261Y-56665800I-58740J0D01*
G01*
G37*
G36*
G01*
X49697261Y-59205800D02*
X47963141Y-59205800D01*
G75*
G02*
X47904401Y-59147060I0J58740D01*
G01*
X47904401Y-58512940D01*
G75*
G02*
X47963141Y-58454200I58740J0D01*
G01*
X49697261Y-58454200D01*
G75*
G02*
X49756001Y-58512940I0J-58740D01*
G01*
X49756001Y-59147060D01*
G75*
G02*
X49697261Y-59205800I-58740J0D01*
G01*
G37*
G36*
G01*
X49697261Y-61745800D02*
X47963141Y-61745800D01*
G75*
G02*
X47904401Y-61687060I0J58740D01*
G01*
X47904401Y-61052940D01*
G75*
G02*
X47963141Y-60994200I58740J0D01*
G01*
X49697261Y-60994200D01*
G75*
G02*
X49756001Y-61052940I0J-58740D01*
G01*
X49756001Y-61687060D01*
G75*
G02*
X49697261Y-61745800I-58740J0D01*
G01*
G37*
%TD*%
%TO.C,U6*%
G36*
G01*
X63132940Y-116804200D02*
X64867060Y-116804200D01*
G75*
G02*
X64925800Y-116862940I0J-58740D01*
G01*
X64925800Y-117497060D01*
G75*
G02*
X64867060Y-117555800I-58740J0D01*
G01*
X63132940Y-117555800D01*
G75*
G02*
X63074200Y-117497060I0J58740D01*
G01*
X63074200Y-116862940D01*
G75*
G02*
X63132940Y-116804200I58740J0D01*
G01*
G37*
G36*
G01*
X63132940Y-119344200D02*
X64867060Y-119344200D01*
G75*
G02*
X64925800Y-119402940I0J-58740D01*
G01*
X64925800Y-120037060D01*
G75*
G02*
X64867060Y-120095800I-58740J0D01*
G01*
X63132940Y-120095800D01*
G75*
G02*
X63074200Y-120037060I0J58740D01*
G01*
X63074200Y-119402940D01*
G75*
G02*
X63132940Y-119344200I58740J0D01*
G01*
G37*
G36*
G01*
X63132940Y-121884200D02*
X64867060Y-121884200D01*
G75*
G02*
X64925800Y-121942940I0J-58740D01*
G01*
X64925800Y-122577060D01*
G75*
G02*
X64867060Y-122635800I-58740J0D01*
G01*
X63132940Y-122635800D01*
G75*
G02*
X63074200Y-122577060I0J58740D01*
G01*
X63074200Y-121942940D01*
G75*
G02*
X63132940Y-121884200I58740J0D01*
G01*
G37*
G36*
G01*
X52532940Y-121884200D02*
X54267060Y-121884200D01*
G75*
G02*
X54325800Y-121942940I0J-58740D01*
G01*
X54325800Y-122577060D01*
G75*
G02*
X54267060Y-122635800I-58740J0D01*
G01*
X52532940Y-122635800D01*
G75*
G02*
X52474200Y-122577060I0J58740D01*
G01*
X52474200Y-121942940D01*
G75*
G02*
X52532940Y-121884200I58740J0D01*
G01*
G37*
G36*
G01*
X52532940Y-119344200D02*
X54267060Y-119344200D01*
G75*
G02*
X54325800Y-119402940I0J-58740D01*
G01*
X54325800Y-120037060D01*
G75*
G02*
X54267060Y-120095800I-58740J0D01*
G01*
X52532940Y-120095800D01*
G75*
G02*
X52474200Y-120037060I0J58740D01*
G01*
X52474200Y-119402940D01*
G75*
G02*
X52532940Y-119344200I58740J0D01*
G01*
G37*
G36*
G01*
X52532940Y-116804200D02*
X54267060Y-116804200D01*
G75*
G02*
X54325800Y-116862940I0J-58740D01*
G01*
X54325800Y-117497060D01*
G75*
G02*
X54267060Y-117555800I-58740J0D01*
G01*
X52532940Y-117555800D01*
G75*
G02*
X52474200Y-117497060I0J58740D01*
G01*
X52474200Y-116862940D01*
G75*
G02*
X52532940Y-116804200I58740J0D01*
G01*
G37*
%TD*%
D12*
%TO.C,R11*%
X71120000Y-112826800D03*
D13*
X71120000Y-122986800D03*
%TD*%
D12*
%TO.C,R9*%
X66802000Y-80772000D03*
D13*
X66802000Y-70612000D03*
%TD*%
%TO.C,U2*%
G36*
G01*
X39097261Y-107465800D02*
X37363141Y-107465800D01*
G75*
G02*
X37304401Y-107407060I0J58740D01*
G01*
X37304401Y-106772940D01*
G75*
G02*
X37363141Y-106714200I58740J0D01*
G01*
X39097261Y-106714200D01*
G75*
G02*
X39156001Y-106772940I0J-58740D01*
G01*
X39156001Y-107407060D01*
G75*
G02*
X39097261Y-107465800I-58740J0D01*
G01*
G37*
G36*
G01*
X39097261Y-104925800D02*
X37363141Y-104925800D01*
G75*
G02*
X37304401Y-104867060I0J58740D01*
G01*
X37304401Y-104232940D01*
G75*
G02*
X37363141Y-104174200I58740J0D01*
G01*
X39097261Y-104174200D01*
G75*
G02*
X39156001Y-104232940I0J-58740D01*
G01*
X39156001Y-104867060D01*
G75*
G02*
X39097261Y-104925800I-58740J0D01*
G01*
G37*
G36*
G01*
X39097261Y-102385800D02*
X37363141Y-102385800D01*
G75*
G02*
X37304401Y-102327060I0J58740D01*
G01*
X37304401Y-101692940D01*
G75*
G02*
X37363141Y-101634200I58740J0D01*
G01*
X39097261Y-101634200D01*
G75*
G02*
X39156001Y-101692940I0J-58740D01*
G01*
X39156001Y-102327060D01*
G75*
G02*
X39097261Y-102385800I-58740J0D01*
G01*
G37*
G36*
G01*
X49697261Y-102385800D02*
X47963141Y-102385800D01*
G75*
G02*
X47904401Y-102327060I0J58740D01*
G01*
X47904401Y-101692940D01*
G75*
G02*
X47963141Y-101634200I58740J0D01*
G01*
X49697261Y-101634200D01*
G75*
G02*
X49756001Y-101692940I0J-58740D01*
G01*
X49756001Y-102327060D01*
G75*
G02*
X49697261Y-102385800I-58740J0D01*
G01*
G37*
G36*
G01*
X49697261Y-104925800D02*
X47963141Y-104925800D01*
G75*
G02*
X47904401Y-104867060I0J58740D01*
G01*
X47904401Y-104232940D01*
G75*
G02*
X47963141Y-104174200I58740J0D01*
G01*
X49697261Y-104174200D01*
G75*
G02*
X49756001Y-104232940I0J-58740D01*
G01*
X49756001Y-104867060D01*
G75*
G02*
X49697261Y-104925800I-58740J0D01*
G01*
G37*
G36*
G01*
X49697261Y-107465800D02*
X47963141Y-107465800D01*
G75*
G02*
X47904401Y-107407060I0J58740D01*
G01*
X47904401Y-106772940D01*
G75*
G02*
X47963141Y-106714200I58740J0D01*
G01*
X49697261Y-106714200D01*
G75*
G02*
X49756001Y-106772940I0J-58740D01*
G01*
X49756001Y-107407060D01*
G75*
G02*
X49697261Y-107465800I-58740J0D01*
G01*
G37*
%TD*%
D12*
%TO.C,R7*%
X66802000Y-109474000D03*
D13*
X66802000Y-99314000D03*
%TD*%
D12*
%TO.C,R3*%
X35372201Y-86360000D03*
D13*
X35372201Y-96520000D03*
%TD*%
D12*
%TO.C,R17*%
X101346000Y-109756737D03*
D13*
X101346000Y-99596737D03*
%TD*%
%TO.C,U10*%
G36*
G01*
X63132940Y-55844200D02*
X64867060Y-55844200D01*
G75*
G02*
X64925800Y-55902940I0J-58740D01*
G01*
X64925800Y-56537060D01*
G75*
G02*
X64867060Y-56595800I-58740J0D01*
G01*
X63132940Y-56595800D01*
G75*
G02*
X63074200Y-56537060I0J58740D01*
G01*
X63074200Y-55902940D01*
G75*
G02*
X63132940Y-55844200I58740J0D01*
G01*
G37*
G36*
G01*
X63132940Y-58384200D02*
X64867060Y-58384200D01*
G75*
G02*
X64925800Y-58442940I0J-58740D01*
G01*
X64925800Y-59077060D01*
G75*
G02*
X64867060Y-59135800I-58740J0D01*
G01*
X63132940Y-59135800D01*
G75*
G02*
X63074200Y-59077060I0J58740D01*
G01*
X63074200Y-58442940D01*
G75*
G02*
X63132940Y-58384200I58740J0D01*
G01*
G37*
G36*
G01*
X63132940Y-60924200D02*
X64867060Y-60924200D01*
G75*
G02*
X64925800Y-60982940I0J-58740D01*
G01*
X64925800Y-61617060D01*
G75*
G02*
X64867060Y-61675800I-58740J0D01*
G01*
X63132940Y-61675800D01*
G75*
G02*
X63074200Y-61617060I0J58740D01*
G01*
X63074200Y-60982940D01*
G75*
G02*
X63132940Y-60924200I58740J0D01*
G01*
G37*
G36*
G01*
X52532940Y-60924200D02*
X54267060Y-60924200D01*
G75*
G02*
X54325800Y-60982940I0J-58740D01*
G01*
X54325800Y-61617060D01*
G75*
G02*
X54267060Y-61675800I-58740J0D01*
G01*
X52532940Y-61675800D01*
G75*
G02*
X52474200Y-61617060I0J58740D01*
G01*
X52474200Y-60982940D01*
G75*
G02*
X52532940Y-60924200I58740J0D01*
G01*
G37*
G36*
G01*
X52532940Y-58384200D02*
X54267060Y-58384200D01*
G75*
G02*
X54325800Y-58442940I0J-58740D01*
G01*
X54325800Y-59077060D01*
G75*
G02*
X54267060Y-59135800I-58740J0D01*
G01*
X52532940Y-59135800D01*
G75*
G02*
X52474200Y-59077060I0J58740D01*
G01*
X52474200Y-58442940D01*
G75*
G02*
X52532940Y-58384200I58740J0D01*
G01*
G37*
G36*
G01*
X52532940Y-55844200D02*
X54267060Y-55844200D01*
G75*
G02*
X54325800Y-55902940I0J-58740D01*
G01*
X54325800Y-56537060D01*
G75*
G02*
X54267060Y-56595800I-58740J0D01*
G01*
X52532940Y-56595800D01*
G75*
G02*
X52474200Y-56537060I0J58740D01*
G01*
X52474200Y-55902940D01*
G75*
G02*
X52532940Y-55844200I58740J0D01*
G01*
G37*
%TD*%
D12*
%TO.C,R13*%
X71120000Y-85598000D03*
D13*
X71120000Y-95758000D03*
%TD*%
D12*
%TO.C,R2*%
X35372201Y-101092000D03*
D13*
X35372201Y-111252000D03*
%TD*%
%TO.C,U4*%
G36*
G01*
X39097261Y-76985800D02*
X37363141Y-76985800D01*
G75*
G02*
X37304401Y-76927060I0J58740D01*
G01*
X37304401Y-76292940D01*
G75*
G02*
X37363141Y-76234200I58740J0D01*
G01*
X39097261Y-76234200D01*
G75*
G02*
X39156001Y-76292940I0J-58740D01*
G01*
X39156001Y-76927060D01*
G75*
G02*
X39097261Y-76985800I-58740J0D01*
G01*
G37*
G36*
G01*
X39097261Y-74445800D02*
X37363141Y-74445800D01*
G75*
G02*
X37304401Y-74387060I0J58740D01*
G01*
X37304401Y-73752940D01*
G75*
G02*
X37363141Y-73694200I58740J0D01*
G01*
X39097261Y-73694200D01*
G75*
G02*
X39156001Y-73752940I0J-58740D01*
G01*
X39156001Y-74387060D01*
G75*
G02*
X39097261Y-74445800I-58740J0D01*
G01*
G37*
G36*
G01*
X39097261Y-71905800D02*
X37363141Y-71905800D01*
G75*
G02*
X37304401Y-71847060I0J58740D01*
G01*
X37304401Y-71212940D01*
G75*
G02*
X37363141Y-71154200I58740J0D01*
G01*
X39097261Y-71154200D01*
G75*
G02*
X39156001Y-71212940I0J-58740D01*
G01*
X39156001Y-71847060D01*
G75*
G02*
X39097261Y-71905800I-58740J0D01*
G01*
G37*
G36*
G01*
X49697261Y-71905800D02*
X47963141Y-71905800D01*
G75*
G02*
X47904401Y-71847060I0J58740D01*
G01*
X47904401Y-71212940D01*
G75*
G02*
X47963141Y-71154200I58740J0D01*
G01*
X49697261Y-71154200D01*
G75*
G02*
X49756001Y-71212940I0J-58740D01*
G01*
X49756001Y-71847060D01*
G75*
G02*
X49697261Y-71905800I-58740J0D01*
G01*
G37*
G36*
G01*
X49697261Y-74445800D02*
X47963141Y-74445800D01*
G75*
G02*
X47904401Y-74387060I0J58740D01*
G01*
X47904401Y-73752940D01*
G75*
G02*
X47963141Y-73694200I58740J0D01*
G01*
X49697261Y-73694200D01*
G75*
G02*
X49756001Y-73752940I0J-58740D01*
G01*
X49756001Y-74387060D01*
G75*
G02*
X49697261Y-74445800I-58740J0D01*
G01*
G37*
G36*
G01*
X49697261Y-76985800D02*
X47963141Y-76985800D01*
G75*
G02*
X47904401Y-76927060I0J58740D01*
G01*
X47904401Y-76292940D01*
G75*
G02*
X47963141Y-76234200I58740J0D01*
G01*
X49697261Y-76234200D01*
G75*
G02*
X49756001Y-76292940I0J-58740D01*
G01*
X49756001Y-76927060D01*
G75*
G02*
X49697261Y-76985800I-58740J0D01*
G01*
G37*
%TD*%
%TO.C,U7*%
G36*
G01*
X63132940Y-101564200D02*
X64867060Y-101564200D01*
G75*
G02*
X64925800Y-101622940I0J-58740D01*
G01*
X64925800Y-102257060D01*
G75*
G02*
X64867060Y-102315800I-58740J0D01*
G01*
X63132940Y-102315800D01*
G75*
G02*
X63074200Y-102257060I0J58740D01*
G01*
X63074200Y-101622940D01*
G75*
G02*
X63132940Y-101564200I58740J0D01*
G01*
G37*
G36*
G01*
X63132940Y-104104200D02*
X64867060Y-104104200D01*
G75*
G02*
X64925800Y-104162940I0J-58740D01*
G01*
X64925800Y-104797060D01*
G75*
G02*
X64867060Y-104855800I-58740J0D01*
G01*
X63132940Y-104855800D01*
G75*
G02*
X63074200Y-104797060I0J58740D01*
G01*
X63074200Y-104162940D01*
G75*
G02*
X63132940Y-104104200I58740J0D01*
G01*
G37*
G36*
G01*
X63132940Y-106644200D02*
X64867060Y-106644200D01*
G75*
G02*
X64925800Y-106702940I0J-58740D01*
G01*
X64925800Y-107337060D01*
G75*
G02*
X64867060Y-107395800I-58740J0D01*
G01*
X63132940Y-107395800D01*
G75*
G02*
X63074200Y-107337060I0J58740D01*
G01*
X63074200Y-106702940D01*
G75*
G02*
X63132940Y-106644200I58740J0D01*
G01*
G37*
G36*
G01*
X52532940Y-106644200D02*
X54267060Y-106644200D01*
G75*
G02*
X54325800Y-106702940I0J-58740D01*
G01*
X54325800Y-107337060D01*
G75*
G02*
X54267060Y-107395800I-58740J0D01*
G01*
X52532940Y-107395800D01*
G75*
G02*
X52474200Y-107337060I0J58740D01*
G01*
X52474200Y-106702940D01*
G75*
G02*
X52532940Y-106644200I58740J0D01*
G01*
G37*
G36*
G01*
X52532940Y-104104200D02*
X54267060Y-104104200D01*
G75*
G02*
X54325800Y-104162940I0J-58740D01*
G01*
X54325800Y-104797060D01*
G75*
G02*
X54267060Y-104855800I-58740J0D01*
G01*
X52532940Y-104855800D01*
G75*
G02*
X52474200Y-104797060I0J58740D01*
G01*
X52474200Y-104162940D01*
G75*
G02*
X52532940Y-104104200I58740J0D01*
G01*
G37*
G36*
G01*
X52532940Y-101564200D02*
X54267060Y-101564200D01*
G75*
G02*
X54325800Y-101622940I0J-58740D01*
G01*
X54325800Y-102257060D01*
G75*
G02*
X54267060Y-102315800I-58740J0D01*
G01*
X52532940Y-102315800D01*
G75*
G02*
X52474200Y-102257060I0J58740D01*
G01*
X52474200Y-101622940D01*
G75*
G02*
X52532940Y-101564200I58740J0D01*
G01*
G37*
%TD*%
%TO.C,U9*%
G36*
G01*
X63132940Y-71084200D02*
X64867060Y-71084200D01*
G75*
G02*
X64925800Y-71142940I0J-58740D01*
G01*
X64925800Y-71777060D01*
G75*
G02*
X64867060Y-71835800I-58740J0D01*
G01*
X63132940Y-71835800D01*
G75*
G02*
X63074200Y-71777060I0J58740D01*
G01*
X63074200Y-71142940D01*
G75*
G02*
X63132940Y-71084200I58740J0D01*
G01*
G37*
G36*
G01*
X63132940Y-73624200D02*
X64867060Y-73624200D01*
G75*
G02*
X64925800Y-73682940I0J-58740D01*
G01*
X64925800Y-74317060D01*
G75*
G02*
X64867060Y-74375800I-58740J0D01*
G01*
X63132940Y-74375800D01*
G75*
G02*
X63074200Y-74317060I0J58740D01*
G01*
X63074200Y-73682940D01*
G75*
G02*
X63132940Y-73624200I58740J0D01*
G01*
G37*
G36*
G01*
X63132940Y-76164200D02*
X64867060Y-76164200D01*
G75*
G02*
X64925800Y-76222940I0J-58740D01*
G01*
X64925800Y-76857060D01*
G75*
G02*
X64867060Y-76915800I-58740J0D01*
G01*
X63132940Y-76915800D01*
G75*
G02*
X63074200Y-76857060I0J58740D01*
G01*
X63074200Y-76222940D01*
G75*
G02*
X63132940Y-76164200I58740J0D01*
G01*
G37*
G36*
G01*
X52532940Y-76164200D02*
X54267060Y-76164200D01*
G75*
G02*
X54325800Y-76222940I0J-58740D01*
G01*
X54325800Y-76857060D01*
G75*
G02*
X54267060Y-76915800I-58740J0D01*
G01*
X52532940Y-76915800D01*
G75*
G02*
X52474200Y-76857060I0J58740D01*
G01*
X52474200Y-76222940D01*
G75*
G02*
X52532940Y-76164200I58740J0D01*
G01*
G37*
G36*
G01*
X52532940Y-73624200D02*
X54267060Y-73624200D01*
G75*
G02*
X54325800Y-73682940I0J-58740D01*
G01*
X54325800Y-74317060D01*
G75*
G02*
X54267060Y-74375800I-58740J0D01*
G01*
X52532940Y-74375800D01*
G75*
G02*
X52474200Y-74317060I0J58740D01*
G01*
X52474200Y-73682940D01*
G75*
G02*
X52532940Y-73624200I58740J0D01*
G01*
G37*
G36*
G01*
X52532940Y-71084200D02*
X54267060Y-71084200D01*
G75*
G02*
X54325800Y-71142940I0J-58740D01*
G01*
X54325800Y-71777060D01*
G75*
G02*
X54267060Y-71835800I-58740J0D01*
G01*
X52532940Y-71835800D01*
G75*
G02*
X52474200Y-71777060I0J58740D01*
G01*
X52474200Y-71142940D01*
G75*
G02*
X52532940Y-71084200I58740J0D01*
G01*
G37*
%TD*%
%TO.C,U1*%
G36*
G01*
X39097261Y-122705800D02*
X37363141Y-122705800D01*
G75*
G02*
X37304401Y-122647060I0J58740D01*
G01*
X37304401Y-122012940D01*
G75*
G02*
X37363141Y-121954200I58740J0D01*
G01*
X39097261Y-121954200D01*
G75*
G02*
X39156001Y-122012940I0J-58740D01*
G01*
X39156001Y-122647060D01*
G75*
G02*
X39097261Y-122705800I-58740J0D01*
G01*
G37*
G36*
G01*
X39097261Y-120165800D02*
X37363141Y-120165800D01*
G75*
G02*
X37304401Y-120107060I0J58740D01*
G01*
X37304401Y-119472940D01*
G75*
G02*
X37363141Y-119414200I58740J0D01*
G01*
X39097261Y-119414200D01*
G75*
G02*
X39156001Y-119472940I0J-58740D01*
G01*
X39156001Y-120107060D01*
G75*
G02*
X39097261Y-120165800I-58740J0D01*
G01*
G37*
G36*
G01*
X39097261Y-117625800D02*
X37363141Y-117625800D01*
G75*
G02*
X37304401Y-117567060I0J58740D01*
G01*
X37304401Y-116932940D01*
G75*
G02*
X37363141Y-116874200I58740J0D01*
G01*
X39097261Y-116874200D01*
G75*
G02*
X39156001Y-116932940I0J-58740D01*
G01*
X39156001Y-117567060D01*
G75*
G02*
X39097261Y-117625800I-58740J0D01*
G01*
G37*
G36*
G01*
X49697261Y-117625800D02*
X47963141Y-117625800D01*
G75*
G02*
X47904401Y-117567060I0J58740D01*
G01*
X47904401Y-116932940D01*
G75*
G02*
X47963141Y-116874200I58740J0D01*
G01*
X49697261Y-116874200D01*
G75*
G02*
X49756001Y-116932940I0J-58740D01*
G01*
X49756001Y-117567060D01*
G75*
G02*
X49697261Y-117625800I-58740J0D01*
G01*
G37*
G36*
G01*
X49697261Y-120165800D02*
X47963141Y-120165800D01*
G75*
G02*
X47904401Y-120107060I0J58740D01*
G01*
X47904401Y-119472940D01*
G75*
G02*
X47963141Y-119414200I58740J0D01*
G01*
X49697261Y-119414200D01*
G75*
G02*
X49756001Y-119472940I0J-58740D01*
G01*
X49756001Y-120107060D01*
G75*
G02*
X49697261Y-120165800I-58740J0D01*
G01*
G37*
G36*
G01*
X49697261Y-122705800D02*
X47963141Y-122705800D01*
G75*
G02*
X47904401Y-122647060I0J58740D01*
G01*
X47904401Y-122012940D01*
G75*
G02*
X47963141Y-121954200I58740J0D01*
G01*
X49697261Y-121954200D01*
G75*
G02*
X49756001Y-122012940I0J-58740D01*
G01*
X49756001Y-122647060D01*
G75*
G02*
X49697261Y-122705800I-58740J0D01*
G01*
G37*
%TD*%
D12*
%TO.C,R15*%
X71120000Y-55880000D03*
D13*
X71120000Y-66040000D03*
%TD*%
D12*
%TO.C,R14*%
X71120000Y-70612000D03*
D13*
X71120000Y-80772000D03*
%TD*%
%TO.C,U19*%
G36*
G01*
X97872940Y-71004200D02*
X99607060Y-71004200D01*
G75*
G02*
X99665800Y-71062940I0J-58740D01*
G01*
X99665800Y-71697060D01*
G75*
G02*
X99607060Y-71755800I-58740J0D01*
G01*
X97872940Y-71755800D01*
G75*
G02*
X97814200Y-71697060I0J58740D01*
G01*
X97814200Y-71062940D01*
G75*
G02*
X97872940Y-71004200I58740J0D01*
G01*
G37*
G36*
G01*
X97872940Y-73544200D02*
X99607060Y-73544200D01*
G75*
G02*
X99665800Y-73602940I0J-58740D01*
G01*
X99665800Y-74237060D01*
G75*
G02*
X99607060Y-74295800I-58740J0D01*
G01*
X97872940Y-74295800D01*
G75*
G02*
X97814200Y-74237060I0J58740D01*
G01*
X97814200Y-73602940D01*
G75*
G02*
X97872940Y-73544200I58740J0D01*
G01*
G37*
G36*
G01*
X97872940Y-76084200D02*
X99607060Y-76084200D01*
G75*
G02*
X99665800Y-76142940I0J-58740D01*
G01*
X99665800Y-76777060D01*
G75*
G02*
X99607060Y-76835800I-58740J0D01*
G01*
X97872940Y-76835800D01*
G75*
G02*
X97814200Y-76777060I0J58740D01*
G01*
X97814200Y-76142940D01*
G75*
G02*
X97872940Y-76084200I58740J0D01*
G01*
G37*
G36*
G01*
X87272940Y-76084200D02*
X89007060Y-76084200D01*
G75*
G02*
X89065800Y-76142940I0J-58740D01*
G01*
X89065800Y-76777060D01*
G75*
G02*
X89007060Y-76835800I-58740J0D01*
G01*
X87272940Y-76835800D01*
G75*
G02*
X87214200Y-76777060I0J58740D01*
G01*
X87214200Y-76142940D01*
G75*
G02*
X87272940Y-76084200I58740J0D01*
G01*
G37*
G36*
G01*
X87272940Y-73544200D02*
X89007060Y-73544200D01*
G75*
G02*
X89065800Y-73602940I0J-58740D01*
G01*
X89065800Y-74237060D01*
G75*
G02*
X89007060Y-74295800I-58740J0D01*
G01*
X87272940Y-74295800D01*
G75*
G02*
X87214200Y-74237060I0J58740D01*
G01*
X87214200Y-73602940D01*
G75*
G02*
X87272940Y-73544200I58740J0D01*
G01*
G37*
G36*
G01*
X87272940Y-71004200D02*
X89007060Y-71004200D01*
G75*
G02*
X89065800Y-71062940I0J-58740D01*
G01*
X89065800Y-71697060D01*
G75*
G02*
X89007060Y-71755800I-58740J0D01*
G01*
X87272940Y-71755800D01*
G75*
G02*
X87214200Y-71697060I0J58740D01*
G01*
X87214200Y-71062940D01*
G75*
G02*
X87272940Y-71004200I58740J0D01*
G01*
G37*
%TD*%
%TO.C,U11*%
G36*
G01*
X74750060Y-122676800D02*
X73015940Y-122676800D01*
G75*
G02*
X72957200Y-122618060I0J58740D01*
G01*
X72957200Y-121983940D01*
G75*
G02*
X73015940Y-121925200I58740J0D01*
G01*
X74750060Y-121925200D01*
G75*
G02*
X74808800Y-121983940I0J-58740D01*
G01*
X74808800Y-122618060D01*
G75*
G02*
X74750060Y-122676800I-58740J0D01*
G01*
G37*
G36*
G01*
X74750060Y-120136800D02*
X73015940Y-120136800D01*
G75*
G02*
X72957200Y-120078060I0J58740D01*
G01*
X72957200Y-119443940D01*
G75*
G02*
X73015940Y-119385200I58740J0D01*
G01*
X74750060Y-119385200D01*
G75*
G02*
X74808800Y-119443940I0J-58740D01*
G01*
X74808800Y-120078060D01*
G75*
G02*
X74750060Y-120136800I-58740J0D01*
G01*
G37*
G36*
G01*
X74750060Y-117596800D02*
X73015940Y-117596800D01*
G75*
G02*
X72957200Y-117538060I0J58740D01*
G01*
X72957200Y-116903940D01*
G75*
G02*
X73015940Y-116845200I58740J0D01*
G01*
X74750060Y-116845200D01*
G75*
G02*
X74808800Y-116903940I0J-58740D01*
G01*
X74808800Y-117538060D01*
G75*
G02*
X74750060Y-117596800I-58740J0D01*
G01*
G37*
G36*
G01*
X85350060Y-117596800D02*
X83615940Y-117596800D01*
G75*
G02*
X83557200Y-117538060I0J58740D01*
G01*
X83557200Y-116903940D01*
G75*
G02*
X83615940Y-116845200I58740J0D01*
G01*
X85350060Y-116845200D01*
G75*
G02*
X85408800Y-116903940I0J-58740D01*
G01*
X85408800Y-117538060D01*
G75*
G02*
X85350060Y-117596800I-58740J0D01*
G01*
G37*
G36*
G01*
X85350060Y-120136800D02*
X83615940Y-120136800D01*
G75*
G02*
X83557200Y-120078060I0J58740D01*
G01*
X83557200Y-119443940D01*
G75*
G02*
X83615940Y-119385200I58740J0D01*
G01*
X85350060Y-119385200D01*
G75*
G02*
X85408800Y-119443940I0J-58740D01*
G01*
X85408800Y-120078060D01*
G75*
G02*
X85350060Y-120136800I-58740J0D01*
G01*
G37*
G36*
G01*
X85350060Y-122676800D02*
X83615940Y-122676800D01*
G75*
G02*
X83557200Y-122618060I0J58740D01*
G01*
X83557200Y-121983940D01*
G75*
G02*
X83615940Y-121925200I58740J0D01*
G01*
X85350060Y-121925200D01*
G75*
G02*
X85408800Y-121983940I0J-58740D01*
G01*
X85408800Y-122618060D01*
G75*
G02*
X85350060Y-122676800I-58740J0D01*
G01*
G37*
%TD*%
D12*
%TO.C,R20*%
X101346000Y-65835388D03*
D13*
X101346000Y-55675388D03*
%TD*%
D12*
%TO.C,R18*%
X101396800Y-96021611D03*
D13*
X101396800Y-85861611D03*
%TD*%
M02*
