%TF.GenerationSoftware,KiCad,Pcbnew,(5.99.0-2415-gbbdd3fce7)*%
%TF.CreationDate,2020-09-24T22:56:08-07:00*%
%TF.ProjectId,BubblePCB_20,42756262-6c65-4504-9342-5f32302e6b69,rev?*%
%TF.SameCoordinates,Original*%
%TF.FileFunction,Copper,L1,Top*%
%TF.FilePolarity,Positive*%
%FSLAX46Y46*%
G04 Gerber Fmt 4.6, Leading zero omitted, Abs format (unit mm)*
G04 Created by KiCad (PCBNEW (5.99.0-2415-gbbdd3fce7)) date 2020-09-24 22:56:08*
%MOMM*%
%LPD*%
G01*
G04 APERTURE LIST*
%TA.AperFunction,ComponentPad*%
%ADD10O,1.700000X1.700000*%
%TD*%
%TA.AperFunction,ComponentPad*%
%ADD11R,1.700000X1.700000*%
%TD*%
%TA.AperFunction,ComponentPad*%
%ADD12C,5.600000*%
%TD*%
%TA.AperFunction,ComponentPad*%
%ADD13C,1.600000*%
%TD*%
%TA.AperFunction,ComponentPad*%
%ADD14O,1.600000X1.600000*%
%TD*%
%TA.AperFunction,SMDPad,CuDef*%
%ADD15R,1.750000X0.650000*%
%TD*%
%TA.AperFunction,ViaPad*%
%ADD16C,0.660400*%
%TD*%
%TA.AperFunction,ViaPad*%
%ADD17C,0.800000*%
%TD*%
%TA.AperFunction,Conductor*%
%ADD18C,0.508000*%
%TD*%
%TA.AperFunction,Conductor*%
%ADD19C,0.381000*%
%TD*%
G04 APERTURE END LIST*
D10*
%TO.P,J4,12*%
%TO.N,gp15*%
X70358000Y-149352000D03*
%TO.P,J4,11*%
%TO.N,gp14*%
X67818000Y-149352000D03*
%TO.P,J4,10*%
%TO.N,gp13*%
X65278000Y-149352000D03*
%TO.P,J4,9*%
%TO.N,gp12*%
X62738000Y-149352000D03*
%TO.P,J4,8*%
%TO.N,gp11*%
X60198000Y-149352000D03*
%TO.P,J4,7*%
%TO.N,gp10*%
X57658000Y-149352000D03*
%TO.P,J4,6*%
%TO.N,gp9*%
X55118000Y-149352000D03*
%TO.P,J4,5*%
%TO.N,gp8*%
X52578000Y-149352000D03*
%TO.P,J4,4*%
%TO.N,gp7*%
X50038000Y-149352000D03*
%TO.P,J4,3*%
%TO.N,gp6*%
X47498000Y-149352000D03*
%TO.P,J4,2*%
%TO.N,+3V3*%
X44958000Y-149352000D03*
D11*
%TO.P,J4,1*%
%TO.N,GND*%
X42418000Y-149352000D03*
%TD*%
D10*
%TO.P,J3,7,Pin_7*%
%TO.N,gp5*%
X101410000Y-129040000D03*
%TO.P,J3,6,Pin_6*%
%TO.N,gp4*%
X101410000Y-131580000D03*
%TO.P,J3,5,Pin_5*%
%TO.N,gp3*%
X101410000Y-134120000D03*
%TO.P,J3,4,Pin_4*%
%TO.N,gp2*%
X101410000Y-136660000D03*
%TO.P,J3,3,Pin_3*%
%TO.N,gp1*%
X101410000Y-139200000D03*
%TO.P,J3,2,Pin_2*%
%TO.N,+3V3*%
X101410000Y-141740000D03*
D11*
%TO.P,J3,1,Pin_1*%
%TO.N,GND*%
X101410000Y-144280000D03*
%TD*%
D12*
%TO.P,REF\u002A\u002A,1*%
%TO.N,N/C*%
X51250000Y-66548000D03*
%TD*%
%TO.P,REF\u002A\u002A,2*%
%TO.N,N/C*%
X86683000Y-66548000D03*
%TD*%
%TO.P,REF\u002A\u002A,4*%
%TO.N,N/C*%
X97790000Y-149500000D03*
%TD*%
%TO.P,a,3*%
%TO.N,N/C*%
X35500000Y-149500000D03*
%TD*%
D13*
%TO.P,R6,1*%
%TO.N,ss10*%
X66802000Y-122936000D03*
D14*
%TO.P,R6,2*%
%TO.N,+3V3*%
X66802000Y-112776000D03*
%TD*%
D15*
%TO.P,U15,1,GND*%
%TO.N,GND*%
X73873000Y-61381000D03*
%TO.P,U15,2,Vcc*%
%TO.N,+3V3*%
X73873000Y-58841000D03*
%TO.P,U15,3,SS*%
%TO.N,ss16*%
X73873000Y-56301000D03*
%TO.P,U15,4,NC*%
%TO.N,Net-(U2-Pad4)*%
X84473000Y-56301000D03*
%TO.P,U15,5,MISO*%
%TO.N,MISO1*%
X84473000Y-58841000D03*
%TO.P,U15,6,SCLK*%
%TO.N,SCK1*%
X84473000Y-61381000D03*
%TD*%
%TO.P,U13,1,GND*%
%TO.N,GND*%
X73883000Y-91821000D03*
%TO.P,U13,2,Vcc*%
%TO.N,+3V3*%
X73883000Y-89281000D03*
%TO.P,U13,3,SS*%
%TO.N,ss13*%
X73883000Y-86741000D03*
%TO.P,U13,4,NC*%
%TO.N,Net-(U1-Pad4)*%
X84483000Y-86741000D03*
%TO.P,U13,5,MISO*%
%TO.N,MISO1*%
X84483000Y-89281000D03*
%TO.P,U13,6,SCLK*%
%TO.N,SCK1*%
X84483000Y-91821000D03*
%TD*%
%TO.P,U8,1,GND*%
%TO.N,GND*%
X64000000Y-86700000D03*
%TO.P,U8,2,Vcc*%
%TO.N,+3V3*%
X64000000Y-89240000D03*
%TO.P,U8,3,SS*%
%TO.N,ss8*%
X64000000Y-91780000D03*
%TO.P,U8,4,NC*%
%TO.N,Net-(U1-Pad4)*%
X53400000Y-91780000D03*
%TO.P,U8,5,MISO*%
%TO.N,MISO*%
X53400000Y-89240000D03*
%TO.P,U8,6,SCLK*%
%TO.N,SCK*%
X53400000Y-86700000D03*
%TD*%
D13*
%TO.P,R10,1*%
%TO.N,ss15*%
X66802000Y-66040000D03*
D14*
%TO.P,R10,2*%
%TO.N,+3V3*%
X66802000Y-55880000D03*
%TD*%
D15*
%TO.P,U14,1,GND*%
%TO.N,GND*%
X73873000Y-76621000D03*
%TO.P,U14,2,Vcc*%
%TO.N,+3V3*%
X73873000Y-74081000D03*
%TO.P,U14,3,SS*%
%TO.N,ss14*%
X73873000Y-71541000D03*
%TO.P,U14,4,NC*%
%TO.N,Net-(U2-Pad4)*%
X84473000Y-71541000D03*
%TO.P,U14,5,MISO*%
%TO.N,MISO1*%
X84473000Y-74081000D03*
%TO.P,U14,6,SCLK*%
%TO.N,SCK1*%
X84473000Y-76621000D03*
%TD*%
D13*
%TO.P,R1,1*%
%TO.N,Net-(R1-Pad1)*%
X35372201Y-114554000D03*
D14*
%TO.P,R1,2*%
%TO.N,+3V3*%
X35372201Y-124714000D03*
%TD*%
D13*
%TO.P,R8,1*%
%TO.N,ss8*%
X66802000Y-95758000D03*
D14*
%TO.P,R8,2*%
%TO.N,+3V3*%
X66802000Y-85598000D03*
%TD*%
D11*
%TO.P,J1,1,Pin_1*%
%TO.N,VCC*%
X35550000Y-129130000D03*
D10*
%TO.P,J1,2,Pin_2*%
%TO.N,GND*%
X38090000Y-129130000D03*
%TO.P,J1,3,Pin_3*%
%TO.N,+3V3*%
X40630000Y-129130000D03*
%TO.P,J1,4,Pin_4*%
%TO.N,Net-(R1-Pad1)*%
X43170000Y-129130000D03*
%TO.P,J1,5,Pin_5*%
%TO.N,Net-(R2-Pad1)*%
X45710000Y-129130000D03*
%TO.P,J1,6,Pin_6*%
%TO.N,ss3*%
X48250000Y-129130000D03*
%TO.P,J1,7,Pin_7*%
%TO.N,ss4*%
X50790000Y-129130000D03*
%TO.P,J1,8,Pin_8*%
%TO.N,ss5*%
X53330000Y-129130000D03*
%TO.P,J1,9,Pin_9*%
%TO.N,ss6*%
X55870000Y-129130000D03*
%TO.P,J1,10,Pin_10*%
%TO.N,ss7*%
X58410000Y-129130000D03*
%TO.P,J1,11,Pin_11*%
%TO.N,ss8*%
X60950000Y-129130000D03*
%TO.P,J1,12,Pin_12*%
%TO.N,ss9*%
X63490000Y-129130000D03*
%TO.P,J1,13,Pin_13*%
%TO.N,ss10*%
X66030000Y-129130000D03*
%TO.P,J1,14,Pin_14*%
%TO.N,SCK*%
X68570000Y-129130000D03*
%TO.P,J1,15,Pin_15*%
%TO.N,GND*%
X71110000Y-129130000D03*
%TO.P,J1,16,Pin_16*%
%TO.N,ss11*%
X73650000Y-129130000D03*
%TO.P,J1,17,Pin_17*%
%TO.N,ss12*%
X76190000Y-129130000D03*
%TO.P,J1,18,Pin_18*%
%TO.N,ss13*%
X78730000Y-129130000D03*
%TO.P,J1,19,Pin_19*%
%TO.N,ss14*%
X81270000Y-129130000D03*
%TO.P,J1,20,Pin_20*%
%TO.N,ss15*%
X83810000Y-129130000D03*
%TO.P,J1,21,Pin_21*%
%TO.N,ss16*%
X86350000Y-129130000D03*
%TO.P,J1,22,Pin_22*%
%TO.N,gp3*%
X88890000Y-129130000D03*
%TO.P,J1,23,Pin_23*%
%TO.N,gp5*%
X91430000Y-129130000D03*
%TO.P,J1,24,Pin_24*%
%TO.N,gp4*%
X93970000Y-129130000D03*
%TD*%
D11*
%TO.P,J2,1,Pin_1*%
%TO.N,GND*%
X35550000Y-144280000D03*
D10*
%TO.P,J2,2,Pin_2*%
%TO.N,gp6*%
X38090000Y-144280000D03*
%TO.P,J2,3,Pin_3*%
%TO.N,MISO1*%
X40630000Y-144280000D03*
%TO.P,J2,4,Pin_4*%
%TO.N,gp7*%
X43170000Y-144280000D03*
%TO.P,J2,5,Pin_5*%
%TO.N,gp8*%
X45710000Y-144280000D03*
%TO.P,J2,6,Pin_6*%
%TO.N,gp9*%
X48250000Y-144280000D03*
%TO.P,J2,7,Pin_7*%
%TO.N,gp10*%
X50790000Y-144280000D03*
%TO.P,J2,8,Pin_8*%
%TO.N,gp11*%
X53330000Y-144280000D03*
%TO.P,J2,9,Pin_9*%
%TO.N,gp12*%
X55870000Y-144280000D03*
%TO.P,J2,10,Pin_10*%
%TO.N,gp13*%
X58410000Y-144280000D03*
%TO.P,J2,11,Pin_11*%
%TO.N,gp14*%
X60950000Y-144280000D03*
%TO.P,J2,12,Pin_12*%
%TO.N,gp15*%
X63490000Y-144280000D03*
%TO.P,J2,13,Pin_13*%
%TO.N,MOSI*%
X66030000Y-144280000D03*
%TO.P,J2,14,Pin_14*%
%TO.N,MISO*%
X68570000Y-144280000D03*
%TO.P,J2,15,Pin_15*%
%TO.N,+3V3*%
X71110000Y-144280000D03*
%TO.P,J2,16,Pin_16*%
%TO.N,gp1*%
X73650000Y-144280000D03*
%TO.P,J2,17,Pin_17*%
%TO.N,gp2*%
X76190000Y-144280000D03*
%TO.P,J2,18,Pin_18*%
%TO.N,MOSI1*%
X78730000Y-144280000D03*
%TO.P,J2,19,Pin_19*%
%TO.N,SCK1*%
X81270000Y-144280000D03*
%TO.P,J2,20,Pin_20*%
%TO.N,ss20*%
X83810000Y-144280000D03*
%TO.P,J2,21,Pin_21*%
%TO.N,ss21*%
X86350000Y-144280000D03*
%TO.P,J2,22,Pin_22*%
%TO.N,ss22*%
X88890000Y-144280000D03*
%TO.P,J2,23,Pin_23*%
%TO.N,ss23*%
X91430000Y-144280000D03*
%TO.P,J2,24,Pin_24*%
%TO.N,ss24*%
X93970000Y-144280000D03*
%TD*%
D13*
%TO.P,R4,1*%
%TO.N,ss4*%
X35372201Y-71120000D03*
D14*
%TO.P,R4,2*%
%TO.N,+3V3*%
X35372201Y-81280000D03*
%TD*%
D15*
%TO.P,U18,1,GND*%
%TO.N,GND*%
X98740000Y-86620000D03*
%TO.P,U18,2,Vcc*%
%TO.N,+3V3*%
X98740000Y-89160000D03*
%TO.P,U18,3,SS*%
%TO.N,ss22*%
X98740000Y-91700000D03*
%TO.P,U18,4,NC*%
%TO.N,Net-(U2-Pad4)*%
X88140000Y-91700000D03*
%TO.P,U18,5,MISO*%
%TO.N,MISO1*%
X88140000Y-89160000D03*
%TO.P,U18,6,SCLK*%
%TO.N,SCK1*%
X88140000Y-86620000D03*
%TD*%
%TO.P,U3,1,GND*%
%TO.N,GND*%
X38230201Y-91850000D03*
%TO.P,U3,2,Vcc*%
%TO.N,+3V3*%
X38230201Y-89310000D03*
%TO.P,U3,3,SS*%
%TO.N,ss3*%
X38230201Y-86770000D03*
%TO.P,U3,4,NC*%
%TO.N,Net-(U1-Pad4)*%
X48830201Y-86770000D03*
%TO.P,U3,5,MISO*%
%TO.N,MISO*%
X48830201Y-89310000D03*
%TO.P,U3,6,SCLK*%
%TO.N,SCK*%
X48830201Y-91850000D03*
%TD*%
D13*
%TO.P,R16,1*%
%TO.N,ss24*%
X101346000Y-122682000D03*
D14*
%TO.P,R16,2*%
%TO.N,+3V3*%
X101346000Y-112522000D03*
%TD*%
D15*
%TO.P,U17,1,GND*%
%TO.N,GND*%
X98740000Y-101860000D03*
%TO.P,U17,2,Vcc*%
%TO.N,+3V3*%
X98740000Y-104400000D03*
%TO.P,U17,3,SS*%
%TO.N,ss23*%
X98740000Y-106940000D03*
%TO.P,U17,4,NC*%
%TO.N,Net-(U2-Pad4)*%
X88140000Y-106940000D03*
%TO.P,U17,5,MISO*%
%TO.N,MISO1*%
X88140000Y-104400000D03*
%TO.P,U17,6,SCLK*%
%TO.N,SCK1*%
X88140000Y-101860000D03*
%TD*%
%TO.P,U20,1,GND*%
%TO.N,GND*%
X98740000Y-56140000D03*
%TO.P,U20,2,Vcc*%
%TO.N,+3V3*%
X98740000Y-58680000D03*
%TO.P,U20,3,SS*%
%TO.N,ss20*%
X98740000Y-61220000D03*
%TO.P,U20,4,NC*%
%TO.N,Net-(U2-Pad4)*%
X88140000Y-61220000D03*
%TO.P,U20,5,MISO*%
%TO.N,MISO1*%
X88140000Y-58680000D03*
%TO.P,U20,6,SCLK*%
%TO.N,SCK1*%
X88140000Y-56140000D03*
%TD*%
D13*
%TO.P,R19,1*%
%TO.N,ss21*%
X101346000Y-80543181D03*
D14*
%TO.P,R19,2*%
%TO.N,+3V3*%
X101346000Y-70383181D03*
%TD*%
D15*
%TO.P,U16,1,GND*%
%TO.N,GND*%
X98740000Y-117100000D03*
%TO.P,U16,2,Vcc*%
%TO.N,+3V3*%
X98740000Y-119640000D03*
%TO.P,U16,3,SS*%
%TO.N,ss24*%
X98740000Y-122180000D03*
%TO.P,U16,4,NC*%
%TO.N,Net-(U2-Pad4)*%
X88140000Y-122180000D03*
%TO.P,U16,5,MISO*%
%TO.N,MISO1*%
X88140000Y-119640000D03*
%TO.P,U16,6,SCLK*%
%TO.N,SCK1*%
X88140000Y-117100000D03*
%TD*%
D13*
%TO.P,R5,1*%
%TO.N,ss5*%
X35372201Y-55880000D03*
D14*
%TO.P,R5,2*%
%TO.N,+3V3*%
X35372201Y-66040000D03*
%TD*%
D13*
%TO.P,R12,1*%
%TO.N,ss12*%
X71120000Y-99364800D03*
D14*
%TO.P,R12,2*%
%TO.N,+3V3*%
X71120000Y-109524800D03*
%TD*%
D15*
%TO.P,U12,1,GND*%
%TO.N,GND*%
X73883000Y-107061000D03*
%TO.P,U12,2,Vcc*%
%TO.N,+3V3*%
X73883000Y-104521000D03*
%TO.P,U12,3,SS*%
%TO.N,ss12*%
X73883000Y-101981000D03*
%TO.P,U12,4,NC*%
%TO.N,Net-(U1-Pad4)*%
X84483000Y-101981000D03*
%TO.P,U12,5,MISO*%
%TO.N,MISO1*%
X84483000Y-104521000D03*
%TO.P,U12,6,SCLK*%
%TO.N,SCK1*%
X84483000Y-107061000D03*
%TD*%
%TO.P,U5,1,GND*%
%TO.N,GND*%
X38230201Y-61370000D03*
%TO.P,U5,2,Vcc*%
%TO.N,+3V3*%
X38230201Y-58830000D03*
%TO.P,U5,3,SS*%
%TO.N,ss5*%
X38230201Y-56290000D03*
%TO.P,U5,4,NC*%
%TO.N,Net-(U1-Pad4)*%
X48830201Y-56290000D03*
%TO.P,U5,5,MISO*%
%TO.N,MISO*%
X48830201Y-58830000D03*
%TO.P,U5,6,SCLK*%
%TO.N,SCK*%
X48830201Y-61370000D03*
%TD*%
%TO.P,U6,1,GND*%
%TO.N,GND*%
X64000000Y-117180000D03*
%TO.P,U6,2,Vcc*%
%TO.N,+3V3*%
X64000000Y-119720000D03*
%TO.P,U6,3,SS*%
%TO.N,ss10*%
X64000000Y-122260000D03*
%TO.P,U6,4,NC*%
%TO.N,Net-(U1-Pad4)*%
X53400000Y-122260000D03*
%TO.P,U6,5,MISO*%
%TO.N,MISO*%
X53400000Y-119720000D03*
%TO.P,U6,6,SCLK*%
%TO.N,SCK*%
X53400000Y-117180000D03*
%TD*%
D13*
%TO.P,R11,1*%
%TO.N,ss11*%
X71120000Y-112826800D03*
D14*
%TO.P,R11,2*%
%TO.N,+3V3*%
X71120000Y-122986800D03*
%TD*%
D13*
%TO.P,R9,1*%
%TO.N,ss7*%
X66802000Y-80772000D03*
D14*
%TO.P,R9,2*%
%TO.N,+3V3*%
X66802000Y-70612000D03*
%TD*%
D15*
%TO.P,U2,1,GND*%
%TO.N,GND*%
X38230201Y-107090000D03*
%TO.P,U2,2,Vcc*%
%TO.N,+3V3*%
X38230201Y-104550000D03*
%TO.P,U2,3,SS*%
%TO.N,Net-(R2-Pad1)*%
X38230201Y-102010000D03*
%TO.P,U2,4,NC*%
%TO.N,Net-(U1-Pad4)*%
X48830201Y-102010000D03*
%TO.P,U2,5,MISO*%
%TO.N,MISO*%
X48830201Y-104550000D03*
%TO.P,U2,6,SCLK*%
%TO.N,SCK*%
X48830201Y-107090000D03*
%TD*%
D13*
%TO.P,R7,1*%
%TO.N,ss9*%
X66802000Y-109474000D03*
D14*
%TO.P,R7,2*%
%TO.N,+3V3*%
X66802000Y-99314000D03*
%TD*%
D13*
%TO.P,R3,1*%
%TO.N,ss3*%
X35372201Y-86360000D03*
D14*
%TO.P,R3,2*%
%TO.N,+3V3*%
X35372201Y-96520000D03*
%TD*%
D13*
%TO.P,R17,1*%
%TO.N,ss23*%
X101346000Y-109756737D03*
D14*
%TO.P,R17,2*%
%TO.N,+3V3*%
X101346000Y-99596737D03*
%TD*%
D15*
%TO.P,U10,1,GND*%
%TO.N,GND*%
X64000000Y-56220000D03*
%TO.P,U10,2,Vcc*%
%TO.N,+3V3*%
X64000000Y-58760000D03*
%TO.P,U10,3,SS*%
%TO.N,ss15*%
X64000000Y-61300000D03*
%TO.P,U10,4,NC*%
%TO.N,Net-(U1-Pad4)*%
X53400000Y-61300000D03*
%TO.P,U10,5,MISO*%
%TO.N,MISO*%
X53400000Y-58760000D03*
%TO.P,U10,6,SCLK*%
%TO.N,SCK*%
X53400000Y-56220000D03*
%TD*%
D13*
%TO.P,R13,1*%
%TO.N,ss13*%
X71120000Y-85598000D03*
D14*
%TO.P,R13,2*%
%TO.N,+3V3*%
X71120000Y-95758000D03*
%TD*%
D13*
%TO.P,R2,1*%
%TO.N,Net-(R2-Pad1)*%
X35372201Y-101092000D03*
D14*
%TO.P,R2,2*%
%TO.N,+3V3*%
X35372201Y-111252000D03*
%TD*%
D15*
%TO.P,U4,1,GND*%
%TO.N,GND*%
X38230201Y-76610000D03*
%TO.P,U4,2,Vcc*%
%TO.N,+3V3*%
X38230201Y-74070000D03*
%TO.P,U4,3,SS*%
%TO.N,ss4*%
X38230201Y-71530000D03*
%TO.P,U4,4,NC*%
%TO.N,Net-(U1-Pad4)*%
X48830201Y-71530000D03*
%TO.P,U4,5,MISO*%
%TO.N,MISO*%
X48830201Y-74070000D03*
%TO.P,U4,6,SCLK*%
%TO.N,SCK*%
X48830201Y-76610000D03*
%TD*%
%TO.P,U7,1,GND*%
%TO.N,GND*%
X64000000Y-101940000D03*
%TO.P,U7,2,Vcc*%
%TO.N,+3V3*%
X64000000Y-104480000D03*
%TO.P,U7,3,SS*%
%TO.N,ss9*%
X64000000Y-107020000D03*
%TO.P,U7,4,NC*%
%TO.N,Net-(U1-Pad4)*%
X53400000Y-107020000D03*
%TO.P,U7,5,MISO*%
%TO.N,MISO*%
X53400000Y-104480000D03*
%TO.P,U7,6,SCLK*%
%TO.N,SCK*%
X53400000Y-101940000D03*
%TD*%
%TO.P,U9,1,GND*%
%TO.N,GND*%
X64000000Y-71460000D03*
%TO.P,U9,2,Vcc*%
%TO.N,+3V3*%
X64000000Y-74000000D03*
%TO.P,U9,3,SS*%
%TO.N,ss7*%
X64000000Y-76540000D03*
%TO.P,U9,4,NC*%
%TO.N,Net-(U1-Pad4)*%
X53400000Y-76540000D03*
%TO.P,U9,5,MISO*%
%TO.N,MISO*%
X53400000Y-74000000D03*
%TO.P,U9,6,SCLK*%
%TO.N,SCK*%
X53400000Y-71460000D03*
%TD*%
%TO.P,U1,1,GND*%
%TO.N,GND*%
X38230201Y-122330000D03*
%TO.P,U1,2,Vcc*%
%TO.N,+3V3*%
X38230201Y-119790000D03*
%TO.P,U1,3,SS*%
%TO.N,Net-(R1-Pad1)*%
X38230201Y-117250000D03*
%TO.P,U1,4,NC*%
%TO.N,Net-(U1-Pad4)*%
X48830201Y-117250000D03*
%TO.P,U1,5,MISO*%
%TO.N,MISO*%
X48830201Y-119790000D03*
%TO.P,U1,6,SCLK*%
%TO.N,SCK*%
X48830201Y-122330000D03*
%TD*%
D13*
%TO.P,R15,1*%
%TO.N,ss16*%
X71120000Y-55880000D03*
D14*
%TO.P,R15,2*%
%TO.N,+3V3*%
X71120000Y-66040000D03*
%TD*%
D13*
%TO.P,R14,1*%
%TO.N,ss14*%
X71120000Y-70612000D03*
D14*
%TO.P,R14,2*%
%TO.N,+3V3*%
X71120000Y-80772000D03*
%TD*%
D15*
%TO.P,U19,1,GND*%
%TO.N,GND*%
X98740000Y-71380000D03*
%TO.P,U19,2,Vcc*%
%TO.N,+3V3*%
X98740000Y-73920000D03*
%TO.P,U19,3,SS*%
%TO.N,ss21*%
X98740000Y-76460000D03*
%TO.P,U19,4,NC*%
%TO.N,Net-(U2-Pad4)*%
X88140000Y-76460000D03*
%TO.P,U19,5,MISO*%
%TO.N,MISO1*%
X88140000Y-73920000D03*
%TO.P,U19,6,SCLK*%
%TO.N,SCK1*%
X88140000Y-71380000D03*
%TD*%
%TO.P,U11,1,GND*%
%TO.N,GND*%
X73883000Y-122301000D03*
%TO.P,U11,2,Vcc*%
%TO.N,+3V3*%
X73883000Y-119761000D03*
%TO.P,U11,3,SS*%
%TO.N,ss11*%
X73883000Y-117221000D03*
%TO.P,U11,4,NC*%
%TO.N,Net-(U1-Pad4)*%
X84483000Y-117221000D03*
%TO.P,U11,5,MISO*%
%TO.N,MISO1*%
X84483000Y-119761000D03*
%TO.P,U11,6,SCLK*%
%TO.N,SCK1*%
X84483000Y-122301000D03*
%TD*%
D13*
%TO.P,R20,1*%
%TO.N,ss20*%
X101346000Y-65835388D03*
D14*
%TO.P,R20,2*%
%TO.N,+3V3*%
X101346000Y-55675388D03*
%TD*%
D13*
%TO.P,R18,1*%
%TO.N,ss22*%
X101396800Y-96021611D03*
D14*
%TO.P,R18,2*%
%TO.N,+3V3*%
X101396800Y-85861611D03*
%TD*%
D16*
%TO.N,GND*%
X38354000Y-124206000D03*
%TO.N,gp2*%
X100264200Y-138430000D03*
%TO.N,gp1*%
X103378000Y-140970000D03*
%TO.N,MISO1*%
X70624200Y-138684000D03*
X69055800Y-138684000D03*
%TO.N,SCK1*%
X81280000Y-139468200D03*
X81280000Y-137899800D03*
%TO.N,GND*%
X98760000Y-115990000D03*
X98740000Y-100660000D03*
X97030000Y-86630000D03*
X97050000Y-71380000D03*
X97000000Y-56180000D03*
X73930000Y-78250000D03*
X73900000Y-93180000D03*
X73930000Y-108470000D03*
X73190000Y-123430000D03*
X62170000Y-117210000D03*
X62130000Y-101950000D03*
X61990000Y-86690000D03*
X62150000Y-71460000D03*
X62130000Y-56190000D03*
X38240000Y-62670000D03*
X38260000Y-78320000D03*
X38240000Y-93260000D03*
X38240000Y-108600000D03*
D17*
X73910201Y-63340000D03*
D16*
%TO.N,ss7*%
X58928000Y-124866400D03*
X59055000Y-122339100D03*
%TO.N,ss8*%
X60325000Y-124866400D03*
X60198000Y-122339100D03*
%TO.N,ss9*%
X61971086Y-124871314D03*
X61087000Y-122339100D03*
%TO.N,ss10*%
X63079724Y-124866400D03*
X61976000Y-122301000D03*
%TO.N,ss15*%
X68300600Y-67716400D03*
X69875400Y-68326000D03*
%TD*%
D18*
%TO.N,+3V3*%
X99518612Y-53848000D02*
X69342000Y-53848000D01*
X69088000Y-55880000D02*
X69088000Y-54102000D01*
X69342000Y-53848000D02*
X68834000Y-53848000D01*
X69088000Y-54102000D02*
X69342000Y-53848000D01*
X101346000Y-55675388D02*
X99518612Y-53848000D01*
X68834000Y-53848000D02*
X34036000Y-53848000D01*
X34036000Y-53848000D02*
X32512000Y-55372000D01*
X32512000Y-55372000D02*
X32512000Y-59436000D01*
D19*
%TO.N,GND*%
X38230201Y-124082201D02*
X38354000Y-124206000D01*
X38230201Y-122330000D02*
X38230201Y-124082201D01*
%TO.N,MISO1*%
X91057000Y-122557000D02*
X92077000Y-122557000D01*
X96266000Y-126746000D02*
X96266000Y-135016000D01*
X92077000Y-122557000D02*
X96266000Y-126746000D01*
D18*
%TO.N,MISO*%
X69840000Y-130810000D02*
X69840000Y-143010000D01*
X69840000Y-143010000D02*
X68570000Y-144280000D01*
D19*
X69662200Y-127695800D02*
X72069800Y-127695800D01*
X72390000Y-130048000D02*
X71374000Y-130810000D01*
X71374000Y-130810000D02*
X69850000Y-130810000D01*
X72069800Y-127695800D02*
X72390000Y-128016000D01*
X72390000Y-128016000D02*
X72390000Y-130048000D01*
D18*
X65089701Y-123123301D02*
X69662200Y-127695800D01*
%TO.N,SCK*%
X68570000Y-129130000D02*
X63522199Y-124082199D01*
X63522199Y-124082199D02*
X58551583Y-124082199D01*
X58551583Y-124082199D02*
X58173782Y-124460000D01*
X58173782Y-124460000D02*
X50960201Y-124460000D01*
X50960201Y-124460000D02*
X48830201Y-122330000D01*
%TO.N,MISO*%
X55740000Y-120184718D02*
X58678583Y-123123301D01*
X58678583Y-123123301D02*
X60574417Y-123123301D01*
X55740000Y-119650000D02*
X55740000Y-120184718D01*
X60710583Y-123123301D02*
X65089701Y-123123301D01*
D19*
%TO.N,gp9*%
X48327672Y-144280000D02*
X51621672Y-147574000D01*
X51621672Y-147574000D02*
X53340000Y-147574000D01*
X48250000Y-144280000D02*
X48327672Y-144280000D01*
X53340000Y-147574000D02*
X55118000Y-149352000D01*
%TO.N,gp8*%
X45787672Y-144280000D02*
X49081672Y-147574000D01*
X50800000Y-147574000D02*
X52578000Y-149352000D01*
X45710000Y-144280000D02*
X45787672Y-144280000D01*
X49081672Y-147574000D02*
X50800000Y-147574000D01*
%TO.N,gp15*%
X63567672Y-144280000D02*
X66861672Y-147574000D01*
X68580000Y-147574000D02*
X70358000Y-149352000D01*
X63490000Y-144280000D02*
X63567672Y-144280000D01*
X66861672Y-147574000D02*
X68580000Y-147574000D01*
%TO.N,gp14*%
X61027672Y-144280000D02*
X64321672Y-147574000D01*
X60950000Y-144280000D02*
X61027672Y-144280000D01*
X64321672Y-147574000D02*
X66040000Y-147574000D01*
X66040000Y-147574000D02*
X67818000Y-149352000D01*
%TO.N,gp13*%
X58487672Y-144280000D02*
X61781672Y-147574000D01*
X58410000Y-144280000D02*
X58487672Y-144280000D01*
X61781672Y-147574000D02*
X63500000Y-147574000D01*
X63500000Y-147574000D02*
X65278000Y-149352000D01*
%TO.N,gp12*%
X55947672Y-144280000D02*
X59241672Y-147574000D01*
X59241672Y-147574000D02*
X60960000Y-147574000D01*
X55870000Y-144280000D02*
X55947672Y-144280000D01*
X60960000Y-147574000D02*
X62738000Y-149352000D01*
%TO.N,gp11*%
X53407672Y-144280000D02*
X56701672Y-147574000D01*
X53330000Y-144280000D02*
X53407672Y-144280000D01*
X56701672Y-147574000D02*
X58420000Y-147574000D01*
X58420000Y-147574000D02*
X60198000Y-149352000D01*
%TO.N,gp10*%
X50867672Y-144280000D02*
X54161672Y-147574000D01*
X50790000Y-144280000D02*
X50867672Y-144280000D01*
X54161672Y-147574000D02*
X55880000Y-147574000D01*
X55880000Y-147574000D02*
X57658000Y-149352000D01*
%TO.N,gp7*%
X43170000Y-144280000D02*
X46464000Y-147574000D01*
X46464000Y-147574000D02*
X48260000Y-147574000D01*
X48260000Y-147574000D02*
X50038000Y-149352000D01*
%TO.N,gp1*%
X103378000Y-140970000D02*
X103378000Y-142233900D01*
X103378000Y-142233900D02*
X102572401Y-143039499D01*
X102572401Y-143039499D02*
X98828173Y-143039499D01*
X98828173Y-143039499D02*
X94728662Y-147139010D01*
X94728662Y-147139010D02*
X76509010Y-147139010D01*
X76509010Y-147139010D02*
X73650000Y-144280000D01*
%TO.N,gp2*%
X100124510Y-140921490D02*
X94488000Y-146558000D01*
X100264200Y-138430000D02*
X100124510Y-138569690D01*
X78468000Y-146558000D02*
X76190000Y-144280000D01*
X100124510Y-138569690D02*
X100124510Y-140921490D01*
X94488000Y-146558000D02*
X78468000Y-146558000D01*
D18*
%TO.N,MISO1*%
X96266000Y-135016000D02*
X96124000Y-135016000D01*
X96124000Y-135016000D02*
X92456000Y-138684000D01*
X92456000Y-138684000D02*
X70624200Y-138684000D01*
%TO.N,SCK1*%
X95335701Y-133264299D02*
X91948000Y-136652000D01*
X91948000Y-136652000D02*
X82527800Y-136652000D01*
X82527800Y-136652000D02*
X81280000Y-137899800D01*
D19*
%TO.N,gp6*%
X39624000Y-150097942D02*
X41402000Y-151875942D01*
X38090000Y-144280000D02*
X38090000Y-145511000D01*
X38090000Y-145511000D02*
X39624000Y-147045000D01*
X39624000Y-147045000D02*
X39624000Y-150097942D01*
X41402000Y-151875942D02*
X44974058Y-151875942D01*
X44974058Y-151875942D02*
X47498000Y-149352000D01*
%TO.N,+3V3*%
X40630000Y-129130000D02*
X39370000Y-130390000D01*
X39370000Y-130390000D02*
X39370000Y-145542000D01*
X39370000Y-145542000D02*
X40894000Y-147066000D01*
X40894000Y-147066000D02*
X42672000Y-147066000D01*
X42672000Y-147066000D02*
X44958000Y-149352000D01*
D18*
%TO.N,MISO1*%
X69055800Y-138684000D02*
X46226000Y-138684000D01*
X46226000Y-138684000D02*
X40630000Y-144280000D01*
%TO.N,ss20*%
X93959490Y-138820510D02*
X86614000Y-142494000D01*
%TO.N,SCK1*%
X81280000Y-139468200D02*
X81280000Y-144270000D01*
X81280000Y-144270000D02*
X81270000Y-144280000D01*
D19*
X94716099Y-127206099D02*
X95335701Y-127825701D01*
X95335701Y-127825701D02*
X95335701Y-133264299D01*
D18*
%TO.N,ss20*%
X96570000Y-136210000D02*
X93959490Y-138820510D01*
X86614000Y-142494000D02*
X83810000Y-144280000D01*
%TO.N,ss21*%
X97300000Y-136490000D02*
X97300000Y-136634000D01*
X97300000Y-136634000D02*
X94276598Y-139657402D01*
X94276598Y-139657402D02*
X88900000Y-142748000D01*
X88900000Y-142748000D02*
X86350000Y-144280000D01*
%TO.N,ss22*%
X98020000Y-136790000D02*
X98020000Y-137184000D01*
X98020000Y-137184000D02*
X94488000Y-140716000D01*
X94488000Y-140716000D02*
X88890000Y-144280000D01*
%TO.N,ss23*%
X98768790Y-137071210D02*
X98768790Y-137451210D01*
X98768790Y-137451210D02*
X91940000Y-144280000D01*
X91940000Y-144280000D02*
X91430000Y-144280000D01*
%TO.N,ss24*%
X99480000Y-137370000D02*
X99480000Y-138770000D01*
X99480000Y-138770000D02*
X93970000Y-144280000D01*
%TO.N,SCK1*%
X88140000Y-71380000D02*
X87372000Y-70612000D01*
X87372000Y-70612000D02*
X82760000Y-70612000D01*
X82760000Y-70612000D02*
X82760000Y-72840000D01*
%TO.N,+3V3*%
X69088000Y-55880000D02*
X69088000Y-58674000D01*
X32512000Y-65786000D02*
X32512000Y-59436000D01*
X32512000Y-59436000D02*
X32512000Y-58928000D01*
%TO.N,ss20*%
X98740000Y-61220000D02*
X98862800Y-61220000D01*
X101346000Y-63703200D02*
X101346000Y-65835388D01*
X98862800Y-61220000D02*
X101346000Y-63703200D01*
%TO.N,+3V3*%
X101346000Y-55675388D02*
X103454200Y-57783588D01*
X103454200Y-57783588D02*
X103454200Y-58699400D01*
X101346000Y-70383181D02*
X101346000Y-69265800D01*
%TO.N,ss21*%
X98740000Y-76460000D02*
X101346000Y-79066000D01*
X101346000Y-79066000D02*
X101346000Y-80543181D01*
%TO.N,+3V3*%
X101346000Y-69265800D02*
X103454200Y-67157600D01*
X101396800Y-85861611D02*
X103454200Y-83804211D01*
%TO.N,ss22*%
X98740000Y-91700000D02*
X101396800Y-94356800D01*
X101396800Y-94356800D02*
X101396800Y-96021611D01*
%TO.N,+3V3*%
X103454200Y-83804211D02*
X103454200Y-82550000D01*
%TO.N,ss23*%
X98740000Y-106940000D02*
X101346000Y-109546000D01*
%TO.N,+3V3*%
X103152737Y-97790000D02*
X103454200Y-97790000D01*
%TO.N,ss23*%
X101346000Y-109546000D02*
X101346000Y-109756737D01*
%TO.N,+3V3*%
X101346000Y-99596737D02*
X103152737Y-97790000D01*
%TO.N,SCK*%
X53400000Y-117180000D02*
X52044000Y-115824000D01*
X46888400Y-117174599D02*
X46888400Y-118468400D01*
X52044000Y-115824000D02*
X48238999Y-115824000D01*
X48238999Y-115824000D02*
X46888400Y-117174599D01*
X53400000Y-101940000D02*
X52298000Y-100838000D01*
X52298000Y-100838000D02*
X47984999Y-100838000D01*
X47984999Y-100838000D02*
X46888400Y-101934599D01*
X46888400Y-101934599D02*
X46888400Y-103381600D01*
X53400000Y-86700000D02*
X52552000Y-85852000D01*
X47730999Y-85852000D02*
X46888400Y-86694599D01*
X52552000Y-85852000D02*
X47730999Y-85852000D01*
X46888400Y-86694599D02*
X46888400Y-88061600D01*
X53400000Y-71460000D02*
X52298000Y-70358000D01*
X52298000Y-70358000D02*
X47984999Y-70358000D01*
X47984999Y-70358000D02*
X46888400Y-71454599D01*
X46888400Y-71454599D02*
X46888400Y-72248400D01*
X53400000Y-56220000D02*
X52044000Y-54864000D01*
X48238999Y-54864000D02*
X46888400Y-56214599D01*
X52044000Y-54864000D02*
X48238999Y-54864000D01*
X46888400Y-56214599D02*
X46888400Y-57318400D01*
%TO.N,SCK1*%
X82760000Y-57630000D02*
X82760000Y-55996798D01*
X82760000Y-55996798D02*
X83234799Y-55521999D01*
X83234799Y-55521999D02*
X87521999Y-55521999D01*
X87521999Y-55521999D02*
X88140000Y-56140000D01*
X82760000Y-76640000D02*
X82760000Y-85554000D01*
X87074000Y-85554000D02*
X82760000Y-85554000D01*
X82760000Y-85554000D02*
X82760000Y-91904000D01*
X88140000Y-86620000D02*
X87074000Y-85554000D01*
X82760000Y-91904000D02*
X82760000Y-100794000D01*
X84483000Y-91821000D02*
X82843000Y-91821000D01*
X82843000Y-91821000D02*
X82760000Y-91904000D01*
X87074000Y-100794000D02*
X82760000Y-100794000D01*
X82760000Y-100794000D02*
X82760000Y-107232000D01*
X88140000Y-101860000D02*
X87074000Y-100794000D01*
X82760000Y-107232000D02*
X82760000Y-115780000D01*
X84483000Y-107061000D02*
X82931000Y-107061000D01*
X82931000Y-107061000D02*
X82760000Y-107232000D01*
X82760000Y-115780000D02*
X82760000Y-122218000D01*
X88140000Y-117100000D02*
X86820000Y-115780000D01*
X86820000Y-115780000D02*
X82760000Y-115780000D01*
X82760000Y-122218000D02*
X82760000Y-123654000D01*
X84483000Y-122301000D02*
X82843000Y-122301000D01*
X82843000Y-122301000D02*
X82760000Y-122218000D01*
%TO.N,MISO1*%
X88140000Y-89160000D02*
X84604000Y-89160000D01*
X84604000Y-89160000D02*
X84483000Y-89281000D01*
X88140000Y-104400000D02*
X84604000Y-104400000D01*
X84604000Y-104400000D02*
X84483000Y-104521000D01*
X88140000Y-119640000D02*
X84604000Y-119640000D01*
X84604000Y-119640000D02*
X84483000Y-119761000D01*
D19*
X88140000Y-119640000D02*
X91057000Y-122557000D01*
D18*
X90525600Y-117254400D02*
X90525600Y-122025600D01*
X90525600Y-122025600D02*
X91057000Y-122557000D01*
X90525600Y-104495600D02*
X90430000Y-104400000D01*
X90430000Y-104400000D02*
X88140000Y-104400000D01*
X90328400Y-89160000D02*
X88140000Y-89160000D01*
%TO.N,SCK1*%
X82760000Y-123654000D02*
X83312000Y-124206000D01*
X83312000Y-124206000D02*
X91741901Y-124206000D01*
X91741901Y-124206000D02*
X94742000Y-127206099D01*
%TO.N,+3V3*%
X66802000Y-55880000D02*
X69088000Y-55880000D01*
X101410000Y-141740000D02*
X103448200Y-139701800D01*
X103448200Y-139701800D02*
X103448200Y-119640000D01*
%TO.N,SCK*%
X48830201Y-122330000D02*
X48080000Y-122330000D01*
X48080000Y-122330000D02*
X46888400Y-121138400D01*
X46888400Y-121138400D02*
X46888400Y-119871161D01*
%TO.N,GND*%
X98740000Y-116010000D02*
X98760000Y-115990000D01*
X98740000Y-117100000D02*
X98740000Y-116010000D01*
X98740000Y-101860000D02*
X98740000Y-100660000D01*
X97040000Y-86620000D02*
X97030000Y-86630000D01*
X98740000Y-86620000D02*
X97040000Y-86620000D01*
X98740000Y-71380000D02*
X97050000Y-71380000D01*
X97040000Y-56140000D02*
X97000000Y-56180000D01*
X98740000Y-56140000D02*
X97040000Y-56140000D01*
X73873000Y-78193000D02*
X73930000Y-78250000D01*
X73873000Y-76621000D02*
X73873000Y-78193000D01*
X73883000Y-93163000D02*
X73900000Y-93180000D01*
X73883000Y-91821000D02*
X73883000Y-93163000D01*
X73883000Y-108423000D02*
X73930000Y-108470000D01*
X73883000Y-107061000D02*
X73883000Y-108423000D01*
D19*
%TO.N,SCK1*%
X81130000Y-144140000D02*
X81270000Y-144280000D01*
%TO.N,ss20*%
X96570000Y-125800000D02*
X97143160Y-126373160D01*
X97143160Y-126373160D02*
X97143160Y-135636840D01*
X97143160Y-135636840D02*
X96570000Y-136210000D01*
%TO.N,ss21*%
X97300000Y-125160000D02*
X97727370Y-125587370D01*
X97727370Y-136062630D02*
X97300000Y-136490000D01*
X97727370Y-125587370D02*
X97727370Y-136062630D01*
%TO.N,ss22*%
X98020000Y-124860000D02*
X98311580Y-125151580D01*
X98311580Y-125151580D02*
X98311580Y-136498420D01*
X98311580Y-136498420D02*
X98020000Y-136790000D01*
%TO.N,ss23*%
X98768790Y-137071210D02*
X98895790Y-136944210D01*
X98895790Y-124315166D02*
X98768790Y-124188166D01*
X98895790Y-136944210D02*
X98895790Y-124315166D01*
D18*
%TO.N,GND*%
X73190000Y-123430000D02*
X73883000Y-123017800D01*
X73883000Y-123017800D02*
X73883000Y-122301000D01*
X62200000Y-117180000D02*
X62170000Y-117210000D01*
X64000000Y-117180000D02*
X62200000Y-117180000D01*
X62140000Y-101940000D02*
X62130000Y-101950000D01*
X64000000Y-101940000D02*
X62140000Y-101940000D01*
X62000000Y-86700000D02*
X61990000Y-86690000D01*
X64000000Y-86700000D02*
X62000000Y-86700000D01*
X64000000Y-71460000D02*
X62150000Y-71460000D01*
X62160000Y-56220000D02*
X62130000Y-56190000D01*
X64000000Y-56220000D02*
X62160000Y-56220000D01*
X38230201Y-62660201D02*
X38240000Y-62670000D01*
X38230201Y-61370000D02*
X38230201Y-62660201D01*
X38230201Y-78290201D02*
X38260000Y-78320000D01*
X38230201Y-76610000D02*
X38230201Y-78290201D01*
X38230201Y-93250201D02*
X38240000Y-93260000D01*
X38230201Y-91850000D02*
X38230201Y-93250201D01*
X38230201Y-108590201D02*
X38240000Y-108600000D01*
X38230201Y-107090000D02*
X38230201Y-108590201D01*
%TO.N,SCK1*%
X82760000Y-76640000D02*
X82760000Y-72840000D01*
X82760000Y-72840000D02*
X82760000Y-61220000D01*
X82779000Y-76621000D02*
X82760000Y-76640000D01*
X84473000Y-76621000D02*
X82779000Y-76621000D01*
X84473000Y-61381000D02*
X82921000Y-61381000D01*
X82760000Y-61220000D02*
X82760000Y-57630000D01*
X82921000Y-61381000D02*
X82760000Y-61220000D01*
%TO.N,SCK*%
X48830201Y-122330000D02*
X48782201Y-122282000D01*
X46888400Y-119871161D02*
X46888400Y-118468400D01*
X46888400Y-118468400D02*
X46888400Y-117144800D01*
X46888400Y-108762800D02*
X46888400Y-107038400D01*
X46888400Y-107038400D02*
X46888400Y-103381600D01*
X48830201Y-107090000D02*
X46940000Y-107090000D01*
X46940000Y-107090000D02*
X46888400Y-107038400D01*
X46888400Y-103381600D02*
X46888400Y-102108000D01*
X46888400Y-93116400D02*
X46888400Y-91998400D01*
X46888400Y-91998400D02*
X46888400Y-88061600D01*
X48830201Y-91850000D02*
X47036800Y-91850000D01*
X47036800Y-91850000D02*
X46888400Y-91998400D01*
X46888400Y-88061600D02*
X46888400Y-86664800D01*
X46888400Y-77724000D02*
X46888400Y-76581600D01*
X46888400Y-76581600D02*
X46888400Y-72248400D01*
X48830201Y-76610000D02*
X46916800Y-76610000D01*
X46916800Y-76610000D02*
X46888400Y-76581600D01*
X46888400Y-72248400D02*
X46888400Y-71628000D01*
X46888400Y-61368400D02*
X46888400Y-57318400D01*
X46888400Y-57318400D02*
X46888400Y-56184800D01*
X46888400Y-62433200D02*
X46888400Y-61368400D01*
X46890000Y-61370000D02*
X46888400Y-61368400D01*
X48830201Y-61370000D02*
X46890000Y-61370000D01*
X46888400Y-86664800D02*
X46888400Y-77724000D01*
X46888400Y-71628000D02*
X46888400Y-62433200D01*
X46888400Y-117144800D02*
X46888400Y-108762800D01*
X46888400Y-102108000D02*
X46888400Y-93116400D01*
%TO.N,MISO*%
X48830201Y-58830000D02*
X53330000Y-58830000D01*
X53400000Y-104480000D02*
X55686000Y-104480000D01*
X55670000Y-119720000D02*
X55740000Y-119650000D01*
X55740000Y-104534000D02*
X55740000Y-89192400D01*
X48830201Y-104550000D02*
X53330000Y-104550000D01*
X53330000Y-74070000D02*
X53400000Y-74000000D01*
X53330000Y-104550000D02*
X53400000Y-104480000D01*
X53400000Y-58760000D02*
X55610400Y-58760000D01*
X53400000Y-74000000D02*
X55458000Y-74000000D01*
X48830201Y-89310000D02*
X53330000Y-89310000D01*
X53400000Y-119720000D02*
X55670000Y-119720000D01*
X55740000Y-89192400D02*
X55740000Y-74282000D01*
X55740000Y-119650000D02*
X55740000Y-104534000D01*
X55692400Y-89240000D02*
X55740000Y-89192400D01*
X55740000Y-74282000D02*
X55740000Y-58889600D01*
X53330000Y-58830000D02*
X53400000Y-58760000D01*
X53330000Y-119790000D02*
X53400000Y-119720000D01*
X55610400Y-58760000D02*
X55740000Y-58889600D01*
X48830201Y-74070000D02*
X53330000Y-74070000D01*
X48830201Y-119790000D02*
X53330000Y-119790000D01*
X55686000Y-104480000D02*
X55740000Y-104534000D01*
X55458000Y-74000000D02*
X55740000Y-74282000D01*
X53330000Y-89310000D02*
X53400000Y-89240000D01*
X53400000Y-89240000D02*
X55692400Y-89240000D01*
%TO.N,+3V3*%
X69240400Y-109524800D02*
X69088000Y-109372400D01*
X103454200Y-112369600D02*
X103454200Y-119634000D01*
X32512000Y-81280000D02*
X32512000Y-74168000D01*
X69088000Y-82423000D02*
X69088000Y-85852000D01*
X38230201Y-119790000D02*
X32610000Y-119790000D01*
X35372201Y-124901799D02*
X34417000Y-125857000D01*
X69088000Y-104140000D02*
X69088000Y-104775000D01*
X32512000Y-104394000D02*
X32512000Y-96520000D01*
X66802000Y-70612000D02*
X68834000Y-70612000D01*
X66802000Y-112776000D02*
X69037200Y-112776000D01*
X73873000Y-74081000D02*
X69302000Y-74081000D01*
X73883000Y-104521000D02*
X69342000Y-104521000D01*
X103454200Y-92532200D02*
X103454200Y-97790000D01*
X37357000Y-125857000D02*
X40630000Y-129130000D01*
X98740000Y-89160000D02*
X103346600Y-89160000D01*
X103454200Y-64008000D02*
X103454200Y-67157600D01*
X103454200Y-104140000D02*
X103454200Y-104521000D01*
X35372201Y-66040000D02*
X32766000Y-66040000D01*
X69002000Y-58760000D02*
X69088000Y-58674000D01*
X103454200Y-97790000D02*
X103454200Y-104140000D01*
X73873000Y-58841000D02*
X69225800Y-58841000D01*
X103454200Y-89052400D02*
X103454200Y-92532200D01*
X32512000Y-123952000D02*
X32512000Y-120650000D01*
X103454200Y-107924600D02*
X103454200Y-112369600D01*
X103454200Y-73964800D02*
X103454200Y-78003400D01*
X103454200Y-78003400D02*
X103454200Y-82550000D01*
X98740000Y-58680000D02*
X103434800Y-58680000D01*
X103454200Y-82550000D02*
X103454200Y-89052400D01*
X103448200Y-119640000D02*
X103454200Y-119634000D01*
X32512000Y-74168000D02*
X32512000Y-65786000D01*
X69088000Y-112395000D02*
X69088000Y-112826800D01*
X69088000Y-70358000D02*
X69088000Y-73660000D01*
X103409400Y-73920000D02*
X103454200Y-73964800D01*
X68961000Y-119761000D02*
X68920000Y-119720000D01*
X69088000Y-66294000D02*
X69088000Y-70358000D01*
X103333200Y-104400000D02*
X103454200Y-104521000D01*
X103448200Y-119640000D02*
X103448200Y-120466200D01*
X66802000Y-99314000D02*
X68961000Y-99314000D01*
X69302000Y-74081000D02*
X69088000Y-74295000D01*
X103454200Y-58699400D02*
X103454200Y-64008000D01*
X64000000Y-119720000D02*
X68920000Y-119720000D01*
X73883000Y-89281000D02*
X69215000Y-89281000D01*
X32610000Y-119790000D02*
X32512000Y-119888000D01*
X69088000Y-58674000D02*
X69088000Y-58978800D01*
X68834000Y-70612000D02*
X69088000Y-70358000D01*
X68748000Y-104480000D02*
X69088000Y-104140000D01*
X32512000Y-121012000D02*
X32512000Y-120650000D01*
X69225800Y-58841000D02*
X69088000Y-58978800D01*
X103346600Y-89160000D02*
X103454200Y-89052400D01*
X68920000Y-119720000D02*
X69088000Y-119888000D01*
X69088000Y-80822800D02*
X69088000Y-82423000D01*
X32512000Y-120650000D02*
X32512000Y-119888000D01*
X103454200Y-104521000D02*
X103454200Y-107924600D01*
X32512000Y-96520000D02*
X32512000Y-89154000D01*
X32512000Y-119888000D02*
X32512000Y-111506000D01*
X69088000Y-89027000D02*
X69088000Y-89408000D01*
X69088000Y-58978800D02*
X69088000Y-66294000D01*
X64000000Y-74000000D02*
X68748000Y-74000000D01*
X71120000Y-95758000D02*
X69138800Y-95758000D01*
X98740000Y-104400000D02*
X103333200Y-104400000D01*
X69088000Y-85852000D02*
X69088000Y-89027000D01*
X69088000Y-97536000D02*
X69088000Y-99187000D01*
X69088000Y-74295000D02*
X69088000Y-80822800D01*
X32512000Y-111506000D02*
X32512000Y-104394000D01*
X35372201Y-81280000D02*
X32512000Y-81280000D01*
X69037200Y-112776000D02*
X69088000Y-112826800D01*
X69088000Y-112826800D02*
X69088000Y-119253000D01*
X69088000Y-119253000D02*
X69088000Y-119888000D01*
X103434800Y-58680000D02*
X103454200Y-58699400D01*
X64000000Y-58760000D02*
X69002000Y-58760000D01*
X68748000Y-74000000D02*
X69088000Y-73660000D01*
X69088000Y-109372400D02*
X69088000Y-112395000D01*
X32512000Y-89154000D02*
X32512000Y-81280000D01*
X35372201Y-96520000D02*
X32512000Y-96520000D01*
X38230201Y-74070000D02*
X32610000Y-74070000D01*
X69088000Y-95808800D02*
X69088000Y-97536000D01*
X69138800Y-95758000D02*
X69088000Y-95808800D01*
X35372201Y-124714000D02*
X35372201Y-124901799D01*
X68875000Y-89240000D02*
X69088000Y-89027000D01*
X101346000Y-112522000D02*
X103301800Y-112522000D01*
X69215000Y-89281000D02*
X69088000Y-89408000D01*
X68920000Y-120786800D02*
X71120000Y-122986800D01*
X34417000Y-125857000D02*
X37357000Y-125857000D01*
X69088000Y-99187000D02*
X69088000Y-104140000D01*
X103301800Y-112522000D02*
X103454200Y-112369600D01*
X66802000Y-85598000D02*
X68834000Y-85598000D01*
X68961000Y-99314000D02*
X69088000Y-99187000D01*
X71120000Y-109524800D02*
X69240400Y-109524800D01*
X64000000Y-104480000D02*
X68748000Y-104480000D01*
X103454200Y-67157600D02*
X103454200Y-73964800D01*
X69138800Y-80772000D02*
X69088000Y-80822800D01*
X69342000Y-104521000D02*
X69088000Y-104775000D01*
X69342000Y-66040000D02*
X69088000Y-66294000D01*
X69088000Y-89408000D02*
X69088000Y-95808800D01*
X32610000Y-58830000D02*
X32512000Y-58928000D01*
X64000000Y-89240000D02*
X68875000Y-89240000D01*
X98740000Y-119640000D02*
X103448200Y-119640000D01*
X71120000Y-80772000D02*
X69138800Y-80772000D01*
X38230201Y-89310000D02*
X32668000Y-89310000D01*
X32610000Y-74070000D02*
X32512000Y-74168000D01*
X71120000Y-66040000D02*
X69342000Y-66040000D01*
X35372201Y-124714000D02*
X35306000Y-124460000D01*
X68920000Y-119720000D02*
X68920000Y-120786800D01*
X32766000Y-111252000D02*
X32512000Y-111506000D01*
X68834000Y-85598000D02*
X69088000Y-85852000D01*
X69088000Y-104775000D02*
X69088000Y-109372400D01*
X73883000Y-119761000D02*
X68961000Y-119761000D01*
X38230201Y-104550000D02*
X32668000Y-104550000D01*
X32668000Y-89310000D02*
X32512000Y-89154000D01*
X69088000Y-73660000D02*
X69088000Y-74295000D01*
X32668000Y-104550000D02*
X32512000Y-104394000D01*
X34417000Y-125857000D02*
X32512000Y-123952000D01*
X38230201Y-58830000D02*
X32610000Y-58830000D01*
X98740000Y-73920000D02*
X103409400Y-73920000D01*
X32766000Y-66040000D02*
X32512000Y-65786000D01*
X35372201Y-111252000D02*
X32766000Y-111252000D01*
%TO.N,GND*%
X73880201Y-61470000D02*
X73880201Y-63310000D01*
%TO.N,MISO1*%
X88140000Y-73920000D02*
X90125200Y-73920000D01*
X90125200Y-73920000D02*
X90525600Y-74320400D01*
X87979000Y-58841000D02*
X88140000Y-58680000D01*
X90525600Y-89357200D02*
X90525600Y-74320400D01*
X90525600Y-117254400D02*
X90525600Y-104495600D01*
X90328400Y-58680000D02*
X90525600Y-58877200D01*
X90328400Y-89160000D02*
X90525600Y-89357200D01*
X84473000Y-58841000D02*
X87979000Y-58841000D01*
X88140000Y-58680000D02*
X90328400Y-58680000D01*
X90525600Y-104495600D02*
X90525600Y-89357200D01*
X84473000Y-74081000D02*
X87979000Y-74081000D01*
X87979000Y-74081000D02*
X88140000Y-73920000D01*
X90525600Y-74320400D02*
X90525600Y-58877200D01*
%TO.N,Net-(R1-Pad1)*%
X38230201Y-117250000D02*
X40317402Y-119337201D01*
X40317402Y-124528598D02*
X40317402Y-126277402D01*
X35372201Y-114554000D02*
X35534201Y-114554000D01*
X38230201Y-117250000D02*
X38230201Y-117230000D01*
X40317402Y-119337201D02*
X40317402Y-124528598D01*
X40317402Y-126277402D02*
X43170000Y-129130000D01*
X35534201Y-114554000D02*
X38230201Y-117250000D01*
%TO.N,Net-(R2-Pad1)*%
X39562402Y-103342201D02*
X39562402Y-115762402D01*
X38230201Y-102010000D02*
X39562402Y-103342201D01*
X37312201Y-101092000D02*
X38230201Y-102010000D01*
X39562402Y-115762402D02*
X41028612Y-117228612D01*
X41028612Y-117228612D02*
X41028612Y-124448612D01*
X41028612Y-124448612D02*
X45710000Y-129130000D01*
X35372201Y-101092000D02*
X37312201Y-101092000D01*
D19*
X45256000Y-129130000D02*
X45710000Y-129130000D01*
D18*
%TO.N,ss3*%
X37820201Y-86360000D02*
X38230201Y-86770000D01*
X41739822Y-90279621D02*
X41739822Y-123019822D01*
X35372201Y-86360000D02*
X37820201Y-86360000D01*
X41739822Y-123019822D02*
X47850000Y-129130000D01*
X38230201Y-86770000D02*
X41739822Y-90279621D01*
X47850000Y-129130000D02*
X48250000Y-129130000D01*
%TO.N,ss4*%
X35372201Y-71120000D02*
X37820201Y-71120000D01*
X37820201Y-71120000D02*
X38230201Y-71530000D01*
X42451032Y-75750831D02*
X42451032Y-121666000D01*
X38230201Y-71530000D02*
X42451032Y-75750831D01*
X50136000Y-129130000D02*
X50790000Y-129130000D01*
X42451032Y-121666000D02*
X50136000Y-129130000D01*
%TO.N,ss5*%
X37820201Y-55880000D02*
X38230201Y-56290000D01*
X53330000Y-129022000D02*
X53330000Y-129130000D01*
X38230201Y-56290000D02*
X43162242Y-61222041D01*
X43180000Y-121158000D02*
X53330000Y-129022000D01*
X43162242Y-61222041D02*
X43180000Y-121158000D01*
X35372201Y-55880000D02*
X37820201Y-55880000D01*
%TO.N,ss7*%
X66802000Y-80772000D02*
X66802000Y-79342000D01*
X66802000Y-79342000D02*
X64000000Y-76540000D01*
X58928000Y-124866400D02*
X58547000Y-125247400D01*
X58547000Y-125247400D02*
X58547000Y-128993000D01*
X64000000Y-76540000D02*
X59055000Y-81485000D01*
X59055000Y-81485000D02*
X59055000Y-122339100D01*
X58547000Y-128993000D02*
X58410000Y-129130000D01*
%TO.N,ss8*%
X66802000Y-95758000D02*
X66802000Y-94582000D01*
X60401200Y-125018800D02*
X60950000Y-125567600D01*
X60950000Y-125567600D02*
X60950000Y-129130000D01*
X64000000Y-91780000D02*
X60198000Y-95582000D01*
X66802000Y-94582000D02*
X64000000Y-91780000D01*
X60198000Y-95582000D02*
X60198000Y-122339100D01*
X60325000Y-124866400D02*
X60401200Y-125018800D01*
%TO.N,ss9*%
X64000000Y-107020000D02*
X61087000Y-109933000D01*
X61087000Y-109933000D02*
X61087000Y-122339100D01*
X61971086Y-124871314D02*
X63500000Y-129159000D01*
X64348000Y-107020000D02*
X66802000Y-109474000D01*
X64000000Y-107020000D02*
X64348000Y-107020000D01*
%TO.N,ss10*%
X63079724Y-124866400D02*
X66040000Y-129159000D01*
X62017000Y-122260000D02*
X61976000Y-122301000D01*
X64000000Y-122260000D02*
X62017000Y-122260000D01*
X66802000Y-122936000D02*
X66126000Y-122260000D01*
X66126000Y-122260000D02*
X64000000Y-122260000D01*
%TO.N,ss11*%
X75215201Y-118553201D02*
X75234800Y-123240800D01*
X75234800Y-123240800D02*
X73650000Y-129130000D01*
X71120000Y-114458000D02*
X73883000Y-117221000D01*
X73883000Y-117221000D02*
X75215201Y-118553201D01*
X71120000Y-112826800D02*
X71120000Y-114458000D01*
%TO.N,ss12*%
X73883000Y-101981000D02*
X75998129Y-104096129D01*
X75998129Y-104096129D02*
X75998129Y-128938129D01*
X75998129Y-128938129D02*
X76190000Y-129130000D01*
X71120000Y-99364800D02*
X71266800Y-99364800D01*
X71266800Y-99364800D02*
X73883000Y-101981000D01*
%TO.N,ss13*%
X76709339Y-89567339D02*
X76709339Y-127109339D01*
X76709339Y-127109339D02*
X78730000Y-129130000D01*
X72740000Y-85598000D02*
X73883000Y-86741000D01*
X71120000Y-85598000D02*
X72740000Y-85598000D01*
X73883000Y-86741000D02*
X76709339Y-89567339D01*
%TO.N,ss14*%
X72944000Y-70612000D02*
X73873000Y-71541000D01*
X77420549Y-125280549D02*
X81270000Y-129130000D01*
X77420549Y-75088549D02*
X77420549Y-125280549D01*
X73873000Y-71541000D02*
X77420549Y-75088549D01*
X71120000Y-70612000D02*
X72944000Y-70612000D01*
%TO.N,ss15*%
X69875400Y-68326000D02*
X72680962Y-68326000D01*
X72680962Y-68326000D02*
X78131759Y-73776797D01*
X64000000Y-61300000D02*
X66802000Y-64102000D01*
X66802000Y-64102000D02*
X66802000Y-66040000D01*
X78131759Y-73776797D02*
X78131759Y-123451759D01*
X66802000Y-66217800D02*
X68300600Y-67716400D01*
X66802000Y-66040000D02*
X66802000Y-66217800D01*
X78131759Y-123451759D02*
X83810000Y-129130000D01*
%TO.N,ss16*%
X71120000Y-55880000D02*
X73452000Y-55880000D01*
X78842969Y-61270969D02*
X78842969Y-123149763D01*
X73452000Y-55880000D02*
X73873000Y-56301000D01*
X78842969Y-123149763D02*
X86350000Y-129130000D01*
X73873000Y-56301000D02*
X78842969Y-61270969D01*
%TO.N,ss20*%
X95238790Y-64721210D02*
X95238790Y-124468790D01*
X95238790Y-124468790D02*
X96570000Y-125800000D01*
X98740000Y-61220000D02*
X95238790Y-64721210D01*
%TO.N,ss21*%
X95950000Y-79250000D02*
X95950000Y-123810000D01*
X95950000Y-123810000D02*
X97300000Y-125160000D01*
X98740000Y-76460000D02*
X95950000Y-79250000D01*
%TO.N,ss22*%
X96725215Y-123403731D02*
X96725215Y-123565215D01*
X96696580Y-123375096D02*
X96725215Y-123403731D01*
X96725215Y-123565215D02*
X98020000Y-124860000D01*
X96696580Y-93743420D02*
X96696580Y-123375096D01*
X98740000Y-91700000D02*
X96696580Y-93743420D01*
%TO.N,ss23*%
X97407790Y-123047790D02*
X97407790Y-108272210D01*
X97407790Y-108272210D02*
X98740000Y-106940000D01*
X98768790Y-124188166D02*
X97407790Y-123047790D01*
%TO.N,ss24*%
X98740000Y-122180000D02*
X100844000Y-122180000D01*
X100844000Y-122180000D02*
X101346000Y-122682000D01*
D19*
X99480000Y-122920000D02*
X99480000Y-137370000D01*
D18*
X98740000Y-122180000D02*
X99480000Y-122920000D01*
%TD*%
M02*
