G04 #@! TF.GenerationSoftware,KiCad,Pcbnew,(5.99.0-2415-gbbdd3fce7)*
G04 #@! TF.CreationDate,2020-07-29T10:57:10-07:00*
G04 #@! TF.ProjectId,VineHoop_V1_2,56696e65-486f-46f7-905f-56315f322e6b,rev?*
G04 #@! TF.SameCoordinates,Original*
G04 #@! TF.FileFunction,Legend,Top*
G04 #@! TF.FilePolarity,Positive*
%FSLAX46Y46*%
G04 Gerber Fmt 4.6, Leading zero omitted, Abs format (unit mm)*
G04 Created by KiCad (PCBNEW (5.99.0-2415-gbbdd3fce7)) date 2020-07-29 10:57:10*
%MOMM*%
%LPD*%
G01*
G04 APERTURE LIST*
%ADD10C,0.120000*%
%ADD11C,0.015000*%
%ADD12C,0.150000*%
%ADD13C,0.254000*%
%ADD14C,0.100000*%
%ADD15C,0.127000*%
%ADD16C,0.250000*%
%ADD17C,0.304800*%
%ADD18C,0.152400*%
%ADD19C,0.200000*%
G04 APERTURE END LIST*
D10*
X151107727Y-59664600D02*
G75*
G03*
X151107727Y-59664600I-104727J0D01*
G01*
D11*
X144457379Y-59923308D02*
X144610117Y-59923308D01*
X144289367Y-60030224D02*
X144457379Y-59923308D01*
X144289367Y-59816391D01*
X144319914Y-59724748D02*
X144304641Y-59709474D01*
X144289367Y-59678927D01*
X144289367Y-59602558D01*
X144304641Y-59572010D01*
X144319914Y-59556736D01*
X144350462Y-59541462D01*
X144381010Y-59541462D01*
X144426831Y-59556736D01*
X144610117Y-59740022D01*
X144610117Y-59541462D01*
X156059190Y-66663190D02*
X156535380Y-66663190D01*
X155535380Y-66996523D02*
X156059190Y-66663190D01*
X155535380Y-66329857D01*
X156535380Y-65472714D02*
X156535380Y-66044142D01*
X156535380Y-65758428D02*
X155535380Y-65758428D01*
X155678238Y-65853666D01*
X155773476Y-65948904D01*
X155821095Y-66044142D01*
D12*
X130339380Y-66278690D02*
X131053666Y-66278690D01*
X131196523Y-66326309D01*
X131291761Y-66421547D01*
X131339380Y-66564404D01*
X131339380Y-66659642D01*
X130339380Y-65897738D02*
X130339380Y-65278690D01*
X130720333Y-65612023D01*
X130720333Y-65469166D01*
X130767952Y-65373928D01*
X130815571Y-65326309D01*
X130910809Y-65278690D01*
X131148904Y-65278690D01*
X131244142Y-65326309D01*
X131291761Y-65373928D01*
X131339380Y-65469166D01*
X131339380Y-65754880D01*
X131291761Y-65850119D01*
X131244142Y-65897738D01*
X168529380Y-70088690D02*
X169243666Y-70088690D01*
X169386523Y-70136309D01*
X169481761Y-70231547D01*
X169529380Y-70374404D01*
X169529380Y-70469642D01*
X168624619Y-69660119D02*
X168577000Y-69612500D01*
X168529380Y-69517261D01*
X168529380Y-69279166D01*
X168577000Y-69183928D01*
X168624619Y-69136309D01*
X168719857Y-69088690D01*
X168815095Y-69088690D01*
X168957952Y-69136309D01*
X169529380Y-69707738D01*
X169529380Y-69088690D01*
D13*
X172976523Y-61637333D02*
X173883666Y-61637333D01*
X174065095Y-61697809D01*
X174186047Y-61818761D01*
X174246523Y-62000190D01*
X174246523Y-62121142D01*
X174246523Y-60367333D02*
X174246523Y-61093047D01*
X174246523Y-60730190D02*
X172976523Y-60730190D01*
X173157952Y-60851142D01*
X173278904Y-60972095D01*
X173339380Y-61093047D01*
D12*
X136993333Y-70048380D02*
X136660000Y-69572190D01*
X136421904Y-70048380D02*
X136421904Y-69048380D01*
X136802857Y-69048380D01*
X136898095Y-69096000D01*
X136945714Y-69143619D01*
X136993333Y-69238857D01*
X136993333Y-69381714D01*
X136945714Y-69476952D01*
X136898095Y-69524571D01*
X136802857Y-69572190D01*
X136421904Y-69572190D01*
X137469523Y-70048380D02*
X137660000Y-70048380D01*
X137755238Y-70000761D01*
X137802857Y-69953142D01*
X137898095Y-69810285D01*
X137945714Y-69619809D01*
X137945714Y-69238857D01*
X137898095Y-69143619D01*
X137850476Y-69096000D01*
X137755238Y-69048380D01*
X137564761Y-69048380D01*
X137469523Y-69096000D01*
X137421904Y-69143619D01*
X137374285Y-69238857D01*
X137374285Y-69476952D01*
X137421904Y-69572190D01*
X137469523Y-69619809D01*
X137564761Y-69667428D01*
X137755238Y-69667428D01*
X137850476Y-69619809D01*
X137898095Y-69572190D01*
X137945714Y-69476952D01*
X131341904Y-70048380D02*
X131341904Y-69048380D01*
X131580000Y-69048380D01*
X131722857Y-69096000D01*
X131818095Y-69191238D01*
X131865714Y-69286476D01*
X131913333Y-69476952D01*
X131913333Y-69619809D01*
X131865714Y-69810285D01*
X131818095Y-69905523D01*
X131722857Y-70000761D01*
X131580000Y-70048380D01*
X131341904Y-70048380D01*
X132865714Y-70048380D02*
X132294285Y-70048380D01*
X132580000Y-70048380D02*
X132580000Y-69048380D01*
X132484761Y-69191238D01*
X132389523Y-69286476D01*
X132294285Y-69334095D01*
X165060333Y-71096142D02*
X165012714Y-71143761D01*
X164869857Y-71191380D01*
X164774619Y-71191380D01*
X164631761Y-71143761D01*
X164536523Y-71048523D01*
X164488904Y-70953285D01*
X164441285Y-70762809D01*
X164441285Y-70619952D01*
X164488904Y-70429476D01*
X164536523Y-70334238D01*
X164631761Y-70239000D01*
X164774619Y-70191380D01*
X164869857Y-70191380D01*
X165012714Y-70239000D01*
X165060333Y-70286619D01*
X165917476Y-70191380D02*
X165727000Y-70191380D01*
X165631761Y-70239000D01*
X165584142Y-70286619D01*
X165488904Y-70429476D01*
X165441285Y-70619952D01*
X165441285Y-71000904D01*
X165488904Y-71096142D01*
X165536523Y-71143761D01*
X165631761Y-71191380D01*
X165822238Y-71191380D01*
X165917476Y-71143761D01*
X165965095Y-71096142D01*
X166012714Y-71000904D01*
X166012714Y-70762809D01*
X165965095Y-70667571D01*
X165917476Y-70619952D01*
X165822238Y-70572333D01*
X165631761Y-70572333D01*
X165536523Y-70619952D01*
X165488904Y-70667571D01*
X165441285Y-70762809D01*
X143692642Y-64714380D02*
X143359309Y-64238190D01*
X143121214Y-64714380D02*
X143121214Y-63714380D01*
X143502166Y-63714380D01*
X143597404Y-63762000D01*
X143645023Y-63809619D01*
X143692642Y-63904857D01*
X143692642Y-64047714D01*
X143645023Y-64142952D01*
X143597404Y-64190571D01*
X143502166Y-64238190D01*
X143121214Y-64238190D01*
X144645023Y-64714380D02*
X144073595Y-64714380D01*
X144359309Y-64714380D02*
X144359309Y-63714380D01*
X144264071Y-63857238D01*
X144168833Y-63952476D01*
X144073595Y-64000095D01*
X145597404Y-64714380D02*
X145025976Y-64714380D01*
X145311690Y-64714380D02*
X145311690Y-63714380D01*
X145216452Y-63857238D01*
X145121214Y-63952476D01*
X145025976Y-64000095D01*
X140168404Y-64968380D02*
X140168404Y-63968380D01*
X140406500Y-63968380D01*
X140549357Y-64016000D01*
X140644595Y-64111238D01*
X140692214Y-64206476D01*
X140739833Y-64396952D01*
X140739833Y-64539809D01*
X140692214Y-64730285D01*
X140644595Y-64825523D01*
X140549357Y-64920761D01*
X140406500Y-64968380D01*
X140168404Y-64968380D01*
X141120785Y-64063619D02*
X141168404Y-64016000D01*
X141263642Y-63968380D01*
X141501738Y-63968380D01*
X141596976Y-64016000D01*
X141644595Y-64063619D01*
X141692214Y-64158857D01*
X141692214Y-64254095D01*
X141644595Y-64396952D01*
X141073166Y-64968380D01*
X141692214Y-64968380D01*
X147153333Y-67286142D02*
X147105714Y-67333761D01*
X146962857Y-67381380D01*
X146867619Y-67381380D01*
X146724761Y-67333761D01*
X146629523Y-67238523D01*
X146581904Y-67143285D01*
X146534285Y-66952809D01*
X146534285Y-66809952D01*
X146581904Y-66619476D01*
X146629523Y-66524238D01*
X146724761Y-66429000D01*
X146867619Y-66381380D01*
X146962857Y-66381380D01*
X147105714Y-66429000D01*
X147153333Y-66476619D01*
X147486666Y-66381380D02*
X148153333Y-66381380D01*
X147724761Y-67381380D01*
D11*
X159789328Y-60833672D02*
X160599668Y-60833672D01*
X160695002Y-60786005D01*
X160742669Y-60738338D01*
X160790336Y-60643004D01*
X160790336Y-60452336D01*
X160742669Y-60357002D01*
X160695002Y-60309335D01*
X160599668Y-60261668D01*
X159789328Y-60261668D01*
X159789328Y-59880331D02*
X159789328Y-59260660D01*
X160170665Y-59594329D01*
X160170665Y-59451328D01*
X160218332Y-59355994D01*
X160265999Y-59308327D01*
X160361333Y-59260660D01*
X160599668Y-59260660D01*
X160695002Y-59308327D01*
X160742669Y-59355994D01*
X160790336Y-59451328D01*
X160790336Y-59737330D01*
X160742669Y-59832664D01*
X160695002Y-59880331D01*
X149243442Y-57329943D02*
X149243442Y-58659722D01*
X149321665Y-58816167D01*
X149399887Y-58894389D01*
X149556332Y-58972612D01*
X149869221Y-58972612D01*
X150025666Y-58894389D01*
X150103888Y-58816167D01*
X150182110Y-58659722D01*
X150182110Y-57329943D01*
X151668335Y-57877499D02*
X151668335Y-58972612D01*
X151277223Y-57251720D02*
X150886111Y-58425055D01*
X151903002Y-58425055D01*
D12*
X142621095Y-70635880D02*
X142621095Y-71445404D01*
X142668714Y-71540642D01*
X142716333Y-71588261D01*
X142811571Y-71635880D01*
X143002047Y-71635880D01*
X143097285Y-71588261D01*
X143144904Y-71540642D01*
X143192523Y-71445404D01*
X143192523Y-70635880D01*
X144192523Y-71635880D02*
X143621095Y-71635880D01*
X143906809Y-71635880D02*
X143906809Y-70635880D01*
X143811571Y-70778738D01*
X143716333Y-70873976D01*
X143621095Y-70921595D01*
X168854380Y-62523666D02*
X168378190Y-62857000D01*
X168854380Y-63095095D02*
X167854380Y-63095095D01*
X167854380Y-62714142D01*
X167902000Y-62618904D01*
X167949619Y-62571285D01*
X168044857Y-62523666D01*
X168187714Y-62523666D01*
X168282952Y-62571285D01*
X168330571Y-62618904D01*
X168378190Y-62714142D01*
X168378190Y-63095095D01*
X167854380Y-61666523D02*
X167854380Y-61857000D01*
X167902000Y-61952238D01*
X167949619Y-61999857D01*
X168092476Y-62095095D01*
X168282952Y-62142714D01*
X168663904Y-62142714D01*
X168759142Y-62095095D01*
X168806761Y-62047476D01*
X168854380Y-61952238D01*
X168854380Y-61761761D01*
X168806761Y-61666523D01*
X168759142Y-61618904D01*
X168663904Y-61571285D01*
X168425809Y-61571285D01*
X168330571Y-61618904D01*
X168282952Y-61666523D01*
X168235333Y-61761761D01*
X168235333Y-61952238D01*
X168282952Y-62047476D01*
X168330571Y-62095095D01*
X168425809Y-62142714D01*
X165552380Y-69000666D02*
X165076190Y-69334000D01*
X165552380Y-69572095D02*
X164552380Y-69572095D01*
X164552380Y-69191142D01*
X164600000Y-69095904D01*
X164647619Y-69048285D01*
X164742857Y-69000666D01*
X164885714Y-69000666D01*
X164980952Y-69048285D01*
X165028571Y-69095904D01*
X165076190Y-69191142D01*
X165076190Y-69572095D01*
X164552380Y-68095904D02*
X164552380Y-68572095D01*
X165028571Y-68619714D01*
X164980952Y-68572095D01*
X164933333Y-68476857D01*
X164933333Y-68238761D01*
X164980952Y-68143523D01*
X165028571Y-68095904D01*
X165123809Y-68048285D01*
X165361904Y-68048285D01*
X165457142Y-68095904D01*
X165504761Y-68143523D01*
X165552380Y-68238761D01*
X165552380Y-68476857D01*
X165504761Y-68572095D01*
X165457142Y-68619714D01*
X138491833Y-59379142D02*
X138444214Y-59426761D01*
X138301357Y-59474380D01*
X138206119Y-59474380D01*
X138063261Y-59426761D01*
X137968023Y-59331523D01*
X137920404Y-59236285D01*
X137872785Y-59045809D01*
X137872785Y-58902952D01*
X137920404Y-58712476D01*
X137968023Y-58617238D01*
X138063261Y-58522000D01*
X138206119Y-58474380D01*
X138301357Y-58474380D01*
X138444214Y-58522000D01*
X138491833Y-58569619D01*
X138968023Y-59474380D02*
X139158500Y-59474380D01*
X139253738Y-59426761D01*
X139301357Y-59379142D01*
X139396595Y-59236285D01*
X139444214Y-59045809D01*
X139444214Y-58664857D01*
X139396595Y-58569619D01*
X139348976Y-58522000D01*
X139253738Y-58474380D01*
X139063261Y-58474380D01*
X138968023Y-58522000D01*
X138920404Y-58569619D01*
X138872785Y-58664857D01*
X138872785Y-58902952D01*
X138920404Y-58998190D01*
X138968023Y-59045809D01*
X139063261Y-59093428D01*
X139253738Y-59093428D01*
X139348976Y-59045809D01*
X139396595Y-58998190D01*
X139444214Y-58902952D01*
X146708833Y-57951642D02*
X146661214Y-57999261D01*
X146518357Y-58046880D01*
X146423119Y-58046880D01*
X146280261Y-57999261D01*
X146185023Y-57904023D01*
X146137404Y-57808785D01*
X146089785Y-57618309D01*
X146089785Y-57475452D01*
X146137404Y-57284976D01*
X146185023Y-57189738D01*
X146280261Y-57094500D01*
X146423119Y-57046880D01*
X146518357Y-57046880D01*
X146661214Y-57094500D01*
X146708833Y-57142119D01*
X147280261Y-57475452D02*
X147185023Y-57427833D01*
X147137404Y-57380214D01*
X147089785Y-57284976D01*
X147089785Y-57237357D01*
X147137404Y-57142119D01*
X147185023Y-57094500D01*
X147280261Y-57046880D01*
X147470738Y-57046880D01*
X147565976Y-57094500D01*
X147613595Y-57142119D01*
X147661214Y-57237357D01*
X147661214Y-57284976D01*
X147613595Y-57380214D01*
X147565976Y-57427833D01*
X147470738Y-57475452D01*
X147280261Y-57475452D01*
X147185023Y-57523071D01*
X147137404Y-57570690D01*
X147089785Y-57665928D01*
X147089785Y-57856404D01*
X147137404Y-57951642D01*
X147185023Y-57999261D01*
X147280261Y-58046880D01*
X147470738Y-58046880D01*
X147565976Y-57999261D01*
X147613595Y-57951642D01*
X147661214Y-57856404D01*
X147661214Y-57665928D01*
X147613595Y-57570690D01*
X147565976Y-57523071D01*
X147470738Y-57475452D01*
X141948833Y-66833642D02*
X141901214Y-66881261D01*
X141758357Y-66928880D01*
X141663119Y-66928880D01*
X141520261Y-66881261D01*
X141425023Y-66786023D01*
X141377404Y-66690785D01*
X141329785Y-66500309D01*
X141329785Y-66357452D01*
X141377404Y-66166976D01*
X141425023Y-66071738D01*
X141520261Y-65976500D01*
X141663119Y-65928880D01*
X141758357Y-65928880D01*
X141901214Y-65976500D01*
X141948833Y-66024119D01*
X142853595Y-65928880D02*
X142377404Y-65928880D01*
X142329785Y-66405071D01*
X142377404Y-66357452D01*
X142472642Y-66309833D01*
X142710738Y-66309833D01*
X142805976Y-66357452D01*
X142853595Y-66405071D01*
X142901214Y-66500309D01*
X142901214Y-66738404D01*
X142853595Y-66833642D01*
X142805976Y-66881261D01*
X142710738Y-66928880D01*
X142472642Y-66928880D01*
X142377404Y-66881261D01*
X142329785Y-66833642D01*
X140047142Y-69476666D02*
X140094761Y-69524285D01*
X140142380Y-69667142D01*
X140142380Y-69762380D01*
X140094761Y-69905238D01*
X139999523Y-70000476D01*
X139904285Y-70048095D01*
X139713809Y-70095714D01*
X139570952Y-70095714D01*
X139380476Y-70048095D01*
X139285238Y-70000476D01*
X139190000Y-69905238D01*
X139142380Y-69762380D01*
X139142380Y-69667142D01*
X139190000Y-69524285D01*
X139237619Y-69476666D01*
X139142380Y-69143333D02*
X139142380Y-68524285D01*
X139523333Y-68857619D01*
X139523333Y-68714761D01*
X139570952Y-68619523D01*
X139618571Y-68571904D01*
X139713809Y-68524285D01*
X139951904Y-68524285D01*
X140047142Y-68571904D01*
X140094761Y-68619523D01*
X140142380Y-68714761D01*
X140142380Y-69000476D01*
X140094761Y-69095714D01*
X140047142Y-69143333D01*
X168557142Y-65633166D02*
X168604761Y-65680785D01*
X168652380Y-65823642D01*
X168652380Y-65918880D01*
X168604761Y-66061738D01*
X168509523Y-66156976D01*
X168414285Y-66204595D01*
X168223809Y-66252214D01*
X168080952Y-66252214D01*
X167890476Y-66204595D01*
X167795238Y-66156976D01*
X167700000Y-66061738D01*
X167652380Y-65918880D01*
X167652380Y-65823642D01*
X167700000Y-65680785D01*
X167747619Y-65633166D01*
X167985714Y-64776023D02*
X168652380Y-64776023D01*
X167604761Y-65014119D02*
X168319047Y-65252214D01*
X168319047Y-64633166D01*
X156456142Y-62491880D02*
X156122809Y-62015690D01*
X155884714Y-62491880D02*
X155884714Y-61491880D01*
X156265666Y-61491880D01*
X156360904Y-61539500D01*
X156408523Y-61587119D01*
X156456142Y-61682357D01*
X156456142Y-61825214D01*
X156408523Y-61920452D01*
X156360904Y-61968071D01*
X156265666Y-62015690D01*
X155884714Y-62015690D01*
X157408523Y-62491880D02*
X156837095Y-62491880D01*
X157122809Y-62491880D02*
X157122809Y-61491880D01*
X157027571Y-61634738D01*
X156932333Y-61729976D01*
X156837095Y-61777595D01*
X158027571Y-61491880D02*
X158122809Y-61491880D01*
X158218047Y-61539500D01*
X158265666Y-61587119D01*
X158313285Y-61682357D01*
X158360904Y-61872833D01*
X158360904Y-62110928D01*
X158313285Y-62301404D01*
X158265666Y-62396642D01*
X158218047Y-62444261D01*
X158122809Y-62491880D01*
X158027571Y-62491880D01*
X157932333Y-62444261D01*
X157884714Y-62396642D01*
X157837095Y-62301404D01*
X157789476Y-62110928D01*
X157789476Y-61872833D01*
X157837095Y-61682357D01*
X157884714Y-61587119D01*
X157932333Y-61539500D01*
X158027571Y-61491880D01*
X158075333Y-61094880D02*
X157742000Y-60618690D01*
X157503904Y-61094880D02*
X157503904Y-60094880D01*
X157884857Y-60094880D01*
X157980095Y-60142500D01*
X158027714Y-60190119D01*
X158075333Y-60285357D01*
X158075333Y-60428214D01*
X158027714Y-60523452D01*
X157980095Y-60571071D01*
X157884857Y-60618690D01*
X157503904Y-60618690D01*
X159027714Y-61094880D02*
X158456285Y-61094880D01*
X158742000Y-61094880D02*
X158742000Y-60094880D01*
X158646761Y-60237738D01*
X158551523Y-60332976D01*
X158456285Y-60380595D01*
X154455833Y-67952880D02*
X154122500Y-67476690D01*
X153884404Y-67952880D02*
X153884404Y-66952880D01*
X154265357Y-66952880D01*
X154360595Y-67000500D01*
X154408214Y-67048119D01*
X154455833Y-67143357D01*
X154455833Y-67286214D01*
X154408214Y-67381452D01*
X154360595Y-67429071D01*
X154265357Y-67476690D01*
X153884404Y-67476690D01*
X154789166Y-66952880D02*
X155408214Y-66952880D01*
X155074880Y-67333833D01*
X155217738Y-67333833D01*
X155312976Y-67381452D01*
X155360595Y-67429071D01*
X155408214Y-67524309D01*
X155408214Y-67762404D01*
X155360595Y-67857642D01*
X155312976Y-67905261D01*
X155217738Y-67952880D01*
X154932023Y-67952880D01*
X154836785Y-67905261D01*
X154789166Y-67857642D01*
X147343833Y-70937380D02*
X147010500Y-70461190D01*
X146772404Y-70937380D02*
X146772404Y-69937380D01*
X147153357Y-69937380D01*
X147248595Y-69985000D01*
X147296214Y-70032619D01*
X147343833Y-70127857D01*
X147343833Y-70270714D01*
X147296214Y-70365952D01*
X147248595Y-70413571D01*
X147153357Y-70461190D01*
X146772404Y-70461190D01*
X147724785Y-70032619D02*
X147772404Y-69985000D01*
X147867642Y-69937380D01*
X148105738Y-69937380D01*
X148200976Y-69985000D01*
X148248595Y-70032619D01*
X148296214Y-70127857D01*
X148296214Y-70223095D01*
X148248595Y-70365952D01*
X147677166Y-70937380D01*
X148296214Y-70937380D01*
X159916833Y-66778142D02*
X159869214Y-66825761D01*
X159726357Y-66873380D01*
X159631119Y-66873380D01*
X159488261Y-66825761D01*
X159393023Y-66730523D01*
X159345404Y-66635285D01*
X159297785Y-66444809D01*
X159297785Y-66301952D01*
X159345404Y-66111476D01*
X159393023Y-66016238D01*
X159488261Y-65921000D01*
X159631119Y-65873380D01*
X159726357Y-65873380D01*
X159869214Y-65921000D01*
X159916833Y-65968619D01*
X160297785Y-65968619D02*
X160345404Y-65921000D01*
X160440642Y-65873380D01*
X160678738Y-65873380D01*
X160773976Y-65921000D01*
X160821595Y-65968619D01*
X160869214Y-66063857D01*
X160869214Y-66159095D01*
X160821595Y-66301952D01*
X160250166Y-66873380D01*
X160869214Y-66873380D01*
X158329333Y-70461142D02*
X158281714Y-70508761D01*
X158138857Y-70556380D01*
X158043619Y-70556380D01*
X157900761Y-70508761D01*
X157805523Y-70413523D01*
X157757904Y-70318285D01*
X157710285Y-70127809D01*
X157710285Y-69984952D01*
X157757904Y-69794476D01*
X157805523Y-69699238D01*
X157900761Y-69604000D01*
X158043619Y-69556380D01*
X158138857Y-69556380D01*
X158281714Y-69604000D01*
X158329333Y-69651619D01*
X159281714Y-70556380D02*
X158710285Y-70556380D01*
X158996000Y-70556380D02*
X158996000Y-69556380D01*
X158900761Y-69699238D01*
X158805523Y-69794476D01*
X158710285Y-69842095D01*
X162329833Y-58745380D02*
X161996500Y-58269190D01*
X161758404Y-58745380D02*
X161758404Y-57745380D01*
X162139357Y-57745380D01*
X162234595Y-57793000D01*
X162282214Y-57840619D01*
X162329833Y-57935857D01*
X162329833Y-58078714D01*
X162282214Y-58173952D01*
X162234595Y-58221571D01*
X162139357Y-58269190D01*
X161758404Y-58269190D01*
X163186976Y-58078714D02*
X163186976Y-58745380D01*
X162948880Y-57697761D02*
X162710785Y-58412047D01*
X163329833Y-58412047D01*
X166144833Y-59022380D02*
X165811500Y-58546190D01*
X165573404Y-59022380D02*
X165573404Y-58022380D01*
X165954357Y-58022380D01*
X166049595Y-58070000D01*
X166097214Y-58117619D01*
X166144833Y-58212857D01*
X166144833Y-58355714D01*
X166097214Y-58450952D01*
X166049595Y-58498571D01*
X165954357Y-58546190D01*
X165573404Y-58546190D01*
X166716261Y-58450952D02*
X166621023Y-58403333D01*
X166573404Y-58355714D01*
X166525785Y-58260476D01*
X166525785Y-58212857D01*
X166573404Y-58117619D01*
X166621023Y-58070000D01*
X166716261Y-58022380D01*
X166906738Y-58022380D01*
X167001976Y-58070000D01*
X167049595Y-58117619D01*
X167097214Y-58212857D01*
X167097214Y-58260476D01*
X167049595Y-58355714D01*
X167001976Y-58403333D01*
X166906738Y-58450952D01*
X166716261Y-58450952D01*
X166621023Y-58498571D01*
X166573404Y-58546190D01*
X166525785Y-58641428D01*
X166525785Y-58831904D01*
X166573404Y-58927142D01*
X166621023Y-58974761D01*
X166716261Y-59022380D01*
X166906738Y-59022380D01*
X167001976Y-58974761D01*
X167049595Y-58927142D01*
X167097214Y-58831904D01*
X167097214Y-58641428D01*
X167049595Y-58546190D01*
X167001976Y-58498571D01*
X166906738Y-58450952D01*
X167219333Y-69921380D02*
X166886000Y-69445190D01*
X166647904Y-69921380D02*
X166647904Y-68921380D01*
X167028857Y-68921380D01*
X167124095Y-68969000D01*
X167171714Y-69016619D01*
X167219333Y-69111857D01*
X167219333Y-69254714D01*
X167171714Y-69349952D01*
X167124095Y-69397571D01*
X167028857Y-69445190D01*
X166647904Y-69445190D01*
X167552666Y-68921380D02*
X168219333Y-68921380D01*
X167790761Y-69921380D01*
D11*
X153504292Y-69601913D02*
X153504292Y-70250259D01*
X153542430Y-70326535D01*
X153580568Y-70364673D01*
X153656844Y-70402811D01*
X153809396Y-70402811D01*
X153885672Y-70364673D01*
X153923810Y-70326535D01*
X153961948Y-70250259D01*
X153961948Y-69601913D01*
X154305190Y-69678189D02*
X154343328Y-69640051D01*
X154419604Y-69601913D01*
X154610294Y-69601913D01*
X154686570Y-69640051D01*
X154724708Y-69678189D01*
X154762846Y-69754465D01*
X154762846Y-69830741D01*
X154724708Y-69945155D01*
X154267052Y-70402811D01*
X154762846Y-70402811D01*
D14*
X143389022Y-58306000D02*
G75*
G03*
X143389022Y-58306000I-86022J0D01*
G01*
D15*
X157238000Y-67172000D02*
X157238000Y-66472000D01*
X158738000Y-67172000D02*
X158738000Y-66472000D01*
D12*
X132887000Y-66900000D02*
X132887000Y-66795000D01*
X132887000Y-62745000D02*
X132887000Y-62640000D01*
X136517000Y-62640000D02*
X132887000Y-62640000D01*
X136517000Y-66900000D02*
X136517000Y-66795000D01*
X136517000Y-62745000D02*
X136517000Y-62640000D01*
X136517000Y-66900000D02*
X132887000Y-66900000D01*
D16*
X138577000Y-66040000D02*
G75*
G03*
X138577000Y-66040000I-125000J0D01*
G01*
D12*
X171077000Y-70710000D02*
X171077000Y-70605000D01*
X171077000Y-66555000D02*
X171077000Y-66450000D01*
X174707000Y-66450000D02*
X171077000Y-66450000D01*
X174707000Y-70710000D02*
X174707000Y-70605000D01*
X174707000Y-66555000D02*
X174707000Y-66450000D01*
X174707000Y-70710000D02*
X171077000Y-70710000D01*
D16*
X176767000Y-69850000D02*
G75*
G03*
X176767000Y-69850000I-125000J0D01*
G01*
D14*
X176087000Y-58984000D02*
X176087000Y-58854000D01*
X176087000Y-58854000D02*
X171257000Y-58854000D01*
X171257000Y-58854000D02*
X171257000Y-58984000D01*
X176087000Y-63484000D02*
X176087000Y-63574000D01*
X176087000Y-63574000D02*
X171257000Y-63574000D01*
X171257000Y-63574000D02*
X171257000Y-63484000D01*
D10*
X138221279Y-71590000D02*
X137895721Y-71590000D01*
X138221279Y-70570000D02*
X137895721Y-70570000D01*
X134848500Y-70385000D02*
X132563500Y-70385000D01*
X132563500Y-70385000D02*
X132563500Y-71855000D01*
X132563500Y-71855000D02*
X134848500Y-71855000D01*
X163103779Y-70233000D02*
X162778221Y-70233000D01*
X163103779Y-69213000D02*
X162778221Y-69213000D01*
X144134721Y-63502000D02*
X144460279Y-63502000D01*
X144134721Y-62482000D02*
X144460279Y-62482000D01*
X139459500Y-63727000D02*
X141744500Y-63727000D01*
X139459500Y-62257000D02*
X139459500Y-63727000D01*
X141744500Y-62257000D02*
X139459500Y-62257000D01*
X149997279Y-66292000D02*
X149671721Y-66292000D01*
X149997279Y-67312000D02*
X149671721Y-67312000D01*
D17*
X161384000Y-66105000D02*
G75*
G03*
X161384000Y-66105000I-100000J0D01*
G01*
D15*
X161684000Y-61305000D02*
X161684000Y-66505000D01*
X165484000Y-61305000D02*
X161684000Y-61305000D01*
X165484000Y-66505000D02*
X165484000Y-61305000D01*
X161684000Y-66505000D02*
X165484000Y-66505000D01*
D18*
X151765000Y-60325000D02*
X151460200Y-60325000D01*
X151765000Y-65405000D02*
X151765000Y-65100200D01*
X146685000Y-65405000D02*
X146989800Y-65405000D01*
X146685000Y-60325000D02*
X146685000Y-60629800D01*
X151765000Y-60629800D02*
X151765000Y-60325000D01*
X146989800Y-60325000D02*
X146685000Y-60325000D01*
X146685000Y-65100200D02*
X146685000Y-65405000D01*
X151460200Y-65405000D02*
X151765000Y-65405000D01*
D10*
X145322000Y-67065000D02*
X142872000Y-67065000D01*
X143522000Y-70285000D02*
X145322000Y-70285000D01*
X167539000Y-62432779D02*
X167539000Y-62107221D01*
X166519000Y-62432779D02*
X166519000Y-62107221D01*
X162930721Y-68328000D02*
X163256279Y-68328000D01*
X162930721Y-67308000D02*
X163256279Y-67308000D01*
X138495721Y-60962000D02*
X138821279Y-60962000D01*
X138495721Y-59942000D02*
X138821279Y-59942000D01*
X147000279Y-58418000D02*
X146674721Y-58418000D01*
X147000279Y-59438000D02*
X146674721Y-59438000D01*
X144777779Y-65403000D02*
X144452221Y-65403000D01*
X144777779Y-66423000D02*
X144452221Y-66423000D01*
X141630000Y-69472779D02*
X141630000Y-69147221D01*
X140610000Y-69472779D02*
X140610000Y-69147221D01*
X166260000Y-65303721D02*
X166260000Y-65629279D01*
X167280000Y-65303721D02*
X167280000Y-65629279D01*
X157545721Y-64010000D02*
X157871279Y-64010000D01*
X157545721Y-62990000D02*
X157871279Y-62990000D01*
X159700279Y-61466000D02*
X159374721Y-61466000D01*
X159700279Y-62486000D02*
X159374721Y-62486000D01*
X155399279Y-65490000D02*
X155073721Y-65490000D01*
X155399279Y-66510000D02*
X155073721Y-66510000D01*
X147893721Y-69598000D02*
X148219279Y-69598000D01*
X147893721Y-68578000D02*
X148219279Y-68578000D01*
X160514000Y-64742779D02*
X160514000Y-64417221D01*
X159494000Y-64742779D02*
X159494000Y-64417221D01*
X159494000Y-68227221D02*
X159494000Y-68552779D01*
X160514000Y-68227221D02*
X160514000Y-68552779D01*
X162371721Y-60200000D02*
X162697279Y-60200000D01*
X162371721Y-59180000D02*
X162697279Y-59180000D01*
X166148721Y-60510000D02*
X166474279Y-60510000D01*
X166148721Y-59490000D02*
X166474279Y-59490000D01*
X166648721Y-68510000D02*
X166974279Y-68510000D01*
X166648721Y-67490000D02*
X166974279Y-67490000D01*
D19*
X149496000Y-68315000D02*
G75*
G03*
X149496000Y-68315000I-120000J0D01*
G01*
D15*
X150226000Y-70365000D02*
X152726000Y-70365000D01*
X150226000Y-67865000D02*
X152726000Y-67865000D01*
M02*
