M48
; DRILL file {KiCad (5.99.0-2415-gbbdd3fce7)} date Thursday, July 30, 2020 at 08:06:19 AM
; FORMAT={3:3/ absolute / metric / suppress leading zeros}
; #@! TF.CreationDate,2020-07-30T08:06:19-07:00
; #@! TF.GenerationSoftware,Kicad,Pcbnew,(5.99.0-2415-gbbdd3fce7)
FMAT,2
METRIC,TZ
T1C0.330
%
G90
G05
T1
X132271Y-71120
X132842Y-61976
X136779Y-60452
X139001Y-62992
X139954Y-58928
X141160Y-67373
X142230Y-64040
X142684Y-65786
X144336Y-68707
X147256Y-67945
X147955Y-61595
X147955Y-63627
X148526Y-58928
X150495Y-61595
X150495Y-63627
X151575Y-66739
X151638Y-59690
X151765Y-65278
X152654Y-58420
X152654Y-60960
X152654Y-63170
X152908Y-67183
X153670Y-63170
X153924Y-58420
X153924Y-60960
X154686Y-63170
X154940Y-58420
X155277Y-64345
X155662Y-63170
X155956Y-58420
X156734Y-62435
X156807Y-59919
X157988Y-59309
X158814Y-69406
X159258Y-59880
X161036Y-63055
X163576Y-62802
X163576Y-64834
X164909Y-67882
X164909Y-69723
X165862Y-66929
X165989Y-60960
X167640Y-69279
X170942Y-65786
X172974Y-59944
T0
M30
