G04 #@! TF.GenerationSoftware,KiCad,Pcbnew,(5.99.0-2415-gbbdd3fce7)*
G04 #@! TF.CreationDate,2020-08-31T16:00:49-07:00*
G04 #@! TF.ProjectId,VineHoop_Islands,56696e65-486f-46f7-905f-49736c616e64,rev?*
G04 #@! TF.SameCoordinates,Original*
G04 #@! TF.FileFunction,Legend,Top*
G04 #@! TF.FilePolarity,Positive*
%FSLAX46Y46*%
G04 Gerber Fmt 4.6, Leading zero omitted, Abs format (unit mm)*
G04 Created by KiCad (PCBNEW (5.99.0-2415-gbbdd3fce7)) date 2020-08-31 16:00:49*
%MOMM*%
%LPD*%
G01*
G04 APERTURE LIST*
%ADD10C,0.150000*%
%ADD11C,0.149860*%
%ADD12C,0.015000*%
%ADD13C,0.254000*%
%ADD14C,0.120000*%
%ADD15C,0.152400*%
%ADD16C,0.100000*%
%ADD17C,0.200000*%
%ADD18C,0.127000*%
%ADD19C,0.304800*%
%ADD20C,0.250000*%
G04 APERTURE END LIST*
D10*
X196206142Y-62354666D02*
X196253761Y-62402285D01*
X196301380Y-62545142D01*
X196301380Y-62640380D01*
X196253761Y-62783238D01*
X196158523Y-62878476D01*
X196063285Y-62926095D01*
X195872809Y-62973714D01*
X195729952Y-62973714D01*
X195539476Y-62926095D01*
X195444238Y-62878476D01*
X195349000Y-62783238D01*
X195301380Y-62640380D01*
X195301380Y-62545142D01*
X195349000Y-62402285D01*
X195396619Y-62354666D01*
X196301380Y-61402285D02*
X196301380Y-61973714D01*
X196301380Y-61688000D02*
X195301380Y-61688000D01*
X195444238Y-61783238D01*
X195539476Y-61878476D01*
X195587095Y-61973714D01*
X192523142Y-60767166D02*
X192570761Y-60814785D01*
X192618380Y-60957642D01*
X192618380Y-61052880D01*
X192570761Y-61195738D01*
X192475523Y-61290976D01*
X192380285Y-61338595D01*
X192189809Y-61386214D01*
X192046952Y-61386214D01*
X191856476Y-61338595D01*
X191761238Y-61290976D01*
X191666000Y-61195738D01*
X191618380Y-61052880D01*
X191618380Y-60957642D01*
X191666000Y-60814785D01*
X191713619Y-60767166D01*
X191713619Y-60386214D02*
X191666000Y-60338595D01*
X191618380Y-60243357D01*
X191618380Y-60005261D01*
X191666000Y-59910023D01*
X191713619Y-59862404D01*
X191808857Y-59814785D01*
X191904095Y-59814785D01*
X192046952Y-59862404D01*
X192618380Y-60433833D01*
X192618380Y-59814785D01*
X161397833Y-52900142D02*
X161350214Y-52947761D01*
X161207357Y-52995380D01*
X161112119Y-52995380D01*
X160969261Y-52947761D01*
X160874023Y-52852523D01*
X160826404Y-52757285D01*
X160778785Y-52566809D01*
X160778785Y-52423952D01*
X160826404Y-52233476D01*
X160874023Y-52138238D01*
X160969261Y-52043000D01*
X161112119Y-51995380D01*
X161207357Y-51995380D01*
X161350214Y-52043000D01*
X161397833Y-52090619D01*
X161731166Y-51995380D02*
X162397833Y-51995380D01*
X161969261Y-52995380D01*
X197109680Y-57706566D02*
X196633490Y-58039900D01*
X197109680Y-58277995D02*
X196109680Y-58277995D01*
X196109680Y-57897042D01*
X196157300Y-57801804D01*
X196204919Y-57754185D01*
X196300157Y-57706566D01*
X196443014Y-57706566D01*
X196538252Y-57754185D01*
X196585871Y-57801804D01*
X196633490Y-57897042D01*
X196633490Y-58277995D01*
X196109680Y-56801804D02*
X196109680Y-57277995D01*
X196585871Y-57325614D01*
X196538252Y-57277995D01*
X196490633Y-57182757D01*
X196490633Y-56944661D01*
X196538252Y-56849423D01*
X196585871Y-56801804D01*
X196681109Y-56754185D01*
X196919204Y-56754185D01*
X197014442Y-56801804D01*
X197062061Y-56849423D01*
X197109680Y-56944661D01*
X197109680Y-57182757D01*
X197062061Y-57277995D01*
X197014442Y-57325614D01*
X184412580Y-55130266D02*
X183936390Y-55463600D01*
X184412580Y-55701695D02*
X183412580Y-55701695D01*
X183412580Y-55320742D01*
X183460200Y-55225504D01*
X183507819Y-55177885D01*
X183603057Y-55130266D01*
X183745914Y-55130266D01*
X183841152Y-55177885D01*
X183888771Y-55225504D01*
X183936390Y-55320742D01*
X183936390Y-55701695D01*
X183841152Y-54558838D02*
X183793533Y-54654076D01*
X183745914Y-54701695D01*
X183650676Y-54749314D01*
X183603057Y-54749314D01*
X183507819Y-54701695D01*
X183460200Y-54654076D01*
X183412580Y-54558838D01*
X183412580Y-54368361D01*
X183460200Y-54273123D01*
X183507819Y-54225504D01*
X183603057Y-54177885D01*
X183650676Y-54177885D01*
X183745914Y-54225504D01*
X183793533Y-54273123D01*
X183841152Y-54368361D01*
X183841152Y-54558838D01*
X183888771Y-54654076D01*
X183936390Y-54701695D01*
X184031628Y-54749314D01*
X184222104Y-54749314D01*
X184317342Y-54701695D01*
X184364961Y-54654076D01*
X184412580Y-54558838D01*
X184412580Y-54368361D01*
X184364961Y-54273123D01*
X184317342Y-54225504D01*
X184222104Y-54177885D01*
X184031628Y-54177885D01*
X183936390Y-54225504D01*
X183888771Y-54273123D01*
X183841152Y-54368361D01*
X222171933Y-60517580D02*
X221838600Y-60041390D01*
X221600504Y-60517580D02*
X221600504Y-59517580D01*
X221981457Y-59517580D01*
X222076695Y-59565200D01*
X222124314Y-59612819D01*
X222171933Y-59708057D01*
X222171933Y-59850914D01*
X222124314Y-59946152D01*
X222076695Y-59993771D01*
X221981457Y-60041390D01*
X221600504Y-60041390D01*
X222505266Y-59517580D02*
X223124314Y-59517580D01*
X222790980Y-59898533D01*
X222933838Y-59898533D01*
X223029076Y-59946152D01*
X223076695Y-59993771D01*
X223124314Y-60089009D01*
X223124314Y-60327104D01*
X223076695Y-60422342D01*
X223029076Y-60469961D01*
X222933838Y-60517580D01*
X222648123Y-60517580D01*
X222552885Y-60469961D01*
X222505266Y-60422342D01*
D11*
X158548880Y-52723523D02*
X158548880Y-53751619D01*
X158609357Y-53872571D01*
X158669833Y-53933047D01*
X158790785Y-53993523D01*
X159032690Y-53993523D01*
X159153642Y-53933047D01*
X159214119Y-53872571D01*
X159274595Y-53751619D01*
X159274595Y-52723523D01*
X160423642Y-53146857D02*
X160423642Y-53993523D01*
X160121261Y-52663047D02*
X159818880Y-53570190D01*
X160605071Y-53570190D01*
D12*
X218769380Y-55318123D02*
X218769380Y-55836219D01*
X218799857Y-55897171D01*
X218830333Y-55927647D01*
X218891285Y-55958123D01*
X219013190Y-55958123D01*
X219074142Y-55927647D01*
X219104619Y-55897171D01*
X219135095Y-55836219D01*
X219135095Y-55318123D01*
X219409380Y-55379076D02*
X219439857Y-55348600D01*
X219500809Y-55318123D01*
X219653190Y-55318123D01*
X219714142Y-55348600D01*
X219744619Y-55379076D01*
X219775095Y-55440028D01*
X219775095Y-55500980D01*
X219744619Y-55592409D01*
X219378904Y-55958123D01*
X219775095Y-55958123D01*
D11*
X185053327Y-59798328D02*
X185053327Y-60608668D01*
X185100994Y-60704002D01*
X185148661Y-60751669D01*
X185243995Y-60799336D01*
X185434663Y-60799336D01*
X185529997Y-60751669D01*
X185577664Y-60704002D01*
X185625331Y-60608668D01*
X185625331Y-59798328D01*
X186006668Y-59798328D02*
X186626339Y-59798328D01*
X186292670Y-60179665D01*
X186435671Y-60179665D01*
X186531005Y-60227332D01*
X186578672Y-60274999D01*
X186626339Y-60370333D01*
X186626339Y-60608668D01*
X186578672Y-60704002D01*
X186531005Y-60751669D01*
X186435671Y-60799336D01*
X186149669Y-60799336D01*
X186054335Y-60751669D01*
X186006668Y-60704002D01*
D10*
X187673533Y-63803480D02*
X187340200Y-63327290D01*
X187102104Y-63803480D02*
X187102104Y-62803480D01*
X187483057Y-62803480D01*
X187578295Y-62851100D01*
X187625914Y-62898719D01*
X187673533Y-62993957D01*
X187673533Y-63136814D01*
X187625914Y-63232052D01*
X187578295Y-63279671D01*
X187483057Y-63327290D01*
X187102104Y-63327290D01*
X188625914Y-63803480D02*
X188054485Y-63803480D01*
X188340200Y-63803480D02*
X188340200Y-62803480D01*
X188244961Y-62946338D01*
X188149723Y-63041576D01*
X188054485Y-63089195D01*
X161047642Y-61816880D02*
X160714309Y-61340690D01*
X160476214Y-61816880D02*
X160476214Y-60816880D01*
X160857166Y-60816880D01*
X160952404Y-60864500D01*
X161000023Y-60912119D01*
X161047642Y-61007357D01*
X161047642Y-61150214D01*
X161000023Y-61245452D01*
X160952404Y-61293071D01*
X160857166Y-61340690D01*
X160476214Y-61340690D01*
X162000023Y-61816880D02*
X161428595Y-61816880D01*
X161714309Y-61816880D02*
X161714309Y-60816880D01*
X161619071Y-60959738D01*
X161523833Y-61054976D01*
X161428595Y-61102595D01*
X162619071Y-60816880D02*
X162714309Y-60816880D01*
X162809547Y-60864500D01*
X162857166Y-60912119D01*
X162904785Y-61007357D01*
X162952404Y-61197833D01*
X162952404Y-61435928D01*
X162904785Y-61626404D01*
X162857166Y-61721642D01*
X162809547Y-61769261D01*
X162714309Y-61816880D01*
X162619071Y-61816880D01*
X162523833Y-61769261D01*
X162476214Y-61721642D01*
X162428595Y-61626404D01*
X162380976Y-61435928D01*
X162380976Y-61197833D01*
X162428595Y-61007357D01*
X162476214Y-60912119D01*
X162523833Y-60864500D01*
X162619071Y-60816880D01*
X215721933Y-60505080D02*
X215388600Y-60028890D01*
X215150504Y-60505080D02*
X215150504Y-59505080D01*
X215531457Y-59505080D01*
X215626695Y-59552700D01*
X215674314Y-59600319D01*
X215721933Y-59695557D01*
X215721933Y-59838414D01*
X215674314Y-59933652D01*
X215626695Y-59981271D01*
X215531457Y-60028890D01*
X215150504Y-60028890D01*
X216102885Y-59600319D02*
X216150504Y-59552700D01*
X216245742Y-59505080D01*
X216483838Y-59505080D01*
X216579076Y-59552700D01*
X216626695Y-59600319D01*
X216674314Y-59695557D01*
X216674314Y-59790795D01*
X216626695Y-59933652D01*
X216055266Y-60505080D01*
X216674314Y-60505080D01*
X187935333Y-52734380D02*
X187602000Y-52258190D01*
X187363904Y-52734380D02*
X187363904Y-51734380D01*
X187744857Y-51734380D01*
X187840095Y-51782000D01*
X187887714Y-51829619D01*
X187935333Y-51924857D01*
X187935333Y-52067714D01*
X187887714Y-52162952D01*
X187840095Y-52210571D01*
X187744857Y-52258190D01*
X187363904Y-52258190D01*
X188792476Y-51734380D02*
X188602000Y-51734380D01*
X188506761Y-51782000D01*
X188459142Y-51829619D01*
X188363904Y-51972476D01*
X188316285Y-52162952D01*
X188316285Y-52543904D01*
X188363904Y-52639142D01*
X188411523Y-52686761D01*
X188506761Y-52734380D01*
X188697238Y-52734380D01*
X188792476Y-52686761D01*
X188840095Y-52639142D01*
X188887714Y-52543904D01*
X188887714Y-52305809D01*
X188840095Y-52210571D01*
X188792476Y-52162952D01*
X188697238Y-52115333D01*
X188506761Y-52115333D01*
X188411523Y-52162952D01*
X188363904Y-52210571D01*
X188316285Y-52305809D01*
X195666380Y-53464666D02*
X195190190Y-53798000D01*
X195666380Y-54036095D02*
X194666380Y-54036095D01*
X194666380Y-53655142D01*
X194714000Y-53559904D01*
X194761619Y-53512285D01*
X194856857Y-53464666D01*
X194999714Y-53464666D01*
X195094952Y-53512285D01*
X195142571Y-53559904D01*
X195190190Y-53655142D01*
X195190190Y-54036095D01*
X194666380Y-53131333D02*
X194666380Y-52464666D01*
X195666380Y-52893238D01*
X190423533Y-52808242D02*
X190375914Y-52855861D01*
X190233057Y-52903480D01*
X190137819Y-52903480D01*
X189994961Y-52855861D01*
X189899723Y-52760623D01*
X189852104Y-52665385D01*
X189804485Y-52474909D01*
X189804485Y-52332052D01*
X189852104Y-52141576D01*
X189899723Y-52046338D01*
X189994961Y-51951100D01*
X190137819Y-51903480D01*
X190233057Y-51903480D01*
X190375914Y-51951100D01*
X190423533Y-51998719D01*
X191280676Y-52236814D02*
X191280676Y-52903480D01*
X191042580Y-51855861D02*
X190804485Y-52570147D01*
X191423533Y-52570147D01*
X184542580Y-58317766D02*
X184066390Y-58651100D01*
X184542580Y-58889195D02*
X183542580Y-58889195D01*
X183542580Y-58508242D01*
X183590200Y-58413004D01*
X183637819Y-58365385D01*
X183733057Y-58317766D01*
X183875914Y-58317766D01*
X183971152Y-58365385D01*
X184018771Y-58413004D01*
X184066390Y-58508242D01*
X184066390Y-58889195D01*
X183875914Y-57460623D02*
X184542580Y-57460623D01*
X183494961Y-57698719D02*
X184209247Y-57936814D01*
X184209247Y-57317766D01*
X135133333Y-63915445D02*
X135085714Y-63963064D01*
X134942857Y-64010683D01*
X134847619Y-64010683D01*
X134704761Y-63963064D01*
X134609523Y-63867826D01*
X134561904Y-63772588D01*
X134514285Y-63582112D01*
X134514285Y-63439255D01*
X134561904Y-63248779D01*
X134609523Y-63153541D01*
X134704761Y-63058303D01*
X134847619Y-63010683D01*
X134942857Y-63010683D01*
X135085714Y-63058303D01*
X135133333Y-63105922D01*
X136038095Y-63010683D02*
X135561904Y-63010683D01*
X135514285Y-63486874D01*
X135561904Y-63439255D01*
X135657142Y-63391636D01*
X135895238Y-63391636D01*
X135990476Y-63439255D01*
X136038095Y-63486874D01*
X136085714Y-63582112D01*
X136085714Y-63820207D01*
X136038095Y-63915445D01*
X135990476Y-63963064D01*
X135895238Y-64010683D01*
X135657142Y-64010683D01*
X135561904Y-63963064D01*
X135514285Y-63915445D01*
X128537994Y-64094183D02*
X128537994Y-64903707D01*
X128585613Y-64998945D01*
X128633232Y-65046564D01*
X128728470Y-65094183D01*
X128918946Y-65094183D01*
X129014184Y-65046564D01*
X129061803Y-64998945D01*
X129109422Y-64903707D01*
X129109422Y-64094183D01*
X130109422Y-65094183D02*
X129537994Y-65094183D01*
X129823708Y-65094183D02*
X129823708Y-64094183D01*
X129728470Y-64237041D01*
X129633232Y-64332279D01*
X129537994Y-64379898D01*
X152468504Y-52812580D02*
X152468504Y-51812580D01*
X152706600Y-51812580D01*
X152849457Y-51860200D01*
X152944695Y-51955438D01*
X152992314Y-52050676D01*
X153039933Y-52241152D01*
X153039933Y-52384009D01*
X152992314Y-52574485D01*
X152944695Y-52669723D01*
X152849457Y-52764961D01*
X152706600Y-52812580D01*
X152468504Y-52812580D01*
X153420885Y-51907819D02*
X153468504Y-51860200D01*
X153563742Y-51812580D01*
X153801838Y-51812580D01*
X153897076Y-51860200D01*
X153944695Y-51907819D01*
X153992314Y-52003057D01*
X153992314Y-52098295D01*
X153944695Y-52241152D01*
X153373266Y-52812580D01*
X153992314Y-52812580D01*
X161791342Y-52736780D02*
X161458009Y-52260590D01*
X161219914Y-52736780D02*
X161219914Y-51736780D01*
X161600866Y-51736780D01*
X161696104Y-51784400D01*
X161743723Y-51832019D01*
X161791342Y-51927257D01*
X161791342Y-52070114D01*
X161743723Y-52165352D01*
X161696104Y-52212971D01*
X161600866Y-52260590D01*
X161219914Y-52260590D01*
X162743723Y-52736780D02*
X162172295Y-52736780D01*
X162458009Y-52736780D02*
X162458009Y-51736780D01*
X162362771Y-51879638D01*
X162267533Y-51974876D01*
X162172295Y-52022495D01*
X163696104Y-52736780D02*
X163124676Y-52736780D01*
X163410390Y-52736780D02*
X163410390Y-51736780D01*
X163315152Y-51879638D01*
X163219914Y-51974876D01*
X163124676Y-52022495D01*
X123900104Y-59510780D02*
X123900104Y-58510780D01*
X124138200Y-58510780D01*
X124281057Y-58558400D01*
X124376295Y-58653638D01*
X124423914Y-58748876D01*
X124471533Y-58939352D01*
X124471533Y-59082209D01*
X124423914Y-59272685D01*
X124376295Y-59367923D01*
X124281057Y-59463161D01*
X124138200Y-59510780D01*
X123900104Y-59510780D01*
X125423914Y-59510780D02*
X124852485Y-59510780D01*
X125138200Y-59510780D02*
X125138200Y-58510780D01*
X125042961Y-58653638D01*
X124947723Y-58748876D01*
X124852485Y-58796495D01*
X133150733Y-59652380D02*
X132817400Y-59176190D01*
X132579304Y-59652380D02*
X132579304Y-58652380D01*
X132960257Y-58652380D01*
X133055495Y-58700000D01*
X133103114Y-58747619D01*
X133150733Y-58842857D01*
X133150733Y-58985714D01*
X133103114Y-59080952D01*
X133055495Y-59128571D01*
X132960257Y-59176190D01*
X132579304Y-59176190D01*
X133626923Y-59652380D02*
X133817400Y-59652380D01*
X133912638Y-59604761D01*
X133960257Y-59557142D01*
X134055495Y-59414285D01*
X134103114Y-59223809D01*
X134103114Y-58842857D01*
X134055495Y-58747619D01*
X134007876Y-58700000D01*
X133912638Y-58652380D01*
X133722161Y-58652380D01*
X133626923Y-58700000D01*
X133579304Y-58747619D01*
X133531685Y-58842857D01*
X133531685Y-59080952D01*
X133579304Y-59176190D01*
X133626923Y-59223809D01*
X133722161Y-59271428D01*
X133912638Y-59271428D01*
X134007876Y-59223809D01*
X134055495Y-59176190D01*
X134103114Y-59080952D01*
X194323533Y-59758242D02*
X194275914Y-59805861D01*
X194133057Y-59853480D01*
X194037819Y-59853480D01*
X193894961Y-59805861D01*
X193799723Y-59710623D01*
X193752104Y-59615385D01*
X193704485Y-59424909D01*
X193704485Y-59282052D01*
X193752104Y-59091576D01*
X193799723Y-58996338D01*
X193894961Y-58901100D01*
X194037819Y-58853480D01*
X194133057Y-58853480D01*
X194275914Y-58901100D01*
X194323533Y-58948719D01*
X195180676Y-58853480D02*
X194990200Y-58853480D01*
X194894961Y-58901100D01*
X194847342Y-58948719D01*
X194752104Y-59091576D01*
X194704485Y-59282052D01*
X194704485Y-59663004D01*
X194752104Y-59758242D01*
X194799723Y-59805861D01*
X194894961Y-59853480D01*
X195085438Y-59853480D01*
X195180676Y-59805861D01*
X195228295Y-59758242D01*
X195275914Y-59663004D01*
X195275914Y-59424909D01*
X195228295Y-59329671D01*
X195180676Y-59282052D01*
X195085438Y-59234433D01*
X194894961Y-59234433D01*
X194799723Y-59282052D01*
X194752104Y-59329671D01*
X194704485Y-59424909D01*
D13*
X129345624Y-55310133D02*
X130252767Y-55310133D01*
X130434196Y-55370609D01*
X130555148Y-55491561D01*
X130615624Y-55672990D01*
X130615624Y-55793942D01*
X130615624Y-54040133D02*
X130615624Y-54765847D01*
X130615624Y-54402990D02*
X129345624Y-54402990D01*
X129527053Y-54523942D01*
X129648005Y-54644895D01*
X129708481Y-54765847D01*
D10*
X154161809Y-52956380D02*
X154161809Y-53670666D01*
X154114190Y-53813523D01*
X154018952Y-53908761D01*
X153876095Y-53956380D01*
X153780857Y-53956380D01*
X154590380Y-53051619D02*
X154638000Y-53004000D01*
X154733238Y-52956380D01*
X154971333Y-52956380D01*
X155066571Y-53004000D01*
X155114190Y-53051619D01*
X155161809Y-53146857D01*
X155161809Y-53242095D01*
X155114190Y-53384952D01*
X154542761Y-53956380D01*
X155161809Y-53956380D01*
D11*
X191455809Y-64577190D02*
X191455809Y-65053380D01*
X191122476Y-64053380D02*
X191455809Y-64577190D01*
X191789142Y-64053380D01*
X192646285Y-65053380D02*
X192074857Y-65053380D01*
X192360571Y-65053380D02*
X192360571Y-64053380D01*
X192265333Y-64196238D01*
X192170095Y-64291476D01*
X192074857Y-64339095D01*
D10*
X159826785Y-72832380D02*
X160398214Y-72832380D01*
X160112500Y-73832380D02*
X160112500Y-72832380D01*
X160731547Y-73832380D02*
X160731547Y-72832380D01*
X160731547Y-73308571D02*
X161302976Y-73308571D01*
X161302976Y-73832380D02*
X161302976Y-72832380D01*
X161731547Y-72927619D02*
X161779166Y-72880000D01*
X161874404Y-72832380D01*
X162112500Y-72832380D01*
X162207738Y-72880000D01*
X162255357Y-72927619D01*
X162302976Y-73022857D01*
X162302976Y-73118095D01*
X162255357Y-73260952D01*
X161683928Y-73832380D01*
X162302976Y-73832380D01*
X219464285Y-72832380D02*
X220035714Y-72832380D01*
X219750000Y-73832380D02*
X219750000Y-72832380D01*
X220369047Y-73832380D02*
X220369047Y-72832380D01*
X220369047Y-73308571D02*
X220940476Y-73308571D01*
X220940476Y-73832380D02*
X220940476Y-72832380D01*
X221845238Y-73165714D02*
X221845238Y-73832380D01*
X221607142Y-72784761D02*
X221369047Y-73499047D01*
X221988095Y-73499047D01*
X191025285Y-72832380D02*
X191596714Y-72832380D01*
X191311000Y-73832380D02*
X191311000Y-72832380D01*
X191930047Y-73832380D02*
X191930047Y-72832380D01*
X191930047Y-73308571D02*
X192501476Y-73308571D01*
X192501476Y-73832380D02*
X192501476Y-72832380D01*
X192882428Y-72832380D02*
X193501476Y-72832380D01*
X193168142Y-73213333D01*
X193311000Y-73213333D01*
X193406238Y-73260952D01*
X193453857Y-73308571D01*
X193501476Y-73403809D01*
X193501476Y-73641904D01*
X193453857Y-73737142D01*
X193406238Y-73784761D01*
X193311000Y-73832380D01*
X193025285Y-73832380D01*
X192930047Y-73784761D01*
X192882428Y-73737142D01*
X125702380Y-72635714D02*
X125702380Y-72064285D01*
X126702380Y-72350000D02*
X125702380Y-72350000D01*
X126702380Y-71730952D02*
X125702380Y-71730952D01*
X126178571Y-71730952D02*
X126178571Y-71159523D01*
X126702380Y-71159523D02*
X125702380Y-71159523D01*
X126702380Y-70159523D02*
X126702380Y-70730952D01*
X126702380Y-70445238D02*
X125702380Y-70445238D01*
X125845238Y-70540476D01*
X125940476Y-70635714D01*
X125988095Y-70730952D01*
X216097142Y-70972380D02*
X215763809Y-70496190D01*
X215525714Y-70972380D02*
X215525714Y-69972380D01*
X215906666Y-69972380D01*
X216001904Y-70020000D01*
X216049523Y-70067619D01*
X216097142Y-70162857D01*
X216097142Y-70305714D01*
X216049523Y-70400952D01*
X216001904Y-70448571D01*
X215906666Y-70496190D01*
X215525714Y-70496190D01*
X217049523Y-70972380D02*
X216478095Y-70972380D01*
X216763809Y-70972380D02*
X216763809Y-69972380D01*
X216668571Y-70115238D01*
X216573333Y-70210476D01*
X216478095Y-70258095D01*
X217954285Y-69972380D02*
X217478095Y-69972380D01*
X217430476Y-70448571D01*
X217478095Y-70400952D01*
X217573333Y-70353333D01*
X217811428Y-70353333D01*
X217906666Y-70400952D01*
X217954285Y-70448571D01*
X218001904Y-70543809D01*
X218001904Y-70781904D01*
X217954285Y-70877142D01*
X217906666Y-70924761D01*
X217811428Y-70972380D01*
X217573333Y-70972380D01*
X217478095Y-70924761D01*
X217430476Y-70877142D01*
X134302380Y-72042857D02*
X133826190Y-72376190D01*
X134302380Y-72614285D02*
X133302380Y-72614285D01*
X133302380Y-72233333D01*
X133350000Y-72138095D01*
X133397619Y-72090476D01*
X133492857Y-72042857D01*
X133635714Y-72042857D01*
X133730952Y-72090476D01*
X133778571Y-72138095D01*
X133826190Y-72233333D01*
X133826190Y-72614285D01*
X134302380Y-71090476D02*
X134302380Y-71661904D01*
X134302380Y-71376190D02*
X133302380Y-71376190D01*
X133445238Y-71471428D01*
X133540476Y-71566666D01*
X133588095Y-71661904D01*
X133397619Y-70709523D02*
X133350000Y-70661904D01*
X133302380Y-70566666D01*
X133302380Y-70328571D01*
X133350000Y-70233333D01*
X133397619Y-70185714D01*
X133492857Y-70138095D01*
X133588095Y-70138095D01*
X133730952Y-70185714D01*
X134302380Y-70757142D01*
X134302380Y-70138095D01*
X156819642Y-70972380D02*
X156486309Y-70496190D01*
X156248214Y-70972380D02*
X156248214Y-69972380D01*
X156629166Y-69972380D01*
X156724404Y-70020000D01*
X156772023Y-70067619D01*
X156819642Y-70162857D01*
X156819642Y-70305714D01*
X156772023Y-70400952D01*
X156724404Y-70448571D01*
X156629166Y-70496190D01*
X156248214Y-70496190D01*
X157772023Y-70972380D02*
X157200595Y-70972380D01*
X157486309Y-70972380D02*
X157486309Y-69972380D01*
X157391071Y-70115238D01*
X157295833Y-70210476D01*
X157200595Y-70258095D01*
X158105357Y-69972380D02*
X158724404Y-69972380D01*
X158391071Y-70353333D01*
X158533928Y-70353333D01*
X158629166Y-70400952D01*
X158676785Y-70448571D01*
X158724404Y-70543809D01*
X158724404Y-70781904D01*
X158676785Y-70877142D01*
X158629166Y-70924761D01*
X158533928Y-70972380D01*
X158248214Y-70972380D01*
X158152976Y-70924761D01*
X158105357Y-70877142D01*
X187807142Y-70972380D02*
X187473809Y-70496190D01*
X187235714Y-70972380D02*
X187235714Y-69972380D01*
X187616666Y-69972380D01*
X187711904Y-70020000D01*
X187759523Y-70067619D01*
X187807142Y-70162857D01*
X187807142Y-70305714D01*
X187759523Y-70400952D01*
X187711904Y-70448571D01*
X187616666Y-70496190D01*
X187235714Y-70496190D01*
X188759523Y-70972380D02*
X188188095Y-70972380D01*
X188473809Y-70972380D02*
X188473809Y-69972380D01*
X188378571Y-70115238D01*
X188283333Y-70210476D01*
X188188095Y-70258095D01*
X189616666Y-70305714D02*
X189616666Y-70972380D01*
X189378571Y-69924761D02*
X189140476Y-70639047D01*
X189759523Y-70639047D01*
X125307142Y-63099969D02*
X125354761Y-63147588D01*
X125402380Y-63290445D01*
X125402380Y-63385683D01*
X125354761Y-63528541D01*
X125259523Y-63623779D01*
X125164285Y-63671398D01*
X124973809Y-63719017D01*
X124830952Y-63719017D01*
X124640476Y-63671398D01*
X124545238Y-63623779D01*
X124450000Y-63528541D01*
X124402380Y-63385683D01*
X124402380Y-63290445D01*
X124450000Y-63147588D01*
X124497619Y-63099969D01*
X124402380Y-62766636D02*
X124402380Y-62147588D01*
X124783333Y-62480922D01*
X124783333Y-62338064D01*
X124830952Y-62242826D01*
X124878571Y-62195207D01*
X124973809Y-62147588D01*
X125211904Y-62147588D01*
X125307142Y-62195207D01*
X125354761Y-62242826D01*
X125402380Y-62338064D01*
X125402380Y-62623779D01*
X125354761Y-62719017D01*
X125307142Y-62766636D01*
D14*
X193972221Y-60170000D02*
X194297779Y-60170000D01*
X193972221Y-61190000D02*
X194297779Y-61190000D01*
X190487779Y-60170000D02*
X190162221Y-60170000D01*
X190487779Y-61190000D02*
X190162221Y-61190000D01*
X163864221Y-51983000D02*
X164189779Y-51983000D01*
X163864221Y-53003000D02*
X164189779Y-53003000D01*
X194488021Y-56013900D02*
X194813579Y-56013900D01*
X194488021Y-57033900D02*
X194813579Y-57033900D01*
X185900200Y-55126379D02*
X185900200Y-54800821D01*
X184880200Y-55126379D02*
X184880200Y-54800821D01*
X222798600Y-57965479D02*
X222798600Y-57639921D01*
X221778600Y-57965479D02*
X221778600Y-57639921D01*
D15*
X159531300Y-54779000D02*
X159226500Y-54779000D01*
X159226500Y-54779000D02*
X159226500Y-55083800D01*
X159226500Y-59859000D02*
X159531300Y-59859000D01*
X164306500Y-54779000D02*
X164001700Y-54779000D01*
X159226500Y-59554200D02*
X159226500Y-59859000D01*
X164306500Y-59859000D02*
X164306500Y-59554200D01*
X164001700Y-59859000D02*
X164306500Y-59859000D01*
X164306500Y-55083800D02*
X164306500Y-54779000D01*
D16*
X217725000Y-56575000D02*
X217725000Y-56650000D01*
X220225000Y-56575000D02*
X220225000Y-56650000D01*
X220225000Y-56575000D02*
X217725000Y-56575000D01*
X217725000Y-59075000D02*
X217725000Y-59000000D01*
X220225000Y-59075000D02*
X220225000Y-59000000D01*
X217725000Y-59075000D02*
X220225000Y-59075000D01*
D17*
X216975000Y-56825000D02*
G75*
G03*
X216975000Y-56825000I-100000J0D01*
G01*
D18*
X192250000Y-59000000D02*
X192250000Y-55200000D01*
X187050000Y-59000000D02*
X192250000Y-59000000D01*
X187050000Y-55200000D02*
X187050000Y-59000000D01*
X192250000Y-55200000D02*
X187050000Y-55200000D01*
D19*
X191950000Y-59400000D02*
G75*
G03*
X191950000Y-59400000I-100000J0D01*
G01*
D14*
X188231000Y-60983721D02*
X188231000Y-61309279D01*
X187211000Y-60983721D02*
X187211000Y-61309279D01*
X162137221Y-62315000D02*
X162462779Y-62315000D01*
X162137221Y-63335000D02*
X162462779Y-63335000D01*
X215278600Y-58002979D02*
X215278600Y-57677421D01*
X216298600Y-58002979D02*
X216298600Y-57677421D01*
X188177779Y-54165000D02*
X187852221Y-54165000D01*
X188177779Y-53145000D02*
X187852221Y-53145000D01*
X193235000Y-54035279D02*
X193235000Y-53709721D01*
X194255000Y-54035279D02*
X194255000Y-53709721D01*
X191048721Y-54424000D02*
X191374279Y-54424000D01*
X191048721Y-53404000D02*
X191374279Y-53404000D01*
X185945000Y-57986721D02*
X185945000Y-58312279D01*
X184925000Y-57986721D02*
X184925000Y-58312279D01*
X132990000Y-63308024D02*
X132990000Y-63633582D01*
X134010000Y-63308024D02*
X134010000Y-63633582D01*
X129438899Y-63743303D02*
X131238899Y-63743303D01*
X131238899Y-60523303D02*
X128788899Y-60523303D01*
X156495600Y-51523600D02*
X154210600Y-51523600D01*
X154210600Y-52993600D02*
X156495600Y-52993600D01*
X154210600Y-51523600D02*
X154210600Y-52993600D01*
X159190721Y-52794000D02*
X159516279Y-52794000D01*
X159190721Y-51774000D02*
X159516279Y-51774000D01*
X125594900Y-59935000D02*
X127879900Y-59935000D01*
X125594900Y-58465000D02*
X125594900Y-59935000D01*
X127879900Y-58465000D02*
X125594900Y-58465000D01*
X130900279Y-58690000D02*
X130574721Y-58690000D01*
X130900279Y-59710000D02*
X130574721Y-59710000D01*
X194661079Y-57691100D02*
X194335521Y-57691100D01*
X194661079Y-58711100D02*
X194335521Y-58711100D01*
D16*
X132456101Y-52526800D02*
X127626101Y-52526800D01*
X127626101Y-52526800D02*
X127626101Y-52656800D01*
X132456101Y-52656800D02*
X132456101Y-52526800D01*
X127626101Y-57246800D02*
X127626101Y-57156800D01*
X132456101Y-57246800D02*
X127626101Y-57246800D01*
X132456101Y-57156800D02*
X132456101Y-57246800D01*
D10*
X157800500Y-59134000D02*
X157800500Y-55504000D01*
X157695500Y-59134000D02*
X157800500Y-59134000D01*
X157695500Y-55504000D02*
X157800500Y-55504000D01*
X153540500Y-59134000D02*
X153540500Y-55504000D01*
X153540500Y-55504000D02*
X153645500Y-55504000D01*
X153540500Y-59134000D02*
X153645500Y-59134000D01*
D20*
X154525500Y-61069000D02*
G75*
G03*
X154525500Y-61069000I-125000J0D01*
G01*
D18*
X192917000Y-63446000D02*
X192217000Y-63446000D01*
X192917000Y-61946000D02*
X192217000Y-61946000D01*
D14*
X161275279Y-71440000D02*
X160949721Y-71440000D01*
X161275279Y-72460000D02*
X160949721Y-72460000D01*
X220912779Y-71440000D02*
X220587221Y-71440000D01*
X220912779Y-72460000D02*
X220587221Y-72460000D01*
X192473779Y-71440000D02*
X192148221Y-71440000D01*
X192473779Y-72460000D02*
X192148221Y-72460000D01*
X128187221Y-72460000D02*
X128512779Y-72460000D01*
X128187221Y-71440000D02*
X128512779Y-71440000D01*
X216577221Y-72460000D02*
X216902779Y-72460000D01*
X216577221Y-71440000D02*
X216902779Y-71440000D01*
X131812779Y-71440000D02*
X131487221Y-71440000D01*
X131812779Y-72460000D02*
X131487221Y-72460000D01*
X157299721Y-72460000D02*
X157625279Y-72460000D01*
X157299721Y-71440000D02*
X157625279Y-71440000D01*
X188287221Y-72460000D02*
X188612779Y-72460000D01*
X188287221Y-71440000D02*
X188612779Y-71440000D01*
X126910000Y-62858024D02*
X126910000Y-63183582D01*
X125890000Y-62858024D02*
X125890000Y-63183582D01*
M02*
