G04 #@! TF.GenerationSoftware,KiCad,Pcbnew,(5.99.0-2415-gbbdd3fce7)*
G04 #@! TF.CreationDate,2020-08-31T16:00:49-07:00*
G04 #@! TF.ProjectId,VineHoop_Islands,56696e65-486f-46f7-905f-49736c616e64,rev?*
G04 #@! TF.SameCoordinates,Original*
G04 #@! TF.FileFunction,Profile,NP*
%FSLAX46Y46*%
G04 Gerber Fmt 4.6, Leading zero omitted, Abs format (unit mm)*
G04 Created by KiCad (PCBNEW (5.99.0-2415-gbbdd3fce7)) date 2020-08-31 16:00:49*
%MOMM*%
%LPD*%
G01*
G04 APERTURE LIST*
G04 #@! TA.AperFunction,Profile*
%ADD10C,0.200000*%
G04 #@! TD*
G04 APERTURE END LIST*
D10*
X214250000Y-72799570D02*
X223250000Y-72799570D01*
X223250000Y-72799570D02*
X223250000Y-51299570D01*
X197750000Y-59364276D02*
X213750000Y-59364276D01*
X213750000Y-59364276D02*
G75*
G02*
X213750000Y-60364276I0J-500000D01*
G01*
X197750000Y-60364276D02*
X213750000Y-60364276D01*
X197750000Y-60364276D02*
G75*
G02*
X197750000Y-59364276I0J500000D01*
G01*
X197750000Y-57114276D02*
X213750000Y-57114276D01*
X213750000Y-57114276D02*
G75*
G02*
X213750000Y-58114276I0J-500000D01*
G01*
X197750000Y-58114276D02*
X213750000Y-58114276D01*
X197750000Y-58114276D02*
G75*
G02*
X197750000Y-57114276I0J500000D01*
G01*
X166750000Y-59364276D02*
X182750000Y-59364276D01*
X182750000Y-59364276D02*
G75*
G02*
X182750000Y-60364276I0J-500000D01*
G01*
X166750000Y-60364276D02*
X182750000Y-60364276D01*
X166750000Y-60364276D02*
G75*
G02*
X166750000Y-59364276I0J500000D01*
G01*
X166750000Y-57114276D02*
X182750000Y-57114276D01*
X182750000Y-57114276D02*
G75*
G02*
X182750000Y-58114276I0J-500000D01*
G01*
X166750000Y-58114276D02*
X182750000Y-58114276D01*
X166750000Y-58114276D02*
G75*
G02*
X166750000Y-57114276I0J500000D01*
G01*
X133250000Y-70299570D02*
G75*
G02*
X132750000Y-70799570I-500000J0D01*
G01*
X127250000Y-70799570D02*
X132750000Y-70799570D01*
X127250000Y-70799570D02*
G75*
G02*
X126750000Y-70299570I0J500000D01*
G01*
X126750000Y-70299570D02*
X126750000Y-66299570D01*
X126750000Y-66299570D02*
G75*
G02*
X127250000Y-65799570I500000J0D01*
G01*
X127250000Y-65799570D02*
X132750000Y-65799570D01*
X132750000Y-65799570D02*
G75*
G02*
X133250000Y-66299570I0J-500000D01*
G01*
X133250000Y-70299570D02*
X133250000Y-66299570D01*
X135750000Y-59364276D02*
X151750000Y-59364276D01*
X151750000Y-59364276D02*
G75*
G02*
X151750000Y-60364276I0J-500000D01*
G01*
X135750000Y-60364276D02*
X151750000Y-60364276D01*
X135750000Y-60364276D02*
G75*
G02*
X135750000Y-59364276I0J500000D01*
G01*
X151750000Y-57114276D02*
G75*
G02*
X151750000Y-58114276I0J-500000D01*
G01*
X135750000Y-58114276D02*
X151750000Y-58114276D01*
X135750000Y-58114276D02*
G75*
G02*
X135750000Y-57114276I0J500000D01*
G01*
X135750000Y-57114276D02*
X151750000Y-57114276D01*
X162500000Y-70299570D02*
G75*
G02*
X162000000Y-70799570I-500000J0D01*
G01*
X156500000Y-70799570D02*
X162000000Y-70799570D01*
X156500000Y-70799570D02*
G75*
G02*
X156000000Y-70299570I0J500000D01*
G01*
X156000000Y-70299570D02*
X156000000Y-66299570D01*
X156000000Y-66299570D02*
G75*
G02*
X156500000Y-65799570I500000J0D01*
G01*
X156500000Y-65799570D02*
X162000000Y-65799570D01*
X162000000Y-65799570D02*
G75*
G02*
X162500000Y-66299570I0J-500000D01*
G01*
X162500000Y-70299570D02*
X162500000Y-66299570D01*
X193500000Y-70299570D02*
G75*
G02*
X193000000Y-70799570I-500000J0D01*
G01*
X187500000Y-70799570D02*
X193000000Y-70799570D01*
X187500000Y-70799570D02*
G75*
G02*
X187000000Y-70299570I0J500000D01*
G01*
X187000000Y-70299570D02*
X187000000Y-66299570D01*
X187000000Y-66299570D02*
G75*
G02*
X187500000Y-65799570I500000J0D01*
G01*
X187500000Y-65799570D02*
X193000000Y-65799570D01*
X193000000Y-65799570D02*
G75*
G02*
X193500000Y-66299570I0J-500000D01*
G01*
X193500000Y-70299570D02*
X193500000Y-66299570D01*
X222000000Y-70299570D02*
G75*
G02*
X221500000Y-70799570I-500000J0D01*
G01*
X216000000Y-70799570D02*
X221500000Y-70799570D01*
X216000000Y-70799570D02*
G75*
G02*
X215500000Y-70299570I0J500000D01*
G01*
X215500000Y-70299570D02*
X215500000Y-66299570D01*
X215500000Y-66299570D02*
G75*
G02*
X216000000Y-65799570I500000J0D01*
G01*
X216000000Y-65799570D02*
X221500000Y-65799570D01*
X221500000Y-65799570D02*
G75*
G02*
X222000000Y-66299570I0J-500000D01*
G01*
X222000000Y-70299570D02*
X222000000Y-66299570D01*
X214250000Y-51299570D02*
X223250000Y-51299570D01*
X214250000Y-55364276D02*
X214250000Y-51299570D01*
X214250000Y-55364276D02*
G75*
G02*
X213750000Y-55864276I-500000J0D01*
G01*
X197750000Y-55864276D02*
X213750000Y-55864276D01*
X197750000Y-55864276D02*
G75*
G02*
X197250000Y-55364276I0J500000D01*
G01*
X197250000Y-55364276D02*
X197250000Y-51299570D01*
X183250000Y-51299570D02*
X197250000Y-51299570D01*
X183250000Y-55364276D02*
X183250000Y-51299570D01*
X183250000Y-55364276D02*
G75*
G02*
X182750000Y-55864276I-500000J0D01*
G01*
X166750000Y-55864276D02*
X182750000Y-55864276D01*
X166750000Y-55864276D02*
G75*
G02*
X166250000Y-55364276I0J500000D01*
G01*
X166250000Y-55364276D02*
X166250000Y-51299570D01*
X152250000Y-51299570D02*
X166250000Y-51299570D01*
X152250000Y-55364276D02*
X152250000Y-51299570D01*
X152250000Y-55364276D02*
G75*
G02*
X151750000Y-55864276I-500000J0D01*
G01*
X135750000Y-55864276D02*
X151750000Y-55864276D01*
X135750000Y-55864277D02*
G75*
G02*
X135249999Y-55364276I0J500001D01*
G01*
X135250000Y-51299570D02*
X135250000Y-55364276D01*
X124750000Y-51299570D02*
X135250000Y-51299570D01*
X124750000Y-51299570D02*
X124750000Y-65799570D01*
X124750000Y-65799570D02*
X125000000Y-65799570D01*
X125000000Y-65799570D02*
G75*
G02*
X125500000Y-66299570I0J-500000D01*
G01*
X125500000Y-66299570D02*
X125500000Y-72799570D01*
X125500000Y-72799570D02*
X134500000Y-72799570D01*
X134500000Y-66299570D02*
X134500000Y-72799570D01*
X134500000Y-66299570D02*
G75*
G02*
X135000000Y-65799570I500000J0D01*
G01*
X135000000Y-65799570D02*
X135250000Y-65799570D01*
X135250000Y-62114276D02*
X135250000Y-65799570D01*
X135250000Y-62114276D02*
G75*
G02*
X135750000Y-61614276I500000J0D01*
G01*
X135750000Y-61614276D02*
X151750000Y-61614276D01*
X151750000Y-61614276D02*
G75*
G02*
X152250000Y-62114276I0J-500000D01*
G01*
X152250000Y-65799570D02*
X152250000Y-62114276D01*
X152250000Y-65799570D02*
X154250000Y-65799570D01*
X154250000Y-65799570D02*
G75*
G02*
X154750000Y-66299570I0J-500000D01*
G01*
X154750000Y-66299570D02*
X154750000Y-72799570D01*
X154750000Y-72799570D02*
X163750000Y-72799570D01*
X163750000Y-66299570D02*
X163750000Y-72799570D01*
X163750000Y-66299570D02*
G75*
G02*
X164250000Y-65799570I500000J0D01*
G01*
X164250000Y-65799570D02*
X166250000Y-65799570D01*
X166250000Y-65799570D02*
X166250000Y-62114276D01*
X166250000Y-62114276D02*
G75*
G02*
X166750000Y-61614276I500000J0D01*
G01*
X166750000Y-61614276D02*
X182750000Y-61614276D01*
X182750000Y-61614276D02*
G75*
G02*
X183250000Y-62114276I0J-500000D01*
G01*
X183250000Y-65799570D02*
X183250000Y-62114276D01*
X183250000Y-65799570D02*
X185250000Y-65799570D01*
X185250000Y-65799570D02*
G75*
G02*
X185750000Y-66299570I0J-500000D01*
G01*
X185750000Y-66299570D02*
X185750000Y-72799570D01*
X185750000Y-72799570D02*
X194750000Y-72799570D01*
X194750000Y-66299570D02*
X194750000Y-72799570D01*
X213750000Y-61614276D02*
G75*
G02*
X214250000Y-62114276I0J-500000D01*
G01*
X197250000Y-65799570D02*
X197250000Y-62114276D01*
X197250000Y-62114276D02*
G75*
G02*
X197750000Y-61614276I500000J0D01*
G01*
X194750000Y-66299570D02*
G75*
G02*
X195250000Y-65799570I500000J0D01*
G01*
X195250000Y-65799570D02*
X197250000Y-65799570D01*
X214250000Y-72799570D02*
X214250000Y-62114276D01*
X197750000Y-61614276D02*
X213750000Y-61614276D01*
M02*
