G04 #@! TF.GenerationSoftware,KiCad,Pcbnew,(5.99.0-2415-gbbdd3fce7)*
G04 #@! TF.CreationDate,2020-07-30T08:06:23-07:00*
G04 #@! TF.ProjectId,VineHoop_V1_2,56696e65-486f-46f7-905f-56315f322e6b,rev?*
G04 #@! TF.SameCoordinates,Original*
G04 #@! TF.FileFunction,Copper,L2,Bot*
G04 #@! TF.FilePolarity,Positive*
%FSLAX46Y46*%
G04 Gerber Fmt 4.6, Leading zero omitted, Abs format (unit mm)*
G04 Created by KiCad (PCBNEW (5.99.0-2415-gbbdd3fce7)) date 2020-07-30 08:06:23*
%MOMM*%
%LPD*%
G01*
G04 APERTURE LIST*
G04 #@! TA.AperFunction,ViaPad*
%ADD10C,0.660400*%
G04 #@! TD*
G04 #@! TA.AperFunction,Conductor*
%ADD11C,0.152400*%
G04 #@! TD*
G04 #@! TA.AperFunction,Conductor*
%ADD12C,0.127000*%
G04 #@! TD*
G04 APERTURE END LIST*
D10*
X147955000Y-63627000D03*
X150495000Y-63627000D03*
X147955000Y-61595000D03*
X132270500Y-71120000D03*
X164909500Y-69723000D03*
X139001500Y-62992000D03*
X136779000Y-60452000D03*
X142684500Y-65786000D03*
X144335500Y-68707000D03*
X141160500Y-67373500D03*
X147256500Y-67945000D03*
X152908000Y-67183000D03*
X150495000Y-61595000D03*
X148526500Y-58928000D03*
X161036000Y-63055500D03*
X165989000Y-60960000D03*
X165862000Y-66929000D03*
X167640000Y-69278500D03*
X164909500Y-67881500D03*
X158813500Y-69405500D03*
X163576000Y-64833500D03*
X163576000Y-62801500D03*
X159258000Y-59880500D03*
X151638000Y-59690000D03*
X156806899Y-59918601D03*
X151574500Y-66738500D03*
X132842000Y-61976000D03*
X172974000Y-59944000D03*
X170942000Y-65786000D03*
X139954000Y-58928000D03*
X142229705Y-64039801D03*
X155277216Y-64345216D03*
X153924000Y-58420000D03*
X153924000Y-60960000D03*
X152654000Y-60960000D03*
X152654000Y-58420000D03*
X156734399Y-62435248D03*
X155662368Y-63169800D03*
X157988000Y-59309000D03*
X154686000Y-63169800D03*
X153670000Y-63169800D03*
X155956000Y-58420000D03*
X152654000Y-63169800D03*
X154940000Y-58420000D03*
X151765000Y-65278000D03*
D11*
X155252432Y-64370000D02*
X155277216Y-64345216D01*
X142559904Y-64370000D02*
X155252432Y-64370000D01*
X142229705Y-64039801D02*
X142559904Y-64370000D01*
X153924000Y-60960000D02*
X153924000Y-58420000D01*
X152654000Y-60960000D02*
X152654000Y-58420000D01*
X155662368Y-63169800D02*
X155999847Y-63169800D01*
X155999847Y-63169800D02*
X156734399Y-62435248D01*
X157988000Y-59867800D02*
X157988000Y-59436000D01*
X154686000Y-63169800D02*
X157988000Y-59867800D01*
X155956000Y-60883800D02*
X155956000Y-58420000D01*
X153670000Y-63169800D02*
X155956000Y-60883800D01*
X154940000Y-60883800D02*
X154940000Y-58420000D01*
X152654000Y-63169800D02*
X154940000Y-60883800D01*
D12*
X179109101Y-71921100D02*
X130262900Y-71921100D01*
X130262900Y-65187437D01*
X151219901Y-65187437D01*
X151219901Y-65368563D01*
X151221800Y-65379333D01*
X151283748Y-65549536D01*
X151289217Y-65559008D01*
X151405643Y-65697758D01*
X151414020Y-65704787D01*
X151570880Y-65795352D01*
X151581157Y-65799092D01*
X151759532Y-65830544D01*
X151770468Y-65830544D01*
X151948843Y-65799092D01*
X151959120Y-65795352D01*
X152115980Y-65704787D01*
X152124357Y-65697758D01*
X152240783Y-65559008D01*
X152246252Y-65549536D01*
X152308200Y-65379333D01*
X152310099Y-65368563D01*
X152310099Y-65187437D01*
X152308200Y-65176667D01*
X152246252Y-65006464D01*
X152240783Y-64996992D01*
X152124357Y-64858242D01*
X152115980Y-64851213D01*
X151959120Y-64760648D01*
X151948843Y-64756908D01*
X151770468Y-64725456D01*
X151759532Y-64725456D01*
X151581157Y-64756908D01*
X151570880Y-64760648D01*
X151414020Y-64851213D01*
X151405643Y-64858242D01*
X151289217Y-64996992D01*
X151283748Y-65006464D01*
X151221800Y-65176667D01*
X151219901Y-65187437D01*
X130262900Y-65187437D01*
X130262900Y-63949238D01*
X141684606Y-63949238D01*
X141684606Y-64130364D01*
X141686505Y-64141134D01*
X141748453Y-64311337D01*
X141753922Y-64320809D01*
X141870348Y-64459559D01*
X141878725Y-64466588D01*
X142035585Y-64557153D01*
X142045862Y-64560893D01*
X142224237Y-64592345D01*
X142235173Y-64592345D01*
X142350275Y-64572049D01*
X142378907Y-64600681D01*
X142378910Y-64600683D01*
X142403196Y-64624970D01*
X142417448Y-64633198D01*
X142447542Y-64641261D01*
X142474526Y-64656840D01*
X142490422Y-64661099D01*
X142525968Y-64661099D01*
X142525976Y-64661100D01*
X154830698Y-64661100D01*
X154917859Y-64764974D01*
X154926236Y-64772003D01*
X155083096Y-64862568D01*
X155093373Y-64866308D01*
X155271748Y-64897760D01*
X155282684Y-64897760D01*
X155461059Y-64866308D01*
X155471336Y-64862568D01*
X155628196Y-64772003D01*
X155636573Y-64764974D01*
X155752999Y-64626224D01*
X155758468Y-64616752D01*
X155820416Y-64446549D01*
X155822315Y-64435779D01*
X155822315Y-64254653D01*
X155820416Y-64243883D01*
X155758468Y-64073680D01*
X155752999Y-64064208D01*
X155636573Y-63925458D01*
X155628196Y-63918429D01*
X155471336Y-63827864D01*
X155461059Y-63824124D01*
X155282684Y-63792672D01*
X155271748Y-63792672D01*
X155093373Y-63824124D01*
X155083096Y-63827864D01*
X154926236Y-63918429D01*
X154917859Y-63925458D01*
X154801433Y-64064208D01*
X154795965Y-64073679D01*
X154794065Y-64078900D01*
X142774804Y-64078900D01*
X142774804Y-63949238D01*
X142772905Y-63938468D01*
X142710957Y-63768265D01*
X142705488Y-63758793D01*
X142589062Y-63620043D01*
X142580685Y-63613014D01*
X142423825Y-63522449D01*
X142413548Y-63518709D01*
X142235173Y-63487257D01*
X142224237Y-63487257D01*
X142045862Y-63518709D01*
X142035585Y-63522449D01*
X141878725Y-63613014D01*
X141870348Y-63620043D01*
X141753922Y-63758793D01*
X141748453Y-63768265D01*
X141686505Y-63938468D01*
X141684606Y-63949238D01*
X130262900Y-63949238D01*
X130262900Y-63079237D01*
X152108901Y-63079237D01*
X152108901Y-63260363D01*
X152110800Y-63271133D01*
X152172748Y-63441336D01*
X152178217Y-63450808D01*
X152294643Y-63589558D01*
X152303020Y-63596587D01*
X152459880Y-63687152D01*
X152470157Y-63690892D01*
X152648532Y-63722344D01*
X152659468Y-63722344D01*
X152837843Y-63690892D01*
X152848120Y-63687152D01*
X153004980Y-63596587D01*
X153013357Y-63589558D01*
X153129783Y-63450808D01*
X153135252Y-63441336D01*
X153162000Y-63367845D01*
X153188748Y-63441336D01*
X153194217Y-63450808D01*
X153310643Y-63589558D01*
X153319020Y-63596587D01*
X153475880Y-63687152D01*
X153486157Y-63690892D01*
X153664532Y-63722344D01*
X153675468Y-63722344D01*
X153853843Y-63690892D01*
X153864120Y-63687152D01*
X154020980Y-63596587D01*
X154029357Y-63589558D01*
X154145783Y-63450808D01*
X154151252Y-63441336D01*
X154178000Y-63367845D01*
X154204748Y-63441336D01*
X154210217Y-63450808D01*
X154326643Y-63589558D01*
X154335020Y-63596587D01*
X154491880Y-63687152D01*
X154502157Y-63690892D01*
X154680532Y-63722344D01*
X154691468Y-63722344D01*
X154869843Y-63690892D01*
X154880120Y-63687152D01*
X155036980Y-63596587D01*
X155045357Y-63589558D01*
X155161783Y-63450808D01*
X155167252Y-63441336D01*
X155174184Y-63422290D01*
X155181116Y-63441336D01*
X155186585Y-63450808D01*
X155303011Y-63589558D01*
X155311388Y-63596587D01*
X155468248Y-63687152D01*
X155478525Y-63690892D01*
X155656900Y-63722344D01*
X155667836Y-63722344D01*
X155846211Y-63690892D01*
X155856488Y-63687152D01*
X156013348Y-63596587D01*
X156021725Y-63589558D01*
X156138151Y-63450808D01*
X156143620Y-63441337D01*
X156147813Y-63429817D01*
X156156555Y-63424770D01*
X156257789Y-63323535D01*
X156257790Y-63323533D01*
X156613827Y-62967496D01*
X156728931Y-62987792D01*
X156739867Y-62987792D01*
X156918242Y-62956340D01*
X156928519Y-62952600D01*
X157085379Y-62862035D01*
X157093756Y-62855006D01*
X157210182Y-62716256D01*
X157215651Y-62706784D01*
X157277599Y-62536581D01*
X157279498Y-62525811D01*
X157279498Y-62344685D01*
X157277599Y-62333915D01*
X157215651Y-62163712D01*
X157210182Y-62154240D01*
X157093756Y-62015490D01*
X157085379Y-62008461D01*
X156928519Y-61917896D01*
X156918242Y-61914156D01*
X156739867Y-61882704D01*
X156728931Y-61882704D01*
X156550556Y-61914156D01*
X156540279Y-61917896D01*
X156383419Y-62008461D01*
X156375042Y-62015490D01*
X156258616Y-62154240D01*
X156253147Y-62163712D01*
X156191199Y-62333915D01*
X156189300Y-62344685D01*
X156189300Y-62525811D01*
X156191199Y-62536581D01*
X156199255Y-62558715D01*
X156014223Y-62743747D01*
X156013348Y-62743013D01*
X155856488Y-62652448D01*
X155846211Y-62648708D01*
X155667836Y-62617256D01*
X155656900Y-62617256D01*
X155648790Y-62618686D01*
X158223909Y-60043568D01*
X158223909Y-60043567D01*
X158242969Y-60024509D01*
X158251198Y-60010256D01*
X158259262Y-59980158D01*
X158274839Y-59953179D01*
X158279099Y-59937283D01*
X158279099Y-59901736D01*
X158279100Y-59901728D01*
X158279100Y-59770359D01*
X158338980Y-59735788D01*
X158347357Y-59728758D01*
X158463783Y-59590008D01*
X158469252Y-59580536D01*
X158531200Y-59410333D01*
X158533099Y-59399563D01*
X158533099Y-59218437D01*
X158531200Y-59207667D01*
X158469252Y-59037464D01*
X158463783Y-59027992D01*
X158347357Y-58889242D01*
X158338980Y-58882213D01*
X158182120Y-58791648D01*
X158171843Y-58787908D01*
X157993468Y-58756456D01*
X157982532Y-58756456D01*
X157804157Y-58787908D01*
X157793880Y-58791648D01*
X157637020Y-58882213D01*
X157628643Y-58889242D01*
X157512217Y-59027992D01*
X157506748Y-59037464D01*
X157444800Y-59207667D01*
X157442901Y-59218437D01*
X157442901Y-59399563D01*
X157444800Y-59410333D01*
X157506748Y-59580536D01*
X157512217Y-59590008D01*
X157628643Y-59728758D01*
X157637020Y-59735788D01*
X157682232Y-59761891D01*
X154806572Y-62637552D01*
X154691468Y-62617256D01*
X154680532Y-62617256D01*
X154624306Y-62627170D01*
X156191909Y-61059568D01*
X156191909Y-61059567D01*
X156210969Y-61040509D01*
X156219198Y-61026256D01*
X156227262Y-60996158D01*
X156242839Y-60969179D01*
X156247099Y-60953283D01*
X156247099Y-60917736D01*
X156247100Y-60917728D01*
X156247100Y-58881359D01*
X156306980Y-58846788D01*
X156315357Y-58839758D01*
X156431783Y-58701008D01*
X156437252Y-58691536D01*
X156499200Y-58521333D01*
X156501099Y-58510563D01*
X156501099Y-58329437D01*
X156499200Y-58318667D01*
X156437252Y-58148464D01*
X156431783Y-58138992D01*
X156315357Y-58000242D01*
X156306980Y-57993213D01*
X156150120Y-57902648D01*
X156139843Y-57898908D01*
X155961468Y-57867456D01*
X155950532Y-57867456D01*
X155772157Y-57898908D01*
X155761880Y-57902648D01*
X155605020Y-57993213D01*
X155596643Y-58000242D01*
X155480217Y-58138992D01*
X155474748Y-58148464D01*
X155448000Y-58221955D01*
X155421252Y-58148464D01*
X155415783Y-58138992D01*
X155299357Y-58000242D01*
X155290980Y-57993213D01*
X155134120Y-57902648D01*
X155123843Y-57898908D01*
X154945468Y-57867456D01*
X154934532Y-57867456D01*
X154756157Y-57898908D01*
X154745880Y-57902648D01*
X154589020Y-57993213D01*
X154580643Y-58000242D01*
X154464217Y-58138992D01*
X154458748Y-58148464D01*
X154432000Y-58221955D01*
X154405252Y-58148464D01*
X154399783Y-58138992D01*
X154283357Y-58000242D01*
X154274980Y-57993213D01*
X154118120Y-57902648D01*
X154107843Y-57898908D01*
X153929468Y-57867456D01*
X153918532Y-57867456D01*
X153740157Y-57898908D01*
X153729880Y-57902648D01*
X153573020Y-57993213D01*
X153564643Y-58000242D01*
X153448217Y-58138992D01*
X153442748Y-58148464D01*
X153380800Y-58318667D01*
X153378901Y-58329437D01*
X153378901Y-58510563D01*
X153380800Y-58521333D01*
X153442748Y-58691536D01*
X153448217Y-58701008D01*
X153564643Y-58839758D01*
X153573020Y-58846787D01*
X153632901Y-58881360D01*
X153632900Y-60498641D01*
X153573020Y-60533212D01*
X153564643Y-60540242D01*
X153448217Y-60678992D01*
X153442748Y-60688464D01*
X153380800Y-60858667D01*
X153378901Y-60869437D01*
X153378901Y-61050563D01*
X153380800Y-61061333D01*
X153442748Y-61231536D01*
X153448217Y-61241008D01*
X153564643Y-61379758D01*
X153573020Y-61386787D01*
X153729880Y-61477352D01*
X153740157Y-61481092D01*
X153902420Y-61509703D01*
X152774572Y-62637552D01*
X152659468Y-62617256D01*
X152648532Y-62617256D01*
X152470157Y-62648708D01*
X152459880Y-62652448D01*
X152303020Y-62743013D01*
X152294643Y-62750042D01*
X152178217Y-62888792D01*
X152172748Y-62898264D01*
X152110800Y-63068467D01*
X152108901Y-63079237D01*
X130262900Y-63079237D01*
X130262900Y-58329437D01*
X152108901Y-58329437D01*
X152108901Y-58510563D01*
X152110800Y-58521333D01*
X152172748Y-58691536D01*
X152178217Y-58701008D01*
X152294643Y-58839758D01*
X152303020Y-58846787D01*
X152362901Y-58881360D01*
X152362900Y-60498641D01*
X152303020Y-60533212D01*
X152294643Y-60540242D01*
X152178217Y-60678992D01*
X152172748Y-60688464D01*
X152110800Y-60858667D01*
X152108901Y-60869437D01*
X152108901Y-61050563D01*
X152110800Y-61061333D01*
X152172748Y-61231536D01*
X152178217Y-61241008D01*
X152294643Y-61379758D01*
X152303020Y-61386787D01*
X152459880Y-61477352D01*
X152470157Y-61481092D01*
X152648532Y-61512544D01*
X152659468Y-61512544D01*
X152837843Y-61481092D01*
X152848120Y-61477352D01*
X153004980Y-61386787D01*
X153013357Y-61379758D01*
X153129783Y-61241008D01*
X153135252Y-61231536D01*
X153197200Y-61061333D01*
X153199099Y-61050563D01*
X153199099Y-60869437D01*
X153197200Y-60858667D01*
X153135252Y-60688464D01*
X153129783Y-60678992D01*
X153013357Y-60540242D01*
X153004980Y-60533212D01*
X152945100Y-60498641D01*
X152945100Y-58881359D01*
X153004980Y-58846788D01*
X153013357Y-58839758D01*
X153129783Y-58701008D01*
X153135252Y-58691536D01*
X153197200Y-58521333D01*
X153199099Y-58510563D01*
X153199099Y-58329437D01*
X153197200Y-58318667D01*
X153135252Y-58148464D01*
X153129783Y-58138992D01*
X153013357Y-58000242D01*
X153004980Y-57993213D01*
X152848120Y-57902648D01*
X152837843Y-57898908D01*
X152659468Y-57867456D01*
X152648532Y-57867456D01*
X152470157Y-57898908D01*
X152459880Y-57902648D01*
X152303020Y-57993213D01*
X152294643Y-58000242D01*
X152178217Y-58138992D01*
X152172748Y-58148464D01*
X152110800Y-58318667D01*
X152108901Y-58329437D01*
X130262900Y-58329437D01*
X130262900Y-57110900D01*
X179109100Y-57110900D01*
X179109101Y-71921100D01*
G04 #@! TA.AperFunction,Conductor*
G36*
X179109101Y-71921100D02*
G01*
X130262900Y-71921100D01*
X130262900Y-65187437D01*
X151219901Y-65187437D01*
X151219901Y-65368563D01*
X151221800Y-65379333D01*
X151283748Y-65549536D01*
X151289217Y-65559008D01*
X151405643Y-65697758D01*
X151414020Y-65704787D01*
X151570880Y-65795352D01*
X151581157Y-65799092D01*
X151759532Y-65830544D01*
X151770468Y-65830544D01*
X151948843Y-65799092D01*
X151959120Y-65795352D01*
X152115980Y-65704787D01*
X152124357Y-65697758D01*
X152240783Y-65559008D01*
X152246252Y-65549536D01*
X152308200Y-65379333D01*
X152310099Y-65368563D01*
X152310099Y-65187437D01*
X152308200Y-65176667D01*
X152246252Y-65006464D01*
X152240783Y-64996992D01*
X152124357Y-64858242D01*
X152115980Y-64851213D01*
X151959120Y-64760648D01*
X151948843Y-64756908D01*
X151770468Y-64725456D01*
X151759532Y-64725456D01*
X151581157Y-64756908D01*
X151570880Y-64760648D01*
X151414020Y-64851213D01*
X151405643Y-64858242D01*
X151289217Y-64996992D01*
X151283748Y-65006464D01*
X151221800Y-65176667D01*
X151219901Y-65187437D01*
X130262900Y-65187437D01*
X130262900Y-63949238D01*
X141684606Y-63949238D01*
X141684606Y-64130364D01*
X141686505Y-64141134D01*
X141748453Y-64311337D01*
X141753922Y-64320809D01*
X141870348Y-64459559D01*
X141878725Y-64466588D01*
X142035585Y-64557153D01*
X142045862Y-64560893D01*
X142224237Y-64592345D01*
X142235173Y-64592345D01*
X142350275Y-64572049D01*
X142378907Y-64600681D01*
X142378910Y-64600683D01*
X142403196Y-64624970D01*
X142417448Y-64633198D01*
X142447542Y-64641261D01*
X142474526Y-64656840D01*
X142490422Y-64661099D01*
X142525968Y-64661099D01*
X142525976Y-64661100D01*
X154830698Y-64661100D01*
X154917859Y-64764974D01*
X154926236Y-64772003D01*
X155083096Y-64862568D01*
X155093373Y-64866308D01*
X155271748Y-64897760D01*
X155282684Y-64897760D01*
X155461059Y-64866308D01*
X155471336Y-64862568D01*
X155628196Y-64772003D01*
X155636573Y-64764974D01*
X155752999Y-64626224D01*
X155758468Y-64616752D01*
X155820416Y-64446549D01*
X155822315Y-64435779D01*
X155822315Y-64254653D01*
X155820416Y-64243883D01*
X155758468Y-64073680D01*
X155752999Y-64064208D01*
X155636573Y-63925458D01*
X155628196Y-63918429D01*
X155471336Y-63827864D01*
X155461059Y-63824124D01*
X155282684Y-63792672D01*
X155271748Y-63792672D01*
X155093373Y-63824124D01*
X155083096Y-63827864D01*
X154926236Y-63918429D01*
X154917859Y-63925458D01*
X154801433Y-64064208D01*
X154795965Y-64073679D01*
X154794065Y-64078900D01*
X142774804Y-64078900D01*
X142774804Y-63949238D01*
X142772905Y-63938468D01*
X142710957Y-63768265D01*
X142705488Y-63758793D01*
X142589062Y-63620043D01*
X142580685Y-63613014D01*
X142423825Y-63522449D01*
X142413548Y-63518709D01*
X142235173Y-63487257D01*
X142224237Y-63487257D01*
X142045862Y-63518709D01*
X142035585Y-63522449D01*
X141878725Y-63613014D01*
X141870348Y-63620043D01*
X141753922Y-63758793D01*
X141748453Y-63768265D01*
X141686505Y-63938468D01*
X141684606Y-63949238D01*
X130262900Y-63949238D01*
X130262900Y-63079237D01*
X152108901Y-63079237D01*
X152108901Y-63260363D01*
X152110800Y-63271133D01*
X152172748Y-63441336D01*
X152178217Y-63450808D01*
X152294643Y-63589558D01*
X152303020Y-63596587D01*
X152459880Y-63687152D01*
X152470157Y-63690892D01*
X152648532Y-63722344D01*
X152659468Y-63722344D01*
X152837843Y-63690892D01*
X152848120Y-63687152D01*
X153004980Y-63596587D01*
X153013357Y-63589558D01*
X153129783Y-63450808D01*
X153135252Y-63441336D01*
X153162000Y-63367845D01*
X153188748Y-63441336D01*
X153194217Y-63450808D01*
X153310643Y-63589558D01*
X153319020Y-63596587D01*
X153475880Y-63687152D01*
X153486157Y-63690892D01*
X153664532Y-63722344D01*
X153675468Y-63722344D01*
X153853843Y-63690892D01*
X153864120Y-63687152D01*
X154020980Y-63596587D01*
X154029357Y-63589558D01*
X154145783Y-63450808D01*
X154151252Y-63441336D01*
X154178000Y-63367845D01*
X154204748Y-63441336D01*
X154210217Y-63450808D01*
X154326643Y-63589558D01*
X154335020Y-63596587D01*
X154491880Y-63687152D01*
X154502157Y-63690892D01*
X154680532Y-63722344D01*
X154691468Y-63722344D01*
X154869843Y-63690892D01*
X154880120Y-63687152D01*
X155036980Y-63596587D01*
X155045357Y-63589558D01*
X155161783Y-63450808D01*
X155167252Y-63441336D01*
X155174184Y-63422290D01*
X155181116Y-63441336D01*
X155186585Y-63450808D01*
X155303011Y-63589558D01*
X155311388Y-63596587D01*
X155468248Y-63687152D01*
X155478525Y-63690892D01*
X155656900Y-63722344D01*
X155667836Y-63722344D01*
X155846211Y-63690892D01*
X155856488Y-63687152D01*
X156013348Y-63596587D01*
X156021725Y-63589558D01*
X156138151Y-63450808D01*
X156143620Y-63441337D01*
X156147813Y-63429817D01*
X156156555Y-63424770D01*
X156257789Y-63323535D01*
X156257790Y-63323533D01*
X156613827Y-62967496D01*
X156728931Y-62987792D01*
X156739867Y-62987792D01*
X156918242Y-62956340D01*
X156928519Y-62952600D01*
X157085379Y-62862035D01*
X157093756Y-62855006D01*
X157210182Y-62716256D01*
X157215651Y-62706784D01*
X157277599Y-62536581D01*
X157279498Y-62525811D01*
X157279498Y-62344685D01*
X157277599Y-62333915D01*
X157215651Y-62163712D01*
X157210182Y-62154240D01*
X157093756Y-62015490D01*
X157085379Y-62008461D01*
X156928519Y-61917896D01*
X156918242Y-61914156D01*
X156739867Y-61882704D01*
X156728931Y-61882704D01*
X156550556Y-61914156D01*
X156540279Y-61917896D01*
X156383419Y-62008461D01*
X156375042Y-62015490D01*
X156258616Y-62154240D01*
X156253147Y-62163712D01*
X156191199Y-62333915D01*
X156189300Y-62344685D01*
X156189300Y-62525811D01*
X156191199Y-62536581D01*
X156199255Y-62558715D01*
X156014223Y-62743747D01*
X156013348Y-62743013D01*
X155856488Y-62652448D01*
X155846211Y-62648708D01*
X155667836Y-62617256D01*
X155656900Y-62617256D01*
X155648790Y-62618686D01*
X158223909Y-60043568D01*
X158223909Y-60043567D01*
X158242969Y-60024509D01*
X158251198Y-60010256D01*
X158259262Y-59980158D01*
X158274839Y-59953179D01*
X158279099Y-59937283D01*
X158279099Y-59901736D01*
X158279100Y-59901728D01*
X158279100Y-59770359D01*
X158338980Y-59735788D01*
X158347357Y-59728758D01*
X158463783Y-59590008D01*
X158469252Y-59580536D01*
X158531200Y-59410333D01*
X158533099Y-59399563D01*
X158533099Y-59218437D01*
X158531200Y-59207667D01*
X158469252Y-59037464D01*
X158463783Y-59027992D01*
X158347357Y-58889242D01*
X158338980Y-58882213D01*
X158182120Y-58791648D01*
X158171843Y-58787908D01*
X157993468Y-58756456D01*
X157982532Y-58756456D01*
X157804157Y-58787908D01*
X157793880Y-58791648D01*
X157637020Y-58882213D01*
X157628643Y-58889242D01*
X157512217Y-59027992D01*
X157506748Y-59037464D01*
X157444800Y-59207667D01*
X157442901Y-59218437D01*
X157442901Y-59399563D01*
X157444800Y-59410333D01*
X157506748Y-59580536D01*
X157512217Y-59590008D01*
X157628643Y-59728758D01*
X157637020Y-59735788D01*
X157682232Y-59761891D01*
X154806572Y-62637552D01*
X154691468Y-62617256D01*
X154680532Y-62617256D01*
X154624306Y-62627170D01*
X156191909Y-61059568D01*
X156191909Y-61059567D01*
X156210969Y-61040509D01*
X156219198Y-61026256D01*
X156227262Y-60996158D01*
X156242839Y-60969179D01*
X156247099Y-60953283D01*
X156247099Y-60917736D01*
X156247100Y-60917728D01*
X156247100Y-58881359D01*
X156306980Y-58846788D01*
X156315357Y-58839758D01*
X156431783Y-58701008D01*
X156437252Y-58691536D01*
X156499200Y-58521333D01*
X156501099Y-58510563D01*
X156501099Y-58329437D01*
X156499200Y-58318667D01*
X156437252Y-58148464D01*
X156431783Y-58138992D01*
X156315357Y-58000242D01*
X156306980Y-57993213D01*
X156150120Y-57902648D01*
X156139843Y-57898908D01*
X155961468Y-57867456D01*
X155950532Y-57867456D01*
X155772157Y-57898908D01*
X155761880Y-57902648D01*
X155605020Y-57993213D01*
X155596643Y-58000242D01*
X155480217Y-58138992D01*
X155474748Y-58148464D01*
X155448000Y-58221955D01*
X155421252Y-58148464D01*
X155415783Y-58138992D01*
X155299357Y-58000242D01*
X155290980Y-57993213D01*
X155134120Y-57902648D01*
X155123843Y-57898908D01*
X154945468Y-57867456D01*
X154934532Y-57867456D01*
X154756157Y-57898908D01*
X154745880Y-57902648D01*
X154589020Y-57993213D01*
X154580643Y-58000242D01*
X154464217Y-58138992D01*
X154458748Y-58148464D01*
X154432000Y-58221955D01*
X154405252Y-58148464D01*
X154399783Y-58138992D01*
X154283357Y-58000242D01*
X154274980Y-57993213D01*
X154118120Y-57902648D01*
X154107843Y-57898908D01*
X153929468Y-57867456D01*
X153918532Y-57867456D01*
X153740157Y-57898908D01*
X153729880Y-57902648D01*
X153573020Y-57993213D01*
X153564643Y-58000242D01*
X153448217Y-58138992D01*
X153442748Y-58148464D01*
X153380800Y-58318667D01*
X153378901Y-58329437D01*
X153378901Y-58510563D01*
X153380800Y-58521333D01*
X153442748Y-58691536D01*
X153448217Y-58701008D01*
X153564643Y-58839758D01*
X153573020Y-58846787D01*
X153632901Y-58881360D01*
X153632900Y-60498641D01*
X153573020Y-60533212D01*
X153564643Y-60540242D01*
X153448217Y-60678992D01*
X153442748Y-60688464D01*
X153380800Y-60858667D01*
X153378901Y-60869437D01*
X153378901Y-61050563D01*
X153380800Y-61061333D01*
X153442748Y-61231536D01*
X153448217Y-61241008D01*
X153564643Y-61379758D01*
X153573020Y-61386787D01*
X153729880Y-61477352D01*
X153740157Y-61481092D01*
X153902420Y-61509703D01*
X152774572Y-62637552D01*
X152659468Y-62617256D01*
X152648532Y-62617256D01*
X152470157Y-62648708D01*
X152459880Y-62652448D01*
X152303020Y-62743013D01*
X152294643Y-62750042D01*
X152178217Y-62888792D01*
X152172748Y-62898264D01*
X152110800Y-63068467D01*
X152108901Y-63079237D01*
X130262900Y-63079237D01*
X130262900Y-58329437D01*
X152108901Y-58329437D01*
X152108901Y-58510563D01*
X152110800Y-58521333D01*
X152172748Y-58691536D01*
X152178217Y-58701008D01*
X152294643Y-58839758D01*
X152303020Y-58846787D01*
X152362901Y-58881360D01*
X152362900Y-60498641D01*
X152303020Y-60533212D01*
X152294643Y-60540242D01*
X152178217Y-60678992D01*
X152172748Y-60688464D01*
X152110800Y-60858667D01*
X152108901Y-60869437D01*
X152108901Y-61050563D01*
X152110800Y-61061333D01*
X152172748Y-61231536D01*
X152178217Y-61241008D01*
X152294643Y-61379758D01*
X152303020Y-61386787D01*
X152459880Y-61477352D01*
X152470157Y-61481092D01*
X152648532Y-61512544D01*
X152659468Y-61512544D01*
X152837843Y-61481092D01*
X152848120Y-61477352D01*
X153004980Y-61386787D01*
X153013357Y-61379758D01*
X153129783Y-61241008D01*
X153135252Y-61231536D01*
X153197200Y-61061333D01*
X153199099Y-61050563D01*
X153199099Y-60869437D01*
X153197200Y-60858667D01*
X153135252Y-60688464D01*
X153129783Y-60678992D01*
X153013357Y-60540242D01*
X153004980Y-60533212D01*
X152945100Y-60498641D01*
X152945100Y-58881359D01*
X153004980Y-58846788D01*
X153013357Y-58839758D01*
X153129783Y-58701008D01*
X153135252Y-58691536D01*
X153197200Y-58521333D01*
X153199099Y-58510563D01*
X153199099Y-58329437D01*
X153197200Y-58318667D01*
X153135252Y-58148464D01*
X153129783Y-58138992D01*
X153013357Y-58000242D01*
X153004980Y-57993213D01*
X152848120Y-57902648D01*
X152837843Y-57898908D01*
X152659468Y-57867456D01*
X152648532Y-57867456D01*
X152470157Y-57898908D01*
X152459880Y-57902648D01*
X152303020Y-57993213D01*
X152294643Y-58000242D01*
X152178217Y-58138992D01*
X152172748Y-58148464D01*
X152110800Y-58318667D01*
X152108901Y-58329437D01*
X130262900Y-58329437D01*
X130262900Y-57110900D01*
X179109100Y-57110900D01*
X179109101Y-71921100D01*
G37*
G04 #@! TD.AperFunction*
M02*
