M48
; DRILL file {KiCad (5.1.6-0-10_14)} date Friday, July 24, 2020 at 04:09:50 PM
; FORMAT={-:-/ absolute / inch / decimal}
; #@! TF.CreationDate,2020-07-24T16:09:50-07:00
; #@! TF.GenerationSoftware,Kicad,Pcbnew,(5.1.6-0-10_14)
; #@! TF.FileFunction,Plated,1,2,PTH
FMAT,2
INCH
T1C0.0130
%
G90
G05
T1
X5.2075Y-2.8
X5.23Y-2.44
X5.385Y-2.38
X5.4725Y-2.48
X5.51Y-2.32
X5.5575Y-2.6525
X5.5996Y-2.5213
X5.6175Y-2.59
X5.6825Y-2.705
X5.7975Y-2.675
X5.825Y-2.425
X5.825Y-2.505
X5.8475Y-2.32
X5.925Y-2.425
X5.925Y-2.505
X5.9675Y-2.6275
X5.97Y-2.35
X5.975Y-2.57
X6.01Y-2.3
X6.01Y-2.4
X6.01Y-2.487
X6.02Y-2.645
X6.05Y-2.487
X6.06Y-2.3
X6.06Y-2.4
X6.09Y-2.487
X6.1Y-2.3
X6.1133Y-2.5333
X6.1284Y-2.487
X6.14Y-2.3
X6.1706Y-2.4581
X6.1735Y-2.359
X6.22Y-2.335
X6.2525Y-2.7325
X6.27Y-2.3575
X6.34Y-2.4825
X6.44Y-2.4725
X6.44Y-2.5525
X6.4925Y-2.6725
X6.4925Y-2.745
X6.53Y-2.635
X6.535Y-2.4
X6.6Y-2.7275
X6.73Y-2.59
X6.81Y-2.36
T0
M30
