M48
INCH,TZ
T1C0.0130
%
G90
G05
T1
X51475Y-27900
X53450Y-23500
X54575Y-26150
X54725Y-24800
X55575Y-26525
X55996Y-25213
X56175Y-25900
X56825Y-27050
X57975Y-26750
X58250Y-24250
X58250Y-25050
X58475Y-23200
X59250Y-24250
X59250Y-25050
X59675Y-26275
X59700Y-23500
X59750Y-25700
X60100Y-23000
X60100Y-24000
X60100Y-24870
X60200Y-26450
X60500Y-24870
X60600Y-23000
X60600Y-24000
X60900Y-24870
X61000Y-23000
X61133Y-25333
X61284Y-24870
X61400Y-23000
X61706Y-24581
X61735Y-23590
X62200Y-23350
X62525Y-27225
X62700Y-23575
X63400Y-24825
X64400Y-24725
X64400Y-25525
X64925Y-26725
X64925Y-27450
X65300Y-26350
X65350Y-24000
X66000Y-27275
X70675Y-24800
X72200Y-26400
T0
M30
