G04 #@! TF.GenerationSoftware,KiCad,Pcbnew,(5.99.0-2415-gbbdd3fce7)*
G04 #@! TF.CreationDate,2020-07-30T08:06:23-07:00*
G04 #@! TF.ProjectId,VineHoop_V1_2,56696e65-486f-46f7-905f-56315f322e6b,rev?*
G04 #@! TF.SameCoordinates,Original*
G04 #@! TF.FileFunction,Soldermask,Top*
G04 #@! TF.FilePolarity,Negative*
%FSLAX46Y46*%
G04 Gerber Fmt 4.6, Leading zero omitted, Abs format (unit mm)*
G04 Created by KiCad (PCBNEW (5.99.0-2415-gbbdd3fce7)) date 2020-07-30 08:06:23*
%MOMM*%
%LPD*%
G01*
G04 APERTURE LIST*
%ADD10C,0.010000*%
%ADD11R,1.060000X0.910000*%
%ADD12R,1.900000X1.100000*%
%ADD13R,2.400000X0.760000*%
%ADD14R,2.540000X1.270000*%
%ADD15R,0.525000X0.300000*%
%ADD16R,0.300000X0.425000*%
%ADD17R,3.251200X3.251200*%
%ADD18R,0.812800X0.304800*%
%ADD19R,0.304800X0.812800*%
%ADD20R,1.060000X0.650000*%
G04 APERTURE END LIST*
G36*
X151981234Y-68165137D02*
G01*
X151986453Y-68165548D01*
X151991643Y-68166231D01*
X151996791Y-68167185D01*
X152001882Y-68168407D01*
X152006902Y-68169894D01*
X152011837Y-68171642D01*
X152016674Y-68173645D01*
X152021399Y-68175899D01*
X152026000Y-68178397D01*
X152030464Y-68181133D01*
X152034779Y-68184098D01*
X152038932Y-68187285D01*
X152042913Y-68190686D01*
X152046711Y-68194289D01*
X152050314Y-68198087D01*
X152053715Y-68202068D01*
X152056902Y-68206221D01*
X152059867Y-68210536D01*
X152062603Y-68215000D01*
X152065101Y-68219601D01*
X152067355Y-68224326D01*
X152069358Y-68229163D01*
X152071106Y-68234098D01*
X152072593Y-68239118D01*
X152073815Y-68244209D01*
X152074769Y-68249357D01*
X152075452Y-68254547D01*
X152075863Y-68259766D01*
X152076000Y-68265000D01*
X152076000Y-69965000D01*
X152075863Y-69970234D01*
X152075452Y-69975453D01*
X152074769Y-69980643D01*
X152073815Y-69985791D01*
X152072593Y-69990882D01*
X152071106Y-69995902D01*
X152069358Y-70000837D01*
X152067355Y-70005674D01*
X152065101Y-70010399D01*
X152062603Y-70015000D01*
X152059867Y-70019464D01*
X152056902Y-70023779D01*
X152053715Y-70027932D01*
X152050314Y-70031913D01*
X152046711Y-70035711D01*
X152042913Y-70039314D01*
X152038932Y-70042715D01*
X152034779Y-70045902D01*
X152030464Y-70048867D01*
X152026000Y-70051603D01*
X152021399Y-70054101D01*
X152016674Y-70056355D01*
X152011837Y-70058358D01*
X152006902Y-70060106D01*
X152001882Y-70061593D01*
X151996791Y-70062815D01*
X151991643Y-70063769D01*
X151986453Y-70064452D01*
X151981234Y-70064863D01*
X151976000Y-70065000D01*
X150976000Y-70065000D01*
X150970766Y-70064863D01*
X150965547Y-70064452D01*
X150960357Y-70063769D01*
X150955209Y-70062815D01*
X150950118Y-70061593D01*
X150945098Y-70060106D01*
X150940163Y-70058358D01*
X150935326Y-70056355D01*
X150930601Y-70054101D01*
X150926000Y-70051603D01*
X150921536Y-70048867D01*
X150917221Y-70045902D01*
X150913068Y-70042715D01*
X150909087Y-70039314D01*
X150905289Y-70035711D01*
X150901686Y-70031913D01*
X150898285Y-70027932D01*
X150895098Y-70023779D01*
X150892133Y-70019464D01*
X150889397Y-70015000D01*
X150886899Y-70010399D01*
X150884645Y-70005674D01*
X150882642Y-70000837D01*
X150880894Y-69995902D01*
X150879407Y-69990882D01*
X150878185Y-69985791D01*
X150877231Y-69980643D01*
X150876548Y-69975453D01*
X150876137Y-69970234D01*
X150876000Y-69965000D01*
X150876000Y-68494291D01*
X151205291Y-68165000D01*
X151976000Y-68165000D01*
X151981234Y-68165137D01*
G37*
D10*
X151981234Y-68165137D02*
X151986453Y-68165548D01*
X151991643Y-68166231D01*
X151996791Y-68167185D01*
X152001882Y-68168407D01*
X152006902Y-68169894D01*
X152011837Y-68171642D01*
X152016674Y-68173645D01*
X152021399Y-68175899D01*
X152026000Y-68178397D01*
X152030464Y-68181133D01*
X152034779Y-68184098D01*
X152038932Y-68187285D01*
X152042913Y-68190686D01*
X152046711Y-68194289D01*
X152050314Y-68198087D01*
X152053715Y-68202068D01*
X152056902Y-68206221D01*
X152059867Y-68210536D01*
X152062603Y-68215000D01*
X152065101Y-68219601D01*
X152067355Y-68224326D01*
X152069358Y-68229163D01*
X152071106Y-68234098D01*
X152072593Y-68239118D01*
X152073815Y-68244209D01*
X152074769Y-68249357D01*
X152075452Y-68254547D01*
X152075863Y-68259766D01*
X152076000Y-68265000D01*
X152076000Y-69965000D01*
X152075863Y-69970234D01*
X152075452Y-69975453D01*
X152074769Y-69980643D01*
X152073815Y-69985791D01*
X152072593Y-69990882D01*
X152071106Y-69995902D01*
X152069358Y-70000837D01*
X152067355Y-70005674D01*
X152065101Y-70010399D01*
X152062603Y-70015000D01*
X152059867Y-70019464D01*
X152056902Y-70023779D01*
X152053715Y-70027932D01*
X152050314Y-70031913D01*
X152046711Y-70035711D01*
X152042913Y-70039314D01*
X152038932Y-70042715D01*
X152034779Y-70045902D01*
X152030464Y-70048867D01*
X152026000Y-70051603D01*
X152021399Y-70054101D01*
X152016674Y-70056355D01*
X152011837Y-70058358D01*
X152006902Y-70060106D01*
X152001882Y-70061593D01*
X151996791Y-70062815D01*
X151991643Y-70063769D01*
X151986453Y-70064452D01*
X151981234Y-70064863D01*
X151976000Y-70065000D01*
X150976000Y-70065000D01*
X150970766Y-70064863D01*
X150965547Y-70064452D01*
X150960357Y-70063769D01*
X150955209Y-70062815D01*
X150950118Y-70061593D01*
X150945098Y-70060106D01*
X150940163Y-70058358D01*
X150935326Y-70056355D01*
X150930601Y-70054101D01*
X150926000Y-70051603D01*
X150921536Y-70048867D01*
X150917221Y-70045902D01*
X150913068Y-70042715D01*
X150909087Y-70039314D01*
X150905289Y-70035711D01*
X150901686Y-70031913D01*
X150898285Y-70027932D01*
X150895098Y-70023779D01*
X150892133Y-70019464D01*
X150889397Y-70015000D01*
X150886899Y-70010399D01*
X150884645Y-70005674D01*
X150882642Y-70000837D01*
X150880894Y-69995902D01*
X150879407Y-69990882D01*
X150878185Y-69985791D01*
X150877231Y-69980643D01*
X150876548Y-69975453D01*
X150876137Y-69970234D01*
X150876000Y-69965000D01*
X150876000Y-68494291D01*
X151205291Y-68165000D01*
X151976000Y-68165000D01*
X151981234Y-68165137D01*
G36*
X152928617Y-69690069D02*
G01*
X152931226Y-69690274D01*
X152933822Y-69690616D01*
X152936396Y-69691093D01*
X152938941Y-69691704D01*
X152941451Y-69692447D01*
X152943918Y-69693321D01*
X152946337Y-69694323D01*
X152948700Y-69695450D01*
X152951000Y-69696699D01*
X152953232Y-69698066D01*
X152955389Y-69699549D01*
X152957466Y-69701143D01*
X152959457Y-69702843D01*
X152961355Y-69704645D01*
X152963157Y-69706543D01*
X152964857Y-69708534D01*
X152966451Y-69710611D01*
X152967934Y-69712768D01*
X152969301Y-69715000D01*
X152970550Y-69717300D01*
X152971677Y-69719663D01*
X152972679Y-69722082D01*
X152973553Y-69724549D01*
X152974296Y-69727059D01*
X152974907Y-69729604D01*
X152975384Y-69732178D01*
X152975726Y-69734774D01*
X152975931Y-69737383D01*
X152976000Y-69740000D01*
X152976000Y-69990000D01*
X152975931Y-69992617D01*
X152975726Y-69995226D01*
X152975384Y-69997822D01*
X152974907Y-70000396D01*
X152974296Y-70002941D01*
X152973553Y-70005451D01*
X152972679Y-70007918D01*
X152971677Y-70010337D01*
X152970550Y-70012700D01*
X152969301Y-70015000D01*
X152967934Y-70017232D01*
X152966451Y-70019389D01*
X152964857Y-70021466D01*
X152963157Y-70023457D01*
X152961355Y-70025355D01*
X152959457Y-70027157D01*
X152957466Y-70028857D01*
X152955389Y-70030451D01*
X152953232Y-70031934D01*
X152951000Y-70033301D01*
X152948700Y-70034550D01*
X152946337Y-70035677D01*
X152943918Y-70036679D01*
X152941451Y-70037553D01*
X152938941Y-70038296D01*
X152936396Y-70038907D01*
X152933822Y-70039384D01*
X152931226Y-70039726D01*
X152928617Y-70039931D01*
X152926000Y-70040000D01*
X152376000Y-70040000D01*
X152373383Y-70039931D01*
X152370774Y-70039726D01*
X152368178Y-70039384D01*
X152365604Y-70038907D01*
X152363059Y-70038296D01*
X152360549Y-70037553D01*
X152358082Y-70036679D01*
X152355663Y-70035677D01*
X152353300Y-70034550D01*
X152351000Y-70033301D01*
X152348768Y-70031934D01*
X152346611Y-70030451D01*
X152344534Y-70028857D01*
X152342543Y-70027157D01*
X152340645Y-70025355D01*
X152338843Y-70023457D01*
X152337143Y-70021466D01*
X152335549Y-70019389D01*
X152334066Y-70017232D01*
X152332699Y-70015000D01*
X152331450Y-70012700D01*
X152330323Y-70010337D01*
X152329321Y-70007918D01*
X152328447Y-70005451D01*
X152327704Y-70002941D01*
X152327093Y-70000396D01*
X152326616Y-69997822D01*
X152326274Y-69995226D01*
X152326069Y-69992617D01*
X152326000Y-69990000D01*
X152326000Y-69740000D01*
X152326069Y-69737383D01*
X152326274Y-69734774D01*
X152326616Y-69732178D01*
X152327093Y-69729604D01*
X152327704Y-69727059D01*
X152328447Y-69724549D01*
X152329321Y-69722082D01*
X152330323Y-69719663D01*
X152331450Y-69717300D01*
X152332699Y-69715000D01*
X152334066Y-69712768D01*
X152335549Y-69710611D01*
X152337143Y-69708534D01*
X152338843Y-69706543D01*
X152340645Y-69704645D01*
X152342543Y-69702843D01*
X152344534Y-69701143D01*
X152346611Y-69699549D01*
X152348768Y-69698066D01*
X152351000Y-69696699D01*
X152353300Y-69695450D01*
X152355663Y-69694323D01*
X152358082Y-69693321D01*
X152360549Y-69692447D01*
X152363059Y-69691704D01*
X152365604Y-69691093D01*
X152368178Y-69690616D01*
X152370774Y-69690274D01*
X152373383Y-69690069D01*
X152376000Y-69690000D01*
X152926000Y-69690000D01*
X152928617Y-69690069D01*
G37*
X152928617Y-69690069D02*
X152931226Y-69690274D01*
X152933822Y-69690616D01*
X152936396Y-69691093D01*
X152938941Y-69691704D01*
X152941451Y-69692447D01*
X152943918Y-69693321D01*
X152946337Y-69694323D01*
X152948700Y-69695450D01*
X152951000Y-69696699D01*
X152953232Y-69698066D01*
X152955389Y-69699549D01*
X152957466Y-69701143D01*
X152959457Y-69702843D01*
X152961355Y-69704645D01*
X152963157Y-69706543D01*
X152964857Y-69708534D01*
X152966451Y-69710611D01*
X152967934Y-69712768D01*
X152969301Y-69715000D01*
X152970550Y-69717300D01*
X152971677Y-69719663D01*
X152972679Y-69722082D01*
X152973553Y-69724549D01*
X152974296Y-69727059D01*
X152974907Y-69729604D01*
X152975384Y-69732178D01*
X152975726Y-69734774D01*
X152975931Y-69737383D01*
X152976000Y-69740000D01*
X152976000Y-69990000D01*
X152975931Y-69992617D01*
X152975726Y-69995226D01*
X152975384Y-69997822D01*
X152974907Y-70000396D01*
X152974296Y-70002941D01*
X152973553Y-70005451D01*
X152972679Y-70007918D01*
X152971677Y-70010337D01*
X152970550Y-70012700D01*
X152969301Y-70015000D01*
X152967934Y-70017232D01*
X152966451Y-70019389D01*
X152964857Y-70021466D01*
X152963157Y-70023457D01*
X152961355Y-70025355D01*
X152959457Y-70027157D01*
X152957466Y-70028857D01*
X152955389Y-70030451D01*
X152953232Y-70031934D01*
X152951000Y-70033301D01*
X152948700Y-70034550D01*
X152946337Y-70035677D01*
X152943918Y-70036679D01*
X152941451Y-70037553D01*
X152938941Y-70038296D01*
X152936396Y-70038907D01*
X152933822Y-70039384D01*
X152931226Y-70039726D01*
X152928617Y-70039931D01*
X152926000Y-70040000D01*
X152376000Y-70040000D01*
X152373383Y-70039931D01*
X152370774Y-70039726D01*
X152368178Y-70039384D01*
X152365604Y-70038907D01*
X152363059Y-70038296D01*
X152360549Y-70037553D01*
X152358082Y-70036679D01*
X152355663Y-70035677D01*
X152353300Y-70034550D01*
X152351000Y-70033301D01*
X152348768Y-70031934D01*
X152346611Y-70030451D01*
X152344534Y-70028857D01*
X152342543Y-70027157D01*
X152340645Y-70025355D01*
X152338843Y-70023457D01*
X152337143Y-70021466D01*
X152335549Y-70019389D01*
X152334066Y-70017232D01*
X152332699Y-70015000D01*
X152331450Y-70012700D01*
X152330323Y-70010337D01*
X152329321Y-70007918D01*
X152328447Y-70005451D01*
X152327704Y-70002941D01*
X152327093Y-70000396D01*
X152326616Y-69997822D01*
X152326274Y-69995226D01*
X152326069Y-69992617D01*
X152326000Y-69990000D01*
X152326000Y-69740000D01*
X152326069Y-69737383D01*
X152326274Y-69734774D01*
X152326616Y-69732178D01*
X152327093Y-69729604D01*
X152327704Y-69727059D01*
X152328447Y-69724549D01*
X152329321Y-69722082D01*
X152330323Y-69719663D01*
X152331450Y-69717300D01*
X152332699Y-69715000D01*
X152334066Y-69712768D01*
X152335549Y-69710611D01*
X152337143Y-69708534D01*
X152338843Y-69706543D01*
X152340645Y-69704645D01*
X152342543Y-69702843D01*
X152344534Y-69701143D01*
X152346611Y-69699549D01*
X152348768Y-69698066D01*
X152351000Y-69696699D01*
X152353300Y-69695450D01*
X152355663Y-69694323D01*
X152358082Y-69693321D01*
X152360549Y-69692447D01*
X152363059Y-69691704D01*
X152365604Y-69691093D01*
X152368178Y-69690616D01*
X152370774Y-69690274D01*
X152373383Y-69690069D01*
X152376000Y-69690000D01*
X152926000Y-69690000D01*
X152928617Y-69690069D01*
G36*
X152928617Y-69190069D02*
G01*
X152931226Y-69190274D01*
X152933822Y-69190616D01*
X152936396Y-69191093D01*
X152938941Y-69191704D01*
X152941451Y-69192447D01*
X152943918Y-69193321D01*
X152946337Y-69194323D01*
X152948700Y-69195450D01*
X152951000Y-69196699D01*
X152953232Y-69198066D01*
X152955389Y-69199549D01*
X152957466Y-69201143D01*
X152959457Y-69202843D01*
X152961355Y-69204645D01*
X152963157Y-69206543D01*
X152964857Y-69208534D01*
X152966451Y-69210611D01*
X152967934Y-69212768D01*
X152969301Y-69215000D01*
X152970550Y-69217300D01*
X152971677Y-69219663D01*
X152972679Y-69222082D01*
X152973553Y-69224549D01*
X152974296Y-69227059D01*
X152974907Y-69229604D01*
X152975384Y-69232178D01*
X152975726Y-69234774D01*
X152975931Y-69237383D01*
X152976000Y-69240000D01*
X152976000Y-69490000D01*
X152975931Y-69492617D01*
X152975726Y-69495226D01*
X152975384Y-69497822D01*
X152974907Y-69500396D01*
X152974296Y-69502941D01*
X152973553Y-69505451D01*
X152972679Y-69507918D01*
X152971677Y-69510337D01*
X152970550Y-69512700D01*
X152969301Y-69515000D01*
X152967934Y-69517232D01*
X152966451Y-69519389D01*
X152964857Y-69521466D01*
X152963157Y-69523457D01*
X152961355Y-69525355D01*
X152959457Y-69527157D01*
X152957466Y-69528857D01*
X152955389Y-69530451D01*
X152953232Y-69531934D01*
X152951000Y-69533301D01*
X152948700Y-69534550D01*
X152946337Y-69535677D01*
X152943918Y-69536679D01*
X152941451Y-69537553D01*
X152938941Y-69538296D01*
X152936396Y-69538907D01*
X152933822Y-69539384D01*
X152931226Y-69539726D01*
X152928617Y-69539931D01*
X152926000Y-69540000D01*
X152376000Y-69540000D01*
X152373383Y-69539931D01*
X152370774Y-69539726D01*
X152368178Y-69539384D01*
X152365604Y-69538907D01*
X152363059Y-69538296D01*
X152360549Y-69537553D01*
X152358082Y-69536679D01*
X152355663Y-69535677D01*
X152353300Y-69534550D01*
X152351000Y-69533301D01*
X152348768Y-69531934D01*
X152346611Y-69530451D01*
X152344534Y-69528857D01*
X152342543Y-69527157D01*
X152340645Y-69525355D01*
X152338843Y-69523457D01*
X152337143Y-69521466D01*
X152335549Y-69519389D01*
X152334066Y-69517232D01*
X152332699Y-69515000D01*
X152331450Y-69512700D01*
X152330323Y-69510337D01*
X152329321Y-69507918D01*
X152328447Y-69505451D01*
X152327704Y-69502941D01*
X152327093Y-69500396D01*
X152326616Y-69497822D01*
X152326274Y-69495226D01*
X152326069Y-69492617D01*
X152326000Y-69490000D01*
X152326000Y-69240000D01*
X152326069Y-69237383D01*
X152326274Y-69234774D01*
X152326616Y-69232178D01*
X152327093Y-69229604D01*
X152327704Y-69227059D01*
X152328447Y-69224549D01*
X152329321Y-69222082D01*
X152330323Y-69219663D01*
X152331450Y-69217300D01*
X152332699Y-69215000D01*
X152334066Y-69212768D01*
X152335549Y-69210611D01*
X152337143Y-69208534D01*
X152338843Y-69206543D01*
X152340645Y-69204645D01*
X152342543Y-69202843D01*
X152344534Y-69201143D01*
X152346611Y-69199549D01*
X152348768Y-69198066D01*
X152351000Y-69196699D01*
X152353300Y-69195450D01*
X152355663Y-69194323D01*
X152358082Y-69193321D01*
X152360549Y-69192447D01*
X152363059Y-69191704D01*
X152365604Y-69191093D01*
X152368178Y-69190616D01*
X152370774Y-69190274D01*
X152373383Y-69190069D01*
X152376000Y-69190000D01*
X152926000Y-69190000D01*
X152928617Y-69190069D01*
G37*
X152928617Y-69190069D02*
X152931226Y-69190274D01*
X152933822Y-69190616D01*
X152936396Y-69191093D01*
X152938941Y-69191704D01*
X152941451Y-69192447D01*
X152943918Y-69193321D01*
X152946337Y-69194323D01*
X152948700Y-69195450D01*
X152951000Y-69196699D01*
X152953232Y-69198066D01*
X152955389Y-69199549D01*
X152957466Y-69201143D01*
X152959457Y-69202843D01*
X152961355Y-69204645D01*
X152963157Y-69206543D01*
X152964857Y-69208534D01*
X152966451Y-69210611D01*
X152967934Y-69212768D01*
X152969301Y-69215000D01*
X152970550Y-69217300D01*
X152971677Y-69219663D01*
X152972679Y-69222082D01*
X152973553Y-69224549D01*
X152974296Y-69227059D01*
X152974907Y-69229604D01*
X152975384Y-69232178D01*
X152975726Y-69234774D01*
X152975931Y-69237383D01*
X152976000Y-69240000D01*
X152976000Y-69490000D01*
X152975931Y-69492617D01*
X152975726Y-69495226D01*
X152975384Y-69497822D01*
X152974907Y-69500396D01*
X152974296Y-69502941D01*
X152973553Y-69505451D01*
X152972679Y-69507918D01*
X152971677Y-69510337D01*
X152970550Y-69512700D01*
X152969301Y-69515000D01*
X152967934Y-69517232D01*
X152966451Y-69519389D01*
X152964857Y-69521466D01*
X152963157Y-69523457D01*
X152961355Y-69525355D01*
X152959457Y-69527157D01*
X152957466Y-69528857D01*
X152955389Y-69530451D01*
X152953232Y-69531934D01*
X152951000Y-69533301D01*
X152948700Y-69534550D01*
X152946337Y-69535677D01*
X152943918Y-69536679D01*
X152941451Y-69537553D01*
X152938941Y-69538296D01*
X152936396Y-69538907D01*
X152933822Y-69539384D01*
X152931226Y-69539726D01*
X152928617Y-69539931D01*
X152926000Y-69540000D01*
X152376000Y-69540000D01*
X152373383Y-69539931D01*
X152370774Y-69539726D01*
X152368178Y-69539384D01*
X152365604Y-69538907D01*
X152363059Y-69538296D01*
X152360549Y-69537553D01*
X152358082Y-69536679D01*
X152355663Y-69535677D01*
X152353300Y-69534550D01*
X152351000Y-69533301D01*
X152348768Y-69531934D01*
X152346611Y-69530451D01*
X152344534Y-69528857D01*
X152342543Y-69527157D01*
X152340645Y-69525355D01*
X152338843Y-69523457D01*
X152337143Y-69521466D01*
X152335549Y-69519389D01*
X152334066Y-69517232D01*
X152332699Y-69515000D01*
X152331450Y-69512700D01*
X152330323Y-69510337D01*
X152329321Y-69507918D01*
X152328447Y-69505451D01*
X152327704Y-69502941D01*
X152327093Y-69500396D01*
X152326616Y-69497822D01*
X152326274Y-69495226D01*
X152326069Y-69492617D01*
X152326000Y-69490000D01*
X152326000Y-69240000D01*
X152326069Y-69237383D01*
X152326274Y-69234774D01*
X152326616Y-69232178D01*
X152327093Y-69229604D01*
X152327704Y-69227059D01*
X152328447Y-69224549D01*
X152329321Y-69222082D01*
X152330323Y-69219663D01*
X152331450Y-69217300D01*
X152332699Y-69215000D01*
X152334066Y-69212768D01*
X152335549Y-69210611D01*
X152337143Y-69208534D01*
X152338843Y-69206543D01*
X152340645Y-69204645D01*
X152342543Y-69202843D01*
X152344534Y-69201143D01*
X152346611Y-69199549D01*
X152348768Y-69198066D01*
X152351000Y-69196699D01*
X152353300Y-69195450D01*
X152355663Y-69194323D01*
X152358082Y-69193321D01*
X152360549Y-69192447D01*
X152363059Y-69191704D01*
X152365604Y-69191093D01*
X152368178Y-69190616D01*
X152370774Y-69190274D01*
X152373383Y-69190069D01*
X152376000Y-69190000D01*
X152926000Y-69190000D01*
X152928617Y-69190069D01*
G36*
X152928617Y-68690069D02*
G01*
X152931226Y-68690274D01*
X152933822Y-68690616D01*
X152936396Y-68691093D01*
X152938941Y-68691704D01*
X152941451Y-68692447D01*
X152943918Y-68693321D01*
X152946337Y-68694323D01*
X152948700Y-68695450D01*
X152951000Y-68696699D01*
X152953232Y-68698066D01*
X152955389Y-68699549D01*
X152957466Y-68701143D01*
X152959457Y-68702843D01*
X152961355Y-68704645D01*
X152963157Y-68706543D01*
X152964857Y-68708534D01*
X152966451Y-68710611D01*
X152967934Y-68712768D01*
X152969301Y-68715000D01*
X152970550Y-68717300D01*
X152971677Y-68719663D01*
X152972679Y-68722082D01*
X152973553Y-68724549D01*
X152974296Y-68727059D01*
X152974907Y-68729604D01*
X152975384Y-68732178D01*
X152975726Y-68734774D01*
X152975931Y-68737383D01*
X152976000Y-68740000D01*
X152976000Y-68990000D01*
X152975931Y-68992617D01*
X152975726Y-68995226D01*
X152975384Y-68997822D01*
X152974907Y-69000396D01*
X152974296Y-69002941D01*
X152973553Y-69005451D01*
X152972679Y-69007918D01*
X152971677Y-69010337D01*
X152970550Y-69012700D01*
X152969301Y-69015000D01*
X152967934Y-69017232D01*
X152966451Y-69019389D01*
X152964857Y-69021466D01*
X152963157Y-69023457D01*
X152961355Y-69025355D01*
X152959457Y-69027157D01*
X152957466Y-69028857D01*
X152955389Y-69030451D01*
X152953232Y-69031934D01*
X152951000Y-69033301D01*
X152948700Y-69034550D01*
X152946337Y-69035677D01*
X152943918Y-69036679D01*
X152941451Y-69037553D01*
X152938941Y-69038296D01*
X152936396Y-69038907D01*
X152933822Y-69039384D01*
X152931226Y-69039726D01*
X152928617Y-69039931D01*
X152926000Y-69040000D01*
X152376000Y-69040000D01*
X152373383Y-69039931D01*
X152370774Y-69039726D01*
X152368178Y-69039384D01*
X152365604Y-69038907D01*
X152363059Y-69038296D01*
X152360549Y-69037553D01*
X152358082Y-69036679D01*
X152355663Y-69035677D01*
X152353300Y-69034550D01*
X152351000Y-69033301D01*
X152348768Y-69031934D01*
X152346611Y-69030451D01*
X152344534Y-69028857D01*
X152342543Y-69027157D01*
X152340645Y-69025355D01*
X152338843Y-69023457D01*
X152337143Y-69021466D01*
X152335549Y-69019389D01*
X152334066Y-69017232D01*
X152332699Y-69015000D01*
X152331450Y-69012700D01*
X152330323Y-69010337D01*
X152329321Y-69007918D01*
X152328447Y-69005451D01*
X152327704Y-69002941D01*
X152327093Y-69000396D01*
X152326616Y-68997822D01*
X152326274Y-68995226D01*
X152326069Y-68992617D01*
X152326000Y-68990000D01*
X152326000Y-68740000D01*
X152326069Y-68737383D01*
X152326274Y-68734774D01*
X152326616Y-68732178D01*
X152327093Y-68729604D01*
X152327704Y-68727059D01*
X152328447Y-68724549D01*
X152329321Y-68722082D01*
X152330323Y-68719663D01*
X152331450Y-68717300D01*
X152332699Y-68715000D01*
X152334066Y-68712768D01*
X152335549Y-68710611D01*
X152337143Y-68708534D01*
X152338843Y-68706543D01*
X152340645Y-68704645D01*
X152342543Y-68702843D01*
X152344534Y-68701143D01*
X152346611Y-68699549D01*
X152348768Y-68698066D01*
X152351000Y-68696699D01*
X152353300Y-68695450D01*
X152355663Y-68694323D01*
X152358082Y-68693321D01*
X152360549Y-68692447D01*
X152363059Y-68691704D01*
X152365604Y-68691093D01*
X152368178Y-68690616D01*
X152370774Y-68690274D01*
X152373383Y-68690069D01*
X152376000Y-68690000D01*
X152926000Y-68690000D01*
X152928617Y-68690069D01*
G37*
X152928617Y-68690069D02*
X152931226Y-68690274D01*
X152933822Y-68690616D01*
X152936396Y-68691093D01*
X152938941Y-68691704D01*
X152941451Y-68692447D01*
X152943918Y-68693321D01*
X152946337Y-68694323D01*
X152948700Y-68695450D01*
X152951000Y-68696699D01*
X152953232Y-68698066D01*
X152955389Y-68699549D01*
X152957466Y-68701143D01*
X152959457Y-68702843D01*
X152961355Y-68704645D01*
X152963157Y-68706543D01*
X152964857Y-68708534D01*
X152966451Y-68710611D01*
X152967934Y-68712768D01*
X152969301Y-68715000D01*
X152970550Y-68717300D01*
X152971677Y-68719663D01*
X152972679Y-68722082D01*
X152973553Y-68724549D01*
X152974296Y-68727059D01*
X152974907Y-68729604D01*
X152975384Y-68732178D01*
X152975726Y-68734774D01*
X152975931Y-68737383D01*
X152976000Y-68740000D01*
X152976000Y-68990000D01*
X152975931Y-68992617D01*
X152975726Y-68995226D01*
X152975384Y-68997822D01*
X152974907Y-69000396D01*
X152974296Y-69002941D01*
X152973553Y-69005451D01*
X152972679Y-69007918D01*
X152971677Y-69010337D01*
X152970550Y-69012700D01*
X152969301Y-69015000D01*
X152967934Y-69017232D01*
X152966451Y-69019389D01*
X152964857Y-69021466D01*
X152963157Y-69023457D01*
X152961355Y-69025355D01*
X152959457Y-69027157D01*
X152957466Y-69028857D01*
X152955389Y-69030451D01*
X152953232Y-69031934D01*
X152951000Y-69033301D01*
X152948700Y-69034550D01*
X152946337Y-69035677D01*
X152943918Y-69036679D01*
X152941451Y-69037553D01*
X152938941Y-69038296D01*
X152936396Y-69038907D01*
X152933822Y-69039384D01*
X152931226Y-69039726D01*
X152928617Y-69039931D01*
X152926000Y-69040000D01*
X152376000Y-69040000D01*
X152373383Y-69039931D01*
X152370774Y-69039726D01*
X152368178Y-69039384D01*
X152365604Y-69038907D01*
X152363059Y-69038296D01*
X152360549Y-69037553D01*
X152358082Y-69036679D01*
X152355663Y-69035677D01*
X152353300Y-69034550D01*
X152351000Y-69033301D01*
X152348768Y-69031934D01*
X152346611Y-69030451D01*
X152344534Y-69028857D01*
X152342543Y-69027157D01*
X152340645Y-69025355D01*
X152338843Y-69023457D01*
X152337143Y-69021466D01*
X152335549Y-69019389D01*
X152334066Y-69017232D01*
X152332699Y-69015000D01*
X152331450Y-69012700D01*
X152330323Y-69010337D01*
X152329321Y-69007918D01*
X152328447Y-69005451D01*
X152327704Y-69002941D01*
X152327093Y-69000396D01*
X152326616Y-68997822D01*
X152326274Y-68995226D01*
X152326069Y-68992617D01*
X152326000Y-68990000D01*
X152326000Y-68740000D01*
X152326069Y-68737383D01*
X152326274Y-68734774D01*
X152326616Y-68732178D01*
X152327093Y-68729604D01*
X152327704Y-68727059D01*
X152328447Y-68724549D01*
X152329321Y-68722082D01*
X152330323Y-68719663D01*
X152331450Y-68717300D01*
X152332699Y-68715000D01*
X152334066Y-68712768D01*
X152335549Y-68710611D01*
X152337143Y-68708534D01*
X152338843Y-68706543D01*
X152340645Y-68704645D01*
X152342543Y-68702843D01*
X152344534Y-68701143D01*
X152346611Y-68699549D01*
X152348768Y-68698066D01*
X152351000Y-68696699D01*
X152353300Y-68695450D01*
X152355663Y-68694323D01*
X152358082Y-68693321D01*
X152360549Y-68692447D01*
X152363059Y-68691704D01*
X152365604Y-68691093D01*
X152368178Y-68690616D01*
X152370774Y-68690274D01*
X152373383Y-68690069D01*
X152376000Y-68690000D01*
X152926000Y-68690000D01*
X152928617Y-68690069D01*
G36*
X152928617Y-68190069D02*
G01*
X152931226Y-68190274D01*
X152933822Y-68190616D01*
X152936396Y-68191093D01*
X152938941Y-68191704D01*
X152941451Y-68192447D01*
X152943918Y-68193321D01*
X152946337Y-68194323D01*
X152948700Y-68195450D01*
X152951000Y-68196699D01*
X152953232Y-68198066D01*
X152955389Y-68199549D01*
X152957466Y-68201143D01*
X152959457Y-68202843D01*
X152961355Y-68204645D01*
X152963157Y-68206543D01*
X152964857Y-68208534D01*
X152966451Y-68210611D01*
X152967934Y-68212768D01*
X152969301Y-68215000D01*
X152970550Y-68217300D01*
X152971677Y-68219663D01*
X152972679Y-68222082D01*
X152973553Y-68224549D01*
X152974296Y-68227059D01*
X152974907Y-68229604D01*
X152975384Y-68232178D01*
X152975726Y-68234774D01*
X152975931Y-68237383D01*
X152976000Y-68240000D01*
X152976000Y-68490000D01*
X152975931Y-68492617D01*
X152975726Y-68495226D01*
X152975384Y-68497822D01*
X152974907Y-68500396D01*
X152974296Y-68502941D01*
X152973553Y-68505451D01*
X152972679Y-68507918D01*
X152971677Y-68510337D01*
X152970550Y-68512700D01*
X152969301Y-68515000D01*
X152967934Y-68517232D01*
X152966451Y-68519389D01*
X152964857Y-68521466D01*
X152963157Y-68523457D01*
X152961355Y-68525355D01*
X152959457Y-68527157D01*
X152957466Y-68528857D01*
X152955389Y-68530451D01*
X152953232Y-68531934D01*
X152951000Y-68533301D01*
X152948700Y-68534550D01*
X152946337Y-68535677D01*
X152943918Y-68536679D01*
X152941451Y-68537553D01*
X152938941Y-68538296D01*
X152936396Y-68538907D01*
X152933822Y-68539384D01*
X152931226Y-68539726D01*
X152928617Y-68539931D01*
X152926000Y-68540000D01*
X152376000Y-68540000D01*
X152373383Y-68539931D01*
X152370774Y-68539726D01*
X152368178Y-68539384D01*
X152365604Y-68538907D01*
X152363059Y-68538296D01*
X152360549Y-68537553D01*
X152358082Y-68536679D01*
X152355663Y-68535677D01*
X152353300Y-68534550D01*
X152351000Y-68533301D01*
X152348768Y-68531934D01*
X152346611Y-68530451D01*
X152344534Y-68528857D01*
X152342543Y-68527157D01*
X152340645Y-68525355D01*
X152338843Y-68523457D01*
X152337143Y-68521466D01*
X152335549Y-68519389D01*
X152334066Y-68517232D01*
X152332699Y-68515000D01*
X152331450Y-68512700D01*
X152330323Y-68510337D01*
X152329321Y-68507918D01*
X152328447Y-68505451D01*
X152327704Y-68502941D01*
X152327093Y-68500396D01*
X152326616Y-68497822D01*
X152326274Y-68495226D01*
X152326069Y-68492617D01*
X152326000Y-68490000D01*
X152326000Y-68240000D01*
X152326069Y-68237383D01*
X152326274Y-68234774D01*
X152326616Y-68232178D01*
X152327093Y-68229604D01*
X152327704Y-68227059D01*
X152328447Y-68224549D01*
X152329321Y-68222082D01*
X152330323Y-68219663D01*
X152331450Y-68217300D01*
X152332699Y-68215000D01*
X152334066Y-68212768D01*
X152335549Y-68210611D01*
X152337143Y-68208534D01*
X152338843Y-68206543D01*
X152340645Y-68204645D01*
X152342543Y-68202843D01*
X152344534Y-68201143D01*
X152346611Y-68199549D01*
X152348768Y-68198066D01*
X152351000Y-68196699D01*
X152353300Y-68195450D01*
X152355663Y-68194323D01*
X152358082Y-68193321D01*
X152360549Y-68192447D01*
X152363059Y-68191704D01*
X152365604Y-68191093D01*
X152368178Y-68190616D01*
X152370774Y-68190274D01*
X152373383Y-68190069D01*
X152376000Y-68190000D01*
X152926000Y-68190000D01*
X152928617Y-68190069D01*
G37*
X152928617Y-68190069D02*
X152931226Y-68190274D01*
X152933822Y-68190616D01*
X152936396Y-68191093D01*
X152938941Y-68191704D01*
X152941451Y-68192447D01*
X152943918Y-68193321D01*
X152946337Y-68194323D01*
X152948700Y-68195450D01*
X152951000Y-68196699D01*
X152953232Y-68198066D01*
X152955389Y-68199549D01*
X152957466Y-68201143D01*
X152959457Y-68202843D01*
X152961355Y-68204645D01*
X152963157Y-68206543D01*
X152964857Y-68208534D01*
X152966451Y-68210611D01*
X152967934Y-68212768D01*
X152969301Y-68215000D01*
X152970550Y-68217300D01*
X152971677Y-68219663D01*
X152972679Y-68222082D01*
X152973553Y-68224549D01*
X152974296Y-68227059D01*
X152974907Y-68229604D01*
X152975384Y-68232178D01*
X152975726Y-68234774D01*
X152975931Y-68237383D01*
X152976000Y-68240000D01*
X152976000Y-68490000D01*
X152975931Y-68492617D01*
X152975726Y-68495226D01*
X152975384Y-68497822D01*
X152974907Y-68500396D01*
X152974296Y-68502941D01*
X152973553Y-68505451D01*
X152972679Y-68507918D01*
X152971677Y-68510337D01*
X152970550Y-68512700D01*
X152969301Y-68515000D01*
X152967934Y-68517232D01*
X152966451Y-68519389D01*
X152964857Y-68521466D01*
X152963157Y-68523457D01*
X152961355Y-68525355D01*
X152959457Y-68527157D01*
X152957466Y-68528857D01*
X152955389Y-68530451D01*
X152953232Y-68531934D01*
X152951000Y-68533301D01*
X152948700Y-68534550D01*
X152946337Y-68535677D01*
X152943918Y-68536679D01*
X152941451Y-68537553D01*
X152938941Y-68538296D01*
X152936396Y-68538907D01*
X152933822Y-68539384D01*
X152931226Y-68539726D01*
X152928617Y-68539931D01*
X152926000Y-68540000D01*
X152376000Y-68540000D01*
X152373383Y-68539931D01*
X152370774Y-68539726D01*
X152368178Y-68539384D01*
X152365604Y-68538907D01*
X152363059Y-68538296D01*
X152360549Y-68537553D01*
X152358082Y-68536679D01*
X152355663Y-68535677D01*
X152353300Y-68534550D01*
X152351000Y-68533301D01*
X152348768Y-68531934D01*
X152346611Y-68530451D01*
X152344534Y-68528857D01*
X152342543Y-68527157D01*
X152340645Y-68525355D01*
X152338843Y-68523457D01*
X152337143Y-68521466D01*
X152335549Y-68519389D01*
X152334066Y-68517232D01*
X152332699Y-68515000D01*
X152331450Y-68512700D01*
X152330323Y-68510337D01*
X152329321Y-68507918D01*
X152328447Y-68505451D01*
X152327704Y-68502941D01*
X152327093Y-68500396D01*
X152326616Y-68497822D01*
X152326274Y-68495226D01*
X152326069Y-68492617D01*
X152326000Y-68490000D01*
X152326000Y-68240000D01*
X152326069Y-68237383D01*
X152326274Y-68234774D01*
X152326616Y-68232178D01*
X152327093Y-68229604D01*
X152327704Y-68227059D01*
X152328447Y-68224549D01*
X152329321Y-68222082D01*
X152330323Y-68219663D01*
X152331450Y-68217300D01*
X152332699Y-68215000D01*
X152334066Y-68212768D01*
X152335549Y-68210611D01*
X152337143Y-68208534D01*
X152338843Y-68206543D01*
X152340645Y-68204645D01*
X152342543Y-68202843D01*
X152344534Y-68201143D01*
X152346611Y-68199549D01*
X152348768Y-68198066D01*
X152351000Y-68196699D01*
X152353300Y-68195450D01*
X152355663Y-68194323D01*
X152358082Y-68193321D01*
X152360549Y-68192447D01*
X152363059Y-68191704D01*
X152365604Y-68191093D01*
X152368178Y-68190616D01*
X152370774Y-68190274D01*
X152373383Y-68190069D01*
X152376000Y-68190000D01*
X152926000Y-68190000D01*
X152928617Y-68190069D01*
G36*
X150578617Y-69690069D02*
G01*
X150581226Y-69690274D01*
X150583822Y-69690616D01*
X150586396Y-69691093D01*
X150588941Y-69691704D01*
X150591451Y-69692447D01*
X150593918Y-69693321D01*
X150596337Y-69694323D01*
X150598700Y-69695450D01*
X150601000Y-69696699D01*
X150603232Y-69698066D01*
X150605389Y-69699549D01*
X150607466Y-69701143D01*
X150609457Y-69702843D01*
X150611355Y-69704645D01*
X150613157Y-69706543D01*
X150614857Y-69708534D01*
X150616451Y-69710611D01*
X150617934Y-69712768D01*
X150619301Y-69715000D01*
X150620550Y-69717300D01*
X150621677Y-69719663D01*
X150622679Y-69722082D01*
X150623553Y-69724549D01*
X150624296Y-69727059D01*
X150624907Y-69729604D01*
X150625384Y-69732178D01*
X150625726Y-69734774D01*
X150625931Y-69737383D01*
X150626000Y-69740000D01*
X150626000Y-69990000D01*
X150625931Y-69992617D01*
X150625726Y-69995226D01*
X150625384Y-69997822D01*
X150624907Y-70000396D01*
X150624296Y-70002941D01*
X150623553Y-70005451D01*
X150622679Y-70007918D01*
X150621677Y-70010337D01*
X150620550Y-70012700D01*
X150619301Y-70015000D01*
X150617934Y-70017232D01*
X150616451Y-70019389D01*
X150614857Y-70021466D01*
X150613157Y-70023457D01*
X150611355Y-70025355D01*
X150609457Y-70027157D01*
X150607466Y-70028857D01*
X150605389Y-70030451D01*
X150603232Y-70031934D01*
X150601000Y-70033301D01*
X150598700Y-70034550D01*
X150596337Y-70035677D01*
X150593918Y-70036679D01*
X150591451Y-70037553D01*
X150588941Y-70038296D01*
X150586396Y-70038907D01*
X150583822Y-70039384D01*
X150581226Y-70039726D01*
X150578617Y-70039931D01*
X150576000Y-70040000D01*
X150026000Y-70040000D01*
X150023383Y-70039931D01*
X150020774Y-70039726D01*
X150018178Y-70039384D01*
X150015604Y-70038907D01*
X150013059Y-70038296D01*
X150010549Y-70037553D01*
X150008082Y-70036679D01*
X150005663Y-70035677D01*
X150003300Y-70034550D01*
X150001000Y-70033301D01*
X149998768Y-70031934D01*
X149996611Y-70030451D01*
X149994534Y-70028857D01*
X149992543Y-70027157D01*
X149990645Y-70025355D01*
X149988843Y-70023457D01*
X149987143Y-70021466D01*
X149985549Y-70019389D01*
X149984066Y-70017232D01*
X149982699Y-70015000D01*
X149981450Y-70012700D01*
X149980323Y-70010337D01*
X149979321Y-70007918D01*
X149978447Y-70005451D01*
X149977704Y-70002941D01*
X149977093Y-70000396D01*
X149976616Y-69997822D01*
X149976274Y-69995226D01*
X149976069Y-69992617D01*
X149976000Y-69990000D01*
X149976000Y-69740000D01*
X149976069Y-69737383D01*
X149976274Y-69734774D01*
X149976616Y-69732178D01*
X149977093Y-69729604D01*
X149977704Y-69727059D01*
X149978447Y-69724549D01*
X149979321Y-69722082D01*
X149980323Y-69719663D01*
X149981450Y-69717300D01*
X149982699Y-69715000D01*
X149984066Y-69712768D01*
X149985549Y-69710611D01*
X149987143Y-69708534D01*
X149988843Y-69706543D01*
X149990645Y-69704645D01*
X149992543Y-69702843D01*
X149994534Y-69701143D01*
X149996611Y-69699549D01*
X149998768Y-69698066D01*
X150001000Y-69696699D01*
X150003300Y-69695450D01*
X150005663Y-69694323D01*
X150008082Y-69693321D01*
X150010549Y-69692447D01*
X150013059Y-69691704D01*
X150015604Y-69691093D01*
X150018178Y-69690616D01*
X150020774Y-69690274D01*
X150023383Y-69690069D01*
X150026000Y-69690000D01*
X150576000Y-69690000D01*
X150578617Y-69690069D01*
G37*
X150578617Y-69690069D02*
X150581226Y-69690274D01*
X150583822Y-69690616D01*
X150586396Y-69691093D01*
X150588941Y-69691704D01*
X150591451Y-69692447D01*
X150593918Y-69693321D01*
X150596337Y-69694323D01*
X150598700Y-69695450D01*
X150601000Y-69696699D01*
X150603232Y-69698066D01*
X150605389Y-69699549D01*
X150607466Y-69701143D01*
X150609457Y-69702843D01*
X150611355Y-69704645D01*
X150613157Y-69706543D01*
X150614857Y-69708534D01*
X150616451Y-69710611D01*
X150617934Y-69712768D01*
X150619301Y-69715000D01*
X150620550Y-69717300D01*
X150621677Y-69719663D01*
X150622679Y-69722082D01*
X150623553Y-69724549D01*
X150624296Y-69727059D01*
X150624907Y-69729604D01*
X150625384Y-69732178D01*
X150625726Y-69734774D01*
X150625931Y-69737383D01*
X150626000Y-69740000D01*
X150626000Y-69990000D01*
X150625931Y-69992617D01*
X150625726Y-69995226D01*
X150625384Y-69997822D01*
X150624907Y-70000396D01*
X150624296Y-70002941D01*
X150623553Y-70005451D01*
X150622679Y-70007918D01*
X150621677Y-70010337D01*
X150620550Y-70012700D01*
X150619301Y-70015000D01*
X150617934Y-70017232D01*
X150616451Y-70019389D01*
X150614857Y-70021466D01*
X150613157Y-70023457D01*
X150611355Y-70025355D01*
X150609457Y-70027157D01*
X150607466Y-70028857D01*
X150605389Y-70030451D01*
X150603232Y-70031934D01*
X150601000Y-70033301D01*
X150598700Y-70034550D01*
X150596337Y-70035677D01*
X150593918Y-70036679D01*
X150591451Y-70037553D01*
X150588941Y-70038296D01*
X150586396Y-70038907D01*
X150583822Y-70039384D01*
X150581226Y-70039726D01*
X150578617Y-70039931D01*
X150576000Y-70040000D01*
X150026000Y-70040000D01*
X150023383Y-70039931D01*
X150020774Y-70039726D01*
X150018178Y-70039384D01*
X150015604Y-70038907D01*
X150013059Y-70038296D01*
X150010549Y-70037553D01*
X150008082Y-70036679D01*
X150005663Y-70035677D01*
X150003300Y-70034550D01*
X150001000Y-70033301D01*
X149998768Y-70031934D01*
X149996611Y-70030451D01*
X149994534Y-70028857D01*
X149992543Y-70027157D01*
X149990645Y-70025355D01*
X149988843Y-70023457D01*
X149987143Y-70021466D01*
X149985549Y-70019389D01*
X149984066Y-70017232D01*
X149982699Y-70015000D01*
X149981450Y-70012700D01*
X149980323Y-70010337D01*
X149979321Y-70007918D01*
X149978447Y-70005451D01*
X149977704Y-70002941D01*
X149977093Y-70000396D01*
X149976616Y-69997822D01*
X149976274Y-69995226D01*
X149976069Y-69992617D01*
X149976000Y-69990000D01*
X149976000Y-69740000D01*
X149976069Y-69737383D01*
X149976274Y-69734774D01*
X149976616Y-69732178D01*
X149977093Y-69729604D01*
X149977704Y-69727059D01*
X149978447Y-69724549D01*
X149979321Y-69722082D01*
X149980323Y-69719663D01*
X149981450Y-69717300D01*
X149982699Y-69715000D01*
X149984066Y-69712768D01*
X149985549Y-69710611D01*
X149987143Y-69708534D01*
X149988843Y-69706543D01*
X149990645Y-69704645D01*
X149992543Y-69702843D01*
X149994534Y-69701143D01*
X149996611Y-69699549D01*
X149998768Y-69698066D01*
X150001000Y-69696699D01*
X150003300Y-69695450D01*
X150005663Y-69694323D01*
X150008082Y-69693321D01*
X150010549Y-69692447D01*
X150013059Y-69691704D01*
X150015604Y-69691093D01*
X150018178Y-69690616D01*
X150020774Y-69690274D01*
X150023383Y-69690069D01*
X150026000Y-69690000D01*
X150576000Y-69690000D01*
X150578617Y-69690069D01*
G36*
X150578617Y-69190069D02*
G01*
X150581226Y-69190274D01*
X150583822Y-69190616D01*
X150586396Y-69191093D01*
X150588941Y-69191704D01*
X150591451Y-69192447D01*
X150593918Y-69193321D01*
X150596337Y-69194323D01*
X150598700Y-69195450D01*
X150601000Y-69196699D01*
X150603232Y-69198066D01*
X150605389Y-69199549D01*
X150607466Y-69201143D01*
X150609457Y-69202843D01*
X150611355Y-69204645D01*
X150613157Y-69206543D01*
X150614857Y-69208534D01*
X150616451Y-69210611D01*
X150617934Y-69212768D01*
X150619301Y-69215000D01*
X150620550Y-69217300D01*
X150621677Y-69219663D01*
X150622679Y-69222082D01*
X150623553Y-69224549D01*
X150624296Y-69227059D01*
X150624907Y-69229604D01*
X150625384Y-69232178D01*
X150625726Y-69234774D01*
X150625931Y-69237383D01*
X150626000Y-69240000D01*
X150626000Y-69490000D01*
X150625931Y-69492617D01*
X150625726Y-69495226D01*
X150625384Y-69497822D01*
X150624907Y-69500396D01*
X150624296Y-69502941D01*
X150623553Y-69505451D01*
X150622679Y-69507918D01*
X150621677Y-69510337D01*
X150620550Y-69512700D01*
X150619301Y-69515000D01*
X150617934Y-69517232D01*
X150616451Y-69519389D01*
X150614857Y-69521466D01*
X150613157Y-69523457D01*
X150611355Y-69525355D01*
X150609457Y-69527157D01*
X150607466Y-69528857D01*
X150605389Y-69530451D01*
X150603232Y-69531934D01*
X150601000Y-69533301D01*
X150598700Y-69534550D01*
X150596337Y-69535677D01*
X150593918Y-69536679D01*
X150591451Y-69537553D01*
X150588941Y-69538296D01*
X150586396Y-69538907D01*
X150583822Y-69539384D01*
X150581226Y-69539726D01*
X150578617Y-69539931D01*
X150576000Y-69540000D01*
X150026000Y-69540000D01*
X150023383Y-69539931D01*
X150020774Y-69539726D01*
X150018178Y-69539384D01*
X150015604Y-69538907D01*
X150013059Y-69538296D01*
X150010549Y-69537553D01*
X150008082Y-69536679D01*
X150005663Y-69535677D01*
X150003300Y-69534550D01*
X150001000Y-69533301D01*
X149998768Y-69531934D01*
X149996611Y-69530451D01*
X149994534Y-69528857D01*
X149992543Y-69527157D01*
X149990645Y-69525355D01*
X149988843Y-69523457D01*
X149987143Y-69521466D01*
X149985549Y-69519389D01*
X149984066Y-69517232D01*
X149982699Y-69515000D01*
X149981450Y-69512700D01*
X149980323Y-69510337D01*
X149979321Y-69507918D01*
X149978447Y-69505451D01*
X149977704Y-69502941D01*
X149977093Y-69500396D01*
X149976616Y-69497822D01*
X149976274Y-69495226D01*
X149976069Y-69492617D01*
X149976000Y-69490000D01*
X149976000Y-69240000D01*
X149976069Y-69237383D01*
X149976274Y-69234774D01*
X149976616Y-69232178D01*
X149977093Y-69229604D01*
X149977704Y-69227059D01*
X149978447Y-69224549D01*
X149979321Y-69222082D01*
X149980323Y-69219663D01*
X149981450Y-69217300D01*
X149982699Y-69215000D01*
X149984066Y-69212768D01*
X149985549Y-69210611D01*
X149987143Y-69208534D01*
X149988843Y-69206543D01*
X149990645Y-69204645D01*
X149992543Y-69202843D01*
X149994534Y-69201143D01*
X149996611Y-69199549D01*
X149998768Y-69198066D01*
X150001000Y-69196699D01*
X150003300Y-69195450D01*
X150005663Y-69194323D01*
X150008082Y-69193321D01*
X150010549Y-69192447D01*
X150013059Y-69191704D01*
X150015604Y-69191093D01*
X150018178Y-69190616D01*
X150020774Y-69190274D01*
X150023383Y-69190069D01*
X150026000Y-69190000D01*
X150576000Y-69190000D01*
X150578617Y-69190069D01*
G37*
X150578617Y-69190069D02*
X150581226Y-69190274D01*
X150583822Y-69190616D01*
X150586396Y-69191093D01*
X150588941Y-69191704D01*
X150591451Y-69192447D01*
X150593918Y-69193321D01*
X150596337Y-69194323D01*
X150598700Y-69195450D01*
X150601000Y-69196699D01*
X150603232Y-69198066D01*
X150605389Y-69199549D01*
X150607466Y-69201143D01*
X150609457Y-69202843D01*
X150611355Y-69204645D01*
X150613157Y-69206543D01*
X150614857Y-69208534D01*
X150616451Y-69210611D01*
X150617934Y-69212768D01*
X150619301Y-69215000D01*
X150620550Y-69217300D01*
X150621677Y-69219663D01*
X150622679Y-69222082D01*
X150623553Y-69224549D01*
X150624296Y-69227059D01*
X150624907Y-69229604D01*
X150625384Y-69232178D01*
X150625726Y-69234774D01*
X150625931Y-69237383D01*
X150626000Y-69240000D01*
X150626000Y-69490000D01*
X150625931Y-69492617D01*
X150625726Y-69495226D01*
X150625384Y-69497822D01*
X150624907Y-69500396D01*
X150624296Y-69502941D01*
X150623553Y-69505451D01*
X150622679Y-69507918D01*
X150621677Y-69510337D01*
X150620550Y-69512700D01*
X150619301Y-69515000D01*
X150617934Y-69517232D01*
X150616451Y-69519389D01*
X150614857Y-69521466D01*
X150613157Y-69523457D01*
X150611355Y-69525355D01*
X150609457Y-69527157D01*
X150607466Y-69528857D01*
X150605389Y-69530451D01*
X150603232Y-69531934D01*
X150601000Y-69533301D01*
X150598700Y-69534550D01*
X150596337Y-69535677D01*
X150593918Y-69536679D01*
X150591451Y-69537553D01*
X150588941Y-69538296D01*
X150586396Y-69538907D01*
X150583822Y-69539384D01*
X150581226Y-69539726D01*
X150578617Y-69539931D01*
X150576000Y-69540000D01*
X150026000Y-69540000D01*
X150023383Y-69539931D01*
X150020774Y-69539726D01*
X150018178Y-69539384D01*
X150015604Y-69538907D01*
X150013059Y-69538296D01*
X150010549Y-69537553D01*
X150008082Y-69536679D01*
X150005663Y-69535677D01*
X150003300Y-69534550D01*
X150001000Y-69533301D01*
X149998768Y-69531934D01*
X149996611Y-69530451D01*
X149994534Y-69528857D01*
X149992543Y-69527157D01*
X149990645Y-69525355D01*
X149988843Y-69523457D01*
X149987143Y-69521466D01*
X149985549Y-69519389D01*
X149984066Y-69517232D01*
X149982699Y-69515000D01*
X149981450Y-69512700D01*
X149980323Y-69510337D01*
X149979321Y-69507918D01*
X149978447Y-69505451D01*
X149977704Y-69502941D01*
X149977093Y-69500396D01*
X149976616Y-69497822D01*
X149976274Y-69495226D01*
X149976069Y-69492617D01*
X149976000Y-69490000D01*
X149976000Y-69240000D01*
X149976069Y-69237383D01*
X149976274Y-69234774D01*
X149976616Y-69232178D01*
X149977093Y-69229604D01*
X149977704Y-69227059D01*
X149978447Y-69224549D01*
X149979321Y-69222082D01*
X149980323Y-69219663D01*
X149981450Y-69217300D01*
X149982699Y-69215000D01*
X149984066Y-69212768D01*
X149985549Y-69210611D01*
X149987143Y-69208534D01*
X149988843Y-69206543D01*
X149990645Y-69204645D01*
X149992543Y-69202843D01*
X149994534Y-69201143D01*
X149996611Y-69199549D01*
X149998768Y-69198066D01*
X150001000Y-69196699D01*
X150003300Y-69195450D01*
X150005663Y-69194323D01*
X150008082Y-69193321D01*
X150010549Y-69192447D01*
X150013059Y-69191704D01*
X150015604Y-69191093D01*
X150018178Y-69190616D01*
X150020774Y-69190274D01*
X150023383Y-69190069D01*
X150026000Y-69190000D01*
X150576000Y-69190000D01*
X150578617Y-69190069D01*
G36*
X150578617Y-68690069D02*
G01*
X150581226Y-68690274D01*
X150583822Y-68690616D01*
X150586396Y-68691093D01*
X150588941Y-68691704D01*
X150591451Y-68692447D01*
X150593918Y-68693321D01*
X150596337Y-68694323D01*
X150598700Y-68695450D01*
X150601000Y-68696699D01*
X150603232Y-68698066D01*
X150605389Y-68699549D01*
X150607466Y-68701143D01*
X150609457Y-68702843D01*
X150611355Y-68704645D01*
X150613157Y-68706543D01*
X150614857Y-68708534D01*
X150616451Y-68710611D01*
X150617934Y-68712768D01*
X150619301Y-68715000D01*
X150620550Y-68717300D01*
X150621677Y-68719663D01*
X150622679Y-68722082D01*
X150623553Y-68724549D01*
X150624296Y-68727059D01*
X150624907Y-68729604D01*
X150625384Y-68732178D01*
X150625726Y-68734774D01*
X150625931Y-68737383D01*
X150626000Y-68740000D01*
X150626000Y-68990000D01*
X150625931Y-68992617D01*
X150625726Y-68995226D01*
X150625384Y-68997822D01*
X150624907Y-69000396D01*
X150624296Y-69002941D01*
X150623553Y-69005451D01*
X150622679Y-69007918D01*
X150621677Y-69010337D01*
X150620550Y-69012700D01*
X150619301Y-69015000D01*
X150617934Y-69017232D01*
X150616451Y-69019389D01*
X150614857Y-69021466D01*
X150613157Y-69023457D01*
X150611355Y-69025355D01*
X150609457Y-69027157D01*
X150607466Y-69028857D01*
X150605389Y-69030451D01*
X150603232Y-69031934D01*
X150601000Y-69033301D01*
X150598700Y-69034550D01*
X150596337Y-69035677D01*
X150593918Y-69036679D01*
X150591451Y-69037553D01*
X150588941Y-69038296D01*
X150586396Y-69038907D01*
X150583822Y-69039384D01*
X150581226Y-69039726D01*
X150578617Y-69039931D01*
X150576000Y-69040000D01*
X150026000Y-69040000D01*
X150023383Y-69039931D01*
X150020774Y-69039726D01*
X150018178Y-69039384D01*
X150015604Y-69038907D01*
X150013059Y-69038296D01*
X150010549Y-69037553D01*
X150008082Y-69036679D01*
X150005663Y-69035677D01*
X150003300Y-69034550D01*
X150001000Y-69033301D01*
X149998768Y-69031934D01*
X149996611Y-69030451D01*
X149994534Y-69028857D01*
X149992543Y-69027157D01*
X149990645Y-69025355D01*
X149988843Y-69023457D01*
X149987143Y-69021466D01*
X149985549Y-69019389D01*
X149984066Y-69017232D01*
X149982699Y-69015000D01*
X149981450Y-69012700D01*
X149980323Y-69010337D01*
X149979321Y-69007918D01*
X149978447Y-69005451D01*
X149977704Y-69002941D01*
X149977093Y-69000396D01*
X149976616Y-68997822D01*
X149976274Y-68995226D01*
X149976069Y-68992617D01*
X149976000Y-68990000D01*
X149976000Y-68740000D01*
X149976069Y-68737383D01*
X149976274Y-68734774D01*
X149976616Y-68732178D01*
X149977093Y-68729604D01*
X149977704Y-68727059D01*
X149978447Y-68724549D01*
X149979321Y-68722082D01*
X149980323Y-68719663D01*
X149981450Y-68717300D01*
X149982699Y-68715000D01*
X149984066Y-68712768D01*
X149985549Y-68710611D01*
X149987143Y-68708534D01*
X149988843Y-68706543D01*
X149990645Y-68704645D01*
X149992543Y-68702843D01*
X149994534Y-68701143D01*
X149996611Y-68699549D01*
X149998768Y-68698066D01*
X150001000Y-68696699D01*
X150003300Y-68695450D01*
X150005663Y-68694323D01*
X150008082Y-68693321D01*
X150010549Y-68692447D01*
X150013059Y-68691704D01*
X150015604Y-68691093D01*
X150018178Y-68690616D01*
X150020774Y-68690274D01*
X150023383Y-68690069D01*
X150026000Y-68690000D01*
X150576000Y-68690000D01*
X150578617Y-68690069D01*
G37*
X150578617Y-68690069D02*
X150581226Y-68690274D01*
X150583822Y-68690616D01*
X150586396Y-68691093D01*
X150588941Y-68691704D01*
X150591451Y-68692447D01*
X150593918Y-68693321D01*
X150596337Y-68694323D01*
X150598700Y-68695450D01*
X150601000Y-68696699D01*
X150603232Y-68698066D01*
X150605389Y-68699549D01*
X150607466Y-68701143D01*
X150609457Y-68702843D01*
X150611355Y-68704645D01*
X150613157Y-68706543D01*
X150614857Y-68708534D01*
X150616451Y-68710611D01*
X150617934Y-68712768D01*
X150619301Y-68715000D01*
X150620550Y-68717300D01*
X150621677Y-68719663D01*
X150622679Y-68722082D01*
X150623553Y-68724549D01*
X150624296Y-68727059D01*
X150624907Y-68729604D01*
X150625384Y-68732178D01*
X150625726Y-68734774D01*
X150625931Y-68737383D01*
X150626000Y-68740000D01*
X150626000Y-68990000D01*
X150625931Y-68992617D01*
X150625726Y-68995226D01*
X150625384Y-68997822D01*
X150624907Y-69000396D01*
X150624296Y-69002941D01*
X150623553Y-69005451D01*
X150622679Y-69007918D01*
X150621677Y-69010337D01*
X150620550Y-69012700D01*
X150619301Y-69015000D01*
X150617934Y-69017232D01*
X150616451Y-69019389D01*
X150614857Y-69021466D01*
X150613157Y-69023457D01*
X150611355Y-69025355D01*
X150609457Y-69027157D01*
X150607466Y-69028857D01*
X150605389Y-69030451D01*
X150603232Y-69031934D01*
X150601000Y-69033301D01*
X150598700Y-69034550D01*
X150596337Y-69035677D01*
X150593918Y-69036679D01*
X150591451Y-69037553D01*
X150588941Y-69038296D01*
X150586396Y-69038907D01*
X150583822Y-69039384D01*
X150581226Y-69039726D01*
X150578617Y-69039931D01*
X150576000Y-69040000D01*
X150026000Y-69040000D01*
X150023383Y-69039931D01*
X150020774Y-69039726D01*
X150018178Y-69039384D01*
X150015604Y-69038907D01*
X150013059Y-69038296D01*
X150010549Y-69037553D01*
X150008082Y-69036679D01*
X150005663Y-69035677D01*
X150003300Y-69034550D01*
X150001000Y-69033301D01*
X149998768Y-69031934D01*
X149996611Y-69030451D01*
X149994534Y-69028857D01*
X149992543Y-69027157D01*
X149990645Y-69025355D01*
X149988843Y-69023457D01*
X149987143Y-69021466D01*
X149985549Y-69019389D01*
X149984066Y-69017232D01*
X149982699Y-69015000D01*
X149981450Y-69012700D01*
X149980323Y-69010337D01*
X149979321Y-69007918D01*
X149978447Y-69005451D01*
X149977704Y-69002941D01*
X149977093Y-69000396D01*
X149976616Y-68997822D01*
X149976274Y-68995226D01*
X149976069Y-68992617D01*
X149976000Y-68990000D01*
X149976000Y-68740000D01*
X149976069Y-68737383D01*
X149976274Y-68734774D01*
X149976616Y-68732178D01*
X149977093Y-68729604D01*
X149977704Y-68727059D01*
X149978447Y-68724549D01*
X149979321Y-68722082D01*
X149980323Y-68719663D01*
X149981450Y-68717300D01*
X149982699Y-68715000D01*
X149984066Y-68712768D01*
X149985549Y-68710611D01*
X149987143Y-68708534D01*
X149988843Y-68706543D01*
X149990645Y-68704645D01*
X149992543Y-68702843D01*
X149994534Y-68701143D01*
X149996611Y-68699549D01*
X149998768Y-68698066D01*
X150001000Y-68696699D01*
X150003300Y-68695450D01*
X150005663Y-68694323D01*
X150008082Y-68693321D01*
X150010549Y-68692447D01*
X150013059Y-68691704D01*
X150015604Y-68691093D01*
X150018178Y-68690616D01*
X150020774Y-68690274D01*
X150023383Y-68690069D01*
X150026000Y-68690000D01*
X150576000Y-68690000D01*
X150578617Y-68690069D01*
G36*
X150531234Y-68190137D02*
G01*
X150536453Y-68190548D01*
X150541643Y-68191231D01*
X150546791Y-68192185D01*
X150551882Y-68193407D01*
X150556902Y-68194894D01*
X150561837Y-68196642D01*
X150566674Y-68198645D01*
X150571399Y-68200899D01*
X150576000Y-68203397D01*
X150580464Y-68206133D01*
X150584779Y-68209098D01*
X150588932Y-68212285D01*
X150592913Y-68215686D01*
X150596711Y-68219289D01*
X150600314Y-68223087D01*
X150603715Y-68227068D01*
X150606902Y-68231221D01*
X150609867Y-68235536D01*
X150612603Y-68240000D01*
X150615101Y-68244601D01*
X150617355Y-68249326D01*
X150619358Y-68254163D01*
X150621106Y-68259098D01*
X150622593Y-68264118D01*
X150623815Y-68269209D01*
X150624769Y-68274357D01*
X150625452Y-68279547D01*
X150625863Y-68284766D01*
X150626000Y-68290000D01*
X150626000Y-68440000D01*
X150625863Y-68445234D01*
X150625452Y-68450453D01*
X150624769Y-68455643D01*
X150623815Y-68460791D01*
X150622593Y-68465882D01*
X150621106Y-68470902D01*
X150619358Y-68475837D01*
X150617355Y-68480674D01*
X150615101Y-68485399D01*
X150612603Y-68490000D01*
X150609867Y-68494464D01*
X150606902Y-68498779D01*
X150603715Y-68502932D01*
X150600314Y-68506913D01*
X150596711Y-68510711D01*
X150592913Y-68514314D01*
X150588932Y-68517715D01*
X150584779Y-68520902D01*
X150580464Y-68523867D01*
X150576000Y-68526603D01*
X150571399Y-68529101D01*
X150566674Y-68531355D01*
X150561837Y-68533358D01*
X150556902Y-68535106D01*
X150551882Y-68536593D01*
X150546791Y-68537815D01*
X150541643Y-68538769D01*
X150536453Y-68539452D01*
X150531234Y-68539863D01*
X150526000Y-68540000D01*
X150076000Y-68540000D01*
X150070766Y-68539863D01*
X150065547Y-68539452D01*
X150060357Y-68538769D01*
X150055209Y-68537815D01*
X150050118Y-68536593D01*
X150045098Y-68535106D01*
X150040163Y-68533358D01*
X150035326Y-68531355D01*
X150030601Y-68529101D01*
X150026000Y-68526603D01*
X150021536Y-68523867D01*
X150017221Y-68520902D01*
X150013068Y-68517715D01*
X150009087Y-68514314D01*
X150005289Y-68510711D01*
X150001686Y-68506913D01*
X149998285Y-68502932D01*
X149995098Y-68498779D01*
X149992133Y-68494464D01*
X149989397Y-68490000D01*
X149986899Y-68485399D01*
X149984645Y-68480674D01*
X149982642Y-68475837D01*
X149980894Y-68470902D01*
X149979407Y-68465882D01*
X149978185Y-68460791D01*
X149977231Y-68455643D01*
X149976548Y-68450453D01*
X149976137Y-68445234D01*
X149976000Y-68440000D01*
X149976000Y-68290000D01*
X149976137Y-68284766D01*
X149976548Y-68279547D01*
X149977231Y-68274357D01*
X149978185Y-68269209D01*
X149979407Y-68264118D01*
X149980894Y-68259098D01*
X149982642Y-68254163D01*
X149984645Y-68249326D01*
X149986899Y-68244601D01*
X149989397Y-68240000D01*
X149992133Y-68235536D01*
X149995098Y-68231221D01*
X149998285Y-68227068D01*
X150001686Y-68223087D01*
X150005289Y-68219289D01*
X150009087Y-68215686D01*
X150013068Y-68212285D01*
X150017221Y-68209098D01*
X150021536Y-68206133D01*
X150026000Y-68203397D01*
X150030601Y-68200899D01*
X150035326Y-68198645D01*
X150040163Y-68196642D01*
X150045098Y-68194894D01*
X150050118Y-68193407D01*
X150055209Y-68192185D01*
X150060357Y-68191231D01*
X150065547Y-68190548D01*
X150070766Y-68190137D01*
X150076000Y-68190000D01*
X150526000Y-68190000D01*
X150531234Y-68190137D01*
G37*
X150531234Y-68190137D02*
X150536453Y-68190548D01*
X150541643Y-68191231D01*
X150546791Y-68192185D01*
X150551882Y-68193407D01*
X150556902Y-68194894D01*
X150561837Y-68196642D01*
X150566674Y-68198645D01*
X150571399Y-68200899D01*
X150576000Y-68203397D01*
X150580464Y-68206133D01*
X150584779Y-68209098D01*
X150588932Y-68212285D01*
X150592913Y-68215686D01*
X150596711Y-68219289D01*
X150600314Y-68223087D01*
X150603715Y-68227068D01*
X150606902Y-68231221D01*
X150609867Y-68235536D01*
X150612603Y-68240000D01*
X150615101Y-68244601D01*
X150617355Y-68249326D01*
X150619358Y-68254163D01*
X150621106Y-68259098D01*
X150622593Y-68264118D01*
X150623815Y-68269209D01*
X150624769Y-68274357D01*
X150625452Y-68279547D01*
X150625863Y-68284766D01*
X150626000Y-68290000D01*
X150626000Y-68440000D01*
X150625863Y-68445234D01*
X150625452Y-68450453D01*
X150624769Y-68455643D01*
X150623815Y-68460791D01*
X150622593Y-68465882D01*
X150621106Y-68470902D01*
X150619358Y-68475837D01*
X150617355Y-68480674D01*
X150615101Y-68485399D01*
X150612603Y-68490000D01*
X150609867Y-68494464D01*
X150606902Y-68498779D01*
X150603715Y-68502932D01*
X150600314Y-68506913D01*
X150596711Y-68510711D01*
X150592913Y-68514314D01*
X150588932Y-68517715D01*
X150584779Y-68520902D01*
X150580464Y-68523867D01*
X150576000Y-68526603D01*
X150571399Y-68529101D01*
X150566674Y-68531355D01*
X150561837Y-68533358D01*
X150556902Y-68535106D01*
X150551882Y-68536593D01*
X150546791Y-68537815D01*
X150541643Y-68538769D01*
X150536453Y-68539452D01*
X150531234Y-68539863D01*
X150526000Y-68540000D01*
X150076000Y-68540000D01*
X150070766Y-68539863D01*
X150065547Y-68539452D01*
X150060357Y-68538769D01*
X150055209Y-68537815D01*
X150050118Y-68536593D01*
X150045098Y-68535106D01*
X150040163Y-68533358D01*
X150035326Y-68531355D01*
X150030601Y-68529101D01*
X150026000Y-68526603D01*
X150021536Y-68523867D01*
X150017221Y-68520902D01*
X150013068Y-68517715D01*
X150009087Y-68514314D01*
X150005289Y-68510711D01*
X150001686Y-68506913D01*
X149998285Y-68502932D01*
X149995098Y-68498779D01*
X149992133Y-68494464D01*
X149989397Y-68490000D01*
X149986899Y-68485399D01*
X149984645Y-68480674D01*
X149982642Y-68475837D01*
X149980894Y-68470902D01*
X149979407Y-68465882D01*
X149978185Y-68460791D01*
X149977231Y-68455643D01*
X149976548Y-68450453D01*
X149976137Y-68445234D01*
X149976000Y-68440000D01*
X149976000Y-68290000D01*
X149976137Y-68284766D01*
X149976548Y-68279547D01*
X149977231Y-68274357D01*
X149978185Y-68269209D01*
X149979407Y-68264118D01*
X149980894Y-68259098D01*
X149982642Y-68254163D01*
X149984645Y-68249326D01*
X149986899Y-68244601D01*
X149989397Y-68240000D01*
X149992133Y-68235536D01*
X149995098Y-68231221D01*
X149998285Y-68227068D01*
X150001686Y-68223087D01*
X150005289Y-68219289D01*
X150009087Y-68215686D01*
X150013068Y-68212285D01*
X150017221Y-68209098D01*
X150021536Y-68206133D01*
X150026000Y-68203397D01*
X150030601Y-68200899D01*
X150035326Y-68198645D01*
X150040163Y-68196642D01*
X150045098Y-68194894D01*
X150050118Y-68193407D01*
X150055209Y-68192185D01*
X150060357Y-68191231D01*
X150065547Y-68190548D01*
X150070766Y-68190137D01*
X150076000Y-68190000D01*
X150526000Y-68190000D01*
X150531234Y-68190137D01*
D11*
X143328000Y-60706000D03*
X141478000Y-60706000D03*
X141478000Y-59206000D03*
X143328000Y-59206000D03*
D12*
X157988000Y-65572000D03*
X157988000Y-68072000D03*
D13*
X136652000Y-63500000D03*
X136652000Y-64770000D03*
X136652000Y-66040000D03*
X132752000Y-63500000D03*
X132752000Y-64770000D03*
X132752000Y-66040000D03*
X174842000Y-67310000D03*
X174842000Y-68580000D03*
X174842000Y-69850000D03*
X170942000Y-67310000D03*
X170942000Y-68580000D03*
X170942000Y-69850000D03*
D14*
X176402000Y-62484000D03*
X170942000Y-62484000D03*
X176402000Y-59944000D03*
X170942000Y-59944000D03*
G36*
G01*
X137708500Y-70823750D02*
X137708500Y-71336250D01*
G75*
G02*
X137489750Y-71555000I-218750J0D01*
G01*
X137052250Y-71555000D01*
G75*
G02*
X136833500Y-71336250I0J218750D01*
G01*
X136833500Y-70823750D01*
G75*
G02*
X137052250Y-70605000I218750J0D01*
G01*
X137489750Y-70605000D01*
G75*
G02*
X137708500Y-70823750I0J-218750D01*
G01*
G37*
G36*
G01*
X139283500Y-70823750D02*
X139283500Y-71336250D01*
G75*
G02*
X139064750Y-71555000I-218750J0D01*
G01*
X138627250Y-71555000D01*
G75*
G02*
X138408500Y-71336250I0J218750D01*
G01*
X138408500Y-70823750D01*
G75*
G02*
X138627250Y-70605000I218750J0D01*
G01*
X139064750Y-70605000D01*
G75*
G02*
X139283500Y-70823750I0J-218750D01*
G01*
G37*
G36*
G01*
X134398500Y-71376250D02*
X134398500Y-70863750D01*
G75*
G02*
X134617250Y-70645000I218750J0D01*
G01*
X135054750Y-70645000D01*
G75*
G02*
X135273500Y-70863750I0J-218750D01*
G01*
X135273500Y-71376250D01*
G75*
G02*
X135054750Y-71595000I-218750J0D01*
G01*
X134617250Y-71595000D01*
G75*
G02*
X134398500Y-71376250I0J218750D01*
G01*
G37*
G36*
G01*
X132823500Y-71376250D02*
X132823500Y-70863750D01*
G75*
G02*
X133042250Y-70645000I218750J0D01*
G01*
X133479750Y-70645000D01*
G75*
G02*
X133698500Y-70863750I0J-218750D01*
G01*
X133698500Y-71376250D01*
G75*
G02*
X133479750Y-71595000I-218750J0D01*
G01*
X133042250Y-71595000D01*
G75*
G02*
X132823500Y-71376250I0J218750D01*
G01*
G37*
G36*
G01*
X162591000Y-69466750D02*
X162591000Y-69979250D01*
G75*
G02*
X162372250Y-70198000I-218750J0D01*
G01*
X161934750Y-70198000D01*
G75*
G02*
X161716000Y-69979250I0J218750D01*
G01*
X161716000Y-69466750D01*
G75*
G02*
X161934750Y-69248000I218750J0D01*
G01*
X162372250Y-69248000D01*
G75*
G02*
X162591000Y-69466750I0J-218750D01*
G01*
G37*
G36*
G01*
X164166000Y-69466750D02*
X164166000Y-69979250D01*
G75*
G02*
X163947250Y-70198000I-218750J0D01*
G01*
X163509750Y-70198000D01*
G75*
G02*
X163291000Y-69979250I0J218750D01*
G01*
X163291000Y-69466750D01*
G75*
G02*
X163509750Y-69248000I218750J0D01*
G01*
X163947250Y-69248000D01*
G75*
G02*
X164166000Y-69466750I0J-218750D01*
G01*
G37*
G36*
G01*
X144647500Y-63248250D02*
X144647500Y-62735750D01*
G75*
G02*
X144866250Y-62517000I218750J0D01*
G01*
X145303750Y-62517000D01*
G75*
G02*
X145522500Y-62735750I0J-218750D01*
G01*
X145522500Y-63248250D01*
G75*
G02*
X145303750Y-63467000I-218750J0D01*
G01*
X144866250Y-63467000D01*
G75*
G02*
X144647500Y-63248250I0J218750D01*
G01*
G37*
G36*
G01*
X143072500Y-63248250D02*
X143072500Y-62735750D01*
G75*
G02*
X143291250Y-62517000I218750J0D01*
G01*
X143728750Y-62517000D01*
G75*
G02*
X143947500Y-62735750I0J-218750D01*
G01*
X143947500Y-63248250D01*
G75*
G02*
X143728750Y-63467000I-218750J0D01*
G01*
X143291250Y-63467000D01*
G75*
G02*
X143072500Y-63248250I0J218750D01*
G01*
G37*
G36*
G01*
X141294500Y-63248250D02*
X141294500Y-62735750D01*
G75*
G02*
X141513250Y-62517000I218750J0D01*
G01*
X141950750Y-62517000D01*
G75*
G02*
X142169500Y-62735750I0J-218750D01*
G01*
X142169500Y-63248250D01*
G75*
G02*
X141950750Y-63467000I-218750J0D01*
G01*
X141513250Y-63467000D01*
G75*
G02*
X141294500Y-63248250I0J218750D01*
G01*
G37*
G36*
G01*
X139719500Y-63248250D02*
X139719500Y-62735750D01*
G75*
G02*
X139938250Y-62517000I218750J0D01*
G01*
X140375750Y-62517000D01*
G75*
G02*
X140594500Y-62735750I0J-218750D01*
G01*
X140594500Y-63248250D01*
G75*
G02*
X140375750Y-63467000I-218750J0D01*
G01*
X139938250Y-63467000D01*
G75*
G02*
X139719500Y-63248250I0J218750D01*
G01*
G37*
G36*
G01*
X149484500Y-66545750D02*
X149484500Y-67058250D01*
G75*
G02*
X149265750Y-67277000I-218750J0D01*
G01*
X148828250Y-67277000D01*
G75*
G02*
X148609500Y-67058250I0J218750D01*
G01*
X148609500Y-66545750D01*
G75*
G02*
X148828250Y-66327000I218750J0D01*
G01*
X149265750Y-66327000D01*
G75*
G02*
X149484500Y-66545750I0J-218750D01*
G01*
G37*
G36*
G01*
X151059500Y-66545750D02*
X151059500Y-67058250D01*
G75*
G02*
X150840750Y-67277000I-218750J0D01*
G01*
X150403250Y-67277000D01*
G75*
G02*
X150184500Y-67058250I0J218750D01*
G01*
X150184500Y-66545750D01*
G75*
G02*
X150403250Y-66327000I218750J0D01*
G01*
X150840750Y-66327000D01*
G75*
G02*
X151059500Y-66545750I0J-218750D01*
G01*
G37*
D15*
X162021500Y-65655000D03*
X162021500Y-65155000D03*
X162021500Y-64655000D03*
X162021500Y-64155000D03*
X162021500Y-63655000D03*
X162021500Y-63155000D03*
X162021500Y-62655000D03*
X162021500Y-62155000D03*
X162021500Y-61655000D03*
D16*
X162834000Y-61592500D03*
X163334000Y-61592500D03*
X163834000Y-61592500D03*
X164334000Y-61592500D03*
D15*
X165146500Y-61655000D03*
X165146500Y-62155000D03*
X165146500Y-62655000D03*
X165146500Y-63155000D03*
X165146500Y-63655000D03*
X165146500Y-64155000D03*
X165146500Y-64655000D03*
X165146500Y-65155000D03*
X165146500Y-65655000D03*
X165146500Y-66155000D03*
D16*
X164334000Y-66217500D03*
X163834000Y-66217500D03*
X163334000Y-66217500D03*
X162834000Y-66217500D03*
D15*
X162021500Y-66155000D03*
D17*
X149225000Y-62865000D03*
D18*
X151688800Y-61112400D03*
X151688800Y-61620400D03*
X151688800Y-62103000D03*
X151688800Y-62611000D03*
X151688800Y-63119000D03*
X151688800Y-63627000D03*
X151688800Y-64109600D03*
X151688800Y-64617600D03*
D19*
X150977600Y-65328800D03*
X150469600Y-65328800D03*
X149987000Y-65328800D03*
X149479000Y-65328800D03*
X148971000Y-65328800D03*
X148463000Y-65328800D03*
X147980400Y-65328800D03*
X147472400Y-65328800D03*
D18*
X146761200Y-64617600D03*
X146761200Y-64109600D03*
X146761200Y-63627000D03*
X146761200Y-63119000D03*
X146761200Y-62611000D03*
X146761200Y-62103000D03*
X146761200Y-61620400D03*
X146761200Y-61112400D03*
D19*
X147472400Y-60401200D03*
X147980400Y-60401200D03*
X148463000Y-60401200D03*
X148971000Y-60401200D03*
X149479000Y-60401200D03*
X149987000Y-60401200D03*
X150469600Y-60401200D03*
X150977600Y-60401200D03*
D20*
X145522000Y-67725000D03*
X145522000Y-69625000D03*
X143322000Y-69625000D03*
X143322000Y-68675000D03*
X143322000Y-67725000D03*
G36*
G01*
X167285250Y-61920000D02*
X166772750Y-61920000D01*
G75*
G02*
X166554000Y-61701250I0J218750D01*
G01*
X166554000Y-61263750D01*
G75*
G02*
X166772750Y-61045000I218750J0D01*
G01*
X167285250Y-61045000D01*
G75*
G02*
X167504000Y-61263750I0J-218750D01*
G01*
X167504000Y-61701250D01*
G75*
G02*
X167285250Y-61920000I-218750J0D01*
G01*
G37*
G36*
G01*
X167285250Y-63495000D02*
X166772750Y-63495000D01*
G75*
G02*
X166554000Y-63276250I0J218750D01*
G01*
X166554000Y-62838750D01*
G75*
G02*
X166772750Y-62620000I218750J0D01*
G01*
X167285250Y-62620000D01*
G75*
G02*
X167504000Y-62838750I0J-218750D01*
G01*
X167504000Y-63276250D01*
G75*
G02*
X167285250Y-63495000I-218750J0D01*
G01*
G37*
G36*
G01*
X163443500Y-68074250D02*
X163443500Y-67561750D01*
G75*
G02*
X163662250Y-67343000I218750J0D01*
G01*
X164099750Y-67343000D01*
G75*
G02*
X164318500Y-67561750I0J-218750D01*
G01*
X164318500Y-68074250D01*
G75*
G02*
X164099750Y-68293000I-218750J0D01*
G01*
X163662250Y-68293000D01*
G75*
G02*
X163443500Y-68074250I0J218750D01*
G01*
G37*
G36*
G01*
X161868500Y-68074250D02*
X161868500Y-67561750D01*
G75*
G02*
X162087250Y-67343000I218750J0D01*
G01*
X162524750Y-67343000D01*
G75*
G02*
X162743500Y-67561750I0J-218750D01*
G01*
X162743500Y-68074250D01*
G75*
G02*
X162524750Y-68293000I-218750J0D01*
G01*
X162087250Y-68293000D01*
G75*
G02*
X161868500Y-68074250I0J218750D01*
G01*
G37*
G36*
G01*
X139008500Y-60708250D02*
X139008500Y-60195750D01*
G75*
G02*
X139227250Y-59977000I218750J0D01*
G01*
X139664750Y-59977000D01*
G75*
G02*
X139883500Y-60195750I0J-218750D01*
G01*
X139883500Y-60708250D01*
G75*
G02*
X139664750Y-60927000I-218750J0D01*
G01*
X139227250Y-60927000D01*
G75*
G02*
X139008500Y-60708250I0J218750D01*
G01*
G37*
G36*
G01*
X137433500Y-60708250D02*
X137433500Y-60195750D01*
G75*
G02*
X137652250Y-59977000I218750J0D01*
G01*
X138089750Y-59977000D01*
G75*
G02*
X138308500Y-60195750I0J-218750D01*
G01*
X138308500Y-60708250D01*
G75*
G02*
X138089750Y-60927000I-218750J0D01*
G01*
X137652250Y-60927000D01*
G75*
G02*
X137433500Y-60708250I0J218750D01*
G01*
G37*
G36*
G01*
X146487500Y-58671750D02*
X146487500Y-59184250D01*
G75*
G02*
X146268750Y-59403000I-218750J0D01*
G01*
X145831250Y-59403000D01*
G75*
G02*
X145612500Y-59184250I0J218750D01*
G01*
X145612500Y-58671750D01*
G75*
G02*
X145831250Y-58453000I218750J0D01*
G01*
X146268750Y-58453000D01*
G75*
G02*
X146487500Y-58671750I0J-218750D01*
G01*
G37*
G36*
G01*
X148062500Y-58671750D02*
X148062500Y-59184250D01*
G75*
G02*
X147843750Y-59403000I-218750J0D01*
G01*
X147406250Y-59403000D01*
G75*
G02*
X147187500Y-59184250I0J218750D01*
G01*
X147187500Y-58671750D01*
G75*
G02*
X147406250Y-58453000I218750J0D01*
G01*
X147843750Y-58453000D01*
G75*
G02*
X148062500Y-58671750I0J-218750D01*
G01*
G37*
G36*
G01*
X144265000Y-65656750D02*
X144265000Y-66169250D01*
G75*
G02*
X144046250Y-66388000I-218750J0D01*
G01*
X143608750Y-66388000D01*
G75*
G02*
X143390000Y-66169250I0J218750D01*
G01*
X143390000Y-65656750D01*
G75*
G02*
X143608750Y-65438000I218750J0D01*
G01*
X144046250Y-65438000D01*
G75*
G02*
X144265000Y-65656750I0J-218750D01*
G01*
G37*
G36*
G01*
X145840000Y-65656750D02*
X145840000Y-66169250D01*
G75*
G02*
X145621250Y-66388000I-218750J0D01*
G01*
X145183750Y-66388000D01*
G75*
G02*
X144965000Y-66169250I0J218750D01*
G01*
X144965000Y-65656750D01*
G75*
G02*
X145183750Y-65438000I218750J0D01*
G01*
X145621250Y-65438000D01*
G75*
G02*
X145840000Y-65656750I0J-218750D01*
G01*
G37*
G36*
G01*
X141376250Y-68960000D02*
X140863750Y-68960000D01*
G75*
G02*
X140645000Y-68741250I0J218750D01*
G01*
X140645000Y-68303750D01*
G75*
G02*
X140863750Y-68085000I218750J0D01*
G01*
X141376250Y-68085000D01*
G75*
G02*
X141595000Y-68303750I0J-218750D01*
G01*
X141595000Y-68741250D01*
G75*
G02*
X141376250Y-68960000I-218750J0D01*
G01*
G37*
G36*
G01*
X141376250Y-70535000D02*
X140863750Y-70535000D01*
G75*
G02*
X140645000Y-70316250I0J218750D01*
G01*
X140645000Y-69878750D01*
G75*
G02*
X140863750Y-69660000I218750J0D01*
G01*
X141376250Y-69660000D01*
G75*
G02*
X141595000Y-69878750I0J-218750D01*
G01*
X141595000Y-70316250D01*
G75*
G02*
X141376250Y-70535000I-218750J0D01*
G01*
G37*
G36*
G01*
X166513750Y-65816500D02*
X167026250Y-65816500D01*
G75*
G02*
X167245000Y-66035250I0J-218750D01*
G01*
X167245000Y-66472750D01*
G75*
G02*
X167026250Y-66691500I-218750J0D01*
G01*
X166513750Y-66691500D01*
G75*
G02*
X166295000Y-66472750I0J218750D01*
G01*
X166295000Y-66035250D01*
G75*
G02*
X166513750Y-65816500I218750J0D01*
G01*
G37*
G36*
G01*
X166513750Y-64241500D02*
X167026250Y-64241500D01*
G75*
G02*
X167245000Y-64460250I0J-218750D01*
G01*
X167245000Y-64897750D01*
G75*
G02*
X167026250Y-65116500I-218750J0D01*
G01*
X166513750Y-65116500D01*
G75*
G02*
X166295000Y-64897750I0J218750D01*
G01*
X166295000Y-64460250D01*
G75*
G02*
X166513750Y-64241500I218750J0D01*
G01*
G37*
G36*
G01*
X158058500Y-63756250D02*
X158058500Y-63243750D01*
G75*
G02*
X158277250Y-63025000I218750J0D01*
G01*
X158714750Y-63025000D01*
G75*
G02*
X158933500Y-63243750I0J-218750D01*
G01*
X158933500Y-63756250D01*
G75*
G02*
X158714750Y-63975000I-218750J0D01*
G01*
X158277250Y-63975000D01*
G75*
G02*
X158058500Y-63756250I0J218750D01*
G01*
G37*
G36*
G01*
X156483500Y-63756250D02*
X156483500Y-63243750D01*
G75*
G02*
X156702250Y-63025000I218750J0D01*
G01*
X157139750Y-63025000D01*
G75*
G02*
X157358500Y-63243750I0J-218750D01*
G01*
X157358500Y-63756250D01*
G75*
G02*
X157139750Y-63975000I-218750J0D01*
G01*
X156702250Y-63975000D01*
G75*
G02*
X156483500Y-63756250I0J218750D01*
G01*
G37*
G36*
G01*
X159187500Y-61719750D02*
X159187500Y-62232250D01*
G75*
G02*
X158968750Y-62451000I-218750J0D01*
G01*
X158531250Y-62451000D01*
G75*
G02*
X158312500Y-62232250I0J218750D01*
G01*
X158312500Y-61719750D01*
G75*
G02*
X158531250Y-61501000I218750J0D01*
G01*
X158968750Y-61501000D01*
G75*
G02*
X159187500Y-61719750I0J-218750D01*
G01*
G37*
G36*
G01*
X160762500Y-61719750D02*
X160762500Y-62232250D01*
G75*
G02*
X160543750Y-62451000I-218750J0D01*
G01*
X160106250Y-62451000D01*
G75*
G02*
X159887500Y-62232250I0J218750D01*
G01*
X159887500Y-61719750D01*
G75*
G02*
X160106250Y-61501000I218750J0D01*
G01*
X160543750Y-61501000D01*
G75*
G02*
X160762500Y-61719750I0J-218750D01*
G01*
G37*
G36*
G01*
X154886500Y-65743750D02*
X154886500Y-66256250D01*
G75*
G02*
X154667750Y-66475000I-218750J0D01*
G01*
X154230250Y-66475000D01*
G75*
G02*
X154011500Y-66256250I0J218750D01*
G01*
X154011500Y-65743750D01*
G75*
G02*
X154230250Y-65525000I218750J0D01*
G01*
X154667750Y-65525000D01*
G75*
G02*
X154886500Y-65743750I0J-218750D01*
G01*
G37*
G36*
G01*
X156461500Y-65743750D02*
X156461500Y-66256250D01*
G75*
G02*
X156242750Y-66475000I-218750J0D01*
G01*
X155805250Y-66475000D01*
G75*
G02*
X155586500Y-66256250I0J218750D01*
G01*
X155586500Y-65743750D01*
G75*
G02*
X155805250Y-65525000I218750J0D01*
G01*
X156242750Y-65525000D01*
G75*
G02*
X156461500Y-65743750I0J-218750D01*
G01*
G37*
G36*
G01*
X148406500Y-69344250D02*
X148406500Y-68831750D01*
G75*
G02*
X148625250Y-68613000I218750J0D01*
G01*
X149062750Y-68613000D01*
G75*
G02*
X149281500Y-68831750I0J-218750D01*
G01*
X149281500Y-69344250D01*
G75*
G02*
X149062750Y-69563000I-218750J0D01*
G01*
X148625250Y-69563000D01*
G75*
G02*
X148406500Y-69344250I0J218750D01*
G01*
G37*
G36*
G01*
X146831500Y-69344250D02*
X146831500Y-68831750D01*
G75*
G02*
X147050250Y-68613000I218750J0D01*
G01*
X147487750Y-68613000D01*
G75*
G02*
X147706500Y-68831750I0J-218750D01*
G01*
X147706500Y-69344250D01*
G75*
G02*
X147487750Y-69563000I-218750J0D01*
G01*
X147050250Y-69563000D01*
G75*
G02*
X146831500Y-69344250I0J218750D01*
G01*
G37*
G36*
G01*
X160260250Y-64230000D02*
X159747750Y-64230000D01*
G75*
G02*
X159529000Y-64011250I0J218750D01*
G01*
X159529000Y-63573750D01*
G75*
G02*
X159747750Y-63355000I218750J0D01*
G01*
X160260250Y-63355000D01*
G75*
G02*
X160479000Y-63573750I0J-218750D01*
G01*
X160479000Y-64011250D01*
G75*
G02*
X160260250Y-64230000I-218750J0D01*
G01*
G37*
G36*
G01*
X160260250Y-65805000D02*
X159747750Y-65805000D01*
G75*
G02*
X159529000Y-65586250I0J218750D01*
G01*
X159529000Y-65148750D01*
G75*
G02*
X159747750Y-64930000I218750J0D01*
G01*
X160260250Y-64930000D01*
G75*
G02*
X160479000Y-65148750I0J-218750D01*
G01*
X160479000Y-65586250D01*
G75*
G02*
X160260250Y-65805000I-218750J0D01*
G01*
G37*
G36*
G01*
X159747750Y-68740000D02*
X160260250Y-68740000D01*
G75*
G02*
X160479000Y-68958750I0J-218750D01*
G01*
X160479000Y-69396250D01*
G75*
G02*
X160260250Y-69615000I-218750J0D01*
G01*
X159747750Y-69615000D01*
G75*
G02*
X159529000Y-69396250I0J218750D01*
G01*
X159529000Y-68958750D01*
G75*
G02*
X159747750Y-68740000I218750J0D01*
G01*
G37*
G36*
G01*
X159747750Y-67165000D02*
X160260250Y-67165000D01*
G75*
G02*
X160479000Y-67383750I0J-218750D01*
G01*
X160479000Y-67821250D01*
G75*
G02*
X160260250Y-68040000I-218750J0D01*
G01*
X159747750Y-68040000D01*
G75*
G02*
X159529000Y-67821250I0J218750D01*
G01*
X159529000Y-67383750D01*
G75*
G02*
X159747750Y-67165000I218750J0D01*
G01*
G37*
G36*
G01*
X162884500Y-59946250D02*
X162884500Y-59433750D01*
G75*
G02*
X163103250Y-59215000I218750J0D01*
G01*
X163540750Y-59215000D01*
G75*
G02*
X163759500Y-59433750I0J-218750D01*
G01*
X163759500Y-59946250D01*
G75*
G02*
X163540750Y-60165000I-218750J0D01*
G01*
X163103250Y-60165000D01*
G75*
G02*
X162884500Y-59946250I0J218750D01*
G01*
G37*
G36*
G01*
X161309500Y-59946250D02*
X161309500Y-59433750D01*
G75*
G02*
X161528250Y-59215000I218750J0D01*
G01*
X161965750Y-59215000D01*
G75*
G02*
X162184500Y-59433750I0J-218750D01*
G01*
X162184500Y-59946250D01*
G75*
G02*
X161965750Y-60165000I-218750J0D01*
G01*
X161528250Y-60165000D01*
G75*
G02*
X161309500Y-59946250I0J218750D01*
G01*
G37*
G36*
G01*
X166661500Y-60256250D02*
X166661500Y-59743750D01*
G75*
G02*
X166880250Y-59525000I218750J0D01*
G01*
X167317750Y-59525000D01*
G75*
G02*
X167536500Y-59743750I0J-218750D01*
G01*
X167536500Y-60256250D01*
G75*
G02*
X167317750Y-60475000I-218750J0D01*
G01*
X166880250Y-60475000D01*
G75*
G02*
X166661500Y-60256250I0J218750D01*
G01*
G37*
G36*
G01*
X165086500Y-60256250D02*
X165086500Y-59743750D01*
G75*
G02*
X165305250Y-59525000I218750J0D01*
G01*
X165742750Y-59525000D01*
G75*
G02*
X165961500Y-59743750I0J-218750D01*
G01*
X165961500Y-60256250D01*
G75*
G02*
X165742750Y-60475000I-218750J0D01*
G01*
X165305250Y-60475000D01*
G75*
G02*
X165086500Y-60256250I0J218750D01*
G01*
G37*
G36*
G01*
X167161500Y-68256250D02*
X167161500Y-67743750D01*
G75*
G02*
X167380250Y-67525000I218750J0D01*
G01*
X167817750Y-67525000D01*
G75*
G02*
X168036500Y-67743750I0J-218750D01*
G01*
X168036500Y-68256250D01*
G75*
G02*
X167817750Y-68475000I-218750J0D01*
G01*
X167380250Y-68475000D01*
G75*
G02*
X167161500Y-68256250I0J218750D01*
G01*
G37*
G36*
G01*
X165586500Y-68256250D02*
X165586500Y-67743750D01*
G75*
G02*
X165805250Y-67525000I218750J0D01*
G01*
X166242750Y-67525000D01*
G75*
G02*
X166461500Y-67743750I0J-218750D01*
G01*
X166461500Y-68256250D01*
G75*
G02*
X166242750Y-68475000I-218750J0D01*
G01*
X165805250Y-68475000D01*
G75*
G02*
X165586500Y-68256250I0J218750D01*
G01*
G37*
M02*
