M48
; DRILL file {KiCad (5.99.0-2415-gbbdd3fce7)} date Monday, August 31, 2020 at 09:49:48 PM
; FORMAT={3:3/ absolute / metric / suppress leading zeros}
; #@! TF.CreationDate,2020-08-31T21:49:48-07:00
; #@! TF.GenerationSoftware,Kicad,Pcbnew,(5.99.0-2415-gbbdd3fce7)
FMAT,2
METRIC,TZ
T1C0.330
T2C0.400
%
G90
G05
T1
X133630Y-80200
X154900Y-64525
X155544Y-57491
X155690Y-80090
X155960Y-61730
X156550Y-64901
X156559Y-63333
X156950Y-61050
X157449Y-57491
X157612Y-63243
X157850Y-58650
X158320Y-56220
X158592Y-63206
X158990Y-64770
X159328Y-61072
X159950Y-61700
X160300Y-63200
X160751Y-56221
X160751Y-58380
X161259Y-61555
X162021Y-52284
X162250Y-61650
X162909Y-56221
X162909Y-58380
X163150Y-60850
X163400Y-64450
X164202Y-54884
X164350Y-59950
X165196Y-58550
X165621Y-56101
X165802Y-56958
X184009Y-52523
X184300Y-57200
X186577Y-80194
X190070Y-65260
X192190Y-64910
X215238Y-80200
X215800Y-59850
X222300Y-64840
X222450Y-61820
T2
X125661Y-52400
X126300Y-60300
X127600Y-64383
X130400Y-62133
X132170Y-64120
X153534Y-52184
X185390Y-53001
X188540Y-57101
X189490Y-62151
X190740Y-57101
X191990Y-52751
X195090Y-53201
X195240Y-62051
X195440Y-55101
X220089Y-55678
T0
M30
