G04 #@! TF.GenerationSoftware,KiCad,Pcbnew,(5.99.0-2415-gbbdd3fce7)*
G04 #@! TF.CreationDate,2020-08-31T21:48:51-07:00*
G04 #@! TF.ProjectId,VineHoop_Islands,56696e65-486f-46f7-905f-49736c616e64,rev?*
G04 #@! TF.SameCoordinates,Original*
G04 #@! TF.FileFunction,Legend,Top*
G04 #@! TF.FilePolarity,Positive*
%FSLAX46Y46*%
G04 Gerber Fmt 4.6, Leading zero omitted, Abs format (unit mm)*
G04 Created by KiCad (PCBNEW (5.99.0-2415-gbbdd3fce7)) date 2020-08-31 21:48:51*
%MOMM*%
%LPD*%
G01*
G04 APERTURE LIST*
%ADD10C,0.500000*%
%ADD11C,0.381000*%
%ADD12C,0.150000*%
%ADD13C,0.254000*%
%ADD14C,0.149860*%
%ADD15C,0.120000*%
%ADD16C,0.100000*%
%ADD17C,0.152400*%
%ADD18C,0.200000*%
%ADD19C,0.127000*%
%ADD20C,0.304800*%
%ADD21C,0.250000*%
G04 APERTURE END LIST*
D10*
X127050000Y-52360000D02*
G75*
G03*
X127050000Y-52360000I-150000J0D01*
G01*
D11*
X165290000Y-59400000D02*
G75*
G03*
X165290000Y-59400000I-150000J0D01*
G01*
D12*
X220873333Y-65117142D02*
X220825714Y-65164761D01*
X220682857Y-65212380D01*
X220587619Y-65212380D01*
X220444761Y-65164761D01*
X220349523Y-65069523D01*
X220301904Y-64974285D01*
X220254285Y-64783809D01*
X220254285Y-64640952D01*
X220301904Y-64450476D01*
X220349523Y-64355238D01*
X220444761Y-64260000D01*
X220587619Y-64212380D01*
X220682857Y-64212380D01*
X220825714Y-64260000D01*
X220873333Y-64307619D01*
X221349523Y-65212380D02*
X221540000Y-65212380D01*
X221635238Y-65164761D01*
X221682857Y-65117142D01*
X221778095Y-64974285D01*
X221825714Y-64783809D01*
X221825714Y-64402857D01*
X221778095Y-64307619D01*
X221730476Y-64260000D01*
X221635238Y-64212380D01*
X221444761Y-64212380D01*
X221349523Y-64260000D01*
X221301904Y-64307619D01*
X221254285Y-64402857D01*
X221254285Y-64640952D01*
X221301904Y-64736190D01*
X221349523Y-64783809D01*
X221444761Y-64831428D01*
X221635238Y-64831428D01*
X221730476Y-64783809D01*
X221778095Y-64736190D01*
X221825714Y-64640952D01*
X220893333Y-62357142D02*
X220845714Y-62404761D01*
X220702857Y-62452380D01*
X220607619Y-62452380D01*
X220464761Y-62404761D01*
X220369523Y-62309523D01*
X220321904Y-62214285D01*
X220274285Y-62023809D01*
X220274285Y-61880952D01*
X220321904Y-61690476D01*
X220369523Y-61595238D01*
X220464761Y-61500000D01*
X220607619Y-61452380D01*
X220702857Y-61452380D01*
X220845714Y-61500000D01*
X220893333Y-61547619D01*
X221464761Y-61880952D02*
X221369523Y-61833333D01*
X221321904Y-61785714D01*
X221274285Y-61690476D01*
X221274285Y-61642857D01*
X221321904Y-61547619D01*
X221369523Y-61500000D01*
X221464761Y-61452380D01*
X221655238Y-61452380D01*
X221750476Y-61500000D01*
X221798095Y-61547619D01*
X221845714Y-61642857D01*
X221845714Y-61690476D01*
X221798095Y-61785714D01*
X221750476Y-61833333D01*
X221655238Y-61880952D01*
X221464761Y-61880952D01*
X221369523Y-61928571D01*
X221321904Y-61976190D01*
X221274285Y-62071428D01*
X221274285Y-62261904D01*
X221321904Y-62357142D01*
X221369523Y-62404761D01*
X221464761Y-62452380D01*
X221655238Y-62452380D01*
X221750476Y-62404761D01*
X221798095Y-62357142D01*
X221845714Y-62261904D01*
X221845714Y-62071428D01*
X221798095Y-61976190D01*
X221750476Y-61928571D01*
X221655238Y-61880952D01*
D13*
X129345624Y-55310133D02*
X130252767Y-55310133D01*
X130434196Y-55370609D01*
X130555148Y-55491561D01*
X130615624Y-55672990D01*
X130615624Y-55793942D01*
X130615624Y-54040133D02*
X130615624Y-54765847D01*
X130615624Y-54402990D02*
X129345624Y-54402990D01*
X129527053Y-54523942D01*
X129648005Y-54644895D01*
X129708481Y-54765847D01*
D12*
X196403333Y-61387142D02*
X196355714Y-61434761D01*
X196212857Y-61482380D01*
X196117619Y-61482380D01*
X195974761Y-61434761D01*
X195879523Y-61339523D01*
X195831904Y-61244285D01*
X195784285Y-61053809D01*
X195784285Y-60910952D01*
X195831904Y-60720476D01*
X195879523Y-60625238D01*
X195974761Y-60530000D01*
X196117619Y-60482380D01*
X196212857Y-60482380D01*
X196355714Y-60530000D01*
X196403333Y-60577619D01*
X197355714Y-61482380D02*
X196784285Y-61482380D01*
X197070000Y-61482380D02*
X197070000Y-60482380D01*
X196974761Y-60625238D01*
X196879523Y-60720476D01*
X196784285Y-60768095D01*
X189293333Y-62537142D02*
X189245714Y-62584761D01*
X189102857Y-62632380D01*
X189007619Y-62632380D01*
X188864761Y-62584761D01*
X188769523Y-62489523D01*
X188721904Y-62394285D01*
X188674285Y-62203809D01*
X188674285Y-62060952D01*
X188721904Y-61870476D01*
X188769523Y-61775238D01*
X188864761Y-61680000D01*
X189007619Y-61632380D01*
X189102857Y-61632380D01*
X189245714Y-61680000D01*
X189293333Y-61727619D01*
X189674285Y-61727619D02*
X189721904Y-61680000D01*
X189817142Y-61632380D01*
X190055238Y-61632380D01*
X190150476Y-61680000D01*
X190198095Y-61727619D01*
X190245714Y-61822857D01*
X190245714Y-61918095D01*
X190198095Y-62060952D01*
X189626666Y-62632380D01*
X190245714Y-62632380D01*
X164883333Y-54367142D02*
X164835714Y-54414761D01*
X164692857Y-54462380D01*
X164597619Y-54462380D01*
X164454761Y-54414761D01*
X164359523Y-54319523D01*
X164311904Y-54224285D01*
X164264285Y-54033809D01*
X164264285Y-53890952D01*
X164311904Y-53700476D01*
X164359523Y-53605238D01*
X164454761Y-53510000D01*
X164597619Y-53462380D01*
X164692857Y-53462380D01*
X164835714Y-53510000D01*
X164883333Y-53557619D01*
X165216666Y-53462380D02*
X165883333Y-53462380D01*
X165454761Y-54462380D01*
X197109680Y-57706566D02*
X196633490Y-58039900D01*
X197109680Y-58277995D02*
X196109680Y-58277995D01*
X196109680Y-57897042D01*
X196157300Y-57801804D01*
X196204919Y-57754185D01*
X196300157Y-57706566D01*
X196443014Y-57706566D01*
X196538252Y-57754185D01*
X196585871Y-57801804D01*
X196633490Y-57897042D01*
X196633490Y-58277995D01*
X196109680Y-56801804D02*
X196109680Y-57277995D01*
X196585871Y-57325614D01*
X196538252Y-57277995D01*
X196490633Y-57182757D01*
X196490633Y-56944661D01*
X196538252Y-56849423D01*
X196585871Y-56801804D01*
X196681109Y-56754185D01*
X196919204Y-56754185D01*
X197014442Y-56801804D01*
X197062061Y-56849423D01*
X197109680Y-56944661D01*
X197109680Y-57182757D01*
X197062061Y-57277995D01*
X197014442Y-57325614D01*
X184412580Y-55130266D02*
X183936390Y-55463600D01*
X184412580Y-55701695D02*
X183412580Y-55701695D01*
X183412580Y-55320742D01*
X183460200Y-55225504D01*
X183507819Y-55177885D01*
X183603057Y-55130266D01*
X183745914Y-55130266D01*
X183841152Y-55177885D01*
X183888771Y-55225504D01*
X183936390Y-55320742D01*
X183936390Y-55701695D01*
X183841152Y-54558838D02*
X183793533Y-54654076D01*
X183745914Y-54701695D01*
X183650676Y-54749314D01*
X183603057Y-54749314D01*
X183507819Y-54701695D01*
X183460200Y-54654076D01*
X183412580Y-54558838D01*
X183412580Y-54368361D01*
X183460200Y-54273123D01*
X183507819Y-54225504D01*
X183603057Y-54177885D01*
X183650676Y-54177885D01*
X183745914Y-54225504D01*
X183793533Y-54273123D01*
X183841152Y-54368361D01*
X183841152Y-54558838D01*
X183888771Y-54654076D01*
X183936390Y-54701695D01*
X184031628Y-54749314D01*
X184222104Y-54749314D01*
X184317342Y-54701695D01*
X184364961Y-54654076D01*
X184412580Y-54558838D01*
X184412580Y-54368361D01*
X184364961Y-54273123D01*
X184317342Y-54225504D01*
X184222104Y-54177885D01*
X184031628Y-54177885D01*
X183936390Y-54225504D01*
X183888771Y-54273123D01*
X183841152Y-54368361D01*
X221893333Y-56142380D02*
X221560000Y-55666190D01*
X221321904Y-56142380D02*
X221321904Y-55142380D01*
X221702857Y-55142380D01*
X221798095Y-55190000D01*
X221845714Y-55237619D01*
X221893333Y-55332857D01*
X221893333Y-55475714D01*
X221845714Y-55570952D01*
X221798095Y-55618571D01*
X221702857Y-55666190D01*
X221321904Y-55666190D01*
X222226666Y-55142380D02*
X222845714Y-55142380D01*
X222512380Y-55523333D01*
X222655238Y-55523333D01*
X222750476Y-55570952D01*
X222798095Y-55618571D01*
X222845714Y-55713809D01*
X222845714Y-55951904D01*
X222798095Y-56047142D01*
X222750476Y-56094761D01*
X222655238Y-56142380D01*
X222369523Y-56142380D01*
X222274285Y-56094761D01*
X222226666Y-56047142D01*
D14*
X158892380Y-60474523D02*
X158892380Y-61502619D01*
X158952857Y-61623571D01*
X159013333Y-61684047D01*
X159134285Y-61744523D01*
X159376190Y-61744523D01*
X159497142Y-61684047D01*
X159557619Y-61623571D01*
X159618095Y-61502619D01*
X159618095Y-60474523D01*
X160767142Y-60897857D02*
X160767142Y-61744523D01*
X160464761Y-60414047D02*
X160162380Y-61321190D01*
X160948571Y-61321190D01*
D12*
X217830476Y-55311904D02*
X217830476Y-55959523D01*
X217868571Y-56035714D01*
X217906666Y-56073809D01*
X217982857Y-56111904D01*
X218135238Y-56111904D01*
X218211428Y-56073809D01*
X218249523Y-56035714D01*
X218287619Y-55959523D01*
X218287619Y-55311904D01*
X218630476Y-55388095D02*
X218668571Y-55350000D01*
X218744761Y-55311904D01*
X218935238Y-55311904D01*
X219011428Y-55350000D01*
X219049523Y-55388095D01*
X219087619Y-55464285D01*
X219087619Y-55540476D01*
X219049523Y-55654761D01*
X218592380Y-56111904D01*
X219087619Y-56111904D01*
D14*
X185053327Y-59798328D02*
X185053327Y-60608668D01*
X185100994Y-60704002D01*
X185148661Y-60751669D01*
X185243995Y-60799336D01*
X185434663Y-60799336D01*
X185529997Y-60751669D01*
X185577664Y-60704002D01*
X185625331Y-60608668D01*
X185625331Y-59798328D01*
X186006668Y-59798328D02*
X186626339Y-59798328D01*
X186292670Y-60179665D01*
X186435671Y-60179665D01*
X186531005Y-60227332D01*
X186578672Y-60274999D01*
X186626339Y-60370333D01*
X186626339Y-60608668D01*
X186578672Y-60704002D01*
X186531005Y-60751669D01*
X186435671Y-60799336D01*
X186149669Y-60799336D01*
X186054335Y-60751669D01*
X186006668Y-60704002D01*
D12*
X187673533Y-63803480D02*
X187340200Y-63327290D01*
X187102104Y-63803480D02*
X187102104Y-62803480D01*
X187483057Y-62803480D01*
X187578295Y-62851100D01*
X187625914Y-62898719D01*
X187673533Y-62993957D01*
X187673533Y-63136814D01*
X187625914Y-63232052D01*
X187578295Y-63279671D01*
X187483057Y-63327290D01*
X187102104Y-63327290D01*
X188625914Y-63803480D02*
X188054485Y-63803480D01*
X188340200Y-63803480D02*
X188340200Y-62803480D01*
X188244961Y-62946338D01*
X188149723Y-63041576D01*
X188054485Y-63089195D01*
X160967142Y-64842380D02*
X160633809Y-64366190D01*
X160395714Y-64842380D02*
X160395714Y-63842380D01*
X160776666Y-63842380D01*
X160871904Y-63890000D01*
X160919523Y-63937619D01*
X160967142Y-64032857D01*
X160967142Y-64175714D01*
X160919523Y-64270952D01*
X160871904Y-64318571D01*
X160776666Y-64366190D01*
X160395714Y-64366190D01*
X161919523Y-64842380D02*
X161348095Y-64842380D01*
X161633809Y-64842380D02*
X161633809Y-63842380D01*
X161538571Y-63985238D01*
X161443333Y-64080476D01*
X161348095Y-64128095D01*
X162538571Y-63842380D02*
X162633809Y-63842380D01*
X162729047Y-63890000D01*
X162776666Y-63937619D01*
X162824285Y-64032857D01*
X162871904Y-64223333D01*
X162871904Y-64461428D01*
X162824285Y-64651904D01*
X162776666Y-64747142D01*
X162729047Y-64794761D01*
X162633809Y-64842380D01*
X162538571Y-64842380D01*
X162443333Y-64794761D01*
X162395714Y-64747142D01*
X162348095Y-64651904D01*
X162300476Y-64461428D01*
X162300476Y-64223333D01*
X162348095Y-64032857D01*
X162395714Y-63937619D01*
X162443333Y-63890000D01*
X162538571Y-63842380D01*
X215721933Y-60505080D02*
X215388600Y-60028890D01*
X215150504Y-60505080D02*
X215150504Y-59505080D01*
X215531457Y-59505080D01*
X215626695Y-59552700D01*
X215674314Y-59600319D01*
X215721933Y-59695557D01*
X215721933Y-59838414D01*
X215674314Y-59933652D01*
X215626695Y-59981271D01*
X215531457Y-60028890D01*
X215150504Y-60028890D01*
X216102885Y-59600319D02*
X216150504Y-59552700D01*
X216245742Y-59505080D01*
X216483838Y-59505080D01*
X216579076Y-59552700D01*
X216626695Y-59600319D01*
X216674314Y-59695557D01*
X216674314Y-59790795D01*
X216626695Y-59933652D01*
X216055266Y-60505080D01*
X216674314Y-60505080D01*
X187935333Y-52734380D02*
X187602000Y-52258190D01*
X187363904Y-52734380D02*
X187363904Y-51734380D01*
X187744857Y-51734380D01*
X187840095Y-51782000D01*
X187887714Y-51829619D01*
X187935333Y-51924857D01*
X187935333Y-52067714D01*
X187887714Y-52162952D01*
X187840095Y-52210571D01*
X187744857Y-52258190D01*
X187363904Y-52258190D01*
X188792476Y-51734380D02*
X188602000Y-51734380D01*
X188506761Y-51782000D01*
X188459142Y-51829619D01*
X188363904Y-51972476D01*
X188316285Y-52162952D01*
X188316285Y-52543904D01*
X188363904Y-52639142D01*
X188411523Y-52686761D01*
X188506761Y-52734380D01*
X188697238Y-52734380D01*
X188792476Y-52686761D01*
X188840095Y-52639142D01*
X188887714Y-52543904D01*
X188887714Y-52305809D01*
X188840095Y-52210571D01*
X188792476Y-52162952D01*
X188697238Y-52115333D01*
X188506761Y-52115333D01*
X188411523Y-52162952D01*
X188363904Y-52210571D01*
X188316285Y-52305809D01*
X195666380Y-53464666D02*
X195190190Y-53798000D01*
X195666380Y-54036095D02*
X194666380Y-54036095D01*
X194666380Y-53655142D01*
X194714000Y-53559904D01*
X194761619Y-53512285D01*
X194856857Y-53464666D01*
X194999714Y-53464666D01*
X195094952Y-53512285D01*
X195142571Y-53559904D01*
X195190190Y-53655142D01*
X195190190Y-54036095D01*
X194666380Y-53131333D02*
X194666380Y-52464666D01*
X195666380Y-52893238D01*
X190423533Y-52808242D02*
X190375914Y-52855861D01*
X190233057Y-52903480D01*
X190137819Y-52903480D01*
X189994961Y-52855861D01*
X189899723Y-52760623D01*
X189852104Y-52665385D01*
X189804485Y-52474909D01*
X189804485Y-52332052D01*
X189852104Y-52141576D01*
X189899723Y-52046338D01*
X189994961Y-51951100D01*
X190137819Y-51903480D01*
X190233057Y-51903480D01*
X190375914Y-51951100D01*
X190423533Y-51998719D01*
X191280676Y-52236814D02*
X191280676Y-52903480D01*
X191042580Y-51855861D02*
X190804485Y-52570147D01*
X191423533Y-52570147D01*
X184542580Y-58317766D02*
X184066390Y-58651100D01*
X184542580Y-58889195D02*
X183542580Y-58889195D01*
X183542580Y-58508242D01*
X183590200Y-58413004D01*
X183637819Y-58365385D01*
X183733057Y-58317766D01*
X183875914Y-58317766D01*
X183971152Y-58365385D01*
X184018771Y-58413004D01*
X184066390Y-58508242D01*
X184066390Y-58889195D01*
X183875914Y-57460623D02*
X184542580Y-57460623D01*
X183494961Y-57698719D02*
X184209247Y-57936814D01*
X184209247Y-57317766D01*
X133353333Y-61697142D02*
X133305714Y-61744761D01*
X133162857Y-61792380D01*
X133067619Y-61792380D01*
X132924761Y-61744761D01*
X132829523Y-61649523D01*
X132781904Y-61554285D01*
X132734285Y-61363809D01*
X132734285Y-61220952D01*
X132781904Y-61030476D01*
X132829523Y-60935238D01*
X132924761Y-60840000D01*
X133067619Y-60792380D01*
X133162857Y-60792380D01*
X133305714Y-60840000D01*
X133353333Y-60887619D01*
X134258095Y-60792380D02*
X133781904Y-60792380D01*
X133734285Y-61268571D01*
X133781904Y-61220952D01*
X133877142Y-61173333D01*
X134115238Y-61173333D01*
X134210476Y-61220952D01*
X134258095Y-61268571D01*
X134305714Y-61363809D01*
X134305714Y-61601904D01*
X134258095Y-61697142D01*
X134210476Y-61744761D01*
X134115238Y-61792380D01*
X133877142Y-61792380D01*
X133781904Y-61744761D01*
X133734285Y-61697142D01*
X128537994Y-64094183D02*
X128537994Y-64903707D01*
X128585613Y-64998945D01*
X128633232Y-65046564D01*
X128728470Y-65094183D01*
X128918946Y-65094183D01*
X129014184Y-65046564D01*
X129061803Y-64998945D01*
X129109422Y-64903707D01*
X129109422Y-64094183D01*
X130109422Y-65094183D02*
X129537994Y-65094183D01*
X129823708Y-65094183D02*
X129823708Y-64094183D01*
X129728470Y-64237041D01*
X129633232Y-64332279D01*
X129537994Y-64379898D01*
X152541904Y-53582380D02*
X152541904Y-52582380D01*
X152780000Y-52582380D01*
X152922857Y-52630000D01*
X153018095Y-52725238D01*
X153065714Y-52820476D01*
X153113333Y-53010952D01*
X153113333Y-53153809D01*
X153065714Y-53344285D01*
X153018095Y-53439523D01*
X152922857Y-53534761D01*
X152780000Y-53582380D01*
X152541904Y-53582380D01*
X153494285Y-52677619D02*
X153541904Y-52630000D01*
X153637142Y-52582380D01*
X153875238Y-52582380D01*
X153970476Y-52630000D01*
X154018095Y-52677619D01*
X154065714Y-52772857D01*
X154065714Y-52868095D01*
X154018095Y-53010952D01*
X153446666Y-53582380D01*
X154065714Y-53582380D01*
X158517142Y-54072380D02*
X158183809Y-53596190D01*
X157945714Y-54072380D02*
X157945714Y-53072380D01*
X158326666Y-53072380D01*
X158421904Y-53120000D01*
X158469523Y-53167619D01*
X158517142Y-53262857D01*
X158517142Y-53405714D01*
X158469523Y-53500952D01*
X158421904Y-53548571D01*
X158326666Y-53596190D01*
X157945714Y-53596190D01*
X159469523Y-54072380D02*
X158898095Y-54072380D01*
X159183809Y-54072380D02*
X159183809Y-53072380D01*
X159088571Y-53215238D01*
X158993333Y-53310476D01*
X158898095Y-53358095D01*
X160421904Y-54072380D02*
X159850476Y-54072380D01*
X160136190Y-54072380D02*
X160136190Y-53072380D01*
X160040952Y-53215238D01*
X159945714Y-53310476D01*
X159850476Y-53358095D01*
X126761904Y-61042380D02*
X126761904Y-60042380D01*
X127000000Y-60042380D01*
X127142857Y-60090000D01*
X127238095Y-60185238D01*
X127285714Y-60280476D01*
X127333333Y-60470952D01*
X127333333Y-60613809D01*
X127285714Y-60804285D01*
X127238095Y-60899523D01*
X127142857Y-60994761D01*
X127000000Y-61042380D01*
X126761904Y-61042380D01*
X128285714Y-61042380D02*
X127714285Y-61042380D01*
X128000000Y-61042380D02*
X128000000Y-60042380D01*
X127904761Y-60185238D01*
X127809523Y-60280476D01*
X127714285Y-60328095D01*
X133150733Y-59652380D02*
X132817400Y-59176190D01*
X132579304Y-59652380D02*
X132579304Y-58652380D01*
X132960257Y-58652380D01*
X133055495Y-58700000D01*
X133103114Y-58747619D01*
X133150733Y-58842857D01*
X133150733Y-58985714D01*
X133103114Y-59080952D01*
X133055495Y-59128571D01*
X132960257Y-59176190D01*
X132579304Y-59176190D01*
X133626923Y-59652380D02*
X133817400Y-59652380D01*
X133912638Y-59604761D01*
X133960257Y-59557142D01*
X134055495Y-59414285D01*
X134103114Y-59223809D01*
X134103114Y-58842857D01*
X134055495Y-58747619D01*
X134007876Y-58700000D01*
X133912638Y-58652380D01*
X133722161Y-58652380D01*
X133626923Y-58700000D01*
X133579304Y-58747619D01*
X133531685Y-58842857D01*
X133531685Y-59080952D01*
X133579304Y-59176190D01*
X133626923Y-59223809D01*
X133722161Y-59271428D01*
X133912638Y-59271428D01*
X134007876Y-59223809D01*
X134055495Y-59176190D01*
X134103114Y-59080952D01*
X194323533Y-59758242D02*
X194275914Y-59805861D01*
X194133057Y-59853480D01*
X194037819Y-59853480D01*
X193894961Y-59805861D01*
X193799723Y-59710623D01*
X193752104Y-59615385D01*
X193704485Y-59424909D01*
X193704485Y-59282052D01*
X193752104Y-59091576D01*
X193799723Y-58996338D01*
X193894961Y-58901100D01*
X194037819Y-58853480D01*
X194133057Y-58853480D01*
X194275914Y-58901100D01*
X194323533Y-58948719D01*
X195180676Y-58853480D02*
X194990200Y-58853480D01*
X194894961Y-58901100D01*
X194847342Y-58948719D01*
X194752104Y-59091576D01*
X194704485Y-59282052D01*
X194704485Y-59663004D01*
X194752104Y-59758242D01*
X194799723Y-59805861D01*
X194894961Y-59853480D01*
X195085438Y-59853480D01*
X195180676Y-59805861D01*
X195228295Y-59758242D01*
X195275914Y-59663004D01*
X195275914Y-59424909D01*
X195228295Y-59329671D01*
X195180676Y-59282052D01*
X195085438Y-59234433D01*
X194894961Y-59234433D01*
X194799723Y-59282052D01*
X194752104Y-59329671D01*
X194704485Y-59424909D01*
X152362380Y-57668690D02*
X153076666Y-57668690D01*
X153219523Y-57716309D01*
X153314761Y-57811547D01*
X153362380Y-57954404D01*
X153362380Y-58049642D01*
X152457619Y-57240119D02*
X152410000Y-57192500D01*
X152362380Y-57097261D01*
X152362380Y-56859166D01*
X152410000Y-56763928D01*
X152457619Y-56716309D01*
X152552857Y-56668690D01*
X152648095Y-56668690D01*
X152790952Y-56716309D01*
X153362380Y-57287738D01*
X153362380Y-56668690D01*
D14*
X191455809Y-64577190D02*
X191455809Y-65053380D01*
X191122476Y-64053380D02*
X191455809Y-64577190D01*
X191789142Y-64053380D01*
X192646285Y-65053380D02*
X192074857Y-65053380D01*
X192360571Y-65053380D02*
X192360571Y-64053380D01*
X192265333Y-64196238D01*
X192170095Y-64291476D01*
X192074857Y-64339095D01*
D12*
X162540533Y-80934400D02*
X162540533Y-80528000D01*
X163251733Y-80731200D02*
X162540533Y-80731200D01*
X163251733Y-80290933D02*
X162540533Y-80290933D01*
X162879200Y-80290933D02*
X162879200Y-79884533D01*
X163251733Y-79884533D02*
X162540533Y-79884533D01*
X162608266Y-79579733D02*
X162574400Y-79545866D01*
X162540533Y-79478133D01*
X162540533Y-79308800D01*
X162574400Y-79241066D01*
X162608266Y-79207200D01*
X162676000Y-79173333D01*
X162743733Y-79173333D01*
X162845333Y-79207200D01*
X163251733Y-79613600D01*
X163251733Y-79173333D01*
X222000533Y-80934400D02*
X222000533Y-80528000D01*
X222711733Y-80731200D02*
X222000533Y-80731200D01*
X222711733Y-80290933D02*
X222000533Y-80290933D01*
X222339200Y-80290933D02*
X222339200Y-79884533D01*
X222711733Y-79884533D02*
X222000533Y-79884533D01*
X222237600Y-79241066D02*
X222711733Y-79241066D01*
X221966666Y-79410400D02*
X222474666Y-79579733D01*
X222474666Y-79139466D01*
X193550533Y-80984400D02*
X193550533Y-80578000D01*
X194261733Y-80781200D02*
X193550533Y-80781200D01*
X194261733Y-80340933D02*
X193550533Y-80340933D01*
X193889200Y-80340933D02*
X193889200Y-79934533D01*
X194261733Y-79934533D02*
X193550533Y-79934533D01*
X193550533Y-79663600D02*
X193550533Y-79223333D01*
X193821466Y-79460400D01*
X193821466Y-79358800D01*
X193855333Y-79291066D01*
X193889200Y-79257200D01*
X193956933Y-79223333D01*
X194126266Y-79223333D01*
X194194000Y-79257200D01*
X194227866Y-79291066D01*
X194261733Y-79358800D01*
X194261733Y-79562000D01*
X194227866Y-79629733D01*
X194194000Y-79663600D01*
X125986666Y-80810000D02*
X125986666Y-80410000D01*
X126686666Y-80610000D02*
X125986666Y-80610000D01*
X126686666Y-80176666D02*
X125986666Y-80176666D01*
X126320000Y-80176666D02*
X126320000Y-79776666D01*
X126686666Y-79776666D02*
X125986666Y-79776666D01*
X126686666Y-79076666D02*
X126686666Y-79476666D01*
X126686666Y-79276666D02*
X125986666Y-79276666D01*
X126086666Y-79343333D01*
X126153333Y-79410000D01*
X126186666Y-79476666D01*
X218032800Y-79221733D02*
X217795733Y-78883066D01*
X217626400Y-79221733D02*
X217626400Y-78510533D01*
X217897333Y-78510533D01*
X217965066Y-78544400D01*
X217998933Y-78578266D01*
X218032800Y-78646000D01*
X218032800Y-78747600D01*
X217998933Y-78815333D01*
X217965066Y-78849200D01*
X217897333Y-78883066D01*
X217626400Y-78883066D01*
X218710133Y-79221733D02*
X218303733Y-79221733D01*
X218506933Y-79221733D02*
X218506933Y-78510533D01*
X218439200Y-78612133D01*
X218371466Y-78679866D01*
X218303733Y-78713733D01*
X219353600Y-78510533D02*
X219014933Y-78510533D01*
X218981066Y-78849200D01*
X219014933Y-78815333D01*
X219082666Y-78781466D01*
X219252000Y-78781466D01*
X219319733Y-78815333D01*
X219353600Y-78849200D01*
X219387466Y-78916933D01*
X219387466Y-79086266D01*
X219353600Y-79154000D01*
X219319733Y-79187866D01*
X219252000Y-79221733D01*
X219082666Y-79221733D01*
X219014933Y-79187866D01*
X218981066Y-79154000D01*
X129890000Y-79266666D02*
X129656666Y-78933333D01*
X129490000Y-79266666D02*
X129490000Y-78566666D01*
X129756666Y-78566666D01*
X129823333Y-78600000D01*
X129856666Y-78633333D01*
X129890000Y-78700000D01*
X129890000Y-78800000D01*
X129856666Y-78866666D01*
X129823333Y-78900000D01*
X129756666Y-78933333D01*
X129490000Y-78933333D01*
X130556666Y-79266666D02*
X130156666Y-79266666D01*
X130356666Y-79266666D02*
X130356666Y-78566666D01*
X130290000Y-78666666D01*
X130223333Y-78733333D01*
X130156666Y-78766666D01*
X130823333Y-78633333D02*
X130856666Y-78600000D01*
X130923333Y-78566666D01*
X131090000Y-78566666D01*
X131156666Y-78600000D01*
X131190000Y-78633333D01*
X131223333Y-78700000D01*
X131223333Y-78766666D01*
X131190000Y-78866666D01*
X130790000Y-79266666D01*
X131223333Y-79266666D01*
X158572800Y-79181733D02*
X158335733Y-78843066D01*
X158166400Y-79181733D02*
X158166400Y-78470533D01*
X158437333Y-78470533D01*
X158505066Y-78504400D01*
X158538933Y-78538266D01*
X158572800Y-78606000D01*
X158572800Y-78707600D01*
X158538933Y-78775333D01*
X158505066Y-78809200D01*
X158437333Y-78843066D01*
X158166400Y-78843066D01*
X159250133Y-79181733D02*
X158843733Y-79181733D01*
X159046933Y-79181733D02*
X159046933Y-78470533D01*
X158979200Y-78572133D01*
X158911466Y-78639866D01*
X158843733Y-78673733D01*
X159487200Y-78470533D02*
X159927466Y-78470533D01*
X159690400Y-78741466D01*
X159792000Y-78741466D01*
X159859733Y-78775333D01*
X159893600Y-78809200D01*
X159927466Y-78876933D01*
X159927466Y-79046266D01*
X159893600Y-79114000D01*
X159859733Y-79147866D01*
X159792000Y-79181733D01*
X159588800Y-79181733D01*
X159521066Y-79147866D01*
X159487200Y-79114000D01*
X189582800Y-79241733D02*
X189345733Y-78903066D01*
X189176400Y-79241733D02*
X189176400Y-78530533D01*
X189447333Y-78530533D01*
X189515066Y-78564400D01*
X189548933Y-78598266D01*
X189582800Y-78666000D01*
X189582800Y-78767600D01*
X189548933Y-78835333D01*
X189515066Y-78869200D01*
X189447333Y-78903066D01*
X189176400Y-78903066D01*
X190260133Y-79241733D02*
X189853733Y-79241733D01*
X190056933Y-79241733D02*
X190056933Y-78530533D01*
X189989200Y-78632133D01*
X189921466Y-78699866D01*
X189853733Y-78733733D01*
X190869733Y-78767600D02*
X190869733Y-79241733D01*
X190700400Y-78496666D02*
X190531066Y-79004666D01*
X190971333Y-79004666D01*
X125623333Y-65437142D02*
X125575714Y-65484761D01*
X125432857Y-65532380D01*
X125337619Y-65532380D01*
X125194761Y-65484761D01*
X125099523Y-65389523D01*
X125051904Y-65294285D01*
X125004285Y-65103809D01*
X125004285Y-64960952D01*
X125051904Y-64770476D01*
X125099523Y-64675238D01*
X125194761Y-64580000D01*
X125337619Y-64532380D01*
X125432857Y-64532380D01*
X125575714Y-64580000D01*
X125623333Y-64627619D01*
X125956666Y-64532380D02*
X126575714Y-64532380D01*
X126242380Y-64913333D01*
X126385238Y-64913333D01*
X126480476Y-64960952D01*
X126528095Y-65008571D01*
X126575714Y-65103809D01*
X126575714Y-65341904D01*
X126528095Y-65437142D01*
X126480476Y-65484761D01*
X126385238Y-65532380D01*
X126099523Y-65532380D01*
X126004285Y-65484761D01*
X125956666Y-65437142D01*
D15*
X220887221Y-63790000D02*
X221212779Y-63790000D01*
X220887221Y-62770000D02*
X221212779Y-62770000D01*
X221222779Y-60060000D02*
X220897221Y-60060000D01*
X221222779Y-61080000D02*
X220897221Y-61080000D01*
D16*
X132456101Y-52526800D02*
X127626101Y-52526800D01*
X127626101Y-52526800D02*
X127626101Y-52656800D01*
X132456101Y-52656800D02*
X132456101Y-52526800D01*
X127626101Y-57246800D02*
X127626101Y-57156800D01*
X132456101Y-57246800D02*
X127626101Y-57246800D01*
X132456101Y-57156800D02*
X132456101Y-57246800D01*
D15*
X193972221Y-60170000D02*
X194297779Y-60170000D01*
X193972221Y-61190000D02*
X194297779Y-61190000D01*
X190487779Y-60170000D02*
X190162221Y-60170000D01*
X190487779Y-61190000D02*
X190162221Y-61190000D01*
X163864221Y-51983000D02*
X164189779Y-51983000D01*
X163864221Y-53003000D02*
X164189779Y-53003000D01*
X194488021Y-56013900D02*
X194813579Y-56013900D01*
X194488021Y-57033900D02*
X194813579Y-57033900D01*
X185900200Y-55126379D02*
X185900200Y-54800821D01*
X184880200Y-55126379D02*
X184880200Y-54800821D01*
X221778600Y-57965479D02*
X221778600Y-57639921D01*
X222798600Y-57965479D02*
X222798600Y-57639921D01*
D17*
X159531300Y-54779000D02*
X159226500Y-54779000D01*
X159226500Y-54779000D02*
X159226500Y-55083800D01*
X159226500Y-59859000D02*
X159531300Y-59859000D01*
X164306500Y-54779000D02*
X164001700Y-54779000D01*
X159226500Y-59554200D02*
X159226500Y-59859000D01*
X164306500Y-59859000D02*
X164306500Y-59554200D01*
X164001700Y-59859000D02*
X164306500Y-59859000D01*
X164306500Y-55083800D02*
X164306500Y-54779000D01*
D16*
X217725000Y-56575000D02*
X217725000Y-56650000D01*
X220225000Y-56575000D02*
X220225000Y-56650000D01*
X220225000Y-56575000D02*
X217725000Y-56575000D01*
X217725000Y-59075000D02*
X217725000Y-59000000D01*
X220225000Y-59075000D02*
X220225000Y-59000000D01*
X217725000Y-59075000D02*
X220225000Y-59075000D01*
D18*
X216975000Y-56825000D02*
G75*
G03*
X216975000Y-56825000I-100000J0D01*
G01*
D19*
X192250000Y-59000000D02*
X192250000Y-55200000D01*
X187050000Y-59000000D02*
X192250000Y-59000000D01*
X187050000Y-55200000D02*
X187050000Y-59000000D01*
X192250000Y-55200000D02*
X187050000Y-55200000D01*
D20*
X191950000Y-59400000D02*
G75*
G03*
X191950000Y-59400000I-100000J0D01*
G01*
D15*
X188231000Y-60983721D02*
X188231000Y-61309279D01*
X187211000Y-60983721D02*
X187211000Y-61309279D01*
X162137221Y-62315000D02*
X162462779Y-62315000D01*
X162137221Y-63335000D02*
X162462779Y-63335000D01*
X215278600Y-58002979D02*
X215278600Y-57677421D01*
X216298600Y-58002979D02*
X216298600Y-57677421D01*
X188177779Y-54165000D02*
X187852221Y-54165000D01*
X188177779Y-53145000D02*
X187852221Y-53145000D01*
X193235000Y-54035279D02*
X193235000Y-53709721D01*
X194255000Y-54035279D02*
X194255000Y-53709721D01*
X191048721Y-54424000D02*
X191374279Y-54424000D01*
X191048721Y-53404000D02*
X191374279Y-53404000D01*
X185945000Y-57986721D02*
X185945000Y-58312279D01*
X184925000Y-57986721D02*
X184925000Y-58312279D01*
X132990000Y-63308024D02*
X132990000Y-63633582D01*
X134010000Y-63308024D02*
X134010000Y-63633582D01*
X129438899Y-63743303D02*
X131238899Y-63743303D01*
X131238899Y-60523303D02*
X128788899Y-60523303D01*
X156495600Y-51523600D02*
X154210600Y-51523600D01*
X154210600Y-52993600D02*
X156495600Y-52993600D01*
X154210600Y-51523600D02*
X154210600Y-52993600D01*
X159190721Y-52794000D02*
X159516279Y-52794000D01*
X159190721Y-51774000D02*
X159516279Y-51774000D01*
X125594900Y-59935000D02*
X127879900Y-59935000D01*
X125594900Y-58465000D02*
X125594900Y-59935000D01*
X127879900Y-58465000D02*
X125594900Y-58465000D01*
X130900279Y-58690000D02*
X130574721Y-58690000D01*
X130900279Y-59710000D02*
X130574721Y-59710000D01*
X194661079Y-57691100D02*
X194335521Y-57691100D01*
X194661079Y-58711100D02*
X194335521Y-58711100D01*
D12*
X157800500Y-59134000D02*
X157800500Y-55504000D01*
X157695500Y-59134000D02*
X157800500Y-59134000D01*
X157695500Y-55504000D02*
X157800500Y-55504000D01*
X153540500Y-59134000D02*
X153540500Y-55504000D01*
X153540500Y-55504000D02*
X153645500Y-55504000D01*
X153540500Y-59134000D02*
X153645500Y-59134000D01*
D21*
X154525500Y-61069000D02*
G75*
G03*
X154525500Y-61069000I-125000J0D01*
G01*
D19*
X192917000Y-63446000D02*
X192217000Y-63446000D01*
X192917000Y-61946000D02*
X192217000Y-61946000D01*
D15*
X161096207Y-79606235D02*
X160770649Y-79606235D01*
X161096207Y-80626235D02*
X160770649Y-80626235D01*
X220471807Y-79699408D02*
X220146249Y-79699408D01*
X220471807Y-80719408D02*
X220146249Y-80719408D01*
X192024794Y-79670528D02*
X191699236Y-79670528D01*
X192024794Y-80690528D02*
X191699236Y-80690528D01*
X128167221Y-80710000D02*
X128492779Y-80710000D01*
X128167221Y-79690000D02*
X128492779Y-79690000D01*
X216934721Y-80710000D02*
X217260279Y-80710000D01*
X216934721Y-79690000D02*
X217260279Y-79690000D01*
X131792779Y-79690000D02*
X131467221Y-79690000D01*
X131792779Y-80710000D02*
X131467221Y-80710000D01*
X157589721Y-80650000D02*
X157915279Y-80650000D01*
X157589721Y-79630000D02*
X157915279Y-79630000D01*
X188484471Y-80704250D02*
X188810029Y-80704250D01*
X188484471Y-79684250D02*
X188810029Y-79684250D01*
X126910000Y-62858024D02*
X126910000Y-63183582D01*
X125890000Y-62858024D02*
X125890000Y-63183582D01*
M02*
